0
SECTION
2
HEADER
9
$INSUNITS
70
4
9
$ACADVER
1
AC1014
9
$HANDSEED
5
FFFF
0
ENDSEC
0
SECTION
2
TABLES
0
TABLE
2
VPORT
5
8
100
AcDbSymbolTable
0
ENDTAB
0
TABLE
2
LTYPE
5
5
100
AcDbSymbolTable
70
2
0
LTYPE
5
14
100
AcDbSymbolTableRecord
100
AcDbLinetypeTableRecord
2
BYBLOCK
70
0
0
LTYPE
5
15
100
AcDbSymbolTableRecord
100
AcDbLinetypeTableRecord
2
BYLAYER
70
0
0
ENDTAB
0
TABLE
2
LAYER
5
2
100
AcDbSymbolTable
70
3
0
LAYER
5
50
100
AcDbSymbolTableRecord
100
AcDbLayerTableRecord
2
0
70
0
6
CONTINUOUS
0
LAYER
5
51
100
AcDbSymbolTableRecord
100
AcDbLayerTableRecord
2
CUTOUTS
70
0
62
1
6
CONTINUOUS
0
LAYER
5
52
100
AcDbSymbolTableRecord
100
AcDbLayerTableRecord
2
PERIMETER
70
0
62
5
6
CONTINUOUS
0
ENDTAB
0
TABLE
2
STYLE
5
3
100
AcDbSymbolTable
70
1
0
STYLE
5
11
100
AcDbSymbolTableRecord
100
AcDbTextStyleTableRecord
2
STANDARD
70
0
0
ENDTAB
0
TABLE
2
VIEW
5
6
100
AcDbSymbolTable
0
ENDTAB
0
TABLE
2
UCS
5
7
100
AcDbSymbolTable
0
ENDTAB
0
TABLE
2
APPID
5
9
100
AcDbSymbolTable
70
1
0
APPID
5
12
100
AcDbSymbolTableRecord
100
AcDbRegAppTableRecord
2
ACAD
70
0
0
ENDTAB
0
TABLE
2
DIMSTYLE
5
A
100
AcDbSymbolTable
0
ENDTAB
0
TABLE
2
BLOCK_RECORD
5
1
100
AcDbSymbolTable
70
2
0
BLOCK_RECORD
5
1F
100
AcDbSymbolTableRecord
100
AcDbBlockTableRecord
2
*MODEL_SPACE
0
BLOCK_RECORD
5
1B
100
AcDbSymbolTableRecord
100
AcDbBlockTableRecord
2
*PAPER_SPACE
0
ENDTAB
0
ENDSEC
0
SECTION
2
BLOCKS
0
BLOCK
5
20
100
AcDbEntity
100
AcDbBlockBegin
2
*MODEL_SPACE
0
ENDBLK
5
21
100
AcDbEntity
100
AcDbBlockEnd
0
BLOCK
5
1C
100
AcDbEntity
100
AcDbBlockBegin
2
*PAPER_SPACE
0
ENDBLK
5
1D
100
AcDbEntity
100
AcDbBlockEnd
0
ENDSEC
0
SECTION
2
ENTITIES
0
LINE
5
100
100
AcDbEntity
8
PERIMETER
100
AcDbLine
10
-80.390000596046519
20
2.2941717969793555e-14
30
0
11
-80.390000596046519
21
-3.6399999999999744
31
0
0
LINE
5
101
100
AcDbEntity
8
PERIMETER
100
AcDbLine
10
-80.390000596046519
20
-3.6399999999999744
30
0
11
-83.610000596046518
21
-3.6399999999999744
31
0
0
LINE
5
102
100
AcDbEntity
8
PERIMETER
100
AcDbLine
10
-83.610000596046518
20
-3.6399999999999744
30
0
11
-83.610000596046518
21
2.2759572004815709e-14
31
0
0
LINE
5
103
100
AcDbEntity
8
PERIMETER
100
AcDbLine
10
-83.610000596046518
20
2.2759572004815709e-14
30
0
11
-83.610000595802831
21
0.041568599413431419
31
0
0
SPLINE
5
104
100
AcDbEntity
8
PERIMETER
100
AcDbSpline
70
4
71
2
72
6
73
3
74
0
42
0.000000001
43
0.0000000001
44
0.0000000001
40
-0.88276711249234685
40
-0.88276711249234685
40
-0.88276711249234685
40
-0.87976102638805398
40
-0.87976102638805398
40
-0.87976102638805398
41
1
41
1
41
1
10
-83.610000596046504
20
0.041568625849391028
30
0
10
-83.628738574004643
20
0.042634528696253664
30
0
10
-83.647378915685394
20
0.043727763427578087
30
0
0
LINE
5
105
100
AcDbEntity
8
PERIMETER
100
AcDbLine
10
-83.647378915685394
20
0.043727763427578087
30
0
11
-86.195409575561413
21
3.0245916165293756
31
0
0
LINE
5
106
100
AcDbEntity
8
PERIMETER
100
AcDbLine
10
-86.195409575561413
20
3.0245916165293756
30
0
11
-90.459263512712468
21
-1.2392623206218922
31
0
0
LINE
5
107
100
AcDbEntity
8
PERIMETER
100
AcDbLine
10
-90.459263512712468
20
-1.2392623206218922
30
0
11
-87.885394829189494
21
-3.8131310041327837
31
0
0
LINE
5
108
100
AcDbEntity
8
PERIMETER
100
AcDbLine
10
-87.885394829189494
20
-3.8131310041327837
30
0
11
-90.162278571427166
21
-6.0900147463713585
31
0
0
LINE
5
109
100
AcDbEntity
8
PERIMETER
100
AcDbLine
10
-90.162278571427166
20
-6.0900147463713585
30
0
11
-92.736147254941997
21
-3.5161460628485814
31
0
0
LINE
5
10A
100
AcDbEntity
8
PERIMETER
100
AcDbLine
10
-92.736147254941997
20
-3.5161460628485814
30
0
11
-97.000001192093038
21
-7.7799999999998883
31
0
0
SPLINE
5
10B
100
AcDbEntity
8
PERIMETER
100
AcDbSpline
70
4
71
2
72
6
73
3
74
0
42
0.000000001
43
0.0000000001
44
0.0000000001
40
0
40
0
40
0
40
0.89266673852501521
40
0.89266673852501521
40
0.89266673852501521
41
1
41
1
41
1
10
-97.000001192093038
20
-7.7799999999998883
30
0
10
-90.305000121084504
20
-14.475000538937564
30
0
10
-83.609999999999985
20
-15.193596782358531
30
0
0
LINE
5
10C
100
AcDbEntity
8
PERIMETER
100
AcDbLine
10
-83.609999999999985
20
-15.193596782358529
30
0
11
-83.610001192093023
21
-11.639999999999965
31
0
0
LINE
5
10D
100
AcDbEntity
8
PERIMETER
100
AcDbLine
10
-83.610001192093023
20
-11.639999999999965
30
0
11
-80.390001192093038
21
-11.639999999999965
31
0
0
LINE
5
10E
100
AcDbEntity
8
PERIMETER
100
AcDbLine
10
-80.390001192093038
20
-11.639999999999965
30
0
11
-80.390000000000001
21
-15.193596615687381
31
0
0
SPLINE
5
10F
100
AcDbEntity
8
PERIMETER
100
AcDbSpline
70
4
71
2
72
6
73
3
74
0
42
0.000000001
43
0.0000000001
44
0.0000000001
40
-0.89266663500254095
40
-0.89266663500254095
40
-0.89266663500254095
40
0
40
0
40
0
41
1
41
1
41
1
10
-80.390000000000001
20
-15.193596615687381
30
0
10
-73.694999762519046
20
-14.474999762519008
30
0
10
-67
20
-7.7799999999998883
30
0
0
LINE
5
110
100
AcDbEntity
8
PERIMETER
100
AcDbLine
10
-67
20
-7.7799999999998892
30
0
11
-71.263853937136446
21
-3.5161460629023815
31
0
0
LINE
5
111
100
AcDbEntity
8
PERIMETER
100
AcDbLine
10
-71.263853937136446
20
-3.5161460629023815
30
0
11
-73.837722620657587
21
-6.0900147464235204
31
0
0
LINE
5
112
100
AcDbEntity
8
PERIMETER
100
AcDbLine
10
-73.837722620657587
20
-6.0900147464235204
30
0
11
-76.114606362903515
21
-3.8131310041327824
31
0
0
LINE
5
113
100
AcDbEntity
8
PERIMETER
100
AcDbLine
10
-76.114606362903515
20
-3.8131310041327824
30
0
11
-73.540737679380555
21
-1.2392623206218922
31
0
0
LINE
5
114
100
AcDbEntity
8
PERIMETER
100
AcDbLine
10
-73.540737679380555
20
-1.2392623206218922
30
0
11
-77.80459161653161
21
3.0245916165293756
31
0
0
LINE
5
115
100
AcDbEntity
8
PERIMETER
100
AcDbLine
10
-77.80459161653161
20
3.0245916165293756
30
0
11
-80.352622300755939
21
0.043727734943233565
31
0
0
SPLINE
5
116
100
AcDbEntity
8
PERIMETER
100
AcDbSpline
70
4
71
2
72
6
73
3
74
0
42
0.000000001
43
0.0000000001
44
0.0000000001
40
0.87976106555000133
40
0.87976106555000133
40
0.87976106555000133
40
0.88276714976693027
40
0.88276714976693027
40
0.88276714976693027
41
1
41
1
41
1
10
-80.352622300755939
20
0.043727734943234967
30
0
10
-80.371262630429044
20
0.04263450125436271
30
0
10
-80.390000596251511
20
0.041568599415631728
30
0
0
LINE
5
117
100
AcDbEntity
8
PERIMETER
100
AcDbLine
10
-80.390000596251511
20
0.041568599415631721
30
0
11
-80.390000596046519
21
2.2941717969793555e-14
31
0
0
ENDSEC
0
SECTION
2
OBJECTS
0
DICTIONARY
5
C
100
AcDbDictionary
3
ACAD_GROUP
350
D
3
ACAD_MLINESTYLE
350
17
0
DICTIONARY
5
D
100
AcDbDictionary
0
DICTIONARY
5
1A
330
C
100
AcDbDictionary
0
DICTIONARY
5
17
100
AcDbDictionary
0
ENDSEC
0
EOF
