0
SECTION
2
HEADER
9
$INSUNITS
70
4
9
$ACADVER
1
AC1014
9
$HANDSEED
5
FFFF
0
ENDSEC
0
SECTION
2
TABLES
0
TABLE
2
VPORT
5
8
100
AcDbSymbolTable
0
ENDTAB
0
TABLE
2
LTYPE
5
5
100
AcDbSymbolTable
70
2
0
LTYPE
5
14
100
AcDbSymbolTableRecord
100
AcDbLinetypeTableRecord
2
BYBLOCK
70
0
0
LTYPE
5
15
100
AcDbSymbolTableRecord
100
AcDbLinetypeTableRecord
2
BYLAYER
70
0
0
ENDTAB
0
TABLE
2
LAYER
5
2
100
AcDbSymbolTable
70
3
0
LAYER
5
50
100
AcDbSymbolTableRecord
100
AcDbLayerTableRecord
2
0
70
0
6
CONTINUOUS
0
LAYER
5
51
100
AcDbSymbolTableRecord
100
AcDbLayerTableRecord
2
CUTOUTS
70
0
62
1
6
CONTINUOUS
0
LAYER
5
52
100
AcDbSymbolTableRecord
100
AcDbLayerTableRecord
2
PERIMETER
70
0
62
5
6
CONTINUOUS
0
ENDTAB
0
TABLE
2
STYLE
5
3
100
AcDbSymbolTable
70
1
0
STYLE
5
11
100
AcDbSymbolTableRecord
100
AcDbTextStyleTableRecord
2
STANDARD
70
0
0
ENDTAB
0
TABLE
2
VIEW
5
6
100
AcDbSymbolTable
0
ENDTAB
0
TABLE
2
UCS
5
7
100
AcDbSymbolTable
0
ENDTAB
0
TABLE
2
APPID
5
9
100
AcDbSymbolTable
70
1
0
APPID
5
12
100
AcDbSymbolTableRecord
100
AcDbRegAppTableRecord
2
ACAD
70
0
0
ENDTAB
0
TABLE
2
DIMSTYLE
5
A
100
AcDbSymbolTable
0
ENDTAB
0
TABLE
2
BLOCK_RECORD
5
1
100
AcDbSymbolTable
70
2
0
BLOCK_RECORD
5
1F
100
AcDbSymbolTableRecord
100
AcDbBlockTableRecord
2
*MODEL_SPACE
0
BLOCK_RECORD
5
1B
100
AcDbSymbolTableRecord
100
AcDbBlockTableRecord
2
*PAPER_SPACE
0
ENDTAB
0
ENDSEC
0
SECTION
2
BLOCKS
0
BLOCK
5
20
100
AcDbEntity
100
AcDbBlockBegin
2
*MODEL_SPACE
0
ENDBLK
5
21
100
AcDbEntity
100
AcDbBlockEnd
0
BLOCK
5
1C
100
AcDbEntity
100
AcDbBlockBegin
2
*PAPER_SPACE
0
ENDBLK
5
1D
100
AcDbEntity
100
AcDbBlockEnd
0
ENDSEC
0
SECTION
2
ENTITIES
0
LINE
5
100
100
AcDbEntity
8
PERIMETER
100
AcDbLine
10
-22.243368198406728
20
-0.76994160199643091
30
0
11
-23.853368198413083
21
-3.5585434021946782
31
-8.6736173798840355e-18
0
LINE
5
101
100
AcDbEntity
8
PERIMETER
100
AcDbLine
10
-23.853368198413083
20
-3.5585434021946782
30
-8.6736173798840355e-18
11
-27.005700668190194
21
-1.7385434021973214
31
8.6736173798840355e-18
0
LINE
5
102
100
AcDbEntity
8
PERIMETER
100
AcDbLine
10
-27.005700668190194
20
-1.7385434021973214
30
8.6736173798840355e-18
11
-30.020700668187917
21
-6.9606765870138982
31
-8.6736173798840355e-18
0
SPLINE
5
103
100
AcDbEntity
8
PERIMETER
100
AcDbSpline
70
4
71
2
72
6
73
3
74
0
42
0.000000001
43
0.0000000001
44
0.0000000001
40
0
40
0
40
0
40
0.44862706179246303
40
0.44862706179246303
40
0.44862706179246303
41
1
41
1
41
1
10
-30.020700668187917
20
-6.9606765870139018
30
2.7755575615628914e-16
10
-23.291294741300945
20
-10.845900910388352
30
0
10
-16.561888694449934
20
-12.98810846116271
30
0
0
LINE
5
104
100
AcDbEntity
8
PERIMETER
100
AcDbLine
10
-16.561888694449934
20
-12.988108461162708
30
1.0494634873356666e-32
11
-15.612541285162397
21
-9.5199523952211944
31
1.7347234759768071e-17
0
LINE
5
105
100
AcDbEntity
8
PERIMETER
100
AcDbLine
10
-15.612541285162397
20
-9.5199523952211944
30
1.7347234759768071e-17
11
-12.506795728938197
21
-10.370096230050919
31
2.699663409488906e-16
0
LINE
5
106
100
AcDbEntity
8
PERIMETER
100
AcDbLine
10
-12.506795728938197
20
-10.370096230050919
30
2.699663409488906e-16
11
-13.467827878091313
21
-13.880938989033599
31
-8.6736173798840355e-18
0
SPLINE
5
107
100
AcDbEntity
8
PERIMETER
100
AcDbSpline
70
4
71
2
72
6
73
3
74
0
42
0.000000001
43
0.0000000001
44
0.0000000001
40
0.5517624202918604
40
0.5517624202918604
40
0.5517624202918604
40
0.946333315540416
40
0.946333315540416
40
0.946333315540416
41
1
41
1
41
1
10
-13.467827877970587
20
-13.880938989064845
30
0
10
-7.5492643194773041
20
-15.412604535507999
30
0
10
-1.630700668187808
20
-15.595988114439745
30
0
0
LINE
5
108
100
AcDbEntity
8
PERIMETER
100
AcDbLine
10
-1.6307006681878087
20
-15.595988114439745
30
0
11
-1.630699476094764
21
-11.980930624858308
31
1.3010426069826053e-17
0
LINE
5
109
100
AcDbEntity
8
PERIMETER
100
AcDbLine
10
-1.630699476094764
20
-11.980930624858308
30
1.3010426069826053e-17
11
1.5893005239052447
21
-11.98093062485831
31
-2.8209585275357218e-16
0
LINE
5
10A
100
AcDbEntity
8
PERIMETER
100
AcDbLine
10
1.5893005239052447
20
-11.98093062485831
30
-2.8209585275357218e-16
11
1.5892993318122057
21
-15.595988167915218
31
-1.3010426069826053e-17
0
SPLINE
5
10B
100
AcDbEntity
8
PERIMETER
100
AcDbSpline
70
4
71
2
72
6
73
3
74
0
42
0.000000001
43
0.0000000001
44
0.0000000001
40
-0.94633337306976795
40
-0.94633337306976795
40
-0.94633337306976795
40
-0.55176242594043468
40
-0.55176242594043468
40
-0.55176242594043468
41
1
41
1
41
1
10
1.5892993318122042
20
-15.59598816791522
30
-2.7755575615628914e-16
10
7.5078635387522272
20
-15.412604761453661
30
0
10
13.426427745692246
20
-13.880939032918693
30
0
0
LINE
5
10C
100
AcDbEntity
8
PERIMETER
100
AcDbLine
10
13.426427745692248
20
-13.880939032918693
30
-5.7765885191566058e-32
11
12.46539558465564
21
-10.370096230050915
31
2.1684043449710089e-17
0
LINE
5
10D
100
AcDbEntity
8
PERIMETER
100
AcDbLine
10
12.46539558465564
20
-10.370096230050915
30
2.1684043449710089e-17
11
15.571141140879831
21
-9.5199523952211944
31
0
0
LINE
5
10E
100
AcDbEntity
8
PERIMETER
100
AcDbLine
10
15.571141140879831
20
-9.5199523952211944
30
0
11
16.520488561205614
21
-12.988108495837636
31
-1.3010426069826053e-17
0
SPLINE
5
10F
100
AcDbEntity
8
PERIMETER
100
AcDbSpline
70
4
71
2
72
6
73
3
74
0
42
0.000000001
43
0.0000000001
44
0.0000000001
40
-0.44862706542332281
40
-0.44862706542332281
40
-0.44862706542332281
40
0
40
0
40
0
41
1
41
1
41
1
10
16.520488561205614
20
-12.988108495837636
30
2.7755575615628914e-16
10
23.249894542555491
20
-10.845900941832518
30
0
10
29.979300523905351
20
-6.9606765870139
30
2.7755575615628914e-16
0
LINE
5
110
100
AcDbEntity
8
PERIMETER
100
AcDbLine
10
29.979300523905351
20
-6.9606765870139
30
2.7755575615628918e-16
11
26.964300523907646
21
-1.7385434021973212
31
2.9490299091605721e-16
0
LINE
5
111
100
AcDbEntity
8
PERIMETER
100
AcDbLine
10
26.964300523907646
20
-1.7385434021973212
30
2.9490299091605721e-16
11
23.811968054130531
21
-3.5585434021946782
31
-2.1684043449710089e-18
0
LINE
5
112
100
AcDbEntity
8
PERIMETER
100
AcDbLine
10
23.811968054130531
20
-3.5585434021946782
30
-2.1684043449710089e-18
11
22.201968054124176
21
-0.76994160199643225
31
8.6736173798840355e-18
0
LINE
5
113
100
AcDbEntity
8
PERIMETER
100
AcDbLine
10
22.201968054124176
20
-0.76994160199643225
30
8.6736173798840355e-18
11
25.354300523901667
21
1.0500583979949494
31
2.7972416050126014e-16
0
LINE
5
114
100
AcDbEntity
8
PERIMETER
100
AcDbLine
10
25.354300523901667
20
1.0500583979949494
30
2.7972416050126014e-16
11
22.339300523903923
21
6.2721915828115034
31
2.9490299091605721e-16
0
SPLINE
5
115
100
AcDbEntity
8
PERIMETER
100
AcDbSpline
70
4
71
2
72
6
73
3
74
0
42
0.000000001
43
0.0000000001
44
0.0000000001
40
0
40
0
40
0
40
0.44982186113720229
40
0.44982186113720229
40
0.44982186113720229
41
1
41
1
41
1
10
22.339300523903919
20
6.272191582811506
30
0
10
19.028611625934737
20
3.2974646434297021
30
0
10
14.172047368342264
20
1.660834912295597
30
0
0
LINE
5
116
100
AcDbEntity
8
PERIMETER
100
AcDbLine
10
14.172047368342263
20
1.6608349122955972
30
0
11
15.146551855118462
21
-1.899224992116866
31
-8.6736173798840355e-18
0
LINE
5
117
100
AcDbEntity
8
PERIMETER
100
AcDbLine
10
15.146551855118462
20
-1.899224992116866
30
-8.6736173798840355e-18
11
12.040806298873362
21
-2.7493688269259673
31
0
0
LINE
5
118
100
AcDbEntity
8
PERIMETER
100
AcDbLine
10
12.040806298873362
20
-2.7493688269259673
30
0
11
11.072376619125929
21
0.7884985916727616
31
8.6736173798840355e-18
0
SPLINE
5
119
100
AcDbEntity
8
PERIMETER
100
AcDbSpline
70
4
71
2
72
6
73
3
74
0
42
0.000000001
43
0.0000000001
44
0.0000000001
40
0.58673727519161656
40
0.58673727519161656
40
0.58673727519161656
40
0.94557910389166966
40
0.94557910389166966
40
0.94557910389166966
41
1
41
1
41
1
10
11.072376619125928
20
0.78849859167276171
30
2.7755575615628914e-16
10
6.8227302611704115
20
-0.19220066116984039
30
0
10
1.5893005239052485
20
-0.32134497772345805
30
0
0
LINE
5
11A
100
AcDbEntity
8
PERIMETER
100
AcDbLine
10
1.5893005239052482
20
-0.32134497772345805
30
-1.3566408445532269e-33
11
1.5892993318122108
21
-0.34093062485831416
31
-3.3881317890172014e-20
0
LINE
5
11B
100
AcDbEntity
8
PERIMETER
100
AcDbLine
10
1.5892993318122108
20
-0.34093062485831416
30
-3.3881317890172014e-20
11
1.5892993318122097
21
-3.9809306248583143
31
2.6454533008646308e-16
0
LINE
5
11C
100
AcDbEntity
8
PERIMETER
100
AcDbLine
10
1.5892993318122097
20
-3.9809306248583143
30
2.6454533008646308e-16
11
-1.6307006681878036
21
-3.9809306248583152
31
2.7897877150767636e-16
0
LINE
5
11D
100
AcDbEntity
8
PERIMETER
100
AcDbLine
10
-1.6307006681878036
20
-3.9809306248583152
30
2.7897877150767636e-16
11
-1.6306994760947646
21
-0.34093062485831493
31
1.3010426069826053e-17
0
LINE
5
11E
100
AcDbEntity
8
PERIMETER
100
AcDbLine
10
-1.6306994760947646
20
-0.34093062485831493
30
1.3010426069826053e-17
11
-1.63069947597995
21
-0.32134500714332537
31
6.7762635780344027e-20
0
SPLINE
5
11F
100
AcDbEntity
8
PERIMETER
100
AcDbSpline
70
4
71
2
72
6
73
3
74
0
42
0.000000001
43
0.0000000001
44
0.0000000001
40
-0.94557914476481186
40
-0.94557914476481186
40
-0.94557914476481186
40
-0.58673727519161656
40
-0.58673727519161656
40
-0.58673727519161656
41
1
41
1
41
1
10
-1.6306994759816382
20
-0.32134500714328379
30
0
10
-6.8641299214057137
20
-0.19220077287437656
30
0
10
-11.113776763408476
20
0.78849859167276171
30
2.7755575615628914e-16
0
LINE
5
120
100
AcDbEntity
8
PERIMETER
100
AcDbLine
10
-11.113776763408474
20
0.78849859167276148
30
2.7755575615628914e-16
11
-11.12117428202475
21
0.76147397580282772
31
2.7745411220261862e-16
0
LINE
5
121
100
AcDbEntity
8
PERIMETER
100
AcDbLine
10
-11.12117428202475
20
0.76147397580282772
30
2.7745411220261862e-16
11
-11.420053117693744
21
-0.33039022613002955
31
2.7538735181131813e-16
0
LINE
5
122
100
AcDbEntity
8
PERIMETER
100
AcDbLine
10
-11.420053117693744
20
-0.33039022613002955
30
2.7538735181131813e-16
11
-12.08220644315592
21
-2.7493688269259664
31
-8.6736173798840355e-18
0
LINE
5
123
100
AcDbEntity
8
PERIMETER
100
AcDbLine
10
-12.08220644315592
20
-2.7493688269259664
30
-8.6736173798840355e-18
11
-15.187951999401017
21
-1.8992249921168658
31
2.8622937353617317e-16
0
LINE
5
124
100
AcDbEntity
8
PERIMETER
100
AcDbLine
10
-15.187951999401017
20
-1.8992249921168658
30
2.8622937353617317e-16
11
-14.213447512624771
21
1.6608349122955854
31
1.3010426069826053e-17
0
SPLINE
5
125
100
AcDbEntity
8
PERIMETER
100
AcDbSpline
70
4
71
2
72
6
73
3
74
0
42
0.000000001
43
0.0000000001
44
0.0000000001
40
-0.44982186113720229
40
-0.44982186113720229
40
-0.44982186113720229
40
0
40
0
40
0
41
1
41
1
41
1
10
-14.213447512624811
20
1.6608349122955968
30
2.7755575615628914e-16
10
-19.070011770217281
20
3.2974646434297021
30
2.7755575615628914e-16
10
-22.380700668186467
20
6.2721915828115034
30
2.7755575615628914e-16
0
LINE
5
126
100
AcDbEntity
8
PERIMETER
100
AcDbLine
10
-22.380700668186464
20
6.2721915828115034
30
2.7755575615628914e-16
11
-25.395700668184219
21
1.0500583979949518
31
2.6020852139652106e-16
0
LINE
5
127
100
AcDbEntity
8
PERIMETER
100
AcDbLine
10
-25.395700668184219
20
1.0500583979949518
30
2.6020852139652106e-16
11
-22.243368198406728
21
-0.76994160199643091
31
0
0
ENDSEC
0
SECTION
2
OBJECTS
0
DICTIONARY
5
C
100
AcDbDictionary
3
ACAD_GROUP
350
D
3
ACAD_MLINESTYLE
350
17
0
DICTIONARY
5
D
100
AcDbDictionary
0
DICTIONARY
5
1A
330
C
100
AcDbDictionary
0
DICTIONARY
5
17
100
AcDbDictionary
0
ENDSEC
0
EOF
