0
SECTION
2
HEADER
9
$INSUNITS
70
4
9
$ACADVER
1
AC1014
9
$HANDSEED
5
FFFF
0
ENDSEC
0
SECTION
2
TABLES
0
TABLE
2
VPORT
5
8
100
AcDbSymbolTable
0
ENDTAB
0
TABLE
2
LTYPE
5
5
100
AcDbSymbolTable
70
2
0
LTYPE
5
14
100
AcDbSymbolTableRecord
100
AcDbLinetypeTableRecord
2
BYBLOCK
70
0
0
LTYPE
5
15
100
AcDbSymbolTableRecord
100
AcDbLinetypeTableRecord
2
BYLAYER
70
0
0
ENDTAB
0
TABLE
2
LAYER
5
2
100
AcDbSymbolTable
70
3
0
LAYER
5
50
100
AcDbSymbolTableRecord
100
AcDbLayerTableRecord
2
0
70
0
6
CONTINUOUS
0
LAYER
5
51
100
AcDbSymbolTableRecord
100
AcDbLayerTableRecord
2
CUTOUTS
70
0
62
1
6
CONTINUOUS
0
LAYER
5
52
100
AcDbSymbolTableRecord
100
AcDbLayerTableRecord
2
PERIMETER
70
0
62
5
6
CONTINUOUS
0
ENDTAB
0
TABLE
2
STYLE
5
3
100
AcDbSymbolTable
70
1
0
STYLE
5
11
100
AcDbSymbolTableRecord
100
AcDbTextStyleTableRecord
2
STANDARD
70
0
0
ENDTAB
0
TABLE
2
VIEW
5
6
100
AcDbSymbolTable
0
ENDTAB
0
TABLE
2
UCS
5
7
100
AcDbSymbolTable
0
ENDTAB
0
TABLE
2
APPID
5
9
100
AcDbSymbolTable
70
1
0
APPID
5
12
100
AcDbSymbolTableRecord
100
AcDbRegAppTableRecord
2
ACAD
70
0
0
ENDTAB
0
TABLE
2
DIMSTYLE
5
A
100
AcDbSymbolTable
0
ENDTAB
0
TABLE
2
BLOCK_RECORD
5
1
100
AcDbSymbolTable
70
2
0
BLOCK_RECORD
5
1F
100
AcDbSymbolTableRecord
100
AcDbBlockTableRecord
2
*MODEL_SPACE
0
BLOCK_RECORD
5
1B
100
AcDbSymbolTableRecord
100
AcDbBlockTableRecord
2
*PAPER_SPACE
0
ENDTAB
0
ENDSEC
0
SECTION
2
BLOCKS
0
BLOCK
5
20
100
AcDbEntity
100
AcDbBlockBegin
2
*MODEL_SPACE
0
ENDBLK
5
21
100
AcDbEntity
100
AcDbBlockEnd
0
BLOCK
5
1C
100
AcDbEntity
100
AcDbBlockBegin
2
*PAPER_SPACE
0
ENDBLK
5
1D
100
AcDbEntity
100
AcDbBlockEnd
0
ENDSEC
0
SECTION
2
ENTITIES
0
SPLINE
5
100
100
AcDbEntity
8
PERIMETER
100
AcDbSpline
70
4
71
2
72
6
73
3
74
0
42
0.000000001
43
0.0000000001
44
0.0000000001
40
0
40
0
40
0
40
0.47010645549925328
40
0.47010645549925328
40
0.47010645549925328
41
1
41
1
41
1
10
-30.941163948317765
20
2.3020972962244954
30
0
10
-39.095938842492558
20
0.75337761131439196
30
0
10
-47.837103137540289
20
-0.067278951960703923
30
0
0
LINE
5
101
100
AcDbEntity
8
PERIMETER
100
AcDbLine
10
-47.837103137540289
20
-0.067278951960703923
30
0
11
-47.52945904909879
21
-3.7025501075104188
31
2.2291196666301971e-15
0
LINE
5
102
100
AcDbEntity
8
PERIMETER
100
AcDbLine
10
-47.52945904909879
20
-3.7025501075104188
30
2.2291196666301971e-15
11
-50.737990082939326
21
-3.9740802253259986
31
1.3877787807814457e-16
0
LINE
5
103
100
AcDbEntity
8
PERIMETER
100
AcDbLine
10
-50.737990082939326
20
-3.9740802253259986
30
1.3877787807814457e-16
11
-51.044937172653569
21
-0.34704514359002625
31
2.203098814490545e-15
0
LINE
5
104
100
AcDbEntity
8
PERIMETER
100
AcDbLine
10
-51.044937172653569
20
-0.34704514359002625
30
2.203098814490545e-15
11
-51.045327974176395
21
-0.34242724396084506
31
2.2204375789208405e-15
0
SPLINE
5
105
100
AcDbEntity
8
PERIMETER
100
AcDbSpline
70
4
71
2
72
6
73
3
74
0
42
0.000000001
43
0.0000000001
44
0.0000000001
40
0.55585225428168628
40
0.55585225428168628
40
0.55585225428168628
40
0.95964195889621495
40
0.95964195889621495
40
0.95964195889621495
41
1
41
1
41
1
10
-51.045327974176402
20
-0.34242724396084701
30
0
10
-58.645265391207204
20
-0.93325284748146409
30
2.2204460492503131e-15
10
-66.677820389611327
20
-0.98693895581347679
30
2.2204460492503131e-15
0
LINE
5
106
100
AcDbEntity
8
PERIMETER
100
AcDbLine
10
-66.677820389611327
20
-0.9869389558134769
30
2.2204460492503127e-15
11
-66.677820389611952
21
-4.6323047839710636
31
2.2377932840100812e-15
0
LINE
5
107
100
AcDbEntity
8
PERIMETER
100
AcDbLine
10
-66.677820389611952
20
-4.6323047839710636
30
2.2377932840100812e-15
11
-69.897820389611951
21
-4.6323047839710645
31
6.9388939039072284e-17
0
LINE
5
108
100
AcDbEntity
8
PERIMETER
100
AcDbLine
10
-69.897820389611951
20
-4.6323047839710645
30
6.9388939039072284e-17
11
-69.897820389611965
21
-0.98693895948213872
31
2.1684043449710089e-15
0
SPLINE
5
109
100
AcDbEntity
8
PERIMETER
100
AcDbSpline
70
4
71
2
72
6
73
3
74
0
42
0.000000001
43
0.0000000001
44
0.0000000001
40
-0.95964197269275431
40
-0.95964197269275431
40
-0.95964197269275431
40
-0.55585225914202196
40
-0.55585225914202196
40
-0.55585225914202196
41
1
41
1
41
1
10
-69.897820389612605
20
-0.98693895948213206
30
0
10
-77.930375349601206
20
-0.93325286831478615
30
0
10
-85.530312806251189
20
-0.34242725818413933
30
4.4408920985006262e-15
0
LINE
5
10A
100
AcDbEntity
8
PERIMETER
100
AcDbLine
10
-85.530312806251189
20
-0.34242725818413933
30
4.4408920985006262e-15
11
-85.530703606570327
21
-0.34704514359002375
31
4.4409259798185163e-15
0
LINE
5
10B
100
AcDbEntity
8
PERIMETER
100
AcDbLine
10
-85.530703606570327
20
-0.34704514359002375
30
4.4409259798185163e-15
11
-85.837650696284953
21
-3.9740802253323904
31
4.4755865680201623e-15
0
LINE
5
10C
100
AcDbEntity
8
PERIMETER
100
AcDbLine
10
-85.837650696284953
20
-3.9740802253323904
30
4.4755865680201623e-15
11
-89.046181730125113
21
-3.7025501075104672
31
2.2204460492503131e-15
0
LINE
5
10D
100
AcDbEntity
8
PERIMETER
100
AcDbLine
10
-89.046181730125113
20
-3.7025501075104672
30
2.2204460492503131e-15
11
-88.73853764272198
21
-0.067278964230232385
31
4.40619762898109e-15
0
SPLINE
5
10E
100
AcDbEntity
8
PERIMETER
100
AcDbSpline
70
4
71
2
72
6
73
3
74
0
42
0.000000001
43
0.0000000001
44
0.0000000001
40
-0.47010645901350268
40
-0.47010645901350268
40
-0.47010645901350268
40
0
40
0
40
0
41
1
41
1
41
1
10
-88.738537642721994
20
-0.067278964230231483
30
0
10
-97.479701875770871
20
0.75337759973704754
30
2.2204460492503131e-15
10
-105.63447683090617
20
2.3020972962244994
30
4.4408920985006262e-15
0
LINE
5
10F
100
AcDbEntity
8
PERIMETER
100
AcDbLine
10
-105.63447683090617
20
2.3020972962244994
30
4.4408920985006254e-15
11
-106.68157534223658
21
-3.6362934544413719
31
4.5102810375396984e-15
0
LINE
5
110
100
AcDbEntity
8
PERIMETER
100
AcDbLine
10
-106.68157534223658
20
-3.6362934544413719
30
4.5102810375396984e-15
11
-103.09687512127766
21
-4.2683728211438883
31
4.4408920985006262e-15
0
LINE
5
111
100
AcDbEntity
8
PERIMETER
100
AcDbLine
10
-103.09687512127766
20
-4.2683728211438883
30
4.4408920985006262e-15
11
-103.65602225336148
21
-7.4394537858406062
31
4.4755865680201623e-15
0
LINE
5
112
100
AcDbEntity
8
PERIMETER
100
AcDbLine
10
-103.65602225336148
20
-7.4394537858406062
30
4.4755865680201623e-15
11
-107.24072247432809
21
-6.8073744191358676
31
2.3592239273284576e-15
0
LINE
5
113
100
AcDbEntity
8
PERIMETER
100
AcDbLine
10
-107.24072247432809
20
-6.8073744191358676
30
2.3592239273284576e-15
11
-108.28782098565846
21
-12.745765169801736
31
4.4408920985006262e-15
0
SPLINE
5
114
100
AcDbEntity
8
PERIMETER
100
AcDbSpline
70
4
71
2
72
6
73
3
74
0
42
0.000000001
43
0.0000000001
44
0.0000000001
40
0
40
0
40
0
40
0.45991717303908691
40
0.45991717303908691
40
0.45991717303908691
41
1
41
1
41
1
10
-108.28782098565846
20
-12.745765169801739
30
0
10
-99.089477524876756
20
-14.367681299760841
30
2.2204460492503131e-15
10
-89.891134064094985
20
-15.243650348322655
30
0
0
LINE
5
115
100
AcDbEntity
8
PERIMETER
100
AcDbLine
10
-89.891134064094985
20
-15.243650348322655
30
2.5745383398122035e-31
11
-89.585139412858567
21
-11.627869739788892
31
4.40619762898109e-15
0
LINE
5
116
100
AcDbEntity
8
PERIMETER
100
AcDbLine
10
-89.585139412858567
20
-11.627869739788892
30
4.40619762898109e-15
11
-86.376608379018464
21
-11.899399857614476
31
2.0816681711721685e-15
0
LINE
5
117
100
AcDbEntity
8
PERIMETER
100
AcDbLine
10
-86.376608379018464
20
-11.899399857614476
30
2.0816681711721685e-15
11
-86.68355546873839
21
-15.526434939340701
31
4.4408920985006262e-15
0
SPLINE
5
118
100
AcDbEntity
8
PERIMETER
100
AcDbSpline
70
4
71
2
72
6
73
3
74
0
42
0.000000001
43
0.0000000001
44
0.0000000001
40
0.54010663792300195
40
0.54010663792300195
40
0.54010663792300195
40
0.95974999999999999
40
0.95974999999999999
40
0.95974999999999999
41
1
41
1
41
1
10
-86.68355546873839
20
-15.526434939341311
30
4.4408920985006262e-15
10
-78.290688227198444
20
-16.207026039544814
30
2.2204460492503131e-15
10
-69.897820985658484
20
-16.266591569387369
30
2.2204460492503131e-15
0
LINE
5
119
100
AcDbEntity
8
PERIMETER
100
AcDbLine
10
-69.89782098565847
20
-16.266591569387369
30
2.2204460492503127e-15
11
-69.897819793565446
21
-12.632304783971053
31
2.203098814490545e-15
0
LINE
5
11A
100
AcDbEntity
8
PERIMETER
100
AcDbLine
10
-69.897819793565446
20
-12.632304783971053
30
2.203098814490545e-15
11
-66.677819793565462
21
-12.632304783971055
31
2.0816681711721685e-15
0
LINE
5
11B
100
AcDbEntity
8
PERIMETER
100
AcDbLine
10
-66.677819793565462
20
-12.632304783971055
30
2.0816681711721685e-15
11
-66.677820985658485
21
-16.266591577847848
31
2.2204460492503131e-15
0
SPLINE
5
11C
100
AcDbEntity
8
PERIMETER
100
AcDbSpline
70
4
71
2
72
6
73
3
74
0
42
0.000000001
43
0.0000000001
44
0.0000000001
40
-0.95975002980232593
40
-0.95975002980232593
40
-0.95975002980232593
40
-0.54010663792300206
40
-0.54010663792300206
40
-0.54010663792300206
41
1
41
1
41
1
10
-66.677820985658485
20
-16.266591577847848
30
4.4408920985006262e-15
10
-58.284953148072006
20
-16.207026087879186
30
2.2204460492503131e-15
10
-49.892085310485534
20
-15.526434939341309
30
0
0
LINE
5
11D
100
AcDbEntity
8
PERIMETER
100
AcDbLine
10
-49.892085310485527
20
-15.526434939341309
30
-4.3685504877935221e-31
11
-50.199032400205461
21
-11.899399857614469
31
2.211772431870429e-15
0
LINE
5
11E
100
AcDbEntity
8
PERIMETER
100
AcDbLine
10
-50.199032400205461
20
-11.899399857614469
30
2.211772431870429e-15
11
-46.990501366365429
21
-11.62786973978883
31
2.1510571102112408e-15
0
LINE
5
11F
100
AcDbEntity
8
PERIMETER
100
AcDbLine
10
-46.990501366365429
20
-11.62786973978883
30
2.1510571102112408e-15
11
-46.68450671512894
21
-15.24365034832266
31
2.2291196666301971e-15
0
SPLINE
5
120
100
AcDbEntity
8
PERIMETER
100
AcDbSpline
70
4
71
2
72
6
73
3
74
0
42
0.000000001
43
0.0000000001
44
0.0000000001
40
-0.45991717303908691
40
-0.45991717303908691
40
-0.45991717303908691
40
0
40
0
40
0
41
1
41
1
41
1
10
-46.684506715128933
20
-15.243650348322655
30
2.2204460492503131e-15
10
-37.486163254347197
20
-14.367681299760843
30
0
10
-28.287819793565461
20
-12.745765169801739
30
0
0
LINE
5
121
100
AcDbEntity
8
PERIMETER
100
AcDbLine
10
-28.287819793565458
20
-12.745765169801739
30
-5.4493823982772367e-32
11
-29.33491830489583
21
-6.8073744191358534
31
0
0
LINE
5
122
100
AcDbEntity
8
PERIMETER
100
AcDbLine
10
-29.33491830489583
20
-6.8073744191358534
30
0
11
-32.919618525862411
21
-7.4394537858405974
31
6.9388939039072284e-17
0
LINE
5
123
100
AcDbEntity
8
PERIMETER
100
AcDbLine
10
-32.919618525862411
20
-7.4394537858405974
30
6.9388939039072284e-17
11
-33.478765657946255
21
-4.2683728211438989
31
2.4651903288156619e-31
0
LINE
5
124
100
AcDbEntity
8
PERIMETER
100
AcDbLine
10
-33.478765657946255
20
-4.2683728211438989
30
2.4651903288156619e-31
11
-29.894065436987351
21
-3.6362934544413816
31
-6.9388939039072284e-17
0
LINE
5
125
100
AcDbEntity
8
PERIMETER
100
AcDbLine
10
-29.894065436987351
20
-3.6362934544413816
30
-6.9388939039072284e-17
11
-30.941163948317765
21
2.3020972962244954
31
0
0
ENDSEC
0
SECTION
2
OBJECTS
0
DICTIONARY
5
C
100
AcDbDictionary
3
ACAD_GROUP
350
D
3
ACAD_MLINESTYLE
350
17
0
DICTIONARY
5
D
100
AcDbDictionary
0
DICTIONARY
5
1A
330
C
100
AcDbDictionary
0
DICTIONARY
5
17
100
AcDbDictionary
0
ENDSEC
0
EOF
