0
SECTION
2
HEADER
9
$INSUNITS
70
4
9
$ACADVER
1
AC1014
9
$HANDSEED
5
FFFF
0
ENDSEC
0
SECTION
2
TABLES
0
TABLE
2
VPORT
5
8
100
AcDbSymbolTable
0
ENDTAB
0
TABLE
2
LTYPE
5
5
100
AcDbSymbolTable
70
2
0
LTYPE
5
14
100
AcDbSymbolTableRecord
100
AcDbLinetypeTableRecord
2
BYBLOCK
70
0
0
LTYPE
5
15
100
AcDbSymbolTableRecord
100
AcDbLinetypeTableRecord
2
BYLAYER
70
0
0
ENDTAB
0
TABLE
2
LAYER
5
2
100
AcDbSymbolTable
70
3
0
LAYER
5
50
100
AcDbSymbolTableRecord
100
AcDbLayerTableRecord
2
0
70
0
6
CONTINUOUS
0
LAYER
5
51
100
AcDbSymbolTableRecord
100
AcDbLayerTableRecord
2
CUTOUTS
70
0
62
1
6
CONTINUOUS
0
LAYER
5
52
100
AcDbSymbolTableRecord
100
AcDbLayerTableRecord
2
PERIMETER
70
0
62
5
6
CONTINUOUS
0
ENDTAB
0
TABLE
2
STYLE
5
3
100
AcDbSymbolTable
70
1
0
STYLE
5
11
100
AcDbSymbolTableRecord
100
AcDbTextStyleTableRecord
2
STANDARD
70
0
0
ENDTAB
0
TABLE
2
VIEW
5
6
100
AcDbSymbolTable
0
ENDTAB
0
TABLE
2
UCS
5
7
100
AcDbSymbolTable
0
ENDTAB
0
TABLE
2
APPID
5
9
100
AcDbSymbolTable
70
1
0
APPID
5
12
100
AcDbSymbolTableRecord
100
AcDbRegAppTableRecord
2
ACAD
70
0
0
ENDTAB
0
TABLE
2
DIMSTYLE
5
A
100
AcDbSymbolTable
0
ENDTAB
0
TABLE
2
BLOCK_RECORD
5
1
100
AcDbSymbolTable
70
2
0
BLOCK_RECORD
5
1F
100
AcDbSymbolTableRecord
100
AcDbBlockTableRecord
2
*MODEL_SPACE
0
BLOCK_RECORD
5
1B
100
AcDbSymbolTableRecord
100
AcDbBlockTableRecord
2
*PAPER_SPACE
0
ENDTAB
0
ENDSEC
0
SECTION
2
BLOCKS
0
BLOCK
5
20
100
AcDbEntity
100
AcDbBlockBegin
2
*MODEL_SPACE
0
ENDBLK
5
21
100
AcDbEntity
100
AcDbBlockEnd
0
BLOCK
5
1C
100
AcDbEntity
100
AcDbBlockBegin
2
*PAPER_SPACE
0
ENDBLK
5
1D
100
AcDbEntity
100
AcDbBlockEnd
0
ENDSEC
0
SECTION
2
ENTITIES
0
LINE
5
100
100
AcDbEntity
8
PERIMETER
100
AcDbLine
10
-82
20
2.4061418163886166e-14
30
0
11
-85.316433180166939
21
2.4053675717894691e-14
31
0
0
LINE
5
101
100
AcDbEntity
8
PERIMETER
100
AcDbLine
10
-85.316433180166939
20
2.4053675717894691e-14
30
0
11
-86.232038328375296
21
-3.7599061478278846
31
0
0
LINE
5
102
100
AcDbEntity
8
PERIMETER
100
AcDbLine
10
-86.232038328375296
20
-3.7599061478278846
30
0
11
-89.360610432793962
21
-2.9980422574555665
31
0
0
LINE
5
103
100
AcDbEntity
8
PERIMETER
100
AcDbLine
10
-89.360610432793962
20
-2.9980422574555665
30
0
11
-88.499372991465947
21
0.53860446931351613
31
0
0
SPLINE
5
104
100
AcDbEntity
8
PERIMETER
100
AcDbSpline
70
4
71
2
72
6
73
3
74
0
42
0.000000001
43
0.0000000001
44
0.0000000001
40
-0.61981766053817211
40
-0.61981766053817211
40
-0.61981766053817211
40
0
40
0
40
0
41
1
41
1
41
1
10
-88.499372991465961
20
0.53860446931351691
30
0
10
-92.897231513222408
20
1.4167003919117616
30
0
10
-94.360001192091616
20
3.7263708617217084
30
0
0
LINE
5
105
100
AcDbEntity
8
PERIMETER
100
AcDbLine
10
-94.360001192091616
20
3.7263708617217079
30
0
11
-97.375001192093592
21
-1.4957623231021722
31
0
0
LINE
5
106
100
AcDbEntity
8
PERIMETER
100
AcDbLine
10
-97.375001192093592
20
-1.4957623231021722
30
0
11
-94.222668722314197
21
-3.3157623230947615
31
0
0
LINE
5
107
100
AcDbEntity
8
PERIMETER
100
AcDbLine
10
-94.222668722314197
20
-3.3157623230947615
30
0
11
-95.832668722314082
21
-6.1043641232773211
31
0
0
LINE
5
108
100
AcDbEntity
8
PERIMETER
100
AcDbLine
10
-95.832668722314082
20
-6.1043641232773211
30
0
11
-98.985001192090749
21
-4.2843641232799721
31
0
0
LINE
5
109
100
AcDbEntity
8
PERIMETER
100
AcDbLine
10
-98.985001192090749
20
-4.2843641232799721
30
0
11
-102.00000119209304
21
-9.5064973081036896
31
0
0
SPLINE
5
10A
100
AcDbEntity
8
PERIMETER
100
AcDbSpline
70
4
71
2
72
6
73
3
74
0
42
0.000000001
43
0.0000000001
44
0.0000000001
40
0
40
0
40
0
40
0.49999999999999994
40
0.49999999999999994
40
0.49999999999999994
41
1
41
1
41
1
10
-102.00000119209304
20
-9.5064973081036879
30
0
10
-97.000001192093038
20
-12.393248654051824
30
0
10
-92.000001192093038
20
-13.836624327025893
30
0
0
LINE
5
10B
100
AcDbEntity
8
PERIMETER
100
AcDbLine
10
-92.000001192093052
20
-13.836624327025895
30
0
11
-91.138763750758116
21
-10.299977600257279
31
0
0
LINE
5
10C
100
AcDbEntity
8
PERIMETER
100
AcDbLine
10
-91.138763750758116
20
-10.299977600257279
30
0
11
-88.010191646360042
21
-11.061841490650721
31
0
0
LINE
5
10D
100
AcDbEntity
8
PERIMETER
100
AcDbLine
10
-88.010191646360042
20
-11.061841490650721
30
0
11
-88.871429087730263
21
-14.598488217571141
31
0
0
SPLINE
5
10E
100
AcDbEntity
8
PERIMETER
100
AcDbSpline
70
4
71
2
72
6
73
3
74
0
42
0.000000001
43
0.0000000001
44
0.0000000001
40
0.65642860521813851
40
0.65642860521813851
40
0.65642860521813851
40
1
40
1
40
1
41
1
41
1
41
1
10
-88.871429087730263
20
-14.598488217571141
30
0
10
-85.43571513991165
20
-15.279999999999962
30
0
10
-82.000001192093038
20
-15.279999999999962
30
0
0
SPLINE
5
10F
100
AcDbEntity
8
PERIMETER
100
AcDbSpline
70
4
71
2
72
6
73
3
74
0
42
0.000000001
43
0.0000000001
44
0.0000000001
40
-1
40
-1
40
-1
40
-0.65642859296809342
40
-0.65642859296809342
40
-0.65642859296809342
41
1
41
1
41
1
10
-82.000000596046505
20
-15.279999999999962
30
0
10
-78.564286320942912
20
-15.279999999999962
30
0
10
-75.128572116197404
20
-14.59848816897251
30
0
0
LINE
5
110
100
AcDbEntity
8
PERIMETER
100
AcDbLine
10
-75.128572116197404
20
-14.59848816897251
30
0
11
-75.989809545732953
21
-11.061841490650721
31
0
0
LINE
5
111
100
AcDbEntity
8
PERIMETER
100
AcDbLine
10
-75.989809545732953
20
-11.061841490650721
30
0
11
-72.861237441334907
21
-10.299977600257282
31
0
0
LINE
5
112
100
AcDbEntity
8
PERIMETER
100
AcDbLine
10
-72.861237441334907
20
-10.299977600257282
30
0
11
-72.000000009787144
21
-13.836624286835253
31
0
0
SPLINE
5
113
100
AcDbEntity
8
PERIMETER
100
AcDbSpline
70
4
71
2
72
6
73
3
74
0
42
0.000000001
43
0.0000000001
44
0.0000000001
40
-0.49999999303877624
40
-0.49999999303877624
40
-0.49999999303877624
40
0
40
0
40
0
41
1
41
1
41
1
10
-72.000000009787144
20
-13.836624286835251
30
0
10
-66.999999930387759
20
-12.393248613861182
30
0
10
-61.999999999999993
20
-9.5064973081036879
30
0
0
LINE
5
114
100
AcDbEntity
8
PERIMETER
100
AcDbLine
10
-61.999999999999993
20
-9.5064973081036879
30
0
11
-65.015000000002289
21
-4.2843641232799712
31
0
0
LINE
5
115
100
AcDbEntity
8
PERIMETER
100
AcDbLine
10
-65.015000000002289
20
-4.2843641232799712
30
0
11
-68.167332469778927
21
-6.1043641232773211
31
0
0
LINE
5
116
100
AcDbEntity
8
PERIMETER
100
AcDbLine
10
-68.167332469778927
20
-6.1043641232773211
30
0
11
-69.777332469778798
21
-3.315762323094761
31
0
0
LINE
5
117
100
AcDbEntity
8
PERIMETER
100
AcDbLine
10
-69.777332469778798
20
-3.315762323094761
30
0
11
-66.624999999999417
21
-1.4957623231021717
31
0
0
LINE
5
118
100
AcDbEntity
8
PERIMETER
100
AcDbLine
10
-66.624999999999417
20
-1.4957623231021717
30
0
11
-69.640000000001407
21
3.7263708617217088
31
0
0
SPLINE
5
119
100
AcDbEntity
8
PERIMETER
100
AcDbSpline
70
4
71
2
72
6
73
3
74
0
42
0.000000001
43
0.0000000001
44
0.0000000001
40
0
40
0
40
0
40
0.61981766053817222
40
0.61981766053817222
40
0.61981766053817222
41
1
41
1
41
1
10
-69.640000000001407
20
3.7263708617217084
30
0
10
-71.102769678870615
20
1.4167003919117609
30
0
10
-75.500628200627077
20
0.53860446931351658
30
0
0
LINE
5
11A
100
AcDbEntity
8
PERIMETER
100
AcDbLine
10
-75.500628200627077
20
0.53860446931351669
30
0
11
-74.639390759299062
21
-2.9980422574555661
31
0
0
LINE
5
11B
100
AcDbEntity
8
PERIMETER
100
AcDbLine
10
-74.639390759299062
20
-2.9980422574555661
30
0
11
-77.767962863717742
21
-3.7599061478278846
31
0
0
LINE
5
11C
100
AcDbEntity
8
PERIMETER
100
AcDbLine
10
-77.767962863717742
20
-3.7599061478278846
30
0
11
-78.711767138122966
21
0.11579889885629358
31
0
0
SPLINE
5
11D
100
AcDbEntity
8
PERIMETER
100
AcDbSpline
70
4
71
2
72
6
73
3
74
0
42
0.000000001
43
0.0000000001
44
0.0000000001
40
0.82371750964082602
40
0.82371750964082602
40
0.82371750964082602
40
1
40
1
40
1
41
1
41
1
41
1
10
-78.711767138167815
20
0.11579889885288851
30
0
10
-80.237175096408251
20
2.4053675717894691e-14
30
0
10
-82
20
2.4053675717894691e-14
30
0
0
ENDSEC
0
SECTION
2
OBJECTS
0
DICTIONARY
5
C
100
AcDbDictionary
3
ACAD_GROUP
350
D
3
ACAD_MLINESTYLE
350
17
0
DICTIONARY
5
D
100
AcDbDictionary
0
DICTIONARY
5
1A
330
C
100
AcDbDictionary
0
DICTIONARY
5
17
100
AcDbDictionary
0
ENDSEC
0
EOF
