<svg width="2181.312" height="2528.277" viewBox="0 0 577.139 668.94" xml:space="preserve" xmlns="http://www.w3.org/2000/svg"><path style="fill:#fff;fill-opacity:1" d="M361.654 752.794c-5.53-.674-9.491-3.063-11.175-6.741-1.295-2.828-1.317-3.592-.477-16.168l.77-11.523 2.786.172c1.532.095 3.466.244 4.298.33l1.511.157-.126 1.092c-.07.6-.429 5.54-.797 10.977-.787 11.61-.744 12.177 1.04 13.958.834.832 1.425 1.161 2.495 1.39 1.905.406 3.209.375 4.577-.107 1.492-.527 2.185-1.202 2.87-2.796.484-1.124.663-2.786 1.34-12.449.43-6.133.814-11.184.854-11.223.085-.086 8.235.451 8.35.55.044.037-.278 5.173-.715 11.413-.843 12.044-1.044 13.31-2.503 15.8-.822 1.402-2.704 3.117-4.226 3.85-2.641 1.271-6.96 1.795-10.872 1.318zm28.689-.097c-2.172-.48-4.844-1.24-5.061-1.441-.092-.085-.248-1.91-.347-4.057-.208-4.509-.274-4.417 2.119-2.976 3.36 2.023 6.869 2.89 10.962 2.705 2.997-.135 4.336-.535 5.421-1.62.716-.716.896-2.141.39-3.086-.452-.845-2.21-1.55-4.944-1.985-6.653-1.057-8.641-1.627-10.843-3.11-2.49-1.675-3.783-4.236-3.783-7.494 0-4.612 3.561-8.365 9.548-10.064 2.663-.756 10.612-.67 13.932.149 1.345.331 2.494.683 2.555.78.06.099.196 1.815.302 3.816.228 4.3.37 4.172-2.88 2.581-2.86-1.4-4.787-1.854-7.854-1.854-4.39 0-6.871 1.193-6.871 3.304 0 .53.115 1.18.256 1.444.41.765 2.243 1.346 6.358 2.013 7.709 1.25 10.827 2.792 12.475 6.165.498 1.021.601 1.676.61 3.875.012 3.13-.446 4.315-2.568 6.637-1.45 1.587-4.406 3.215-7.21 3.973-2.245.606-10.224.762-12.567.245zm44.63-20.489c-4.707-8.09-8.543-14.733-8.524-14.764.095-.158 8.15-2.214 8.376-2.138.147.049 2.638 4.61 5.536 10.137l5.27 10.049.071-11.642.071-11.642 3.969-1.097c2.971-.822 4.041-1.022 4.258-.794.16.167 2.648 4.53 5.531 9.697 2.883 5.165 5.407 9.57 5.608 9.79.313.34.345.19.225-1.06-.216-2.257-.753-21.44-.603-21.589.116-.116 7.71-2.223 8.014-2.223.065 0 .118 7.667.118 17.037v17.037l-2.183.58c-1.2.32-3.195.865-4.432 1.211-1.967.551-2.286.581-2.546.237-.163-.216-2.723-4.518-5.689-9.56l-5.39-9.168-.07 11.1-.069 11.099-4.49 1.206-4.491 1.206zm-129.262 10.283c-2.091-.561-3.826-1.056-3.855-1.1-.162-.242 7.997-31.545 8.245-31.628.295-.098 22.279 5.38 22.508 5.61.067.066-.206 1.435-.604 3.042-.533 2.148-.833 2.921-1.134 2.921-.226 0-3.437-.78-7.137-1.734-3.7-.954-6.86-1.69-7.022-1.635-.163.054-.615 1.37-1.005 2.923l-.708 2.824.96.249 6.812 1.752 5.851 1.503-.734 2.9c-.404 1.596-.797 2.964-.873 3.04-.077.078-3.114-.616-6.75-1.54-3.634-.925-6.69-1.6-6.79-1.5-.1.1-.919 3.128-1.82 6.729-.9 3.6-1.751 6.573-1.89 6.605-.139.033-1.963-.4-4.054-.961zm-24.906-7.671c-1.091-.281-3.219-1.12-4.728-1.864-4.58-2.26-7.62-5.805-8.623-10.057-1.395-5.921.94-13.575 5.522-18.1 4.546-4.49 10.419-5.487 17.215-2.923 5.5 2.074 9.027 5.392 10.675 10.04.849 2.395.938 6.446.202 9.245-1.925 7.33-6.23 12.253-12.073 13.808-2.025.539-5.78.47-8.19-.15zm5.83-7.032c2.47-1.344 4.593-4.462 5.83-8.56 1.545-5.112.301-9.123-3.427-11.053-1.41-.73-1.945-.861-3.502-.861-1.046 0-2.252.173-2.8.402-2.484 1.038-4.608 3.688-6.146 7.667-.836 2.163-.921 2.636-.932 5.16-.011 2.602.038 2.868.782 4.213 1.983 3.584 6.637 4.969 10.195 3.032zm199.382 5.36-1.05-2.477c-.383-.905-.697-1.758-.697-1.895s1.071-.693 2.381-1.236c1.31-.543 2.381-1.024 2.381-1.07 0-.25-8.023-19.065-8.216-19.266-.138-.144-1.16.152-2.536.734-1.268.537-2.392.884-2.497.77-.444-.472-2.108-4.928-1.913-5.12.31-.302 17.32-7.433 17.443-7.311.29.29 2.206 5.02 2.101 5.19-.067.108-1.14.605-2.382 1.104-1.243.498-2.261 1.012-2.262 1.14-.001.188 7.883 19.123 8.09 19.429.031.046 1.17-.39 2.53-.97 1.36-.58 2.49-1.035 2.509-1.01.144.183 2.201 5.303 2.15 5.349-.038.032-4.03 1.726-8.874 3.764l-8.806 3.706zm17.964-24.72c-4.22-7.816-7.673-14.315-7.673-14.443 0-.334 7.11-4.143 7.321-3.922.098.102 2.944 5.305 6.326 11.562 3.381 6.257 6.182 11.42 6.224 11.472.041.053 3.074-1.533 6.74-3.524 3.664-1.99 6.75-3.522 6.856-3.403.105.12.806 1.367 1.557 2.772l1.365 2.554-1.658.917c-6.694 3.699-18.93 10.244-19.134 10.236-.138-.006-3.704-6.405-7.924-14.221zm-278.076-1.8c-1.746-1.092-3.272-2.083-3.39-2.202-.186-.185 16-26.826 16.847-27.729.232-.248 2.503 1.037 9.958 5.64 5.311 3.278 9.803 6.045 9.982 6.15.231.133-.144.955-1.289 2.827a223.784 223.784 0 0 1-1.666 2.7c-.028.034-2.954-1.721-6.502-3.9-4.677-2.874-6.51-3.873-6.669-3.634-1.326 1.989-2.855 4.74-2.739 4.928.081.13 2.708 1.816 5.838 3.746 3.13 1.929 5.69 3.58 5.69 3.666 0 .368-3.136 5.182-3.347 5.14-.127-.024-2.77-1.608-5.873-3.52-3.102-1.91-5.754-3.437-5.892-3.39-.139.046-1.827 2.632-3.751 5.748-1.925 3.115-3.617 5.698-3.761 5.74-.144.041-1.69-.818-3.436-1.91zm311.477-.041c-1.71-2.364-17.658-25.685-17.658-25.822 0-.18 6.546-4.673 6.807-4.671.15.001 13.667 19.466 14.928 21.495.1.16 2.756-1.499 6.396-3.996 3.424-2.35 6.286-4.271 6.362-4.271.167 0 3.65 5.074 3.548 5.168-.09.082-18.968 13.043-19.263 13.225-.116.071-.62-.436-1.12-1.128zm-330.053-13.114c-5.123-3.957-9.318-7.253-9.321-7.326-.015-.296 19.897-25.797 20.143-25.797.478 0 6.536 4.754 6.439 5.054-.052.16-3.594 4.803-7.872 10.318-4.277 5.516-7.86 10.165-7.96 10.333-.115.192 2.04 2.023 5.76 4.895 3.27 2.524 5.95 4.663 5.954 4.752.008.152-2.883 3.956-3.534 4.65-.223.238-2.556-1.433-9.609-6.88zm-17.504-14.18c-3.453-3.284-3.329-2.64-1.31-6.762l1.3-2.656-4.445-4.276-4.445-4.275-3.11 1.627-3.11 1.628-3.029-3.04-3.029-3.041 15.89-7.512 15.89-7.513 3.454 3.455 3.455 3.455-7.113 15.898c-3.912 8.743-7.175 15.891-7.252 15.884-.077-.007-1.493-1.3-3.146-2.872zm5.348-20.702c1.41-2.932 2.514-5.38 2.454-5.44-.12-.12-10.749 5.15-10.749 5.33 0 .167 5.398 5.427 5.578 5.434.084.004 1.307-2.392 2.717-5.324zm375.683 17.517c-2.01-2.124-2.625-2.93-2.38-3.121.18-.142 1.102-.405 2.048-.584 3.96-.751 8.01-2.96 10.643-5.803 1.642-1.774 2.322-3.036 2.322-4.313 0-1.115-.533-1.897-1.591-2.335-1.205-.5-2.472-.025-6.207 2.322-8.164 5.13-12.035 5.546-16.261 1.746-5.205-4.68-3.226-13.088 4.62-19.627 2.445-2.038 5.97-4.308 7.541-4.856.827-.288.87-.26 3.455 2.316 2.103 2.096 2.552 2.673 2.284 2.94-.183.184-1.283.573-2.445.866-2.945.742-5.755 2.226-7.754 4.096-3.16 2.955-4.092 5.714-2.408 7.132.448.377 1.073.684 1.39.682.83-.004 2.84-1.003 5.866-2.917 7.817-4.943 11.94-5.31 15.818-1.413 5.841 5.873 2.286 15.679-8.22 22.67-1.273.848-5.666 3.129-5.928 3.078-.046-.009-1.302-1.304-2.793-2.879zm-408.702-25.397c-1.39-1.75-2.528-3.274-2.527-3.386 0-.112 2.5-2.16 5.556-4.552 3.055-2.392 5.555-4.416 5.555-4.498-.001-.12-7.136-9.36-7.536-9.76-.058-.057-2.614 1.873-5.68 4.29-3.066 2.416-5.665 4.394-5.777 4.394-.295 0-4.951-6.029-4.951-6.41 0-.34 25.276-20.347 25.57-20.242.156.056 2.193 2.552 4.402 5.393l.854 1.098-4.631 3.635c-2.547 1.999-4.632 3.74-4.632 3.871 0 .205 6.373 8.472 7.275 9.436.27.29 1.174-.31 5.04-3.352l4.708-3.706 2.346 2.955c1.29 1.626 2.454 3.144 2.585 3.372.194.336-2.057 2.22-11.697 9.79-6.565 5.155-12.385 9.706-12.934 10.113l-.998.74zm434.192.507c-2.503-.44-4.459-1.735-13.435-8.893-4.848-3.866-8.783-7.143-8.744-7.282.039-.14 1.207-1.67 2.597-3.4l2.526-3.148 8.629 6.9c4.746 3.794 9.113 7.12 9.706 7.388.592.27 1.679.492 2.414.496 2.1.009 4.17-1.54 5.471-4.096 1.061-2.083.794-3.885-.856-5.759-.582-.661-4.803-4.197-9.38-7.857l-8.321-6.655 2.567-3.28c1.412-1.804 2.627-3.286 2.7-3.292.371-.033 18.037 14.374 18.864 15.384.531.648 1.296 1.884 1.7 2.747.653 1.393.734 1.864.726 4.214-.008 2.355-.099 2.854-.82 4.529-1.614 3.752-5.13 8.11-8.14 10.088-2.556 1.682-5.554 2.382-8.204 1.916zM366 632.294c-2.547-.204-6.535-.666-8.863-1.025a468.95 468.95 0 0 0-7.409-1.08c-2.989-.402-10.28-1.715-14.67-2.643-1.084-.229-3.644-.704-5.689-1.056-2.051-.354-5.912-1.311-8.613-2.137-4.369-1.335-6.699-2.175-16.514-5.954-1.444-.555-2.935-1.24-3.315-1.52-.38-.281-1.922-1.127-3.428-1.879-3.655-1.827-4.753-2.614-7.586-5.438-3.867-3.855-7.11-8.943-7.934-12.451-.527-2.241-.389-7.757.261-10.447.229-.946.645-3.209.925-5.028.28-1.819.694-4.378.918-5.688 1.715-9.984 2.276-15.625 2.277-22.904 0-4.995-.19-6.559-1.22-9.99-.951-3.172-6.074-13.479-10.376-20.88-1.299-2.233-2.961-5.545-4.273-8.51l-2.061-4.656c-.58-1.31-2.99-6.429-5.353-11.377-2.364-4.947-5.473-11.674-6.907-14.949-1.435-3.274-3.158-7.003-3.83-8.286-.67-1.283-1.91-3.962-2.754-5.953a270.146 270.146 0 0 0-5.691-12.616c-.978-2.037-2.297-5.046-2.932-6.687-1.665-4.303-3.838-8.413-6.607-12.495-2.838-4.186-5.135-8.097-6.107-10.398-2.106-4.987-3.911-11.09-4.83-16.325-2.24-12.764-2.233-18.492.033-25.778.694-2.23 3.299-7.415 5.26-10.47 4.294-6.688 6.396-11.117 8.415-17.727 1.821-5.964 2.904-8.675 6.023-15.081 1.24-2.547 2.467-5.166 2.727-5.821 1.095-2.758 2.735-5.887 4.041-7.709a340.27 340.27 0 0 0 2.819-4.007c1.297-1.879 2.854-3.383 6.727-6.5.605-.486 1.928-1.37 2.94-1.961 1.012-.592 3.631-2.28 5.82-3.75 4.688-3.15 8.156-5.142 12.63-7.258 1.791-.848 4.103-2.09 5.135-2.76 1.033-.67 3.932-2.25 6.442-3.51 5.362-2.691 16.529-9.863 22.044-14.158.525-.409.527-.451.083-2.445-.248-1.116-.74-2.74-1.094-3.61-1.85-4.554-5.139-14.088-5.936-17.21-.965-3.776-3.952-18.018-4.344-20.711-1.098-7.54-1.597-16.114-1.225-21.05.786-10.448 3.775-24.207 8.086-37.216.978-2.951 4.155-10.43 9.329-21.96 4.093-9.123 8.034-15.845 10.73-18.304 2.715-2.477 6.082-4.002 10.427-4.721 2.367-.392 3.165-.409 6.334-.132 5.838.51 10.25 2.101 14.505 5.234 2.898 2.134 8.128 7.865 10.356 11.349 2.151 3.362 4.388 8.475 5.491 12.548 1.057 3.902 1.42 6.91 1.877 15.589.234 4.438.595 9.38.802 10.98.207 1.6.559 5.649.782 8.996.46 6.91.975 11.288 1.871 15.875 1.345 6.883 3.849 18.4 4.573 21.034 1.266 4.601 3.326 10.583 3.645 10.583.431 0 9.002-3.999 12.275-5.727 1.528-.806 3.909-2.276 5.291-3.266 1.383-.99 3.288-2.271 4.234-2.848 2.913-1.776 10.364-5.797 12.038-6.497 3.182-1.329 8.322-3.852 9.505-4.666.666-.459 2.432-1.42 3.923-2.138 1.492-.717 3.325-1.668 4.074-2.114 1.611-.958 9.014-2.895 11.091-2.902 4.36-.014 12.38 4.743 18.282 10.844 1.236 1.277 2.423 2.574 2.638 2.88.332.474.66.56 2.162.56 1.411.001 2.443.237 5.078 1.162 5.962 2.09 9.837 4.19 12.086 6.544 2.184 2.285 4.118 6.876 4.974 11.8 1.672 9.627 3.662 22.738 4.088 26.928.28 2.765.81 6.694 1.175 8.731.366 2.037.926 5.61 1.246 7.938.82 5.98 1.648 10.75 2.664 15.345.822 3.718.874 4.246.817 8.335-.033 2.4-.177 5.02-.32 5.82-.144.801-.497 3.48-.784 5.954-.87 7.491-2.221 15.566-3.568 21.317-.223.956-.822 4.076-1.33 6.932l-.922 5.195.245 7.355c.39 11.751.49 13.216 1.328 19.526.135 1.018.549 4.352.919 7.408 1.601 13.216 1.74 15.792 1.072 19.863-.214 1.3-.518 4.267-.676 6.595-.277 4.063-.498 5.666-1.421 10.32a235.768 235.768 0 0 0-.856 4.63c-.24 1.382-.606 2.99-.814 3.571-.208.582-.855 2.845-1.439 5.027-1.005 3.76-2.952 9.731-4.16 12.76-1.004 2.514-4.167 8.608-6.768 13.037-4.78 8.142-8.34 16.147-10.116 22.754-.723 2.688-.747 2.985-.741 9.128.005 5.28.108 7.019.614 10.32 1.252 8.164 2.063 11.003 6.124 21.431 1.932 4.963 2.855 7.771 3.695 11.245a646.08 646.08 0 0 0 2.01 8.07c.817 3.162 2.339 9.948 3.57 15.924.275 1.336.936 3.896 1.467 5.688 1.97 6.638 1.117 11.677-2.668 15.765-3.195 3.451-6.965 6.098-19.845 13.933-2.672 1.625-5.655 3.137-9.128 4.627-8.401 3.602-14.725 6.084-17.69 6.94-1.53.442-3.724 1.152-4.877 1.577-1.152.424-3.898 1.252-6.102 1.838-2.204.586-4.727 1.288-5.608 1.56-2.388.734-12.658 2.754-19.566 3.846-3.347.53-8.526 1.363-11.51 1.851-7.104 1.164-9.699 1.355-21.298 1.568-4.376.08-8.182-.005-11.245-.25zm23.407-16.802c9.366-.695 13.938-1.114 16.016-1.466 6.2-1.05 20.946-4.568 25.815-6.159 8.914-2.914 21.732-8.187 29.638-12.193 9.688-4.909 12.776-6.733 16.035-9.472 2.16-1.815 2.474-2.21 2.713-3.42.053-.266.347-1.117.654-1.89.535-1.351.54-1.47.135-3.043-.655-2.54-1.52-5.462-3.107-10.5-.802-2.547-2.075-7.19-2.83-10.319-1.296-5.38-3.366-13.483-5.948-23.283-.633-2.401-1.464-5.973-1.847-7.938-.993-5.084-1.844-9.118-2.79-13.229-.817-3.546-.822-3.61-.651-8.731.195-5.845.548-8.275 1.839-12.668 1.537-5.228 1.859-6.112 3.92-10.748 3.736-8.405 4.025-9.002 5.138-10.632 1.653-2.422 4.915-9.122 5.837-11.99 2.827-8.792 5.029-17.988 5.89-24.606.161-1.237.523-3.44.803-4.895.3-1.552.51-3.774.511-5.375 0-1.625.13-2.963.319-3.307.175-.318.462-2.364.638-4.547.336-4.157.107-14.957-.43-20.335-.144-1.434-.261-4.653-.261-7.154 0-2.776-.168-5.727-.43-7.579-.787-5.548-.178-23.02.964-27.638.144-.582.38-2.625.523-4.54.173-2.293.54-4.55 1.076-6.614 1.1-4.239 1.57-7.199 1.842-11.6.125-2.037.348-4.91.494-6.384.23-2.314.196-3.017-.246-5.16-.282-1.363-.514-3.056-.516-3.76-.002-.705-.237-2.432-.523-3.837a411.852 411.852 0 0 1-1.201-6.26c-.375-2.036-1.032-5.073-1.461-6.746-1.178-4.593-1.58-6.753-1.58-8.481 0-1.57-1.108-7.582-2.629-14.27-.538-2.367-.812-4.28-.813-5.688-.006-5.222-.83-10.974-1.989-13.894-1.31-3.298-1.49-3.607-2.739-4.683-1.998-1.72-4.77-2.23-9.293-1.706-1.492.173-2.053.415-4.233 1.824-4.615 2.981-7.214 5.313-9.953 8.93l-2.468 3.261c-1.755 2.319-4.023 5.96-5.278 8.472-1.016 2.034-3.371 9.301-3.7 11.418-1.166 7.494-1.173 7.595-.947 14.696.12 3.777.219 10.202.22 14.276.003 6.847-.052 7.74-.722 11.774-.787 4.733-3.21 14.512-5.115 20.638-.656 2.11-1.892 6.158-2.747 8.995-.854 2.838-2.223 7.005-3.042 9.26a319.896 319.896 0 0 0-2.104 5.954 241.349 241.349 0 0 1-1.419 4.101c-.965 2.705-1.619 6.266-1.62 8.832-.001 1.734-.066 1.952-.808 2.744-1.305 1.392-2.382.992-2.535-.943-.202-2.57-.646-5.855-1.022-7.559-.706-3.2-.884-4.205-1.058-5.955-.166-1.676-1.465-6.893-2.479-9.951-.29-.873-.822-2.54-1.185-3.704-.99-3.186-2.945-8.1-4.579-11.51-.801-1.673-1.911-4.233-2.467-5.688-1.755-4.6-5.329-11.576-7.861-15.346-.587-.873-1.808-2.897-2.715-4.498-.906-1.6-2.548-4.28-3.647-5.953-2.208-3.36-3.75-6.495-5.384-10.948-.594-1.618-1.41-3.717-1.811-4.663-2.384-5.612-6.284-15.234-9.009-22.225a135.122 135.122 0 0 0-1.794-4.365c-1.02-2.315-2.733-6.87-4.729-12.568-.325-.927-2.241-8.6-2.844-11.39-.361-1.666-.95-4.042-1.308-5.279a58.383 58.383 0 0 1-1.093-4.63c-.243-1.31-.907-4.167-1.476-6.35-1.737-6.662-2.203-9.538-3.03-18.724-.5-5.548-.542-19.4-.07-22.815.182-1.31.33-4.406.328-6.88-.003-5.136-.34-7.067-1.985-11.377-.555-1.455-1.21-3.36-1.454-4.233-.541-1.935-2.41-5.47-4.153-7.854-1.463-2-2.218-2.453-5.899-3.533-2.098-.616-2.697-.683-5.032-.561-1.458.075-3.45.338-4.427.583-2.75.691-3.682 1.891-5.44 7a200.645 200.645 0 0 1-2.524 6.786c-.812 2.059-1.902 5.155-2.422 6.879-.52 1.724-1.828 5.814-2.906 9.088-3.203 9.726-4.864 16.12-5.394 20.77a460.16 460.16 0 0 1-.739 5.953c-.38 2.91-.468 5.633-.476 14.685-.009 10.875.007 11.21.725 15.742 1.63 10.301 2.865 16.19 6.021 28.72 2.788 11.072 4.651 17.034 7.15 22.884 2.972 6.961 6.06 14.661 6.23 15.537.102.53.04 1.015-.161 1.257-.398.48-1.688.52-2.04.063-.14-.181-1.003-2.295-1.918-4.696-.914-2.401-2.017-5.14-2.45-6.085a187.52 187.52 0 0 1-2.104-4.895c-.723-1.746-1.395-3.258-1.493-3.358-.099-.1-1.905 1.19-4.015 2.868-6.223 4.95-9.232 6.938-15.964 10.549-3.867 2.074-5.962 3.743-10.76 8.572-4.563 4.59-6.487 7.23-8.889 12.193-3.064 6.332-5.964 11.998-6.357 12.422-.53.57-1.792.062-1.91-.77-.058-.409.843-2.574 2.477-5.949 1.412-2.918 3.023-6.262 3.58-7.43 1.276-2.677 3.13-5.523 5.237-8.035.902-1.077 1.583-2.014 1.513-2.084-.392-.392-7.87 3.893-17.69 10.138-6.43 4.088-8.462 5.627-11.727 8.884-2.982 2.974-3.361 3.576-7.935 12.588-2.816 5.548-3.7 7.944-5.398 14.632-.461 1.819-1.07 4.036-1.354 4.926-1.099 3.458-4.3 8.83-8.934 14.988-1.18 1.567-2.144 2.965-2.144 3.105 0 .141.7.61 1.553 1.04 1.617.817 2.969 2.163 4.933 4.913 1.8 2.52 5.038 12.487 6.79 20.902.511 2.45.608 3.725.61 8.07l.005 5.159-.976 2.052c-.536 1.128-1.399 2.568-1.916 3.2l-.941 1.148 1.554 3.547c.855 1.95 2.888 6.345 4.518 9.764 4.816 10.107 5.91 12.824 8.2 20.373 1.702 5.614 2.34 7.238 5.307 13.494 1.345 2.838 2.854 6.107 3.351 7.264.498 1.158 1.723 3.6 2.721 5.424.999 1.826 2.258 4.39 2.798 5.7 1.482 3.592 8.222 16.772 10.405 20.348 1.058 1.733 2.405 4.114 2.993 5.292.588 1.178 2.054 3.51 3.257 5.184 3.777 5.253 6.151 10.095 7.72 15.743.956 3.44 1.304 15.952.667 23.945-.191 2.401-.816 7.223-1.388 10.716-.573 3.492-1.16 7.54-1.304 8.995-.432 4.335-.789 6.484-1.486 8.96-.363 1.29-.624 2.368-.58 2.394.043.027.402.187.797.357.395.17 1.005.759 1.355 1.31.56.882 1.377 1.37 6.822 4.075 7.052 3.503 10.556 4.75 24.707 8.797 8.787 2.513 18.826 3.735 34.126 4.154 5.673.155 10.366.334 10.43.398.222.222 8.645.112 12.32-.16zm-48.713-92.353c-3.385-.302-8.56-1.392-11.927-2.512-3.556-1.182-10.065-4.346-13.038-6.336-16.612-11.12-25.92-29.668-24.402-48.63.73-9.117 3.589-17.578 8.465-25.047 8.222-12.597 20.854-20.707 35.473-22.775 3.337-.472 11.66-.171 14.964.541 14.786 3.186 27.299 12.807 34.978 26.895 7.862 14.424 9.352 32.475 3.895 47.197-1.339 3.612-3.514 7.836-5.704 11.077-2.652 3.924-8.07 9.328-11.927 11.895-6.736 4.483-14.172 7.06-22.244 7.71-3.782.304-4.987.302-8.533-.015zm10.712-2.483c5.12-.769 8.629-1.813 12.943-3.852 13.716-6.483 22.891-19.46 25.342-35.841.52-3.476.598-10.898.149-14.156-.565-4.1-1.667-8.93-2.656-11.641-3.348-9.178-7.627-15.904-13.995-22-4.672-4.471-9.743-7.784-15.35-10.027-2.72-1.088-8.264-2.634-9.447-2.634h-.618l.043 6.549c.027 4.195-.08 7.404-.3 8.93-1.203 8.336-2.895 14.387-5.844 20.886l-2.12 4.673.829 3.492 1.072 4.518.243 1.025.84-.808c3.397-3.265 6.436-4.93 10.536-5.775 1.925-.396 2.68-.428 4.768-.201 2.135.231 2.87.455 5.254 1.599 4.423 2.121 6.862 4.586 8.722 8.814 1.803 4.098 2.226 5.984 2.228 9.93 0 3.28-.04 3.538-.865 5.557-1.735 4.238-3.463 6.46-6.95 8.94-2.397 1.705-3.635 2.205-7.318 2.955-4.82.981-7.683 1.082-12.207.431-3.833-.551-7.727-1.556-8.507-2.194-.27-.22-.534-1.193-.742-2.724-.447-3.295-1.296-7.27-3.335-15.61-4.11-16.814-7.423-29.733-7.693-30.003-.066-.066-1.399.49-2.962 1.237-4.233 2.022-7.037 3.107-9.986 3.865-3.986 1.024-3.837.962-3.832 1.582.009 1.228.312 1.335 2.359.834 1.065-.261 2.248-.392 2.71-.3 1.209.242 2.6 1.19 2.907 1.982.438 1.133 1.437 4.724 2.18 7.838a584.95 584.95 0 0 0 1.88 7.54c.653 2.547 1.187 4.881 1.188 5.187.002 1.112-6.467 5.58-12.038 8.313-3.873 1.9-8.812 3.699-10.16 3.699-.434 0-.865.124-.96.276-.235.381 1.639 3.464 4.066 6.69 8.19 10.88 20.954 18.425 34.522 20.404 3.348.488 9.922.498 13.104.02zm5.344-21.307c3.075-.583 5.088-1.964 6.169-4.231.879-1.844.804-7-.16-11.113-2.595-11.055-5.493-15.07-10.883-15.078-3.207-.005-5.147.973-6.84 3.447-1.413 2.063-1.722 4.338-1.151 8.462.848 6.125 2.787 11.997 4.91 14.868 1.472 1.99 2.878 3.046 4.718 3.541 1.57.423 1.556.423 3.237.104zm-36.126-50.517c3.49-1.578 5.164-6.31 3.556-10.049-.652-1.516-2.622-3.494-4.09-4.108-1.233-.515-4.085-.534-5.28-.035-1.319.552-3.2 2.395-3.888 3.812-.845 1.74-.847 4.683-.004 6.527 1.76 3.849 5.996 5.53 9.706 3.853zm122.326 20.12c-.533-.111-1.273-.4-1.644-.644-.371-.243-.92-.442-1.22-.442-.781 0-4.361-1.859-6.22-3.23-.873-.644-2.508-2.064-3.632-3.156-2.591-2.518-3.101-3.649-4.38-9.712-.958-4.546-.984-4.819-.968-10.096.012-4.236.144-6.235.6-9.128 1.778-11.292 5.643-22.896 10.22-30.692 4.5-7.665 8.407-11.36 13.866-13.118 2.452-.79 2.687-.817 6.122-.702 4.364.147 4.887.308 10.848 3.354 3.251 1.66 4.836 3.732 5.85 7.647.645 2.485 1.175 14.917.925 21.685-.27 7.345-.755 10.351-3.037 18.846-.736 2.739-2.58 7.943-3.608 10.178-3.65 7.939-10.255 15.335-16.27 18.22-1.987.952-2.496 1.085-4.366 1.134-1.164.031-2.552-.034-3.086-.145zm-.056-5.522c1.033-.675 6.028-13.258 8.27-20.832a269.638 269.638 0 0 0 2.523-9.268c.655-2.624 1.363-5.183 1.574-5.689 1.036-2.487 2.377-9.194 3.2-16 .228-1.891.546-4.391.705-5.556.417-3.037.217-7.151-.41-8.424-.596-1.213-1.864-1.92-2.95-1.648-1.829.459-7.3 7.7-10.412 13.777-1.503 2.937-4.462 11.298-6.226 17.594-.632 2.256-1.868 6.566-2.747 9.578-1.886 6.463-2.868 11.03-3.28 15.26-.469 4.816-.442 5.442.239 5.539.706.1.756-.063 1.163-3.786.491-4.49 1.69-10.04 3.456-16 .885-2.987 1.82-6.18 2.08-7.097.258-.916.521-1.717.585-1.781.064-.064.524 0 1.023.144 2.23.64 8.45.113 10.891-.921.424-.18.43-.101.095 1.09-.2.705-.625 2.413-.947 3.795-1.93 8.283-6.535 21.852-9.23 27.19-.868 1.719-1.048 2.839-.494 3.062.475.192.561.19.892-.027zm-1.752-36.244c0-.988 4.633-14.092 5.824-16.47 2.521-5.037 8.288-12.965 9.431-12.965 1.006 0 1.534 4.602.902 7.858-.135.699-.436 2.997-.669 5.107-.5 4.546-1.054 8.03-1.765 11.112-.91 3.943-.852 3.845-2.69 4.575-2.467.981-4.112 1.246-7.74 1.246-2.959 0-3.293-.047-3.293-.463zm13.242 32.508c1.064-.647 3.82-4.397 5.194-7.065.982-1.908 2.497-6.827 3.253-10.56.617-3.05.757-7.839.49-16.727-.292-9.684-.18-11.673.842-14.974.598-1.932 2.065-3.886 2.918-3.886.742 0 1.28 2.29 1.334 5.689.06 3.721.539 4.998 1.324 3.53.504-.942.195-8.046-.404-9.294-.95-1.977-2.352-2.288-4.135-.917-1.4 1.078-2.457 2.938-3.204 5.641-.56 2.028-.58 2.552-.596 15.592-.02 14.77.077 13.66-1.757 20.27-.46 1.658-1.227 3.787-1.705 4.733-1.028 2.035-3.804 6.015-4.34 6.222-1.066.413-1.07-2.045-.009-5.824.7-2.49.756-2.919.427-3.248a.934.934 0 0 0-.91-.21c-.416.131-.71.813-1.353 3.135-.912 3.292-1.028 5.218-.41 6.765.626 1.562 1.683 1.954 3.042 1.128zm-24.031-10.548c.255-.292.472-1.294.587-2.712.661-8.2 5.194-29.203 7.366-34.13 1.114-2.529 5.281-12.35 5.609-13.218.395-1.05.257-1.661-.349-1.545-.56.108-1.884 2.48-3.81 6.825l-2.583 5.822c-2.346 5.28-5.22 16.833-7.111 28.587-1.288 7.997-1.452 10.18-.796 10.594.513.325.627.302 1.087-.223zm-162.711-36.694c-2.215-.712-2.735-1.018-4.125-2.427-3.352-3.397-5.437-8.45-6.54-15.846-1.158-7.755-1.235-13.556-.235-17.503.574-2.265 1.258-3.659 3.384-6.89.88-1.34 1.787-2.796 2.016-3.238a7.65 7.65 0 0 1 3.564-3.377c3.474-1.563 4.183-1.717 7.762-1.689 4.104.033 4.952.308 8.664 2.803 4.575 3.074 6.706 5.918 8.425 11.241a231.913 231.913 0 0 0 1.46 4.366c.886 2.527 1.315 6.902 1.161 11.824-.123 3.925-.16 4.137-1.17 6.829-1.393 3.714-3.602 7.002-6.228 9.272-2.31 1.998-4.348 3.153-7.583 4.298-1.986.702-2.706.819-5.463.881-2.727.062-3.445-.014-5.092-.544zm5.7-2.598c.376-.452-3.077-6.831-3.647-6.738-.677.111-.604.938.24 2.743.448.958.815 1.845.815 1.973 0 .483-3.092-1.159-4.17-2.215-3.37-3.297-6.942-14.6-6.942-21.962 0-2.817 1.431-7.334 2.248-7.096.146.043.503.749.794 1.57.562 1.583 1.277 2.065 1.867 1.258.3-.41.017-1.433-1.495-5.382-.523-1.367-1.652-.504-3.372 2.58-2.594 4.65-2.063 12.981 1.43 22.416 2.403 6.49 4.425 8.843 8.94 10.409 2.45.85 2.905.911 3.292.444zm3.56-1.704c-.035-.466-.618-2.132-1.294-3.704-1.497-3.482-3-7.695-3.003-8.42-.001-.293.294-.714.656-.934.363-.22 1.664-1.319 2.891-2.442 1.228-1.124 2.338-2.043 2.467-2.043.26 0 .652.76 2.346 4.554.632 1.413 1.554 3.14 2.05 3.836a24.445 24.445 0 0 1 1.6 2.657c.562 1.122.824 1.389 1.361 1.389.366 0 .734-.178.817-.396.166-.43-1.161-3.183-2.206-4.578-.36-.48-1.25-2.147-1.977-3.704-2.758-5.906-3.228-6.846-4.875-9.748-.931-1.64-1.693-3.042-1.693-3.116 0-.073-.674-1.24-1.497-2.591a418.776 418.776 0 0 1-3.422-5.765 493.197 493.197 0 0 0-2.525-4.298c-.974-1.612-1.814-1.606-3.06.021-1.092 1.428-.974 3.468.445 7.746 1.193 3.594 2.437 8.56 2.89 11.538.294 1.924 2.204 8.903 3.244 11.848.309.873 1.153 3.016 1.876 4.763a350.897 350.897 0 0 1 1.552 3.788c.168.434.41.589.83.529.49-.07.581-.232.527-.93zm-5.442-15.876c-.355-1.135-.849-3.19-1.098-4.569-.686-3.79-1.9-8.49-2.75-10.646-2.205-5.594-2.306-6.228-1.18-7.404l.706-.737 1.886 3.503a301.247 301.247 0 0 0 3.488 6.28 204.96 204.96 0 0 1 3.069 5.556 181.32 181.32 0 0 0 1.954 3.628l.489.85-1.19 1.223a71.043 71.043 0 0 1-2.96 2.801l-1.77 1.58zm19.21 3.424c1.117-1.011 1.37-1.922 1.373-4.958.004-3.215-.348-4.862-1.764-8.25-1.02-2.443-2.449-4-4.93-5.376-2.854-1.583-8.327-5.035-9.499-5.991-1.2-.98-1.839-2.524-1.538-3.72.206-.821 1.56-1.402 3.269-1.402 1.649 0 3.001.932 4.39 3.025.77 1.16 1.129 1.485 1.57 1.422 1.473-.21-.3-3.552-2.784-5.246-2.271-1.55-5.746-1.292-7.517.56-.688.72-.765.972-.724 2.368.057 1.969.73 3.192 2.556 4.65 1.397 1.117 6.015 3.996 9.267 5.778 2.38 1.305 3.578 2.571 4.474 4.727 1.2 2.889 1.626 4.867 1.615 7.5-.012 2.625-.444 3.791-1.407 3.791-1 0-2.814-2.584-6.036-8.599-1.155-2.156-1.692-2.91-2.069-2.91-.825 0-.533.992 1.478 5.027 1.98 3.97 4.081 7.024 5.4 7.846.93.58 2.073.484 2.876-.242zm16.593 1.54c-2.33-.222-4.377-.879-5.262-1.688-.347-.317-.924-1.232-1.282-2.032-.359-.8-.986-2.17-1.394-3.043-1.407-3.01-3.558-12.566-3.842-17.066-.087-1.382-.405-4.3-.707-6.482-.475-3.434-.526-4.736-.382-9.663.183-6.266.451-7.804 1.819-10.424 1.117-2.141 4.055-4.975 6.849-6.608 1.219-.712 2.524-1.505 2.9-1.762 1.456-.993 4.983-2.636 7.384-3.44 4.252-1.423 6.966-.923 10.285 1.893 1.362 1.156 1.902 1.864 2.828 3.706 1.078 2.147 3.342 9.306 4.257 13.466.208.946.66 2.791 1.006 4.1.345 1.31.89 3.81 1.21 5.557.321 1.746.818 4.068 1.104 5.16l1.145 4.374c1.484 5.678 1.384 10.59-.275 13.456-1.839 3.176-2.55 3.91-6.1 6.3-3.605 2.426-5.907 3.452-8.843 3.943-2.114.354-10.002.51-12.7.253zm5.133-5.733c.081-.211-.024-.827-.233-1.369-.209-.541-.693-2.28-1.075-3.863-.382-1.583-1.267-4.381-1.967-6.218-.7-1.836-2.11-5.958-3.135-9.16-1.653-5.162-2.3-7.621-4.52-17.197-.304-1.31-.793-2.708-1.088-3.107-.534-.722-.534-.73-.02-1.738.616-1.208 2.328-3.411 3.775-4.858 1.086-1.086 1.232-1.864.382-2.028-.58-.111-3.097 2.471-4.598 4.719-1.633 2.444-2.773 6.844-3.143 12.134-.235 3.353.556 7.975 1.365 7.975.657 0 .698-.512.251-3.113-.304-1.77-.388-3.196-.27-4.56.197-2.286.923-6.577 1.202-7.108.108-.204.387.716.644 2.117 1.568 8.568 4.082 17.563 7.324 26.204.855 2.28 1.798 5.198 2.094 6.482.758 3.289 1.292 4.808 1.786 5.084.516.289 1.027.124 1.226-.396zm9.79-2.682c2.138-1.508 2.75-3.367 2.102-6.38a162.91 162.91 0 0 1-.654-3.213c-.152-.8-.73-2.527-1.284-3.836-1.104-2.608-1.613-4.39-2.226-7.79-.29-1.61-.92-3.382-2.254-6.35-2.302-5.118-3.611-8.526-3.863-10.055-.293-1.776-2.12-6.609-2.73-7.219-.202-.201-.944.043-2.563.841-1.705.84-2.483 1.401-3.085 2.223-.784 1.07-.801 1.156-.661 3.347.12 1.89.5 3.325 2.39 9.01 1.237 3.719 2.746 8.065 3.353 9.657a176.922 176.922 0 0 1 2.154 6.056c.576 1.737 1.324 3.82 1.662 4.63.337.809.998 2.602 1.469 3.984 1.642 4.827 1.865 5.309 2.697 5.815.957.582 1.932.381 3.494-.72zm-2.992-1.457c-.124-.327-.77-2.17-1.437-4.096-.666-1.926-1.332-3.728-1.48-4.004-.147-.276-.854-2.213-1.57-4.304a391.421 391.421 0 0 0-2.622-7.373c-.726-1.965-1.627-4.525-2.001-5.689a449.488 449.488 0 0 0-1.852-5.556c-.644-1.892-1.322-4.297-1.507-5.344-.297-1.682-.286-1.98.095-2.562.566-.864 1.985-1.93 2.857-2.148.657-.164.737-.07 1.487 1.765.435 1.066.935 2.695 1.11 3.618.421 2.23 1.395 4.726 4.613 11.82.846 1.864 1.327 3.394 1.624 5.159.474 2.823 1.454 6.104 2.362 7.912.801 1.594 2.066 7.561 1.841 8.685-.187.938-1.22 2.115-2.173 2.479-.907.346-1.098.294-1.347-.362zm10.77-2.332c.043-.373-.469-2.219-1.138-4.101-.669-1.882-1.572-4.788-2.008-6.458-1.056-4.051-2.229-7.79-3.295-10.505-.83-2.115-.855-2.28-.49-3.153.212-.508.501-.851.643-.763.445.275 2.226 3.065 3.657 5.73.757 1.407 2.432 5.277 3.724 8.598 2.173 5.59 2.4 6.045 3.037 6.123 1.094.133 1.082-.509-.061-3.447-.583-1.497-1.614-4.151-2.29-5.898-2.023-5.213-5.13-10.552-7.03-12.08l-.955-.767-.334-8.654c-.184-4.759-.45-8.87-.593-9.136-.42-.786-.87-.365-1.093 1.026-.115.716-.135 4.873-.043 9.239.104 4.99.073 7.839-.084 7.672-.272-.287-1.852-5.445-2.837-9.26-.667-2.587-2.057-6.38-2.618-7.147-.431-.59-1.22-.354-1.22.366 0 .282.304 1.387.676 2.456.373 1.07 1.074 3.492 1.559 5.383 1.27 4.96 2.362 8.437 4.022 12.816 1.751 4.623 2.709 7.591 3.758 11.658.868 3.362 3.143 10.256 3.562 10.795.45.578 1.362.268 1.45-.493zm26.794-8.195c-1.733-.251-5.371-1.21-6.586-1.736-1.4-.606-5.86-4.107-7.532-5.912-1.726-1.865-2.779-3.808-4.45-8.217l-1.152-3.043.033-3.968c.045-5.324.577-8.292 2.04-11.367 1.684-3.54 4.106-6.998 6.157-8.786.974-.849 2.398-2.12 3.165-2.823 1.138-1.045 1.835-1.42 3.798-2.052 1.322-.425 3.145-.887 4.052-1.027.906-.14 2.719-.45 4.029-.69 4.631-.848 10.224-.003 13.391 2.022 1.81 1.158 4.618 3.511 5.82 4.879 2.11 2.397 3.344 4.668 4.031 7.414.953 3.81 1.407 9.623 1 12.826-.5 3.94-1.524 7.526-3.012 10.538-1.1 2.228-1.697 3.071-3.23 4.57-4.412 4.313-8.475 6.379-14.213 7.228-3 .444-5.002.483-7.341.144zm5.219-4.635c5.153-1.195 7.292-1.851 9.502-2.915 2.166-1.042 2.598-1.375 3.888-2.99 1.84-2.308 3.068-4.24 3.068-4.83 0-.595-.966-.9-1.485-.47-.22.183-.57.658-.775 1.055-.205.397-1.087 1.62-1.959 2.718-1.36 1.71-1.86 2.127-3.512 2.917-1.934.925-4.824 1.8-8.86 2.682-1.878.41-2.432.431-4.1.157-2.538-.417-5.939-1.602-7.781-2.71-1.618-.974-4.196-3.935-5.234-6.012-.833-1.666-1.523-4.652-1.573-6.81l-.042-1.78 3.175-.47a91.51 91.51 0 0 0 6.217-1.187c1.674-.393 3.507-.788 4.073-.876 1.123-.175 1.668-.752 1.391-1.475-.22-.572-1.1-.486-4.802.468-2.6.67-6.943 1.575-8.966 1.867l-1.027.149.151-1.278c.29-2.447 1.569-7.047 2.484-8.936.658-1.358 1.462-2.435 2.817-3.772 3.74-3.695 6.752-5.483 11.155-6.626 2.511-.652 3.043-.91 3.043-1.474 0-.632-.968-.668-3.395-.127-3.702.824-6.16 2.046-9.77 4.857-3.908 3.043-5.893 6.172-7.248 11.424-.683 2.647-.84 3.836-.944 7.144-.142 4.53.297 6.989 1.769 9.904.759 1.504 3.149 4.59 4.367 5.64.922.794 4.593 2.544 6.576 3.135 3.633 1.083 5.251 1.212 7.797.621zm11.751-13.887c1.108-.307 3.733-2.576 4.34-3.75.312-.604.331-.858.087-1.153-.518-.624-.883-.446-2.2 1.08-1.779 2.06-2.414 2.33-5.172 2.198-1.883-.09-2.511-.241-3.69-.883-.782-.426-1.71-1.153-2.062-1.615-.71-.931-1.786-4.33-1.47-4.645.278-.278 3.674-.788 6.54-.982 2.255-.152 2.386-.194 2.47-.792.05-.348-.067-.729-.26-.848-.454-.28-3.45-.064-6.391.462-1.281.229-2.387.358-2.457.288-.237-.237.723-4.262 1.275-5.343.887-1.74 3.388-3.954 5.253-4.652 1.476-.552 1.786-.58 3.464-.32 1.013.156 2.487.6 3.276.986 1.408.689 1.969.699 1.969.035 0-1.121-3.231-2.537-6.265-2.746-1.715-.118-2.069-.051-3.631.68-2.945 1.378-5.397 4.109-6.34 7.062-.715 2.238-.957 5.49-.553 7.421.693 3.312 1.808 5.08 4.03 6.39 2.142 1.263 5.531 1.754 7.787 1.127zm24.561-52.8c.786-.234 2.921-1.177 4.745-2.096 1.823-.918 4.03-1.967 4.902-2.33 2.702-1.12 14.956-7.411 17.39-8.927 6.279-3.907 13.534-9.036 14.81-10.47.248-.278 1.218-2.776 2.156-5.551.938-2.776 1.912-5.452 2.165-5.947 1.244-2.434 4.071-6.947 5.538-8.838.903-1.164 1.752-2.318 1.887-2.565 1.005-1.84 8.475-9.209 9.333-9.209.305 0 .81-2.733.66-3.571-.077-.437-.372-1.52-.655-2.405-.95-2.977-5-7.031-7.867-7.874-3.74-1.1-3.704-1.098-5.894-.246-4.07 1.583-9.67 5.39-14.888 10.12-2.293 2.08-7.204 5.751-11.67 8.725-4.568 3.042-5.383 3.495-8.763 4.875-4.46 1.82-30.266 10.23-31.372 10.223-.895-.005-.864.103 2.021 7.14 2.264 5.521 3.85 9.444 4.869 12.04.571 1.455 1.54 3.836 2.153 5.291a226.738 226.738 0 0 1 2.515 6.35c2.158 5.71 2.145 5.689 3.443 5.689.601 0 1.736-.191 2.522-.425zm210.669 311.09c-9.43-5.718-13.779-8.494-13.69-8.74.283-.775 7.954-13.235 9.18-14.91 2.248-3.071 5.102-4.706 8.213-4.706 2.24 0 4.482 1.069 6.518 3.107 1.888 1.889 2.673 3.906 2.673 6.866 0 1.063.09 1.93.199 1.926.109-.004 4.068-.47 8.797-1.033 4.73-.564 8.625-1 8.656-.971.031.029-1.121 2.017-2.561 4.418l-2.619 4.365-6.434.593c-9.468.871-8.49.616-9.616 2.507-1.14 1.912-1.65 1.328 4.24 4.864 2.328 1.398 4.4 2.695 4.604 2.882.314.288.053.875-1.684 3.797-1.13 1.9-2.19 3.447-2.356 3.435-.165-.011-6.519-3.792-14.12-8.4zm4.866-10.68c1.305-2.304 1.542-2.93 1.626-4.3.083-1.348 0-1.748-.528-2.524-1.771-2.608-5.197-2.78-6.988-.352-1.403 1.902-3.3 5.195-3.103 5.384.201.192 7.297 4.488 7.415 4.489.028 0 .738-1.214 1.578-2.697zm-487.513-9.07c-1.032-1.96-1.873-3.657-1.87-3.77.003-.113 2.446-1.453 5.428-2.977l5.423-2.771 6.267-10.149c5.442-8.81 6.312-10.089 6.598-9.697.182.249 1.197 2.15 2.255 4.226l1.925 3.775-4.028 6.048-4.028 6.048 7.152.155c3.934.085 7.253.263 7.376.396.123.133 1.145 2.006 2.27 4.161l2.047 3.92-2.213-.167c-1.218-.092-6.5-.444-11.739-.784l-9.525-.618-5.596 2.885c-3.078 1.586-5.657 2.884-5.731 2.884-.075 0-.98-1.604-2.011-3.565zm500.965-12.248c-9.313-.656-16.968-1.222-17.01-1.256-.043-.035.72-1.864 1.693-4.065 1.225-2.77 1.9-4 2.194-3.996.233.003 5.658.472 12.057 1.044 6.398.572 11.67 1.003 11.715.958.044-.045-3.91-3.801-8.79-8.347-4.879-4.546-8.87-8.283-8.87-8.305.005-.303 3.428-7.616 3.57-7.63.11-.01 5.787 5.378 12.617 11.974 10.206 9.855 12.394 12.091 12.28 12.547-.077.305-.932 2.306-1.901 4.446-1.263 2.79-1.884 3.881-2.192 3.858-.236-.019-8.05-.57-17.363-1.228zm-513.78-16.09c-2.307-6.047-4.153-11.036-4.102-11.087.144-.143 29.93-11.51 30.35-11.582.437-.076 3.37 7.434 3.027 7.751-.116.108-5.629 2.255-12.25 4.772-6.621 2.517-12.087 4.612-12.147 4.657-.059.044 1.058 3.148 2.484 6.896l2.703 7.113c.091.244-5.067 2.488-5.698 2.478-.096 0-2.061-4.95-4.368-10.998zm539.18-7.752a92.862 92.862 0 0 1-2.567-.886c-.411-.163-.382-.383.333-2.499.432-1.276.747-2.431.702-2.567-.046-.136-4.58-1.703-10.076-3.482-9.791-3.168-9.998-3.222-10.211-2.661-.12.315-.473 1.431-.786 2.48-.313 1.05-.706 1.91-.874 1.91-.495 0-4.81-1.35-5.052-1.58-.216-.207 5.227-17.65 5.647-18.095.16-.169 5.057 1.206 5.485 1.54.035.026-.306 1.148-.757 2.492-.45 1.344-.753 2.51-.673 2.59.177.177 19.507 6.427 19.896 6.433.15.002.616-1.132 1.033-2.521.613-2.042.84-2.496 1.182-2.365.232.09 1.464.48 2.737.867 1.274.388 2.312.827 2.308.976-.019.688-5.73 17.966-5.955 18.017-.14.032-1.208-.26-2.372-.649zm-547.615-16.635-.972-3.903 3.368-3.44c1.852-1.891 5.97-6.091 9.152-9.333 3.181-3.242 5.723-5.955 5.649-6.03-.074-.073-4.929 1.065-10.787 2.531-5.859 1.466-10.687 2.63-10.73 2.587-.043-.043-.493-1.722-1-3.731-.642-2.552-.828-3.686-.614-3.76 1.378-.482 31.285-7.793 31.514-7.705.165.063.813 2.265 1.443 4.893l1.143 4.779-7.592 7.974c-4.176 4.385-7.55 8.015-7.5 8.066.052.052 4.08-.905 8.952-2.125s8.931-2.135 9.02-2.034c.215.242 1.919 7.193 1.79 7.299-.162.132-31.153 7.834-31.525 7.834-.217 0-.69-1.407-1.311-3.902zm525.522-12.46c0-.63 1.622-8.115 1.79-8.258.107-.091 5.195-.793 11.307-1.559 6.112-.765 11.469-1.476 11.903-1.579.737-.174.388-.426-5.159-3.713-13.625-8.075-14.814-8.818-14.802-9.244.018-.681 1.492-7.707 1.65-7.865.078-.078 6.824 3.987 14.992 9.034 11.373 7.03 14.82 9.279 14.727 9.611-.067.239-.509 2.313-.981 4.608-.75 3.646-.928 4.19-1.408 4.295-.96.211-33.072 4.894-33.556 4.894-.254 0-.463-.102-.463-.225zm-522.731-22.01c-4.968-.895-9.135-3.99-11.183-8.304-1.177-2.478-1.626-4.493-1.789-8.02-.183-3.974.14-5.83 1.508-8.671 2.319-4.814 6.874-7.75 13.362-8.614 7.85-1.045 14.37 2.062 17.324 8.254 1.358 2.846 1.915 5.452 1.942 9.09.026 3.394-.32 5.084-1.594 7.777-1.867 3.946-5.991 7.002-10.924 8.093-2.406.533-6.775.732-8.646.395zm7.19-9.036c1.911-.393 4.53-1.704 5.658-2.83 1.944-1.945 2.593-4.717 1.768-7.554-1.178-4.052-5.637-6.173-11.484-5.462-3.907.475-6.454 1.592-8.223 3.606-1.258 1.434-1.683 2.623-1.695 4.747-.037 6.159 5.645 9.205 13.977 7.493zm537.238-2.388c-8.222-.721-14.971-1.334-15-1.362-.097-.098 1.972-23.48 2.089-23.596.097-.097 6.084.389 6.2.503.02.02-.26 3.407-.623 7.527-.362 4.12-.608 7.542-.546 7.604.18.18 5.303.666 5.451.518.074-.074.405-3.243.736-7.041.33-3.8.64-6.946.687-6.994.08-.08 6.105.405 6.21.5.024.022-.23 3.195-.564 7.05-.335 3.857-.583 7.042-.551 7.079.124.144 8.081.739 8.086.604.047-1.415 1.337-14.934 1.434-15.031.15-.15 5.904.316 6.08.492.08.079-1.818 22.952-1.946 23.458-.046.185-4.1-.115-17.743-1.311zM413.81 204.407c-.138-.25 3.312-10.125 4.832-13.829.626-1.525 1.946-5.096 2.934-7.933.987-2.838 1.987-5.61 2.221-6.162.474-1.112.99-1.099.805.02-.133.807-.779 5.649-1.208 9.052a281.609 281.609 0 0 1-.784 5.556c-.275 1.82-.813 5.45-1.195 8.07-.382 2.62-.817 4.912-.967 5.093-.302.366-6.44.489-6.638.133zm19.129-9.99c-.336-.404-.45-1.283-1.207-9.259-.773-8.156-.76-7.887-.353-7.76.45.14 1.289 1.806 2.228 4.429.387 1.078 1.645 3.924 2.796 6.324 1.151 2.4 2.093 4.504 2.093 4.677 0 .253-4.448 2.002-5.061 1.99-.091-.001-.315-.181-.496-.4zm-26.188-12.212c-1.824-.394-2.292-.658-2.001-1.129.377-.61 12.25-10.065 12.645-10.07.461-.006.115.7-1.212 2.476-2.195 2.934-4.81 6.8-5.438 8.038-.653 1.287-.965 1.34-3.994.685zm45.642-2.196c-.087-.14.311-2.077.885-4.305 1.334-5.185 1.55-6.553 1.034-6.553-.21 0-1.56.479-2.998 1.064-1.439.586-2.758 1.01-2.932.943-.327-.125-.292-.934.17-3.991.133-.873.313-2.266.401-3.096l.16-1.508-.744.224c-2.125.638-4.98 1.839-5.139 2.161-.098.202-.442 1.379-.762 2.616a240.714 240.714 0 0 1-.672 2.554c-.05.168-.484.39-.967.494-.483.103-.997.281-1.142.396-.369.289-4.317.926-4.515.729-.088-.09.154-1.171.538-2.406.663-2.124 1.787-7.088 1.64-7.235-.08-.08-4.535 1.26-6.23 1.873-1.446.524-2.05.53-2.244.024-.084-.217-.282-1.974-.44-3.902-.337-4.095-1-8.883-1.305-9.43-.253-.452-.343-.206-.812 2.218-.17.873-.543 2.48-.831 3.572-.288 1.091-.756 2.877-1.04 3.969-1.071 4.115-1.016 3.988-1.91 4.359-1.043.432-4.898 1.067-5.121.843-.09-.09.022-.672.249-1.294.227-.621.712-2.44 1.077-4.04.898-3.943 1.03-4.63.888-4.63-.067 0-.917.78-1.89 1.733-2.954 2.897-5.07 3.983-9.777 5.02-1.625.358-2.672.42-4.714.28-1.444-.1-2.929-.297-3.3-.438-.67-.255-.673-.269-.568-2.893.059-1.45.221-2.751.362-2.891.14-.14 1.646-.55 3.347-.91 3.498-.74 4.642-1.208 5.93-2.423.736-.694.9-1.044.9-1.921 0-.976-.078-1.099-.86-1.356-.473-.156-1.812-.404-2.977-.551-6.952-.878-9.124-1.651-10.034-3.569-1.257-2.65.569-7.163 4.584-11.332a25.165 25.165 0 0 1 7.176-5.169c3.412-1.641 5.09-2.135 8.896-2.618 3.977-.505 4.857-.347 4.857.877 0 .794-1.049 7.026-1.232 7.324-.068.11-.562.203-1.1.208-1.952.019-6.976 1.346-8.665 2.29-1.731.968-3.82 3.11-3.82 3.917 0 1.175 1.192 1.461 6.013 1.443 4.088-.015 5.1.129 8.444 1.201.496.16.617.023.974-1.098a18.47 18.47 0 0 0 .577-2.47c.282-1.972.34-2.044 2.724-3.343 1.266-.69 3.248-1.823 4.404-2.518 1.581-.95 2.187-1.192 2.447-.976.257.213.346 1.32.347 4.29.002 5.654.282 10.12.6 9.553.139-.248 1.117-2.968 2.175-6.044 2.586-7.523 2.684-7.745 3.527-8.048 2.6-.932 4.326-1.42 4.623-1.306.339.13-.253 3.571-2.847 16.554-.388 1.943-.657 3.58-.598 3.64.16.16 2.66-5.296 3.467-7.57.387-1.09 1.387-3.344 2.22-5.007l1.516-3.023 2.646-.715c1.455-.394 3.454-.864 4.442-1.044 1.65-.301 1.841-.288 2.348.167.525.47.544.667.381 4.067-.093 1.964-.287 4.702-.429 6.085-.142 1.382-.441 5.311-.665 8.731-.224 3.42-.479 6.694-.567 7.276-.204 1.356.125 1.046.774-.727.605-1.654 3.204-8.964 3.946-11.096.287-.827.67-1.626.848-1.774.78-.647 4.833-2.46 6.713-3.003 1.634-.471 2.701-.59 5.228-.58 3.517.014 4.555.344 6.178 1.967 2.12 2.12 1.684 6.581-1.04 10.63-1.448 2.153-5.48 6.303-7.52 7.74-2.46 1.735-3.414 2.08-6.214 2.249l-2.51.15-.443 2.144a65.424 65.424 0 0 1-.969 3.97c-.288 1.003-.6 2.181-.693 2.618-.153.72-.978 3.617-1.073 3.766-.054.085-3.719.79-5.08.977-.61.084-1.18.038-1.267-.103zm14.149-21.613c2.59-1.158 4.202-3.43 3.44-4.854-.6-1.122-4.074-.375-4.632.996-.512 1.257-1.454 4.167-1.454 4.49 0 .439.535.31 2.646-.632zm-18.521-2.879 1.72-.582.072-4.725c.044-2.887-.022-4.625-.171-4.468-.313.332-2.232 4.93-3.198 7.666-.411 1.165-.84 2.346-.954 2.626-.175.43-.128.475.302.287.28-.122 1.283-.484 2.229-.804zm-.732-31.808c.069-.255 1.191-1.951 2.494-3.77 1.304-1.82 4.308-6.195 6.677-9.724 2.37-3.529 4.35-6.416 4.4-6.416.596 0 6.21 2.256 6.21 2.496 0 .47-6.114 6.165-9.325 8.686-2.088 1.639-7.018 6.03-8.657 7.709-1.49 1.527-2.014 1.824-1.799 1.019zm-8.937-4.366c.346-4.965.699-9.497.954-12.237l.788-8.466c.64-6.893 1.283-12.87 1.424-13.258.2-.55 7.642-1.674 7.935-1.199.096.155-.418 2.28-1.141 4.723-3.01 10.163-3.728 12.544-4.772 15.8-1.13 3.524-2.516 8.28-3.994 13.711-.465 1.71-.958 3.109-1.096 3.109-.15 0-.189-.88-.098-2.183zm-11.16-4.233c-1.68-3.122-5.301-10.836-5.581-11.886-.226-.847-.187-1.035.31-1.47 1.439-1.261 4.266-2.834 4.658-2.592.11.068.272.752.36 1.52.088.769.475 4.017.859 7.218.922 7.69 1.032 9.128.698 9.128-.15 0-.737-.863-1.304-1.918z" transform="translate(-94.834 -84.069)"/></svg>