<svg width="3924.071" height="3924.516" viewBox="0 0 3924.071 3924.516" xmlns="http://www.w3.org/2000/svg"><g style="display:inline"><path style="display:inline;fill:#fff;fill-opacity:1" d="M2439.5 4463.872c-458.04-13.35-897.972-188.438-1242-494.302-54.757-48.683-115.336-109.257-164.084-164.07-223.8-251.65-379.416-556.956-450.508-883.865-59.93-275.583-59.93-562.687 0-838.27C654 1756.456 809.615 1451.15 1033.416 1199.5c36.478-41.016 92.316-98.158 131.084-134.143 445.736-413.744 1049.424-596.49 1651-499.782 332.644 53.475 648.465 194.36 913 407.285 96.084 77.338 188.221 167.082 268.105 261.14 81.019 95.395 155.355 202.464 216.615 312 192.293 343.827 275.756 734.856 241.19 1130-38.244 437.21-221.615 846.31-523.98 1169-71.074 75.851-154.921 151.821-236.93 214.67-361.025 276.675-797.909 417.496-1254 404.202zm134.289-62.897c304.015-12.616 589.795-92.876 851.564-239.161 376.2-210.232 673.318-546.27 834.945-944.314 82.575-203.361 127.53-410.83 137.812-636 2.473-54.158 1.292-146.311-2.634-205.5-30.296-456.79-222.834-883.512-545.886-1209.845-170.572-172.304-371.51-310.13-592.59-406.464-200.442-87.342-417.028-139.58-635-153.157-78.816-4.91-165.184-4.91-244 0-173.705 10.82-346.281 46.08-511.5 104.51-344.867 121.96-649.901 343.9-874.064 635.956-180.598 235.298-302.574 506.764-358.336 797.5-17.242 89.898-27.697 180.439-32.215 279-2.48 54.114-1.299 146.133 2.639 205.5 30.297 456.807 222.822 883.5 545.886 1209.845 170.546 172.279 371.543 310.145 592.59 406.464 214.013 93.255 442.482 145.568 679.5 155.586 28.392 1.2 123.09 1.25 151.289.08zM2426 4320.905c-289.235-12.384-562.442-89.464-813-229.375-201.73-112.645-384.374-267.002-530.135-448.03-112.28-139.448-202.185-291.93-269.153-456.5-72.466-178.08-116.261-368.297-129.163-561-5.232-78.139-5.232-168.861 0-247 19.891-297.1 112.91-585.464 269.994-837 220.535-353.138 552.626-619.727 942.957-756.969 155.762-54.766 319.064-87.99 484-98.47 77.431-4.92 159.569-4.92 237 0 283.962 18.042 560.332 103.213 805.5 248.235 264.765 156.614 485.678 377.36 642.692 642.204 114.122 192.498 191.423 404.357 228.224 625.5 32.74 196.741 32.74 403.259 0 600-56.214 337.8-206.726 652.044-435.377 909-235.726 264.906-541.987 454.876-882.823 547.606-130.921 35.619-263.744 55.85-406.216 61.873-27.355 1.156-116.825 1.11-144.5-.075zm113.5-19.915c122.996-2.946 232.467-16.003 349-41.626 542.425-119.265 1003.061-488.185 1240.658-993.633 199.304-423.99 224.224-915.96 68.798-1358.231-110.941-315.689-308.201-594.75-569.456-805.603-331.387-267.456-744.451-408.011-1169.24-397.863-151.782 3.625-293.137 24.204-436.63 63.565C1501.777 910.47 1068.314 1286.14 851.023 1783c-157.277 359.63-191.979 763.414-98.602 1147.322 65.127 267.763 194.032 520.648 373.475 732.678 333.548 394.12 816.3 625.941 1328.437 637.924 17.692.414 34.867.82 38.167.9 3.3.082 24.45-.294 47-.834zm-92.5-498.586c-21.168-1.087-45.677-2.711-60.5-4.008-192.407-16.831-376.408-75.812-543.5-174.218-123.979-73.014-238.535-169.635-331.596-279.678-92.17-108.992-164.814-229.902-216.888-361-46.694-117.555-74.838-235.591-86.431-362.5-4.036-44.173-4.585-58.374-4.585-118.5s.55-74.326 4.585-118.5c11.593-126.909 39.737-244.945 86.431-362.5 110.493-278.17 314.163-510.205 576.484-656.773 24.724-13.814 80.738-41.787 105.5-52.686 132.073-58.131 268.681-93.228 410.5-105.463 43.033-3.712 53.167-4.078 113-4.078s69.967.366 113 4.078c191.886 16.555 376.9 75.806 543.884 174.179 141.652 83.45 269.542 196.456 369.778 326.743 142.06 184.649 231.673 401.75 260.277 630.566 7.7 61.593 9.561 93.602 9.561 164.434 0 60.01-.536 73.932-4.564 118.5-18.17 201.08-81.62 391.557-188.208 565-72.96 118.723-167.203 227.221-276.329 318.127-136.394 113.621-297.818 199.433-467.012 248.258-90.155 26.017-173.696 40.725-273.887 48.22-19.466 1.457-120.748 2.763-139.5 1.8zm117-21.464c305.817-14.582 597.746-141.104 819.88-355.338 223.583-215.63 359.783-499.633 387.545-808.102 6.663-74.042 6.663-155.958 0-230-21.377-237.522-106.72-460.575-249.276-651.5-139.356-186.64-328.5-333.015-543.149-420.33-131.76-53.597-268.081-83.705-415.5-91.768-44.895-2.455-117.356-1.298-167 2.666-231.989 18.526-454.81 101.075-644.5 238.769-103.329 75.005-197.597 168.078-274.139 270.663-196.53 263.4-283.104 585.805-245.834 915.5 18.545 164.05 71.442 328.202 152.743 474 147.048 263.7 383.814 468.587 664.23 574.795 135.251 51.227 275.72 78.42 424 82.084 18.455.456 67.537-.32 91-1.439zm-379.5-94.514-16.5-1.461c-74.86-6.638-146.88-33.054-204-74.826-25.08-18.34-56.617-48.514-75.4-72.139-10.169-12.789-25.063-34.327-32.85-47.5-23.618-39.958-41.938-87.056-52.315-134.5-14.62-66.839-16.137-128.274-4.987-202 15.146-100.157 50.051-184.929 103.942-252.44 8.61-10.787 33.57-38.493 38.264-42.474 1.565-1.328 5.89-5.265 9.612-8.748 32.203-30.141 76.217-59.943 121.573-82.317l15.161-7.478v-339.317l-25.25-.6c-13.887-.329-47.075-.836-73.75-1.127-26.675-.29-53.719-.8-60.098-1.133l-11.597-.605-.608 4.432c-.334 2.437-.887 24.654-1.228 49.37-.657 47.474-1.49 57.25-5.64 66.075-6.14 13.063-16.35 12.061-21.806-2.138-2.25-5.854-2.308-6.9-2.414-43l-.109-37-11.264-.283-11.265-.283.667 38.283c.72 41.438.234 48.156-4.113 56.734-2.956 5.833-4.467 7.098-9.236 7.734-5.043.673-8.747-2.27-12.102-9.613-2.43-5.316-2.563-6.56-2.91-27.072-.201-11.825.067-86.975.595-167 .828-125.4 1.177-146.605 2.53-153.5 4.772-24.333 13.152-41.117 27.233-54.547 8.36-7.974 11.182-9.983 20.461-14.568 8.727-4.313 16.44-6.898 28.404-9.518 8.369-1.833 15.314-2.041 99-2.965 49.5-.546 91.985-1.236 94.41-1.533l4.41-.54-.66-34.578c-.363-19.018-.66-83.278-.66-142.8V1831.23l-16.75-.6c-9.213-.33-41.05-1.07-70.75-1.645-81.924-1.584-101.949-2.991-120.967-8.502-26.538-7.69-38.643-20.963-44.673-48.982-1.715-7.973-2.036-15.507-2.812-66-1.36-88.539-2.06-284.952-.99-278 5.45 35.423 31.213 57.552 78.442 67.38 18.388 3.826 34.373 5.101 64.046 5.11 37.584.013 58.783-1.793 111.454-9.495 39.62-5.794 101.913-18.87 160-33.586 19.372-4.908 30.16-7.14 36.5-7.55 24.764-1.601 50.068 7.648 74.5 27.231 25.976 20.822 45.087 52.646 48.887 81.41.618 4.675 1.564 36.85 2.103 71.5 2.325 149.487 3.189 199.388 3.829 221.174l.681 23.175 17.708-19.175 20.017-21.674c1.27-1.375 15.573-16.9 31.784-34.5a96755.041 96755.041 0 0 1 95.489-103.5c8.892-9.625 48.746-52.825 88.564-96a621316.517 621316.517 0 0 1 125.464-136c29.187-31.625 54.413-59.009 56.057-60.852l2.989-3.353 9.464 7.825c41.902 34.647 84.798 77.101 119.103 117.88 20.686 24.589 49.337 65.55 65.4 93.5 26.979 46.943 47.577 97.609 57.933 142.5.889 3.85 2.237 9.7 2.998 13 1.857 8.064 6.104 35.304 7.717 49.5 1.945 17.121 1.62 69.57-.546 88-6.235 53.07-19.155 96.657-43.125 145.5-13.757 28.03-27.728 50.681-47.493 77-15.165 20.194-28.452 35.199-51.392 58.036-30.45 30.315-59.774 54.224-95.631 77.972-13.573 8.99-45.347 28.492-46.42 28.492-.213 0-3.244 1.623-6.734 3.606-20.609 11.712-64.957 32.489-92.747 43.452-10.76 4.244-12.98 5.441-11.272 6.074 1.17.433 8.326 2.413 15.9 4.4 7.575 1.987 16.923 4.446 20.773 5.464 3.85 1.018 12.4 3.27 19 5.004 6.6 1.734 15.15 3.984 19 5 3.85 1.016 12.4 3.266 19 5s15.15 3.984 19 5c3.85 1.016 12.4 3.267 19 5.002 18.761 4.93 30.4 7.994 38 10.003 3.85 1.018 13.3 3.49 21 5.492 39.5 10.274 65.808 22.911 88 42.27 28.646 24.99 46.06 62.569 50.468 108.911.514 5.402 1.417 103.197 2.008 217.322.59 114.125 1.34 216.275 1.668 227l.595 19.5 8.518-9 45.438-48c20.306-21.45 38.282-40.078 39.947-41.396 4.08-3.229 13.602-7.051 17.64-7.08 4.004-.03 9.142 2.043 11.375 4.588 2.965 3.378 4.132 10.001 2.778 15.758-2.447 10.405-3.429 11.838-34.156 49.867-12.326 15.255-23.44 29.798-24.7 32.318-2.806 5.62-3.685 11.445-2.156 14.3 1.545 2.889 7.564 2.866 13.77-.051 7.062-3.32 14.642-11.733 36.763-40.804 21.042-27.654 25.947-32.738 37.543-38.919 23.065-12.293 35.045 3.031 22.437 28.701-3.554 7.235-7.24 12.464-20.953 29.718-3.934 4.95-20.365 25.875-36.513 46.5-47.614 60.816-68.894 87.961-76.039 97-3.696 4.675-20.294 25.825-36.886 47a65271.048 65271.048 0 0 1-38.421 49c-11.103 14.123-67.47 85.97-85.514 109-33.965 43.349-32.224 41.343-34.122 39.317-.937-1-18.046-20.717-38.021-43.817s-39.727-45.849-43.893-50.553c-4.166-4.704-12.804-14.604-19.196-22-6.392-7.396-31.978-36.847-56.858-65.447l-45.237-52 .605-40c.332-22 .889-172.534 1.237-334.52.59-275.427.52-295.198-1.086-305-2.985-18.215-7.178-29.934-15.078-42.146-24.001-37.102-72.108-55.455-147.124-56.127-12.74-.114-23.386.018-23.657.293-.271.275-.59 25.925-.709 57-.213 55.833-.841 70.218-3.45 79-4.367 14.702-11.34 22-21.021 22-11.359 0-21.098-12.444-25.066-32.029-1.58-7.796-1.618-23.649-.575-238.91.615-126.809 1.384-256.533 1.71-288.277.325-31.744.32-58.154-.01-58.69-.519-.838-8.1 4.418-44.143 30.61l-6.085 4.42-.665 190.188c-.366 104.604-.965 272.26-1.332 372.572l-.666 182.383-26.084-.625c-14.346-.344-66.134-.856-115.084-1.138-48.95-.282-106.22-.778-127.267-1.103l-38.267-.591.267 25.345.267 25.345 21.5.676c70.57 2.217 132.842 13.89 187.5 35.144 10.531 4.095 32.824 14.222 40 18.17 2.75 1.514 7.475 4.112 10.5 5.775 42.904 23.584 83.83 59.463 117.185 102.735 9 11.676 25.063 36.051 33.28 50.5 3.753 6.6 6.903 12.107 7.001 12.239.183.245 26.462-26.275 51.025-51.494 18.651-19.149 29.263-26.391 42.781-29.198 10.202-2.118 18.268 1.621 22.334 10.353 4.619 9.92 2.691 28.374-4.862 46.548-2.57 6.186-14.2 22.292-68.6 95-112.064 149.78-150.07 200.606-194.46 260.052-23.614 31.625-43.232 57.831-43.596 58.236-.363.406-3.305-5.67-6.537-13.5-18.31-44.355-41.224-87.033-64.826-120.736-27.09-38.684-62.492-75.144-97.225-100.134-37.573-27.033-78.336-45.491-127-57.509-14.978-3.698-15.033-3.704-37.5-3.78-22.042-.075-29.608.622-42.56 3.924-29.613 7.55-52.095 25.686-65.701 52.999-14.061 28.226-21.589 75.153-17.325 108 7.547 58.132 26.175 104.328 58.045 143.949 55.498 68.995 151.32 112.139 287.541 129.464 44.06 5.603 83.757 6.088 124 1.514 156.642-17.803 249.446-115.02 282.973-296.427 1.575-8.525 3.197-17.975 3.603-21 .677-5.05.8-5.255 1.505-2.5 3.003 11.747 4.922 89.518 2.97 120.436-7.308 115.831-40.235 202.56-100.57 264.903-16.033 16.565-26.5 25.716-42.563 37.205-56.827 40.65-123.552 63.393-212.918 72.573-14.372 1.476-93.817 2.838-105.5 1.808zm420.055-1350.97c45.264-13.117 94.102-68.342 148.973-168.456 16.456-30.024 32.725-63.24 36.355-74.225 13.887-42.02 15.446-97.025 4.53-159.775-1.387-7.975-2.933-16.075-3.435-18-.502-1.925-2.315-9.087-4.029-15.916-15.118-60.244-41.46-101.552-81.949-128.508-31.132-20.727-52.484-24.175-84.057-13.576-35.546 11.932-61.272 36.223-81.092 76.564l-6.04 12.294-.866 65.32c-.477 35.927-1.346 103.347-1.932 149.822-.586 46.475-1.497 112.625-2.024 147-.527 34.375-.965 72.514-.974 84.754l-.015 22.254 8.217 6.093c22.607 16.762 44.305 21.32 68.338 14.355z" transform="translate(-537.96 -540.218)"/></g><g style="display:inline"><path style="font-weight:700;font-size:366.667px;font-family:&quot;Times New Roman&quot;;-inkscape-font-specification:&quot;Times New Roman, &quot;;letter-spacing:30px;fill:#fff;fill-opacity:1;fill-rule:nonzero;stroke:none;stroke-width:18.8976;stroke-linecap:round;stroke-opacity:1" d="m1949.856 3937.205-22.589 64.174q-6.538 18.577-6.067 24.247.7 5.561 5.431 10.453 4.732 4.892 20.438 10.42l-2.2 6.25-117.203-41.255 2.2-6.249q15.875 5.588 22.458 4.679 6.812-1.019 10.672-4.975 4.029-3.896 10.568-22.473l52.31-148.615q6.54-18.576 5.84-24.137-.472-5.67-5.204-10.563-4.731-4.892-20.437-10.42l2.2-6.248 106.394 37.45q41.544 14.622 58.776 27.141 17.231 12.518 23.921 32.336 6.75 19.648-.561 40.42-8.917 25.332-32.981 35.462-15.339 6.37-38.123 4.233l27.77 96.895q5.518 18.835 8.77 24.155 5.082 7.673 14.023 11.39l-2.2 6.248-72.111-25.383-37.065-130.345zm39.53-112.306-35.31 100.315 9.627 3.388q23.474 8.263 36.613 8.143 13.198-.29 23.708-9.117 10.738-8.937 17.098-27.008 9.214-26.176 1.285-43.012-7.76-16.778-34.95-26.348zm247.718 69.812-16.281 97.478 4.768.796q22.78 3.805 35.411-8.788 12.632-12.593 20.118-40.022l6.71 1.12-20.942 125.38-6.71-1.121q1.302-20.838-3.402-35.056-4.528-14.189-12.797-20.108-8.239-6.096-25.368-8.957l-11.267 67.458q-3.304 19.778-2.452 24.458 1.028 4.71 5.148 8.302 4.12 3.593 14.362 5.303l14.303 2.39q33.553 5.604 56.28-6.574 22.903-12.148 37.042-42.46l6.533 1.092-23.484 74.311-206.964-34.569 1.091-6.534 7.947 1.328q10.419 1.74 17.395-.907 5.005-1.705 8.48-7.296 2.65-3.914 5.659-21.926l26.31-157.518q2.713-16.247 2.45-20.103-.734-6.475-4.941-10.627-5.885-6.065-17.54-8.012l-7.946-1.327 1.09-6.534 200.43 33.477-11.827 70.813-6.71-1.12q-.785-26.815-8.257-39.68-7.295-12.835-23.363-20.965-9.358-4.83-36.553-9.372zm366.803 166.497-9.02 85.233-215.56.28-.01-6.624 8.057-.011q10.563-.014 17.003-3.782 4.652-2.513 7.15-8.603 1.964-4.3 1.94-22.561l-.207-159.7q-.024-18.62-2-23.273-1.975-4.652-8.067-8.046-5.913-3.573-16.118-3.56l-8.056.01-.01-6.624 129.443-.169.01 6.625-10.563.014q-10.563.014-17.004 3.782-4.652 2.512-7.33 8.603-1.963 4.3-1.94 22.561l.202 154.688q.024 18.62 2.18 23.809 2.154 5.01 8.424 7.508 4.478 1.606 21.665 1.583l20.231-.025q19.336-.026 32.218-6.846 12.882-6.82 22.173-21.513 9.47-14.693 17.847-43.35zm257.576-40.13 5.257 85.547-212.522 36.066-1.108-6.531 7.943-1.348q10.414-1.767 16.14-6.553 4.17-3.25 5.622-9.67 1.223-4.566-1.832-22.57l-26.72-157.45q-3.115-18.357-5.836-22.617-2.72-4.26-9.29-6.595-6.425-2.542-16.486-.835l-7.943 1.348-1.108-6.53 127.618-21.658 1.109 6.531-10.415 1.767q-10.414 1.768-16.14 6.553-4.17 3.25-5.798 9.7-1.223 4.566 1.832 22.57l25.881 152.508q3.115 18.357 6.102 23.117 2.957 4.583 9.554 6.005 4.683.84 21.628-2.036l19.946-3.384q19.063-3.236 30.634-12.1 11.57-8.864 18.293-24.896 6.899-16.061 10.402-45.711zm-16.127-156.693 118.108-41.918 2.215 6.243-5.905 2.096q-13.33 4.73-17.373 9.395-3.935 4.437-4.392 10.108-.288 5.612 6.659 25.184l39.762 112.033q10.899 30.708 18.987 39.046 8.258 8.278 21.223 11.086t29.163-2.941q18.56-6.587 28.617-19.466 10.166-13.107 11.368-30.062 1.37-17.014-11.564-53.459l-33.116-93.305q-5.449-15.354-10.99-20.796-5.541-5.443-11.333-6.237-8.97-1.186-22.805 3.724l-2.216-6.242 79.132-28.086 2.216 6.243-4.724 1.677q-9.618 3.413-14.652 9.57-5.034 6.156-5.148 14.935-.277 6.178 4.693 20.182l30.84 86.893q14.312 40.326 15.26 60.127 1.118 19.741-14.137 42.063-15.255 22.323-50.856 34.958-29.696 10.54-48.708 8.358-25.935-2.954-41.035-16.593-15.1-13.638-25.22-42.153l-39.762-112.033q-7.006-19.741-10.876-23.687-3.93-4.114-10.347-5.067-6.418-.952-20.868 4.367z" transform="translate(-548.46 -531.546)" aria-label="RELLU"/><path style="font-weight:700;font-size:366.667px;font-family:&quot;Times New Roman&quot;;-inkscape-font-specification:&quot;Times New Roman, &quot;;letter-spacing:30px;fill:#fff;fill-opacity:1;fill-rule:nonzero;stroke:none;stroke-width:18.8976;stroke-linecap:round;stroke-opacity:1" d="m892.989 2979.63 61.374-23.463 2.302 6.02q-19.193 13.471-25.897 23.51-6.872 10.102-8.043 23.583-.58 7.506 5.493 23.393l6.458 16.89 174.924-66.875q17.392-6.649 21.037-10.15 3.58-3.67 4.816-10.467 1.003-6.9-2.705-16.6l-2.877-7.526 6.188-2.365 45.393 118.734-6.188 2.366-2.877-7.525q-3.772-9.867-9.585-14.545-4.004-3.453-10.649-3.788-4.717-.305-21.774 6.217l-174.925 66.875 6.266 16.389q8.759 22.91 22.422 29.57 19.108 9.371 45.663 3.627l2.43 6.355-61.374 23.464zm126.386-240.51 15.158 84.408 25.064 5.868q12.517 2.845 20.094 1.484 10.045-1.803 13.347-10.764 1.965-5.264.02-24.196l6.52-1.171 14.272 79.474-6.52 1.17q-4.249-12.515-14.37-19.247-10.299-6.7-39.796-13.954l-206.016-51.225-.6-3.348 180.479-121.36q25.627-17.335 31.428-26.563 4.387-6.972 3.306-18.056l6.52-1.17 20.76 115.598-6.52 1.171-.855-4.758q-2.5-13.921-7.39-18.864-3.515-3.37-8.802-2.42-3.172.569-6.33 2.227-1.523.638-12.267 7.66zm-11.964 8.333-75.902 50.374 88.876 21.875zm-19.437-341.057-156.16-74.657 5.479-98.677 6.614.367-.437 7.866q-.595 10.726 2.801 17.37 2.255 4.607 8.005 7.616 4.181 2.205 22.236 3.207l159.813 8.873q18.59 1.032 23.348-.676 4.757-1.708 8.67-7.588 3.733-5.889 4.3-16.078l.436-7.866 6.614.367-7.027 126.563-6.614-.367.437-7.865q.595-10.726-2.802-17.37-2.254-4.608-8.183-7.627-4.181-2.204-22.415-3.216l-179.655-9.975 215.967 105.233-.238 4.29-224.76 82.198 170.717 9.479q17.877.992 22.038.327 9.067-1.828 15.214-9.197 5.978-7.558 6.901-24.183l6.614.367-4.605 82.946-6.614-.367.14-2.503q.624-8.034-1.67-15.155-2.473-7.13-6.922-10.964-4.45-3.833-12.742-6.266-1.947-.467-18.214-1.37l-153.377-8.515q-18.413-1.023-22.99.696-4.758 1.708-8.492 7.597-3.912 5.88-4.478 16.069l-.427 7.687-6.614-.367 5.498-99.034zm24.914-321.22 64.782 18.303q18.952 5.354 24.581 4.526 5.506-1.049 10.09-6.08 4.633-5.202 9.111-21.053l6.375 1.801-33.54 118.71-6.374-1.802q4.576-16.195 3.253-22.708-1.446-6.735-5.637-10.337-4.143-3.775-23.095-9.13l-151.617-42.837q-18.952-5.354-24.458-4.305-5.63.828-10.213 5.858-4.584 5.03-9.111 21.054l-6.375-1.801 28.768-101.825q14.215-50.31 38.315-67.128 24.1-16.818 50.978-9.224 22.743 6.425 34.946 25.129 12.204 18.703 11.053 45.169-.587 17.88-11.832 57.68zm-114.402-32.323 100.963 28.526q1.951-5.588 2.779-8.517 5.939-21.02-3.254-35.896-9.364-14.925-35.553-22.324-26.016-7.35-41.289.613-15.273 7.964-21.65 30.534zm103.67-278.116 88.542 43.901 2.147-4.33q10.26-20.692 1.88-36.438-8.38-15.745-32.45-30.878l3.022-6.095 113.885 56.468-3.022 6.095q-19.561-7.3-34.533-6.93-14.892.21-22.958 6.402-8.227 6.112-15.941 21.671l61.273 30.381q17.965 8.908 22.691 9.453 4.806.384 9.44-2.514 4.634-2.898 9.247-12.201l6.442-12.993q15.111-30.476 10.062-55.76-4.969-25.446-29.865-47.782l2.943-5.935 64.282 44.063-93.212 187.991-5.934-2.942 3.578-7.218q4.693-9.464 4.188-16.909-.178-5.284-4.518-10.233-2.975-3.674-19.336-11.786l-143.079-70.942q-14.757-7.317-18.523-8.186-6.41-1.18-11.604 1.64-7.514 3.869-12.763 14.455l-3.579 7.219-5.935-2.943 90.27-182.056 64.32 31.892-3.022 6.095q-25.885-7.04-40.366-3.628-14.402 3.25-26.849 16.263-7.34 7.551-19.589 32.253zm257.02-199.358 53.76 41.695q15.561 12.07 21.09 13.412 5.498 1.092 11.634-1.853 6.135-2.945 16.34-16.102l5.234 4.06-76.148 98.183-5.234-4.06q10.313-13.299 11.53-19.833 1.183-6.785-1.352-11.696-2.425-5.053-17.987-17.123l-124.497-96.556q-15.562-12.07-21.06-13.161-5.529-1.343-11.664 1.602-6.136 2.944-16.34 16.102l-5.235-4.06 69.126-89.129q26.992-34.803 44.31-47.2 17.32-12.397 38.235-12.489 20.774-.201 38.175 13.295 21.222 16.458 23.236 42.49 1.2 16.565-8.02 37.51l100.707 4.242q19.613.71 25.688-.695 8.884-2.4 15.234-9.71l5.235 4.06-46.852 60.41-135.38-5.985zm-94.081-72.966 84.035 65.175 6.255-8.064q15.251-19.665 19.285-32.17 3.893-12.614-1.165-25.373-5.09-13.01-20.228-24.75-21.928-17.008-40.407-14.8-18.37 2.067-36.035 24.844zm232.18-251.63 64.568 74.819 3.66-3.158q17.485-15.09 15.872-32.853-1.614-17.763-17.927-41.05l5.15-4.445 83.051 96.234-5.15 4.445q-15.196-14.319-29.138-19.787-13.806-5.585-23.643-3.008-9.954 2.441-23.102 13.788l44.684 51.777q13.1 15.18 17.245 17.516 4.28 2.219 9.675 1.346 5.396-.872 13.257-7.657l10.979-9.474q25.753-22.225 30.911-47.488 5.294-25.38-8.984-55.625l5.015-4.328 42.147 65.554-158.855 137.091-4.328-5.015 6.1-5.264q7.996-6.901 10.42-13.959 1.886-4.938-.194-11.184-1.316-4.54-13.247-18.365l-104.34-120.904q-10.76-12.47-13.895-14.731-5.45-3.574-11.331-2.991-8.426.65-17.372 8.37l-6.1 5.263-4.327-5.015 153.84-132.763 46.906 54.352-5.151 4.445q-21.126-16.533-35.796-19.008-14.534-2.592-31.055 4.571-9.696 4.111-30.57 22.125zm256.967-187.21 49.145 85.742 4.194-2.404q20.038-11.485 21.835-29.23 1.798-17.746-9.784-43.713l5.903-3.383 63.212 110.285-5.902 3.383q-12.192-16.95-24.838-24.972-12.491-8.111-22.639-7.454-10.236.502-25.303 9.138l34.01 59.336q9.971 17.397 13.595 20.48 3.779 2.992 9.242 3.163 5.463.17 14.472-4.994l12.582-7.211q29.513-16.916 39.386-40.735 10.028-23.908 1.769-56.319l5.747-3.294 28.897 72.379-182.047 104.344-3.294-5.747 6.99-4.006q9.164-5.253 12.887-11.72 2.792-4.49 1.94-11.017-.429-4.708-9.51-20.551l-79.416-138.555q-8.19-14.29-10.837-17.107-4.67-4.547-10.555-5.094-8.395-.966-18.647 4.91l-6.99 4.006-3.294-5.747 176.3-101.05 35.701 62.287-5.902 3.383q-17.592-20.251-31.523-25.474-13.775-5.311-31.358-1.424-10.3 2.19-34.222 15.9zm276.593-146.104 161.339 104.82-33.098-98.992q-6.926-20.716-15.31-26.03-11.443-7.123-30.517-.368l-2.1-6.283 76.069-25.433 2.1 6.282q-13.978 6.75-18.05 11.51-3.959 4.533-4.574 12.29-.503 7.53 4.947 23.83l64.095 191.701-5.773 1.93-219.8-139.64 48.938 146.365q6.643 19.866 17.97 23.819 11.496 3.896 23.212-.021l5.434-1.817 2.1 6.283-81.672 27.307-2.1-6.283q18.96-6.528 23.876-16.667 4.916-10.139-1.215-28.477l-54.33-162.495-6.968-4.467q-10.367-6.728-16.936-7.74-6.568-1.014-17.21 2.166l-2.1-6.282zm618.762 52.83-4.56 85.588-215.252 11.528-.355-6.615 8.045-.43q10.548-.566 16.784-4.665 4.514-2.752 6.691-8.964 1.737-4.396.76-22.632l-8.54-159.472q-.996-18.593-3.211-23.136-2.216-4.543-8.476-7.614-6.091-3.26-16.282-2.714l-8.045.43-.354-6.614 129.258-6.923.354 6.615-10.548.565q-10.548.565-16.783 4.664-4.514 2.752-6.87 8.974-1.737 4.396-.76 22.632l8.272 154.466q.996 18.593 3.419 23.663 2.413 4.89 8.804 7.059 4.556 1.37 21.719.45l20.202-1.082q19.308-1.034 31.817-8.517 12.508-7.483 21.02-22.64 8.69-15.168 15.56-44.223zm304.777-121.824-.863 6.568q-12.103.035-19.193 4.521-9.855 6.29-33.387 36.966l-63.638 80.302-7.65 58.223q-2.448 18.64-1.102 23.51 1.37 4.695 6.584 8.992 5.415 4.142 15 5.401l13.491 1.772-.863 6.568-135.086-17.746.863-6.568 12.603 1.656q10.651 1.399 17.354-1.513 4.941-1.878 8.397-7.564 2.512-4.004 4.89-22.11l6.344-48.283-43.077-110.573q-12.853-32.748-19.076-38.982-6.2-6.413-17.715-8.106l.863-6.568 115.382 15.158-.863 6.568-5.148-.676q-10.473-1.376-15.13 1.082-4.479 2.481-4.922 5.854-.84 6.39 9.98 33.995l33.02 85.416 52.85-66.912q19.652-24.505 20.795-33.203.63-4.793-3.566-8.594-5.453-5.23-21.49-8.24l.863-6.568zm241.813 67.139-22.95 77.627-6.986-2.252q4.395-30.561-9.375-54.374-13.544-23.928-36.037-31.178-17.381-5.602-30.626.475-13.02 5.962-16.92 18.06-2.47 7.669-.815 14.786 2.361 9.602 10.74 20.956 6.197 8.204 30.553 31.855 34.13 33.008 42.562 55.29 8.261 22.225.902 45.059-9.337 28.969-38.756 42.624-29.194 13.54-63.956 2.336-10.906-3.515-19.905-8.86-9-5.347-21.677-16.204-7.081-6.045-12.364-7.747-4.43-1.428-10.47.387-6.04 1.816-11.36 7.814l-6.304-2.033 28.12-87.247 6.304 2.032q-4.365 39.224 10.675 65.516 15.265 26.175 39.973 34.139 19.086 6.151 33.682-.619 14.768-6.715 19.216-20.518 2.637-8.179.677-17.275-1.788-9.041-8.452-18.713-6.61-9.843-25.533-28.169-26.527-25.667-36.815-41.022-10.288-15.354-13.447-31.233-2.989-15.823 2.229-32.012 8.897-27.605 35.436-40.496 26.54-12.89 57.383-2.95 11.246 3.625 20.933 9.757 7.35 4.626 16.954 13.929 9.83 9.188 14.431 10.67 4.431 1.428 7.866-.474 3.435-1.903 9-11.584zm177.961 100.59-46.134 87.4 4.275 2.256q20.425 10.781 36.378 2.804 15.953-7.978 31.692-31.657l6.016 3.176-59.338 112.416-6.017-3.176q7.795-19.37 7.804-34.346.168-14.892-5.817-23.113-5.902-8.379-21.26-16.486l-31.926 60.484q-9.361 17.733-10.025 22.443-.506 4.794 2.273 9.5 2.78 4.707 11.963 9.554l12.825 6.77q30.083 15.88 55.488 11.474 25.562-4.322 48.523-28.644l5.858 3.093-45.68 63.143-185.565-97.95 3.092-5.859 7.125 3.761q9.342 4.931 16.797 4.615 5.286-.044 10.345-4.257 3.747-2.88 12.272-19.03l74.55-141.233q7.688-14.567 8.651-18.31 1.342-6.377-1.345-11.642-3.676-7.61-14.126-13.125l-7.125-3.761 3.092-5.859 179.708 94.859-33.514 63.491-6.017-3.176q7.694-25.698 4.651-40.261-2.884-14.48-15.577-27.253-7.362-7.53-31.745-20.4zm313.6 184.807q46.201 35.143 51.324 85.904 5.262 50.875-29.042 92.668-29.306 35.705-72.466 45.677-57.211 13.263-107.723-28.197-50.65-41.573-50.159-98.612.398-45.071 30.954-82.298 34.304-41.794 85.505-46.324 51.453-4.555 91.607 31.182zm-5.609 10.22q-25.74-21.127-60.746-5.852-28.653 12.616-61.82 53.025-39.416 48.021-41.389 84.852-1.413 25.708 19.76 43.087 14.255 11.7 29.483 12.618 19.448 1.14 42.132-12.67 22.797-13.946 48.468-45.222 30.555-37.227 38.743-61.312 8.302-24.224 3.755-40.695-4.409-16.358-18.386-27.83zm228.031 213.577-42.766 187.586 81.51-65.198q17.058-13.644 19.155-23.346 2.742-13.198-10.175-28.773l5.173-4.138 50.101 62.636-5.173 4.138q-11.156-10.793-17.027-12.975-5.62-2.153-13.114-.057-7.242 2.125-20.664 12.86l-157.848 126.26-3.803-4.754 55.298-254.467-120.518 96.4q-16.358 13.084-16.163 25.08.306 12.134 8.023 21.781l3.578 4.474-5.173 4.138-53.791-67.25 5.173-4.138q12.665 15.547 23.877 16.667 11.212 1.12 26.312-10.959l133.8-107.024 1.79-8.08q2.742-12.051 1.428-18.566-1.313-6.515-7.967-15.407l5.173-4.138zm163.336 600.105-82.165 24.392-83.011-198.935 6.113-2.552 3.103 7.436q4.068 9.748 10.02 14.249 4.105 3.33 10.688 3.3 4.724.162 21.578-6.87l147.383-61.5q17.184-7.171 20.722-10.781 3.537-3.61 4.332-10.538 1.03-6.832-2.9-16.25l-3.103-7.435 6.114-2.55 49.848 119.46-6.114 2.55-4.067-9.748q-4.068-9.749-10.02-14.249-4.106-3.33-10.758-3.465-4.724-.163-21.577 6.87l-142.758 59.57q-17.183 7.17-21.148 11.152-3.799 3.913-3.699 10.662.237 4.751 6.856 20.613l7.79 18.67q7.447 17.845 18.69 27.122 11.243 9.276 28.377 12.215 17.203 3.103 46.88-.162zm176.067 34.544 24.72 122.864-6.494 1.306-1.236-6.143q-2.79-13.866-6.833-18.531-3.833-4.525-9.382-5.783-5.514-1.082-25.874 3.015l-116.544 23.449q-31.945 6.427-41.347 13.25-9.367 6.998-13.987 19.433-4.62 12.435-1.23 29.285 3.884 19.307 15.204 31.091 11.53 11.925 28.142 15.522 16.648 3.773 54.56-3.855l97.062-19.529q15.972-3.214 22.147-7.926 6.174-4.712 7.783-10.332 2.447-8.71-.448-23.103l6.494-1.306 16.562 82.318-6.494 1.307-.989-4.915q-2.013-10.004-7.392-15.862-5.378-5.857-14.053-7.217-6.075-1.152-20.643 1.78l-90.393 18.187q-41.949 8.44-61.684 6.567-19.7-1.698-39.63-19.968-19.93-18.27-27.38-55.305-6.216-30.891-1.357-49.401 6.607-25.253 22.252-38.263 15.645-13.01 45.308-18.977l116.545-23.45q20.535-4.131 24.99-7.402 4.632-3.306 6.486-9.523 1.853-6.217-1.36-21.276zm-35.68 484.485-108.01 83.974q-22.797 17.781-31.026 30.743-5.855 9.412-5.995 19.974l-6.624-.088 1.679-126.389 6.623.088q.915 12.01 3.555 15.446 2.638 3.616 6.577 3.669 7.518.1 28.504-16.095l70.736-54.746-7.4-9.05-66.238-.88q-18.976-.252-23.659 1.834-4.683 2.087-8.165 8.128-3.303 6.044-3.482 19.47l-6.624-.087 1.627-122.45 6.623.087-.107 8.056q-.14 10.562 3.534 17.057 2.445 4.688 8.498 7.275 4.27 2.026 22.53 2.269l159.687 2.12q18.618.248 23.299-1.66 4.68-1.907 8.163-7.948 3.659-5.86 3.794-16.065l.107-8.056 6.624.088-1.605 120.84-6.624-.089q.164-12.352-3.33-18.844-2.445-4.688-8.317-7.452-4.447-2.208-22.886-2.452l-75.547-1.004 71.666 91.015q14.967 19 24.097 19.12 6.803.09 10.844-7.554 2.021-3.913 2.765-19.48l6.624.088-1.258 94.702-6.624-.088q-.726-12.723-4.388-20.113-3.485-7.208-24.263-33.626zm-178.57 293.46-6.513-1.208 23.145-124.81 6.513 1.209-1.469 7.921q-1.926 10.386.596 17.41 1.615 5.033 7.144 8.608 3.865 2.72 21.82 6.05l157.024 29.119q18.308 3.395 23.244 2.307 4.936-1.087 9.39-6.452 4.599-5.157 6.46-15.19l1.469-7.922 6.513 1.208-23.146 124.809-6.513-1.208 1.47-7.922q1.925-10.386-.596-17.409-1.616-5.034-7.112-8.784-3.865-2.72-21.821-6.05l-157.023-29.12q-18.308-3.394-23.244-2.307-4.969 1.264-9.567 6.42-4.454 5.365-6.315 15.4zm171.556 256.23q-18.09 55.157-64.38 76.608-46.353 21.62-97.07 2.88-43.33-16.01-66.875-53.531-31.254-49.722-8.605-111.02 22.712-61.466 76.771-79.664 42.72-14.372 87.896 2.32 50.718 18.74 71.753 65.64 21.14 47.13.51 96.767zm-11.493-1.956q11.542-31.237-14.348-59.317-21.296-22.947-70.334-41.067-58.275-21.532-93.724-11.344-24.755 7.077-34.249 32.771-6.391 17.298-2.276 31.989 5.287 18.75 25.758 35.666 20.64 16.978 58.593 31.002 45.176 16.692 70.615 16.549 25.606-.082 39.683-9.769 14.015-9.518 20.282-26.48z" aria-label="TAMPEREEN LYSEON LUKIO" transform="translate(-537.96 -540.218)"/></g></svg>