<?xml version="1.0" encoding="UTF-8" standalone="no"?>
<!-- Created with Inkscape (http://www.inkscape.org/) -->

<svg
   width="185.92642mm"
   height="31.042356mm"
   viewBox="0 0 702.71405 117.32545"
   version="1.1"
   id="svg1"
   xmlns="http://www.w3.org/2000/svg"
   xmlns:svg="http://www.w3.org/2000/svg">
  <defs
     id="defs1" />
  <g
     id="layer6"
     style="display:inline"
     transform="translate(-200.97416,-489.51572)">
    <path
       style="display:inline;fill:none;fill-opacity:1;fill-rule:evenodd;stroke:#1a0a0a;stroke-width:18.8976;stroke-linecap:square;stroke-dasharray:none;stroke-opacity:1;paint-order:markers fill stroke"
       d="m 37.795276,670.88517 c 0.0019,-22.27682 0.0038,-44.55298 0.0038,-66.97306 1.7e-5,-22.42007 -0.0019,-45.598 12.707959,-57.1872 12.709859,-11.58919 37.681429,-11.58919 50.280108,-1.95308 12.59867,9.6361 12.59867,28.90716 12.59867,51.14194 0,22.23479 0,47.43064 0,49.39288 0,1.96225 0,-19.30978 0,-41.54435 0,-22.23457 0,-45.42988 12.59868,-57.02823 12.59867,-11.59835 37.79452,-11.59835 50.39319,0 12.59868,11.59835 12.59868,34.79412 12.59868,57.40366 0,22.60954 0,44.6315 0,66.6539"
       id="path30-2-6"
       transform="matrix(1.0014352,0,0,0.76302498,172.58781,86.796212)" />
    <path
       style="display:inline;fill:none;fill-opacity:1;fill-rule:evenodd;stroke:#1a0a0a;stroke-width:18.8976;stroke-linecap:square;stroke-dasharray:none;stroke-opacity:1;paint-order:markers fill stroke"
       d="m 286.13603,596.61886 c -2e-5,-7.13868 3.6e-4,-12.42538 3.4e-4,-19.56406"
       id="path31-6-9" />
    <path
       style="display:inline;fill:none;fill-opacity:1;fill-rule:evenodd;stroke:#1a0a0a;stroke-width:18.8471;stroke-linecap:square;stroke-dasharray:none;stroke-opacity:1;paint-order:markers fill stroke"
       d="m 339.29821,539.4203 c 0,0.93013 0,1.86025 0,23.77678 0,21.91653 0,64.81946 0,107.7224"
       id="path33-5-3"
       transform="matrix(1.0012468,0,0,0.76726725,170.57216,83.805435)" />
    <path
       style="display:inline;fill:none;fill-opacity:1;fill-rule:evenodd;stroke:#1a0a0a;stroke-width:18.8471;stroke-linecap:square;stroke-dasharray:none;stroke-opacity:1;paint-order:markers fill stroke"
       d="m 339.29821,539.4203 c 0,43.83306 0,87.66611 0,131.49918"
       id="path33-4-4-0"
       transform="matrix(1.0012468,0,0,0.76726725,220.68914,83.958825)" />
    <rect
       style="display:inline;fill:none;fill-opacity:1;fill-rule:evenodd;stroke:#1a0a0a;stroke-width:16.5191;stroke-dasharray:none;stroke-opacity:1;paint-order:markers fill stroke"
       id="rect34-0-0"
       width="100.66113"
       height="100.51252"
       x="408.189"
       y="497.77527"
       ry="34.813114"
       rx="50.33057" />
    <rect
       style="display:inline;fill:none;fill-opacity:1;fill-rule:evenodd;stroke:#1a0a0a;stroke-width:16.5191;stroke-dasharray:none;stroke-opacity:1;paint-order:markers fill stroke"
       id="rect34-2-9-7"
       width="100.66113"
       height="100.51252"
       x="645.95117"
       y="498.06909"
       ry="34.813114"
       rx="50.33057" />
    <path
       style="display:inline;fill:none;stroke:#1a0a0a;stroke-width:18.8976;stroke-linecap:square;stroke-dasharray:none;stroke-opacity:1"
       d="m 444.49513,538.78197 c -18.95715,0 -37.91429,0 -47.45235,11.00588 -9.53805,11.00588 -9.65702,33.01675 -9.77599,55.02806"
       id="path1-0-2"
       transform="matrix(1.0014352,0,0,0.76302498,172.58781,86.796212)" />
    <path
       style="display:inline;fill:none;stroke:#1a0a0a;stroke-width:18.8976;stroke-linecap:square;stroke-dasharray:none;stroke-opacity:1"
       d="m 617.34929,544.78718 c 0,19.97908 0,39.95777 0,62.54619 0,22.58842 0,47.78427 16.79383,60.38295 16.79383,12.59868 50.38014,12.59868 67.17363,0 16.7935,-12.59868 16.7935,-37.79504 16.7935,-60.37593 0,-22.5809 -10e-6,-42.54505 -10e-6,-62.5096"
       id="path2-3-1"
       transform="matrix(1.0014352,0,0,0.76302498,175.08463,81.822705)" />
  </g>
</svg>
