<?xml version="1.0" encoding="UTF-8" standalone="no"?>
<!-- Created with Inkscape (http://www.inkscape.org/) -->

<svg
   width="185.65996mm"
   height="40.10733mm"
   viewBox="0 0 701.70694 151.58676"
   version="1.1"
   id="svg1"
   xmlns="http://www.w3.org/2000/svg"
   xmlns:svg="http://www.w3.org/2000/svg">
  <defs
     id="defs1" />
  <g
     id="layer4"
     style="display:inline"
     transform="translate(-198.42441,-113.0722)">
    <path
       style="display:inline;fill:none;fill-opacity:1;fill-rule:evenodd;stroke:#1a0a0a;stroke-width:18.8976;stroke-linecap:square;stroke-dasharray:none;stroke-opacity:1;paint-order:markers fill stroke"
       d="m 37.795276,670.88517 c 0.0019,-22.27682 0.0038,-44.55298 0.0038,-66.71815 1.7e-5,-22.16516 -0.0019,-44.8194 12.707959,-56.14675 12.709859,-11.32734 37.681429,-11.32734 50.280108,-1.95078 12.59867,9.37657 12.59867,28.12858 12.59867,50.10382 0,21.97525 0,47.1711 0,49.13335 0,1.96224 0,-19.30979 0,-41.28482 0,-21.97503 0,-44.6513 12.59868,-55.9901 12.59867,-11.33881 37.79452,-11.33881 50.39319,-10e-6 12.59868,11.33881 12.59868,34.01553 12.59868,56.36553 0,22.35001 0,44.37197 0,66.39437"
       id="path30-2"
       transform="translate(170.07874,-415.74804)" />
    <path
       style="display:inline;fill:none;fill-opacity:1;fill-rule:evenodd;stroke:#1a0a0a;stroke-width:18.8976;stroke-linecap:square;stroke-dasharray:none;stroke-opacity:1;paint-order:markers fill stroke"
       d="m 283.46462,254.83894 c -2e-5,-9.35576 -3e-5,-18.71151 -5e-5,-28.06728"
       id="path31-6" />
    <path
       style="display:inline;fill:none;fill-opacity:1;fill-rule:evenodd;stroke:#1a0a0a;stroke-width:18.8471;stroke-linecap:square;stroke-dasharray:none;stroke-opacity:1;paint-order:markers fill stroke"
       d="m 339.29821,539.4203 c 0,0.93013 0,1.86025 0,23.77678 0,21.91653 0,64.81946 0,107.7224"
       id="path33-5"
       transform="matrix(0.99981188,0,0,1.0055598,168.06597,-419.66768)" />
    <path
       style="display:inline;fill:none;fill-opacity:1;fill-rule:evenodd;stroke:#1a0a0a;stroke-width:18.8471;stroke-linecap:square;stroke-dasharray:none;stroke-opacity:1;paint-order:markers fill stroke"
       d="m 339.29821,539.4203 c 0,43.83306 0,87.66611 0,131.49918"
       id="path33-4-4"
       transform="matrix(0.99981188,0,0,1.0055598,218.11114,-419.46664)" />
    <rect
       style="display:inline;fill:none;fill-opacity:1;fill-rule:evenodd;stroke:#1a0a0a;stroke-width:18.8976;stroke-dasharray:none;stroke-opacity:1;paint-order:markers fill stroke"
       id="rect34-0"
       width="100.51688"
       height="131.729"
       x="405.34225"
       y="122.87004"
       ry="45.62513"
       rx="50.258442" />
    <rect
       style="display:inline;fill:none;fill-opacity:1;fill-rule:evenodd;stroke:#1a0a0a;stroke-width:18.8976;stroke-dasharray:none;stroke-opacity:1;paint-order:markers fill stroke"
       id="rect34-2-9"
       width="100.51688"
       height="131.729"
       x="642.76373"
       y="123.25511"
       ry="45.62513"
       rx="50.258442" />
    <path
       style="display:inline;fill:none;stroke:#1a0a0a;stroke-width:18.8976;stroke-linecap:square;stroke-dasharray:none;stroke-opacity:1"
       d="m 444.49513,538.78197 c -18.95715,0 -37.91429,0 -47.45235,11.00588 -9.53805,11.00588 -9.65702,33.01675 -9.77599,55.02806"
       id="path1-0"
       transform="translate(170.07874,-415.74804)" />
    <path
       style="display:inline;fill:none;stroke:#1a0a0a;stroke-width:18.8976;stroke-linecap:square;stroke-dasharray:none;stroke-opacity:1"
       d="m 617.34929,544.78718 c 0,19.97908 0,39.95777 0,62.54619 0,22.58842 0,47.78427 16.79383,60.38295 16.79383,12.59868 50.38014,12.59868 67.17363,0 16.7935,-12.59868 16.7935,-37.79504 16.7935,-60.37593 0,-22.5809 -10e-6,-42.54505 -10e-6,-62.5096"
       id="path2-3"
       transform="translate(172.57198,-422.26618)" />
  </g>
</svg>
