<?xml version="1.0" encoding="UTF-8" standalone="no"?>
<!-- Created with Inkscape (http://www.inkscape.org/) -->

<svg
   width="185.65974mm"
   height="40.246891mm"
   viewBox="0 0 701.70613 152.11424"
   version="1.1"
   id="svg1"
   xmlns="http://www.w3.org/2000/svg"
   xmlns:svg="http://www.w3.org/2000/svg">
  <defs
     id="defs1" />
  <g
     id="layer5"
     style="display:inline"
     transform="translate(-198.42522,-303.10811)">
    <path
       style="display:inline;opacity:1;fill:none;fill-opacity:1;fill-rule:evenodd;stroke:#1a0a0a;stroke-width:18.8976;stroke-linecap:round;stroke-dasharray:none;stroke-opacity:1;paint-order:markers fill stroke"
       d="m 37.795276,670.88517 c 0.0019,-22.27682 0.0038,-44.55298 0.0038,-66.97794 1.7e-5,-22.42495 -0.0019,-45.6129 12.707959,-57.20711 12.709859,-11.5942 37.681429,-11.5942 50.280108,-1.95313 12.59867,9.64107 12.59867,28.92207 12.59867,51.16182 0,22.23975 0,47.4356 0,49.39785 0,1.96224 0,-19.30979 0,-41.54933 0,-22.23953 0,-45.44478 12.59868,-57.04809 12.59867,-11.60332 37.79452,-11.60332 50.39319,0 12.59868,11.60331 12.59868,34.80902 12.59868,57.42352 0,22.61451 0,44.63647 0,66.65887"
       id="path30"
       transform="translate(170.07874,-225.18465)" />
    <path
       style="display:inline;opacity:1;fill:none;fill-opacity:1;fill-rule:evenodd;stroke:#1a0a0a;stroke-width:18.8976;stroke-linecap:round;stroke-dasharray:none;stroke-opacity:1;paint-order:markers fill stroke"
       d="m 283.46462,445.40234 c -2e-5,-9.35576 -3e-5,-18.71151 -5e-5,-28.06728"
       id="path31" />
    <path
       style="display:inline;opacity:1;fill:none;fill-opacity:1;fill-rule:evenodd;stroke:#1a0a0a;stroke-width:18.8471;stroke-linecap:round;stroke-dasharray:none;stroke-opacity:1;paint-order:markers fill stroke"
       d="m 339.29821,539.4203 c 0,43.83306 0,87.66611 0,131.49918"
       id="path33"
       transform="matrix(0.99981188,0,0,1.0055598,168.06596,-229.1043)" />
    <path
       style="display:inline;fill:none;fill-opacity:1;fill-rule:evenodd;stroke:#1a0a0a;stroke-width:18.8471;stroke-linecap:round;stroke-dasharray:none;stroke-opacity:1;paint-order:markers fill stroke"
       d="m 339.29821,539.4203 c 0,43.83306 0,87.66611 0,131.49918"
       id="path33-4"
       transform="matrix(0.99981188,0,0,1.0055598,218.11114,-228.90325)" />
    <rect
       style="display:inline;opacity:1;fill:none;fill-opacity:1;fill-rule:evenodd;stroke:#1a0a0a;stroke-width:18.8976;stroke-dasharray:none;stroke-opacity:1;paint-order:markers fill stroke"
       id="rect34"
       width="100.51688"
       height="131.729"
       x="405.34225"
       y="313.43344"
       ry="45.62513"
       rx="50.258442" />
    <rect
       style="display:inline;fill:none;fill-opacity:1;fill-rule:evenodd;stroke:#1a0a0a;stroke-width:18.8976;stroke-dasharray:none;stroke-opacity:1;paint-order:markers fill stroke"
       id="rect34-2"
       width="100.51688"
       height="131.729"
       x="642.76379"
       y="313.81851"
       ry="45.62513"
       rx="50.258442" />
    <path
       style="display:inline;fill:none;stroke:#1a0a0a;stroke-width:18.8976;stroke-linecap:round;stroke-dasharray:none;stroke-opacity:1"
       d="m 444.49513,538.78197 c -18.95715,0 -37.91429,0 -47.45235,14.13222 -9.53805,14.13222 -9.65702,42.39552 -9.77599,70.65939"
       id="path1"
       transform="translate(170.07874,-225.18465)" />
    <path
       style="display:inline;fill:none;stroke:#1a0a0a;stroke-width:18.8976;stroke-linecap:round;stroke-dasharray:none;stroke-opacity:1"
       d="m 617.34929,544.78718 c 0,19.97908 0,39.95777 0,62.54619 0,22.58842 0,47.78427 16.79383,60.38295 16.79383,12.59868 50.38014,12.59868 67.17363,0 16.7935,-12.59868 16.7935,-37.79504 16.7935,-60.37593 0,-22.5809 -10e-6,-42.54505 -10e-6,-62.5096"
       id="path2"
       transform="translate(172.57197,-231.57311)" />
  </g>
</svg>
