%TF.GenerationSoftware,KiCad,Pcbnew,8.0.0*%
%TF.CreationDate,2024-03-22T20:34:51+02:00*%
%TF.ProjectId,qtouch-board,71746f75-6368-42d6-926f-6172642e6b69,rev?*%
%TF.SameCoordinates,Original*%
%TF.FileFunction,Copper,L1,Top*%
%TF.FilePolarity,Positive*%
%FSLAX46Y46*%
G04 Gerber Fmt 4.6, Leading zero omitted, Abs format (unit mm)*
G04 Created by KiCad (PCBNEW 8.0.0) date 2024-03-22 20:34:51*
%MOMM*%
%LPD*%
G01*
G04 APERTURE LIST*
%ADD10C,0.400000*%
%TA.AperFunction,NonConductor*%
%ADD11C,0.400000*%
%TD*%
%TA.AperFunction,ComponentPad*%
%ADD12C,3.300000*%
%TD*%
%TA.AperFunction,ComponentPad*%
%ADD13O,1.700000X1.700000*%
%TD*%
%TA.AperFunction,SMDPad,CuDef*%
%ADD14R,5.700000X1.200000*%
%TD*%
%TA.AperFunction,SMDPad,CuDef*%
%ADD15R,3.200000X1.800000*%
%TD*%
%TA.AperFunction,SMDPad,CuDef*%
%ADD16R,1.000000X2.500000*%
%TD*%
%TA.AperFunction,SMDPad,CuDef*%
%ADD17R,1.000000X2.000000*%
%TD*%
%TA.AperFunction,SMDPad,CuDef*%
%ADD18R,1.400000X1.700000*%
%TD*%
%TA.AperFunction,SMDPad,CuDef*%
%ADD19R,1.700000X1.400000*%
%TD*%
%TA.AperFunction,Conductor*%
%ADD20C,0.400000*%
%TD*%
%TA.AperFunction,Profile*%
%ADD21C,0.050000*%
%TD*%
G04 APERTURE END LIST*
%TA.AperFunction,Conductor*%
G36*
X182000000Y-106000000D02*
G01*
X200500000Y-106000000D01*
X200500000Y-123500000D01*
X182000000Y-123500000D01*
X182000000Y-106000000D01*
G37*
%TD.AperFunction*%
%TA.AperFunction,Conductor*%
G36*
X62500000Y-106000000D02*
G01*
X81000000Y-106000000D01*
X81000000Y-123500000D01*
X62500000Y-123500000D01*
X62500000Y-106000000D01*
G37*
%TD.AperFunction*%
%TA.AperFunction,Conductor*%
G36*
X82000000Y-106000000D02*
G01*
X101000000Y-106000000D01*
X101000000Y-123500000D01*
X82000000Y-123500000D01*
X82000000Y-106000000D01*
G37*
%TD.AperFunction*%
%TA.AperFunction,Conductor*%
G36*
X102000000Y-106000000D02*
G01*
X121000000Y-106000000D01*
X121000000Y-123500000D01*
X102000000Y-123500000D01*
X102000000Y-106000000D01*
G37*
%TD.AperFunction*%
%TA.AperFunction,Conductor*%
G36*
X142000000Y-106000000D02*
G01*
X161000000Y-106000000D01*
X161000000Y-123500000D01*
X142000000Y-123500000D01*
X142000000Y-106000000D01*
G37*
%TD.AperFunction*%
%TA.AperFunction,Conductor*%
G36*
X122000000Y-106000000D02*
G01*
X141000000Y-106000000D01*
X141000000Y-123500000D01*
X122000000Y-123500000D01*
X122000000Y-106000000D01*
G37*
%TD.AperFunction*%
%TA.AperFunction,Conductor*%
G36*
X162000000Y-106000000D02*
G01*
X181000000Y-106000000D01*
X181000000Y-123500000D01*
X162000000Y-123500000D01*
X162000000Y-106000000D01*
G37*
%TD.AperFunction*%
D10*
G36*
X166138008Y-88837632D02*
G01*
X166462333Y-89157670D01*
X166634614Y-89833389D01*
X166638209Y-91117413D01*
X166468005Y-91811972D01*
X166153616Y-92130571D01*
X165841492Y-92289871D01*
X165173568Y-92293076D01*
X164864491Y-92141717D01*
X164540170Y-91821681D01*
X164367888Y-91145961D01*
X164364293Y-89861941D01*
X164534497Y-89167379D01*
X164848886Y-88848780D01*
X165161010Y-88689480D01*
X165828935Y-88686275D01*
X166138008Y-88837632D01*
G37*
G36*
X184817154Y-88849945D02*
G01*
X185142146Y-89170642D01*
X185309015Y-89497596D01*
X185491794Y-90214487D01*
X185495087Y-90737545D01*
X185319678Y-91453341D01*
X185153294Y-91793099D01*
X184828255Y-92122492D01*
X184336295Y-92289761D01*
X183605825Y-92292593D01*
X183602396Y-88688914D01*
X184315769Y-88686149D01*
X184817154Y-88849945D01*
G37*
G36*
X162369409Y-91147362D02*
G01*
X161014351Y-91150041D01*
X161690286Y-89116112D01*
X162369409Y-91147362D01*
G37*
G36*
X176845599Y-91147362D02*
G01*
X175490541Y-91150041D01*
X176166476Y-89116112D01*
X176845599Y-91147362D01*
G37*
G36*
X193951377Y-93134120D02*
G01*
X154190141Y-93134120D01*
X154190141Y-92489885D01*
X154634585Y-92489885D01*
X154649889Y-92566406D01*
X154693312Y-92631245D01*
X154758242Y-92674532D01*
X154834794Y-92689676D01*
X154911315Y-92674372D01*
X154976154Y-92630949D01*
X155000995Y-92600616D01*
X156168201Y-90846794D01*
X157359683Y-92630949D01*
X157424522Y-92674372D01*
X157501043Y-92689676D01*
X157577595Y-92674532D01*
X157642525Y-92631245D01*
X157685948Y-92566406D01*
X157701252Y-92489885D01*
X157686108Y-92413333D01*
X157667662Y-92378736D01*
X156405997Y-90489487D01*
X157686108Y-88566019D01*
X157701211Y-88489676D01*
X158825061Y-88489676D01*
X158828904Y-92528694D01*
X158858767Y-92600790D01*
X158913947Y-92655970D01*
X158986043Y-92685833D01*
X159064079Y-92685833D01*
X159136175Y-92655970D01*
X159191355Y-92600790D01*
X159221218Y-92528694D01*
X159225061Y-92489676D01*
X159225037Y-92464661D01*
X160159966Y-92464661D01*
X160165497Y-92542501D01*
X160200396Y-92612299D01*
X160259349Y-92663428D01*
X160333380Y-92688105D01*
X160411220Y-92682574D01*
X160481018Y-92647675D01*
X160532147Y-92588722D01*
X160548132Y-92552922D01*
X160882584Y-91546535D01*
X162501797Y-91543334D01*
X162851310Y-92588722D01*
X162902439Y-92647674D01*
X162972237Y-92682573D01*
X163050076Y-92688105D01*
X163124108Y-92663428D01*
X163183061Y-92612299D01*
X163217960Y-92542501D01*
X163223491Y-92464661D01*
X163214799Y-92426430D01*
X162344378Y-89823009D01*
X163967918Y-89823009D01*
X163971613Y-91142813D01*
X163968154Y-91166064D01*
X163971747Y-91190363D01*
X163971761Y-91195360D01*
X163972888Y-91198081D01*
X163973889Y-91204849D01*
X164162237Y-91943586D01*
X164162237Y-91957265D01*
X164171307Y-91979163D01*
X164177557Y-92003675D01*
X164186409Y-92015622D01*
X164192100Y-92029361D01*
X164216973Y-92059668D01*
X164598305Y-92435961D01*
X164616724Y-92457199D01*
X164625293Y-92462593D01*
X164628233Y-92465494D01*
X164633112Y-92467515D01*
X164649904Y-92478085D01*
X165005380Y-92652165D01*
X165009185Y-92655970D01*
X165034897Y-92666620D01*
X165067473Y-92682573D01*
X165074640Y-92683082D01*
X165081281Y-92685833D01*
X165120299Y-92689676D01*
X165851376Y-92686168D01*
X165857190Y-92688106D01*
X165886852Y-92685997D01*
X165921222Y-92685833D01*
X165927859Y-92683083D01*
X165935029Y-92682574D01*
X165971647Y-92668561D01*
X166349092Y-92475922D01*
X166374270Y-92465494D01*
X166382071Y-92459091D01*
X166385779Y-92457199D01*
X166389240Y-92453207D01*
X166404577Y-92440621D01*
X166767183Y-92073159D01*
X166778489Y-92066376D01*
X166792387Y-92047617D01*
X166810403Y-92029361D01*
X166816093Y-92015622D01*
X166824946Y-92003675D01*
X166838138Y-91966754D01*
X167021995Y-91216476D01*
X167030742Y-91195360D01*
X167033142Y-91170987D01*
X167034349Y-91166064D01*
X167033914Y-91163146D01*
X167034585Y-91156342D01*
X167030889Y-89836537D01*
X167034349Y-89813287D01*
X167030755Y-89788987D01*
X167030742Y-89783991D01*
X167029614Y-89781269D01*
X167028614Y-89774502D01*
X166895290Y-89251580D01*
X171206013Y-89251580D01*
X171209224Y-89602593D01*
X171207583Y-89607519D01*
X171209519Y-89634765D01*
X171209856Y-89671551D01*
X171212605Y-89678188D01*
X171213115Y-89685358D01*
X171227128Y-89721976D01*
X171419765Y-90099420D01*
X171430195Y-90124599D01*
X171436598Y-90132401D01*
X171438490Y-90136108D01*
X171442480Y-90139568D01*
X171455068Y-90154907D01*
X171647843Y-90342936D01*
X171664343Y-90361960D01*
X171672815Y-90367293D01*
X171675852Y-90370255D01*
X171680731Y-90372276D01*
X171697523Y-90382846D01*
X172066944Y-90563757D01*
X172082490Y-90575275D01*
X172111982Y-90585812D01*
X172115093Y-90587336D01*
X172116531Y-90587438D01*
X172119411Y-90588467D01*
X172845870Y-90766487D01*
X173186011Y-90933058D01*
X173333289Y-91076711D01*
X173492103Y-91387882D01*
X173494733Y-91675307D01*
X173343583Y-91983957D01*
X173199928Y-92131238D01*
X172889185Y-92289833D01*
X172020067Y-92293202D01*
X171431027Y-92100771D01*
X171353188Y-92106302D01*
X171283390Y-92141201D01*
X171232261Y-92200154D01*
X171207584Y-92274186D01*
X171213115Y-92352025D01*
X171248014Y-92421823D01*
X171306967Y-92472952D01*
X171342768Y-92488937D01*
X171912112Y-92674934D01*
X171938424Y-92685833D01*
X171948515Y-92686826D01*
X171952428Y-92688105D01*
X171957693Y-92687730D01*
X171977442Y-92689676D01*
X172898804Y-92686104D01*
X172904809Y-92688106D01*
X172934942Y-92685964D01*
X172968841Y-92685833D01*
X172975478Y-92683083D01*
X172982648Y-92682574D01*
X173019266Y-92668561D01*
X173396710Y-92475923D01*
X173421889Y-92465494D01*
X173422904Y-92464661D01*
X174636156Y-92464661D01*
X174641687Y-92542501D01*
X174676586Y-92612299D01*
X174735539Y-92663428D01*
X174809570Y-92688105D01*
X174887410Y-92682574D01*
X174957208Y-92647675D01*
X175008337Y-92588722D01*
X175024322Y-92552922D01*
X175358774Y-91546535D01*
X176977987Y-91543334D01*
X177327500Y-92588722D01*
X177378629Y-92647674D01*
X177448427Y-92682573D01*
X177526266Y-92688105D01*
X177600298Y-92663428D01*
X177659251Y-92612299D01*
X177694150Y-92542501D01*
X177699681Y-92464661D01*
X177690989Y-92426430D01*
X176374784Y-88489676D01*
X178634584Y-88489676D01*
X178638427Y-92528694D01*
X178668290Y-92600790D01*
X178723470Y-92655970D01*
X178795566Y-92685833D01*
X178873602Y-92685833D01*
X178945698Y-92655970D01*
X179000878Y-92600790D01*
X179030741Y-92528694D01*
X179034584Y-92489676D01*
X179031627Y-89382313D01*
X179986737Y-91422562D01*
X179996905Y-91450523D01*
X180002882Y-91457050D01*
X180006664Y-91465128D01*
X180029080Y-91485656D01*
X180049609Y-91508073D01*
X180057660Y-91511830D01*
X180064214Y-91517832D01*
X180092782Y-91528220D01*
X180120324Y-91541073D01*
X180129200Y-91541463D01*
X180137552Y-91544500D01*
X180167918Y-91543165D01*
X180198284Y-91544500D01*
X180206635Y-91541463D01*
X180215512Y-91541073D01*
X180243053Y-91528220D01*
X180271622Y-91517832D01*
X180278175Y-91511830D01*
X180286227Y-91508073D01*
X180306755Y-91485656D01*
X180329172Y-91465128D01*
X180335796Y-91453945D01*
X180338931Y-91450523D01*
X180340690Y-91445684D01*
X180349155Y-91431396D01*
X181302100Y-89382934D01*
X181305094Y-92528694D01*
X181334957Y-92600790D01*
X181390137Y-92655970D01*
X181462233Y-92685833D01*
X181540269Y-92685833D01*
X181612365Y-92655970D01*
X181667545Y-92600790D01*
X181697408Y-92528694D01*
X181701251Y-92489676D01*
X181697448Y-88493061D01*
X181697597Y-88489676D01*
X183206013Y-88489676D01*
X183209856Y-92528694D01*
X183239719Y-92600790D01*
X183294899Y-92655970D01*
X183366995Y-92685833D01*
X183406013Y-92689676D01*
X184353812Y-92686002D01*
X184383408Y-92688105D01*
X184393331Y-92685848D01*
X184397412Y-92685833D01*
X184402292Y-92683811D01*
X184421639Y-92679413D01*
X184864924Y-92528694D01*
X186828904Y-92528694D01*
X186858767Y-92600790D01*
X186913947Y-92655970D01*
X186986043Y-92685833D01*
X187025061Y-92689676D01*
X189540270Y-92685833D01*
X189612366Y-92655970D01*
X189667546Y-92600790D01*
X189697409Y-92528694D01*
X189697409Y-92450658D01*
X189667546Y-92378562D01*
X189612366Y-92323382D01*
X189540270Y-92293519D01*
X189501252Y-92289676D01*
X187504057Y-92292727D01*
X189427204Y-90365056D01*
X189433398Y-90361960D01*
X189454047Y-90338150D01*
X189477069Y-90315075D01*
X189479819Y-90308435D01*
X189484527Y-90303007D01*
X189500512Y-90267207D01*
X189686511Y-89697860D01*
X189697409Y-89671551D01*
X189698402Y-89661460D01*
X189699681Y-89657548D01*
X189699306Y-89652282D01*
X189701252Y-89632533D01*
X189701023Y-89607518D01*
X190826631Y-89607518D01*
X190832163Y-89685358D01*
X190867062Y-89755156D01*
X190926015Y-89806285D01*
X191000046Y-89830963D01*
X191077886Y-89825431D01*
X191114504Y-89811419D01*
X191491951Y-89618779D01*
X191517128Y-89608351D01*
X191524930Y-89601947D01*
X191528637Y-89600056D01*
X191532097Y-89596065D01*
X191547436Y-89583478D01*
X191913687Y-89212320D01*
X191928535Y-89202377D01*
X191953104Y-89172375D01*
X191953260Y-89172218D01*
X191953287Y-89172152D01*
X191953376Y-89172044D01*
X191968545Y-89149026D01*
X191971535Y-92291889D01*
X190986043Y-92293519D01*
X190913947Y-92323382D01*
X190858767Y-92378562D01*
X190828904Y-92450658D01*
X190828904Y-92528694D01*
X190858767Y-92600790D01*
X190913947Y-92655970D01*
X190986043Y-92685833D01*
X191025061Y-92689676D01*
X193349794Y-92685833D01*
X193421890Y-92655970D01*
X193477070Y-92600790D01*
X193506933Y-92528694D01*
X193506933Y-92450658D01*
X193477070Y-92378562D01*
X193421890Y-92323382D01*
X193349794Y-92293519D01*
X193310776Y-92289676D01*
X192367729Y-92291234D01*
X192364130Y-88508614D01*
X192367918Y-88489467D01*
X192364093Y-88470345D01*
X192364075Y-88450658D01*
X192356497Y-88432364D01*
X192352614Y-88412946D01*
X192341710Y-88396664D01*
X192334212Y-88378562D01*
X192320208Y-88364558D01*
X192309191Y-88348107D01*
X192292888Y-88337238D01*
X192279032Y-88323382D01*
X192260736Y-88315803D01*
X192244261Y-88304820D01*
X192225038Y-88301017D01*
X192206936Y-88293519D01*
X192187135Y-88293519D01*
X192167709Y-88289676D01*
X192148494Y-88293519D01*
X192128900Y-88293519D01*
X192110606Y-88301096D01*
X192091188Y-88304980D01*
X192074906Y-88315883D01*
X192056804Y-88323382D01*
X192042800Y-88337385D01*
X192026349Y-88348403D01*
X192001770Y-88378415D01*
X192001624Y-88378562D01*
X192001596Y-88378627D01*
X192001508Y-88378736D01*
X191643904Y-88921344D01*
X191296473Y-89273429D01*
X190902438Y-89474534D01*
X190851309Y-89533487D01*
X190826631Y-89607518D01*
X189701023Y-89607518D01*
X189698040Y-89281520D01*
X189699682Y-89276594D01*
X189697745Y-89249347D01*
X189697409Y-89212562D01*
X189694659Y-89205924D01*
X189694150Y-89198755D01*
X189680137Y-89162137D01*
X189487497Y-88784690D01*
X189477069Y-88759514D01*
X189470665Y-88751711D01*
X189468774Y-88748005D01*
X189464783Y-88744544D01*
X189452197Y-88729207D01*
X189259419Y-88541175D01*
X189242922Y-88522153D01*
X189234449Y-88516819D01*
X189231413Y-88513858D01*
X189226534Y-88511837D01*
X189209741Y-88501266D01*
X188854264Y-88327185D01*
X188850461Y-88323382D01*
X188824755Y-88312734D01*
X188792172Y-88296778D01*
X188785002Y-88296268D01*
X188778365Y-88293519D01*
X188739347Y-88289676D01*
X187817981Y-88293247D01*
X187811980Y-88291247D01*
X187781855Y-88293387D01*
X187747948Y-88293519D01*
X187741309Y-88296268D01*
X187734141Y-88296778D01*
X187697523Y-88310791D01*
X187320076Y-88503429D01*
X187294899Y-88513858D01*
X187287096Y-88520261D01*
X187283390Y-88522153D01*
X187279929Y-88526142D01*
X187264592Y-88538730D01*
X187049243Y-88759514D01*
X187019380Y-88831610D01*
X187019380Y-88909646D01*
X187049243Y-88981742D01*
X187104423Y-89036922D01*
X187176519Y-89066785D01*
X187254555Y-89066785D01*
X187326651Y-89036922D01*
X187356958Y-89012049D01*
X187516856Y-88848115D01*
X187827603Y-88689518D01*
X188685905Y-88686191D01*
X188995535Y-88837820D01*
X189142813Y-88981473D01*
X189301627Y-89292643D01*
X189304359Y-89591189D01*
X189141134Y-90090825D01*
X186858767Y-92378562D01*
X186828904Y-92450658D01*
X186828904Y-92528694D01*
X184864924Y-92528694D01*
X184962973Y-92495357D01*
X184968841Y-92495357D01*
X184995727Y-92484220D01*
X185028869Y-92472952D01*
X185034297Y-92468244D01*
X185040937Y-92465494D01*
X185071245Y-92440621D01*
X185447534Y-92059290D01*
X185468774Y-92040870D01*
X185474168Y-92032300D01*
X185477069Y-92029361D01*
X185479090Y-92024481D01*
X185489660Y-92007690D01*
X185670571Y-91638268D01*
X185682089Y-91622723D01*
X185692626Y-91593230D01*
X185694150Y-91590120D01*
X185694252Y-91588681D01*
X185695281Y-91585802D01*
X185879138Y-90835524D01*
X185887885Y-90814408D01*
X185890285Y-90790035D01*
X185891492Y-90785112D01*
X185891057Y-90782194D01*
X185891728Y-90775390D01*
X185888208Y-90216305D01*
X185891492Y-90194239D01*
X185887917Y-90170063D01*
X185887885Y-90164943D01*
X185886757Y-90162221D01*
X185885757Y-90155454D01*
X185695598Y-89409616D01*
X185694150Y-89389232D01*
X185682916Y-89359876D01*
X185682089Y-89356629D01*
X185681231Y-89355471D01*
X185680138Y-89352614D01*
X185487493Y-88975159D01*
X185477068Y-88949990D01*
X185470666Y-88942189D01*
X185468774Y-88938481D01*
X185464782Y-88935018D01*
X185452196Y-88919682D01*
X185090382Y-88562650D01*
X185087822Y-88557529D01*
X185066111Y-88538699D01*
X185040937Y-88513858D01*
X185034297Y-88511107D01*
X185028869Y-88506400D01*
X184993069Y-88490415D01*
X184423723Y-88304417D01*
X184397412Y-88293519D01*
X184387320Y-88292525D01*
X184383408Y-88291247D01*
X184378142Y-88291621D01*
X184358394Y-88289676D01*
X183366995Y-88293519D01*
X183294899Y-88323382D01*
X183239719Y-88378562D01*
X183209856Y-88450658D01*
X183206013Y-88489676D01*
X181697597Y-88489676D01*
X181698932Y-88459310D01*
X181697412Y-88455130D01*
X181697408Y-88450658D01*
X181684123Y-88418587D01*
X181672264Y-88385972D01*
X181669251Y-88382683D01*
X181667545Y-88378562D01*
X181642997Y-88354014D01*
X181619560Y-88328422D01*
X181615519Y-88326536D01*
X181612365Y-88323382D01*
X181580289Y-88310095D01*
X181548845Y-88295422D01*
X181544390Y-88295226D01*
X181540269Y-88293519D01*
X181505554Y-88293519D01*
X181470885Y-88291995D01*
X181466694Y-88293519D01*
X181462233Y-88293519D01*
X181430162Y-88306803D01*
X181397547Y-88318663D01*
X181394258Y-88321675D01*
X181390137Y-88323382D01*
X181365589Y-88347929D01*
X181339997Y-88371367D01*
X181336864Y-88376654D01*
X181334957Y-88378562D01*
X181333149Y-88382926D01*
X181320014Y-88405099D01*
X180169448Y-90878365D01*
X179013720Y-88409565D01*
X179000878Y-88378562D01*
X178997734Y-88375418D01*
X178995838Y-88371367D01*
X178970245Y-88347929D01*
X178945698Y-88323382D01*
X178941576Y-88321675D01*
X178938288Y-88318663D01*
X178905672Y-88306803D01*
X178873602Y-88293519D01*
X178869141Y-88293519D01*
X178864950Y-88291995D01*
X178830280Y-88293519D01*
X178795566Y-88293519D01*
X178791444Y-88295226D01*
X178786989Y-88295422D01*
X178755540Y-88310098D01*
X178723470Y-88323382D01*
X178720315Y-88326536D01*
X178716275Y-88328422D01*
X178692837Y-88354014D01*
X178668290Y-88378562D01*
X178666583Y-88382683D01*
X178663571Y-88385972D01*
X178651711Y-88418587D01*
X178638427Y-88450658D01*
X178637824Y-88456776D01*
X178636903Y-88459310D01*
X178637110Y-88464026D01*
X178634584Y-88489676D01*
X176374784Y-88489676D01*
X176361812Y-88450876D01*
X176360816Y-88436851D01*
X176349671Y-88414561D01*
X176341670Y-88390630D01*
X176332308Y-88379835D01*
X176325917Y-88367053D01*
X176306971Y-88350622D01*
X176290541Y-88331677D01*
X176277758Y-88325285D01*
X176266964Y-88315924D01*
X176243177Y-88307995D01*
X176220743Y-88296778D01*
X176206487Y-88295765D01*
X176192933Y-88291247D01*
X176167918Y-88293024D01*
X176142903Y-88291247D01*
X176129348Y-88295765D01*
X176115093Y-88296778D01*
X176092659Y-88307995D01*
X176068872Y-88315924D01*
X176058077Y-88325285D01*
X176045295Y-88331677D01*
X176028864Y-88350622D01*
X176009919Y-88367053D01*
X176003527Y-88379835D01*
X175994166Y-88390630D01*
X175978181Y-88426431D01*
X175025628Y-91292714D01*
X175019380Y-91307801D01*
X175019380Y-91311518D01*
X174636156Y-92464661D01*
X173422904Y-92464661D01*
X173429691Y-92459090D01*
X173433398Y-92457199D01*
X173436858Y-92453208D01*
X173452197Y-92440621D01*
X173640226Y-92247845D01*
X173659250Y-92231346D01*
X173664583Y-92222873D01*
X173667545Y-92219837D01*
X173669566Y-92214957D01*
X173680136Y-92198166D01*
X173854218Y-91842688D01*
X173858022Y-91838885D01*
X173868670Y-91813177D01*
X173884626Y-91780596D01*
X173885135Y-91773426D01*
X173887885Y-91766789D01*
X173891728Y-91727771D01*
X173888516Y-91376759D01*
X173890158Y-91371834D01*
X173888221Y-91344587D01*
X173887885Y-91307801D01*
X173885135Y-91301163D01*
X173884626Y-91293994D01*
X173870614Y-91257376D01*
X173677973Y-90879928D01*
X173667545Y-90854752D01*
X173661141Y-90846949D01*
X173659250Y-90843243D01*
X173655260Y-90839782D01*
X173642673Y-90824445D01*
X173449895Y-90636413D01*
X173433398Y-90617391D01*
X173424925Y-90612057D01*
X173421889Y-90609096D01*
X173417010Y-90607075D01*
X173400217Y-90596504D01*
X173030795Y-90415594D01*
X173015251Y-90404077D01*
X172985764Y-90393542D01*
X172982648Y-90392016D01*
X172981205Y-90391913D01*
X172978330Y-90390886D01*
X172251871Y-90212864D01*
X171911731Y-90046293D01*
X171764450Y-89902638D01*
X171605637Y-89591468D01*
X171603007Y-89304043D01*
X171754156Y-88995393D01*
X171897811Y-88848113D01*
X172208555Y-88689518D01*
X173077674Y-88686149D01*
X173666714Y-88878581D01*
X173744553Y-88873050D01*
X173814351Y-88838151D01*
X173865480Y-88779198D01*
X173890158Y-88705166D01*
X173884626Y-88627327D01*
X173849727Y-88557529D01*
X173790774Y-88506400D01*
X173754974Y-88490415D01*
X173185628Y-88304417D01*
X173159317Y-88293519D01*
X173149225Y-88292525D01*
X173145313Y-88291247D01*
X173140047Y-88291621D01*
X173120299Y-88289676D01*
X172198933Y-88293247D01*
X172192932Y-88291247D01*
X172162812Y-88293387D01*
X172128900Y-88293519D01*
X172122259Y-88296269D01*
X172115092Y-88296779D01*
X172078475Y-88310791D01*
X171701029Y-88503429D01*
X171675852Y-88513858D01*
X171668050Y-88520260D01*
X171664343Y-88522153D01*
X171660881Y-88526144D01*
X171645545Y-88538731D01*
X171457513Y-88731505D01*
X171438490Y-88748005D01*
X171433156Y-88756477D01*
X171430195Y-88759514D01*
X171428174Y-88764392D01*
X171417603Y-88781186D01*
X171243522Y-89136662D01*
X171239719Y-89140466D01*
X171229071Y-89166171D01*
X171213115Y-89198755D01*
X171212605Y-89205924D01*
X171209856Y-89212562D01*
X171206013Y-89251580D01*
X166895290Y-89251580D01*
X166840266Y-89035764D01*
X166840266Y-89022085D01*
X166831195Y-89000185D01*
X166824946Y-88975676D01*
X166816093Y-88963728D01*
X166810403Y-88949990D01*
X166785530Y-88919682D01*
X166404197Y-88543389D01*
X166385779Y-88522153D01*
X166377209Y-88516758D01*
X166374270Y-88513858D01*
X166369391Y-88511837D01*
X166352598Y-88501266D01*
X165997121Y-88327185D01*
X165993318Y-88323382D01*
X165967612Y-88312734D01*
X165935029Y-88296778D01*
X165927859Y-88296268D01*
X165921222Y-88293519D01*
X165882204Y-88289676D01*
X165151123Y-88293183D01*
X165145313Y-88291247D01*
X165115665Y-88293354D01*
X165081281Y-88293519D01*
X165074640Y-88296269D01*
X165067473Y-88296779D01*
X165030856Y-88310791D01*
X164653410Y-88503429D01*
X164628233Y-88513858D01*
X164620431Y-88520260D01*
X164616724Y-88522153D01*
X164613262Y-88526144D01*
X164597926Y-88538731D01*
X164235319Y-88906191D01*
X164224014Y-88912975D01*
X164210115Y-88931733D01*
X164192100Y-88949990D01*
X164186409Y-88963728D01*
X164177557Y-88975676D01*
X164164366Y-89012597D01*
X163980507Y-89762874D01*
X163971761Y-89783991D01*
X163969360Y-89808363D01*
X163968154Y-89813287D01*
X163968588Y-89816204D01*
X163967918Y-89823009D01*
X162344378Y-89823009D01*
X161885622Y-88450876D01*
X161884626Y-88436851D01*
X161873481Y-88414561D01*
X161865480Y-88390630D01*
X161856118Y-88379835D01*
X161849727Y-88367053D01*
X161830781Y-88350622D01*
X161814351Y-88331677D01*
X161801568Y-88325285D01*
X161790774Y-88315924D01*
X161766987Y-88307995D01*
X161744553Y-88296778D01*
X161730297Y-88295765D01*
X161716743Y-88291247D01*
X161691728Y-88293024D01*
X161666713Y-88291247D01*
X161653158Y-88295765D01*
X161638903Y-88296778D01*
X161616469Y-88307995D01*
X161592682Y-88315924D01*
X161581887Y-88325285D01*
X161569105Y-88331677D01*
X161552674Y-88350622D01*
X161533729Y-88367053D01*
X161527337Y-88379835D01*
X161517976Y-88390630D01*
X161501991Y-88426431D01*
X160549438Y-91292714D01*
X160543190Y-91307801D01*
X160543190Y-91311518D01*
X160159966Y-92464661D01*
X159225037Y-92464661D01*
X159221218Y-88450658D01*
X159191355Y-88378562D01*
X159136175Y-88323382D01*
X159064079Y-88293519D01*
X158986043Y-88293519D01*
X158913947Y-88323382D01*
X158858767Y-88378562D01*
X158828904Y-88450658D01*
X158825061Y-88489676D01*
X157701211Y-88489676D01*
X157701252Y-88489467D01*
X157685948Y-88412946D01*
X157642525Y-88348107D01*
X157577595Y-88304820D01*
X157501043Y-88289676D01*
X157424522Y-88304980D01*
X157359683Y-88348403D01*
X157334842Y-88378736D01*
X156167635Y-90132557D01*
X154976154Y-88348403D01*
X154911315Y-88304980D01*
X154834794Y-88289676D01*
X154758242Y-88304820D01*
X154693312Y-88348107D01*
X154649889Y-88412946D01*
X154634585Y-88489467D01*
X154649729Y-88566019D01*
X154668175Y-88600616D01*
X155929839Y-90489864D01*
X154649729Y-92413333D01*
X154634585Y-92489885D01*
X154190141Y-92489885D01*
X154190141Y-87845232D01*
X193951377Y-87845232D01*
X193951377Y-93134120D01*
G37*
D11*
X156886966Y-97900485D02*
X156610776Y-97762390D01*
X156610776Y-97762390D02*
X156334585Y-97486200D01*
X156334585Y-97486200D02*
X155920299Y-97071914D01*
X155920299Y-97071914D02*
X155644109Y-96933819D01*
X155644109Y-96933819D02*
X155367918Y-96933819D01*
X155506014Y-97624295D02*
X155229823Y-97486200D01*
X155229823Y-97486200D02*
X154953633Y-97210009D01*
X154953633Y-97210009D02*
X154815537Y-96657628D01*
X154815537Y-96657628D02*
X154815537Y-95690961D01*
X154815537Y-95690961D02*
X154953633Y-95138580D01*
X154953633Y-95138580D02*
X155229823Y-94862390D01*
X155229823Y-94862390D02*
X155506014Y-94724295D01*
X155506014Y-94724295D02*
X156058395Y-94724295D01*
X156058395Y-94724295D02*
X156334585Y-94862390D01*
X156334585Y-94862390D02*
X156610776Y-95138580D01*
X156610776Y-95138580D02*
X156748871Y-95690961D01*
X156748871Y-95690961D02*
X156748871Y-96657628D01*
X156748871Y-96657628D02*
X156610776Y-97210009D01*
X156610776Y-97210009D02*
X156334585Y-97486200D01*
X156334585Y-97486200D02*
X156058395Y-97624295D01*
X156058395Y-97624295D02*
X155506014Y-97624295D01*
X157577442Y-94724295D02*
X159234585Y-94724295D01*
X158406013Y-97624295D02*
X158406013Y-94724295D01*
X160615537Y-97624295D02*
X160339347Y-97486200D01*
X160339347Y-97486200D02*
X160201252Y-97348104D01*
X160201252Y-97348104D02*
X160063156Y-97071914D01*
X160063156Y-97071914D02*
X160063156Y-96243342D01*
X160063156Y-96243342D02*
X160201252Y-95967152D01*
X160201252Y-95967152D02*
X160339347Y-95829057D01*
X160339347Y-95829057D02*
X160615537Y-95690961D01*
X160615537Y-95690961D02*
X161029823Y-95690961D01*
X161029823Y-95690961D02*
X161306014Y-95829057D01*
X161306014Y-95829057D02*
X161444109Y-95967152D01*
X161444109Y-95967152D02*
X161582204Y-96243342D01*
X161582204Y-96243342D02*
X161582204Y-97071914D01*
X161582204Y-97071914D02*
X161444109Y-97348104D01*
X161444109Y-97348104D02*
X161306014Y-97486200D01*
X161306014Y-97486200D02*
X161029823Y-97624295D01*
X161029823Y-97624295D02*
X160615537Y-97624295D01*
X164067919Y-95690961D02*
X164067919Y-97624295D01*
X162825062Y-95690961D02*
X162825062Y-97210009D01*
X162825062Y-97210009D02*
X162963157Y-97486200D01*
X162963157Y-97486200D02*
X163239347Y-97624295D01*
X163239347Y-97624295D02*
X163653633Y-97624295D01*
X163653633Y-97624295D02*
X163929824Y-97486200D01*
X163929824Y-97486200D02*
X164067919Y-97348104D01*
X166691729Y-97486200D02*
X166415538Y-97624295D01*
X166415538Y-97624295D02*
X165863157Y-97624295D01*
X165863157Y-97624295D02*
X165586967Y-97486200D01*
X165586967Y-97486200D02*
X165448872Y-97348104D01*
X165448872Y-97348104D02*
X165310776Y-97071914D01*
X165310776Y-97071914D02*
X165310776Y-96243342D01*
X165310776Y-96243342D02*
X165448872Y-95967152D01*
X165448872Y-95967152D02*
X165586967Y-95829057D01*
X165586967Y-95829057D02*
X165863157Y-95690961D01*
X165863157Y-95690961D02*
X166415538Y-95690961D01*
X166415538Y-95690961D02*
X166691729Y-95829057D01*
X167934586Y-97624295D02*
X167934586Y-94724295D01*
X169177443Y-97624295D02*
X169177443Y-96105247D01*
X169177443Y-96105247D02*
X169039348Y-95829057D01*
X169039348Y-95829057D02*
X168763157Y-95690961D01*
X168763157Y-95690961D02*
X168348871Y-95690961D01*
X168348871Y-95690961D02*
X168072681Y-95829057D01*
X168072681Y-95829057D02*
X167934586Y-95967152D01*
X174010777Y-97486200D02*
X173734586Y-97624295D01*
X173734586Y-97624295D02*
X173182205Y-97624295D01*
X173182205Y-97624295D02*
X172906015Y-97486200D01*
X172906015Y-97486200D02*
X172767920Y-97348104D01*
X172767920Y-97348104D02*
X172629824Y-97071914D01*
X172629824Y-97071914D02*
X172629824Y-96243342D01*
X172629824Y-96243342D02*
X172767920Y-95967152D01*
X172767920Y-95967152D02*
X172906015Y-95829057D01*
X172906015Y-95829057D02*
X173182205Y-95690961D01*
X173182205Y-95690961D02*
X173734586Y-95690961D01*
X173734586Y-95690961D02*
X174010777Y-95829057D01*
X175667919Y-97624295D02*
X175391729Y-97486200D01*
X175391729Y-97486200D02*
X175253634Y-97348104D01*
X175253634Y-97348104D02*
X175115538Y-97071914D01*
X175115538Y-97071914D02*
X175115538Y-96243342D01*
X175115538Y-96243342D02*
X175253634Y-95967152D01*
X175253634Y-95967152D02*
X175391729Y-95829057D01*
X175391729Y-95829057D02*
X175667919Y-95690961D01*
X175667919Y-95690961D02*
X176082205Y-95690961D01*
X176082205Y-95690961D02*
X176358396Y-95829057D01*
X176358396Y-95829057D02*
X176496491Y-95967152D01*
X176496491Y-95967152D02*
X176634586Y-96243342D01*
X176634586Y-96243342D02*
X176634586Y-97071914D01*
X176634586Y-97071914D02*
X176496491Y-97348104D01*
X176496491Y-97348104D02*
X176358396Y-97486200D01*
X176358396Y-97486200D02*
X176082205Y-97624295D01*
X176082205Y-97624295D02*
X175667919Y-97624295D01*
X177877444Y-95690961D02*
X177877444Y-97624295D01*
X177877444Y-95967152D02*
X178015539Y-95829057D01*
X178015539Y-95829057D02*
X178291729Y-95690961D01*
X178291729Y-95690961D02*
X178706015Y-95690961D01*
X178706015Y-95690961D02*
X178982206Y-95829057D01*
X178982206Y-95829057D02*
X179120301Y-96105247D01*
X179120301Y-96105247D02*
X179120301Y-97624295D01*
X180086968Y-95690961D02*
X181191730Y-95690961D01*
X180501254Y-94724295D02*
X180501254Y-97210009D01*
X180501254Y-97210009D02*
X180639349Y-97486200D01*
X180639349Y-97486200D02*
X180915539Y-97624295D01*
X180915539Y-97624295D02*
X181191730Y-97624295D01*
X182158397Y-97624295D02*
X182158397Y-95690961D01*
X182158397Y-96243342D02*
X182296492Y-95967152D01*
X182296492Y-95967152D02*
X182434587Y-95829057D01*
X182434587Y-95829057D02*
X182710778Y-95690961D01*
X182710778Y-95690961D02*
X182986968Y-95690961D01*
X184367920Y-97624295D02*
X184091730Y-97486200D01*
X184091730Y-97486200D02*
X183953635Y-97348104D01*
X183953635Y-97348104D02*
X183815539Y-97071914D01*
X183815539Y-97071914D02*
X183815539Y-96243342D01*
X183815539Y-96243342D02*
X183953635Y-95967152D01*
X183953635Y-95967152D02*
X184091730Y-95829057D01*
X184091730Y-95829057D02*
X184367920Y-95690961D01*
X184367920Y-95690961D02*
X184782206Y-95690961D01*
X184782206Y-95690961D02*
X185058397Y-95829057D01*
X185058397Y-95829057D02*
X185196492Y-95967152D01*
X185196492Y-95967152D02*
X185334587Y-96243342D01*
X185334587Y-96243342D02*
X185334587Y-97071914D01*
X185334587Y-97071914D02*
X185196492Y-97348104D01*
X185196492Y-97348104D02*
X185058397Y-97486200D01*
X185058397Y-97486200D02*
X184782206Y-97624295D01*
X184782206Y-97624295D02*
X184367920Y-97624295D01*
X186991730Y-97624295D02*
X186715540Y-97486200D01*
X186715540Y-97486200D02*
X186577445Y-97210009D01*
X186577445Y-97210009D02*
X186577445Y-94724295D01*
X188510778Y-97624295D02*
X188234588Y-97486200D01*
X188234588Y-97486200D02*
X188096493Y-97210009D01*
X188096493Y-97210009D02*
X188096493Y-94724295D01*
X190720303Y-97486200D02*
X190444112Y-97624295D01*
X190444112Y-97624295D02*
X189891731Y-97624295D01*
X189891731Y-97624295D02*
X189615541Y-97486200D01*
X189615541Y-97486200D02*
X189477445Y-97210009D01*
X189477445Y-97210009D02*
X189477445Y-96105247D01*
X189477445Y-96105247D02*
X189615541Y-95829057D01*
X189615541Y-95829057D02*
X189891731Y-95690961D01*
X189891731Y-95690961D02*
X190444112Y-95690961D01*
X190444112Y-95690961D02*
X190720303Y-95829057D01*
X190720303Y-95829057D02*
X190858398Y-96105247D01*
X190858398Y-96105247D02*
X190858398Y-96381438D01*
X190858398Y-96381438D02*
X189477445Y-96657628D01*
X192101255Y-97624295D02*
X192101255Y-95690961D01*
X192101255Y-96243342D02*
X192239350Y-95967152D01*
X192239350Y-95967152D02*
X192377445Y-95829057D01*
X192377445Y-95829057D02*
X192653636Y-95690961D01*
X192653636Y-95690961D02*
X192929826Y-95690961D01*
D12*
X197000000Y-102000000D03*
X66000000Y-102000000D03*
X158000000Y-55000000D03*
D13*
X191500000Y-109000000D03*
X171500000Y-109000000D03*
X151500000Y-109000000D03*
X131500000Y-109000000D03*
X111500000Y-109000000D03*
X91500000Y-109000000D03*
X71500000Y-109000000D03*
D14*
X89000000Y-77000000D03*
X89000000Y-79000000D03*
D15*
X87000000Y-74600000D03*
X87000000Y-85400000D03*
D14*
X89000000Y-81000000D03*
X89000000Y-83000000D03*
D16*
X97500000Y-78250000D03*
X100000000Y-72750000D03*
X102500000Y-78250000D03*
D17*
X64380000Y-84270000D03*
X66920000Y-80970000D03*
X69460000Y-84270000D03*
X72000000Y-80970000D03*
X74540000Y-84270000D03*
X77080000Y-80970000D03*
X79620000Y-84270000D03*
X79620000Y-65730000D03*
X77080000Y-69030000D03*
X74540000Y-65730000D03*
X72000000Y-69030000D03*
X69460000Y-65730000D03*
X66920000Y-69030000D03*
X64380000Y-65730000D03*
D16*
X102500000Y-87250000D03*
X100000000Y-81750000D03*
X97500000Y-87250000D03*
D18*
X143300000Y-63000000D03*
X146700000Y-63000000D03*
X111700000Y-76000000D03*
X108300000Y-76000000D03*
X111700000Y-72000000D03*
X108300000Y-72000000D03*
X111700000Y-68000000D03*
X108300000Y-68000000D03*
D17*
X69540000Y-55350000D03*
X67000000Y-58650000D03*
X64460000Y-55350000D03*
X126040000Y-98650000D03*
X123500000Y-95350000D03*
X139000000Y-95350000D03*
X136460000Y-98650000D03*
X133920000Y-95350000D03*
X131380000Y-98650000D03*
X128840000Y-95350000D03*
D19*
X147000000Y-72000000D03*
X147000000Y-75400000D03*
X142000000Y-75400000D03*
X142000000Y-72000000D03*
X137000000Y-72000000D03*
X137000000Y-75400000D03*
X132000000Y-75400000D03*
X132000000Y-72000000D03*
X127000000Y-72000000D03*
X127000000Y-75400000D03*
X122000000Y-75500000D03*
X122000000Y-72100000D03*
X117200000Y-72100000D03*
X117200000Y-75500000D03*
D20*
X97000000Y-69000000D02*
X89000000Y-77000000D01*
X100250000Y-69000000D02*
X97000000Y-69000000D01*
X101400000Y-80100000D02*
X101400000Y-70150000D01*
X141900000Y-80100000D02*
X101400000Y-80100000D01*
X144750000Y-77250000D02*
X141900000Y-80100000D01*
X101400000Y-70150000D02*
X100250000Y-69000000D01*
X144750000Y-69750000D02*
X144750000Y-77250000D01*
X141000000Y-63000000D02*
X141000000Y-66000000D01*
X141000000Y-66000000D02*
X144750000Y-69750000D01*
X98750000Y-83000000D02*
X89000000Y-83000000D01*
X100000000Y-81750000D02*
X98750000Y-83000000D01*
X102500000Y-87500000D02*
X102500000Y-87250000D01*
X128000000Y-90000000D02*
X105000000Y-90000000D01*
X137000000Y-81000000D02*
X128000000Y-90000000D01*
X150000000Y-76000000D02*
X150000000Y-77934315D01*
X149400000Y-75400000D02*
X150000000Y-76000000D01*
X105000000Y-90000000D02*
X102500000Y-87500000D01*
X150000000Y-77934315D02*
X146934315Y-81000000D01*
X147000000Y-75400000D02*
X149400000Y-75400000D01*
X146934315Y-81000000D02*
X137000000Y-81000000D01*
X107550000Y-76750000D02*
X108300000Y-76000000D01*
X104000000Y-76750000D02*
X107550000Y-76750000D01*
X97500000Y-72750000D02*
X100000000Y-72750000D01*
X89000000Y-81000000D02*
X94000000Y-81000000D01*
X94000000Y-81000000D02*
X94000000Y-76250000D01*
X94000000Y-76250000D02*
X97500000Y-72750000D01*
X102500000Y-78250000D02*
X104000000Y-76750000D01*
X89000000Y-79000000D02*
X83000000Y-79000000D01*
X83000000Y-79000000D02*
X81500000Y-77500000D01*
X81500000Y-77500000D02*
X76300000Y-77500000D01*
X76300000Y-77500000D02*
X73250000Y-80550000D01*
X68995000Y-86750000D02*
X68200000Y-85955000D01*
X73250000Y-80550000D02*
X73250000Y-84750000D01*
X73250000Y-84750000D02*
X71250000Y-86750000D01*
X71250000Y-86750000D02*
X68995000Y-86750000D01*
X68200000Y-85955000D02*
X68200000Y-79550000D01*
X68200000Y-79550000D02*
X65600000Y-76950000D01*
X65600000Y-76950000D02*
X65600000Y-56400000D01*
X65600000Y-56400000D02*
X66650000Y-55350000D01*
X66650000Y-55350000D02*
X69540000Y-55350000D01*
X83000000Y-81000000D02*
X89000000Y-81000000D01*
X76150000Y-79200000D02*
X81200000Y-79200000D01*
X81200000Y-79200000D02*
X83000000Y-81000000D01*
X74540000Y-80810000D02*
X76150000Y-79200000D01*
X74540000Y-84270000D02*
X74540000Y-80810000D01*
X82968750Y-83000000D02*
X89000000Y-83000000D01*
X80938750Y-80970000D02*
X82968750Y-83000000D01*
X77080000Y-80970000D02*
X80938750Y-80970000D01*
X64460000Y-65650000D02*
X64460000Y-55350000D01*
X64380000Y-65730000D02*
X64460000Y-65650000D01*
X66920000Y-69030000D02*
X67000000Y-68950000D01*
X69540000Y-55350000D02*
X69540000Y-65650000D01*
X67000000Y-68950000D02*
X67000000Y-58650000D01*
X69540000Y-65650000D02*
X69460000Y-65730000D01*
X106300000Y-66000000D02*
X108300000Y-68000000D01*
X79500000Y-72500000D02*
X86000000Y-66000000D01*
X86000000Y-66000000D02*
X106300000Y-66000000D01*
X70930000Y-72500000D02*
X79500000Y-72500000D01*
X69540000Y-84190000D02*
X69540000Y-73890000D01*
X69460000Y-84270000D02*
X69540000Y-84190000D01*
X69540000Y-73890000D02*
X70930000Y-72500000D01*
X140000000Y-62000000D02*
X141000000Y-63000000D01*
X87000000Y-62000000D02*
X140000000Y-62000000D01*
X78000000Y-71000000D02*
X87000000Y-62000000D01*
X68890000Y-71000000D02*
X78000000Y-71000000D01*
X66920000Y-69030000D02*
X68890000Y-71000000D01*
X102000000Y-68000000D02*
X106000000Y-72000000D01*
X87000000Y-68000000D02*
X102000000Y-68000000D01*
X106000000Y-72000000D02*
X108300000Y-72000000D01*
X74000000Y-74000000D02*
X81000000Y-74000000D01*
X81000000Y-74000000D02*
X87000000Y-68000000D01*
X72080000Y-75920000D02*
X74000000Y-74000000D01*
X72080000Y-80890000D02*
X72080000Y-75920000D01*
X72000000Y-80970000D02*
X72080000Y-80890000D01*
X126040000Y-94040000D02*
X126040000Y-98650000D01*
X122150000Y-93000000D02*
X125000000Y-93000000D01*
X121150000Y-94000000D02*
X122150000Y-93000000D01*
X70000000Y-94000000D02*
X121150000Y-94000000D01*
X67000000Y-91000000D02*
X70000000Y-94000000D01*
X125000000Y-93000000D02*
X126040000Y-94040000D01*
X67000000Y-81050000D02*
X67000000Y-91000000D01*
X66920000Y-80970000D02*
X67000000Y-81050000D01*
X64460000Y-84350000D02*
X64380000Y-84270000D01*
X64460000Y-91460000D02*
X64460000Y-84350000D01*
X69000000Y-96000000D02*
X64460000Y-91460000D01*
X122850000Y-96000000D02*
X69000000Y-96000000D01*
X123500000Y-95350000D02*
X122850000Y-96000000D01*
X79700000Y-84350000D02*
X79620000Y-84270000D01*
X79700000Y-89700000D02*
X79700000Y-84350000D01*
X126000000Y-92000000D02*
X82000000Y-92000000D01*
X82000000Y-92000000D02*
X79700000Y-89700000D01*
X128840000Y-95350000D02*
X128840000Y-94840000D01*
X128840000Y-94840000D02*
X126000000Y-92000000D01*
X143450000Y-73450000D02*
X142000000Y-72000000D01*
X143450000Y-76550000D02*
X143450000Y-73450000D01*
X142000000Y-78000000D02*
X143450000Y-76550000D01*
X111700000Y-76000000D02*
X113700000Y-78000000D01*
X113700000Y-78000000D02*
X142000000Y-78000000D01*
X135350000Y-73750000D02*
X137000000Y-75400000D01*
X124500000Y-72750000D02*
X125500000Y-73750000D01*
X125500000Y-73750000D02*
X135350000Y-73750000D01*
X124500000Y-71000000D02*
X124500000Y-72750000D01*
X121500000Y-68000000D02*
X124500000Y-71000000D01*
X111700000Y-68000000D02*
X121500000Y-68000000D01*
X147000000Y-63300000D02*
X146700000Y-63000000D01*
X141000000Y-63000000D02*
X143300000Y-63000000D01*
X147000000Y-72000000D02*
X147000000Y-63300000D01*
X131380000Y-89620000D02*
X131380000Y-98650000D01*
X148000000Y-83000000D02*
X138000000Y-83000000D01*
X152000000Y-79000000D02*
X148000000Y-83000000D01*
X152000000Y-64000000D02*
X152000000Y-79000000D01*
X82000000Y-60000000D02*
X148000000Y-60000000D01*
X138000000Y-83000000D02*
X131380000Y-89620000D01*
X79620000Y-62380000D02*
X82000000Y-60000000D01*
X79620000Y-65730000D02*
X79620000Y-62380000D01*
X148000000Y-60000000D02*
X152000000Y-64000000D01*
X133920000Y-90080000D02*
X133920000Y-95350000D01*
X149000000Y-85000000D02*
X139000000Y-85000000D01*
X154000000Y-80000000D02*
X149000000Y-85000000D01*
X154000000Y-63000000D02*
X154000000Y-80000000D01*
X139000000Y-85000000D02*
X133920000Y-90080000D01*
X81000000Y-58000000D02*
X149000000Y-58000000D01*
X77160000Y-61840000D02*
X81000000Y-58000000D01*
X77160000Y-68950000D02*
X77160000Y-61840000D01*
X77080000Y-69030000D02*
X77160000Y-68950000D01*
X149000000Y-58000000D02*
X154000000Y-63000000D01*
X140000000Y-87000000D02*
X136460000Y-90540000D01*
X149500000Y-87000000D02*
X140000000Y-87000000D01*
X156000000Y-62000000D02*
X156000000Y-80500000D01*
X80000000Y-56000000D02*
X150000000Y-56000000D01*
X156000000Y-80500000D02*
X149500000Y-87000000D01*
X136460000Y-90540000D02*
X136460000Y-98650000D01*
X74620000Y-65650000D02*
X74620000Y-61380000D01*
X74620000Y-61380000D02*
X80000000Y-56000000D01*
X74540000Y-65730000D02*
X74620000Y-65650000D01*
X150000000Y-56000000D02*
X156000000Y-62000000D01*
X139000000Y-91000000D02*
X139000000Y-95350000D01*
X141000000Y-89000000D02*
X139000000Y-91000000D01*
X150000000Y-89000000D02*
X141000000Y-89000000D01*
X158000000Y-81000000D02*
X150000000Y-89000000D01*
X158000000Y-61000000D02*
X158000000Y-81000000D01*
X151000000Y-54000000D02*
X158000000Y-61000000D01*
X72080000Y-60920000D02*
X79000000Y-54000000D01*
X72080000Y-68950000D02*
X72080000Y-60920000D01*
X79000000Y-54000000D02*
X151000000Y-54000000D01*
X72000000Y-69030000D02*
X72080000Y-68950000D01*
X121000000Y-102000000D02*
X78500000Y-102000000D01*
X123500000Y-99500000D02*
X121000000Y-102000000D01*
X123500000Y-95350000D02*
X123500000Y-99500000D01*
X78500000Y-102000000D02*
X71500000Y-109000000D01*
X124000000Y-103000000D02*
X97500000Y-103000000D01*
X126040000Y-100960000D02*
X124000000Y-103000000D01*
X97500000Y-103000000D02*
X91500000Y-109000000D01*
X126040000Y-98650000D02*
X126040000Y-100960000D01*
X116500000Y-104000000D02*
X111500000Y-109000000D01*
X128840000Y-95350000D02*
X128840000Y-102160000D01*
X128840000Y-102160000D02*
X127000000Y-104000000D01*
X127000000Y-104000000D02*
X116500000Y-104000000D01*
X184500000Y-102000000D02*
X191500000Y-109000000D01*
X141000000Y-102000000D02*
X184500000Y-102000000D01*
X139000000Y-100000000D02*
X141000000Y-102000000D01*
X139000000Y-95350000D02*
X139000000Y-100000000D01*
X138420000Y-103000000D02*
X165500000Y-103000000D01*
X136460000Y-101040000D02*
X138420000Y-103000000D01*
X136460000Y-98650000D02*
X136460000Y-101040000D01*
X165500000Y-103000000D02*
X171500000Y-109000000D01*
X133920000Y-101920000D02*
X136000000Y-104000000D01*
X136000000Y-104000000D02*
X146500000Y-104000000D01*
X146500000Y-104000000D02*
X151500000Y-109000000D01*
X133920000Y-95350000D02*
X133920000Y-101920000D01*
X131380000Y-108880000D02*
X131500000Y-109000000D01*
X131380000Y-98650000D02*
X131380000Y-108880000D01*
X117100000Y-72000000D02*
X117200000Y-72100000D01*
X111700000Y-72000000D02*
X117100000Y-72000000D01*
X91880000Y-77000000D02*
X92000000Y-77000000D01*
X86550000Y-80970000D02*
X86850000Y-81270000D01*
X74540000Y-84270000D02*
X74620000Y-84190000D01*
X127000000Y-72000000D02*
X132000000Y-72000000D01*
X137000000Y-72000000D02*
X132000000Y-72000000D01*
X142000000Y-72000000D02*
X137000000Y-72000000D01*
X135700000Y-76700000D02*
X137000000Y-75400000D01*
X122500000Y-75500000D02*
X123700000Y-76700000D01*
X123700000Y-76700000D02*
X135700000Y-76700000D01*
X122000000Y-75500000D02*
X122500000Y-75500000D01*
X117200000Y-75500000D02*
X122000000Y-75500000D01*
X137000000Y-75400000D02*
X142000000Y-75400000D01*
X127000000Y-75400000D02*
X132000000Y-75400000D01*
X125400000Y-75400000D02*
X127000000Y-75400000D01*
X122100000Y-72100000D02*
X125400000Y-75400000D01*
X122000000Y-72100000D02*
X122100000Y-72100000D01*
X117200000Y-72100000D02*
X122000000Y-72100000D01*
%TA.AperFunction,NonConductor*%
G36*
X130600062Y-72720185D02*
G01*
X130645817Y-72772989D01*
X130653266Y-72800134D01*
X130654124Y-72799932D01*
X130655907Y-72807479D01*
X130683764Y-72882167D01*
X130688748Y-72951859D01*
X130655263Y-73013182D01*
X130593939Y-73046666D01*
X130567582Y-73049500D01*
X128432418Y-73049500D01*
X128365379Y-73029815D01*
X128319624Y-72977011D01*
X128309680Y-72907853D01*
X128316236Y-72882167D01*
X128339353Y-72820185D01*
X128344091Y-72807483D01*
X128344091Y-72807481D01*
X128345874Y-72799938D01*
X128348146Y-72800474D01*
X128370429Y-72746688D01*
X128427823Y-72706843D01*
X128466976Y-72700500D01*
X130533023Y-72700500D01*
X130600062Y-72720185D01*
G37*
%TD.AperFunction*%
%TA.AperFunction,NonConductor*%
G36*
X135600062Y-72720185D02*
G01*
X135645817Y-72772989D01*
X135653266Y-72800134D01*
X135654124Y-72799932D01*
X135655907Y-72807479D01*
X135694692Y-72911467D01*
X135699676Y-72981159D01*
X135666191Y-73042482D01*
X135604867Y-73075966D01*
X135554319Y-73076417D01*
X135418998Y-73049500D01*
X135418994Y-73049500D01*
X135418993Y-73049500D01*
X133432418Y-73049500D01*
X133365379Y-73029815D01*
X133319624Y-72977011D01*
X133309680Y-72907853D01*
X133316236Y-72882167D01*
X133339353Y-72820185D01*
X133344091Y-72807483D01*
X133344091Y-72807481D01*
X133345874Y-72799938D01*
X133348146Y-72800474D01*
X133370429Y-72746688D01*
X133427823Y-72706843D01*
X133466976Y-72700500D01*
X135533023Y-72700500D01*
X135600062Y-72720185D01*
G37*
%TD.AperFunction*%
%TA.AperFunction,NonConductor*%
G36*
X140600062Y-72720185D02*
G01*
X140645817Y-72772989D01*
X140653266Y-72800134D01*
X140654124Y-72799932D01*
X140655907Y-72807479D01*
X140706202Y-72942328D01*
X140706206Y-72942335D01*
X140792452Y-73057544D01*
X140792455Y-73057547D01*
X140907664Y-73143793D01*
X140907671Y-73143797D01*
X141042517Y-73194091D01*
X141042516Y-73194091D01*
X141049444Y-73194835D01*
X141102127Y-73200500D01*
X142158480Y-73200499D01*
X142225519Y-73220183D01*
X142246161Y-73236818D01*
X142713181Y-73703838D01*
X142746666Y-73765161D01*
X142749500Y-73791519D01*
X142749500Y-74075500D01*
X142729815Y-74142539D01*
X142677011Y-74188294D01*
X142625500Y-74199500D01*
X141102129Y-74199500D01*
X141102123Y-74199501D01*
X141042516Y-74205908D01*
X140907671Y-74256202D01*
X140907664Y-74256206D01*
X140792455Y-74342452D01*
X140792452Y-74342455D01*
X140706206Y-74457664D01*
X140706202Y-74457671D01*
X140655908Y-74592517D01*
X140654126Y-74600062D01*
X140651853Y-74599525D01*
X140629571Y-74653312D01*
X140572177Y-74693157D01*
X140533024Y-74699500D01*
X138466977Y-74699500D01*
X138399938Y-74679815D01*
X138354183Y-74627011D01*
X138346733Y-74599865D01*
X138345876Y-74600068D01*
X138344092Y-74592520D01*
X138293797Y-74457671D01*
X138293793Y-74457664D01*
X138207547Y-74342455D01*
X138207544Y-74342452D01*
X138092335Y-74256206D01*
X138092328Y-74256202D01*
X137957482Y-74205908D01*
X137957483Y-74205908D01*
X137897883Y-74199501D01*
X137897881Y-74199500D01*
X137897873Y-74199500D01*
X137897865Y-74199500D01*
X136841519Y-74199500D01*
X136774480Y-74179815D01*
X136753838Y-74163181D01*
X136002240Y-73411582D01*
X135968755Y-73350259D01*
X135973739Y-73280567D01*
X136015611Y-73224634D01*
X136081075Y-73200217D01*
X136098806Y-73200537D01*
X136098806Y-73200500D01*
X136098809Y-73200499D01*
X136098819Y-73200322D01*
X136102100Y-73200497D01*
X136102127Y-73200500D01*
X137897872Y-73200499D01*
X137957483Y-73194091D01*
X138092331Y-73143796D01*
X138207546Y-73057546D01*
X138293796Y-72942331D01*
X138344091Y-72807483D01*
X138344091Y-72807481D01*
X138345874Y-72799938D01*
X138348146Y-72800474D01*
X138370429Y-72746688D01*
X138427823Y-72706843D01*
X138466976Y-72700500D01*
X140533023Y-72700500D01*
X140600062Y-72720185D01*
G37*
%TD.AperFunction*%
%TA.AperFunction,NonConductor*%
G36*
X130600171Y-74470185D02*
G01*
X130645926Y-74522989D01*
X130656415Y-74587815D01*
X130656307Y-74588815D01*
X130629538Y-74653353D01*
X130572126Y-74693173D01*
X130533024Y-74699500D01*
X128466977Y-74699500D01*
X128399938Y-74679815D01*
X128354183Y-74627011D01*
X128343694Y-74588815D01*
X128343586Y-74587815D01*
X128355958Y-74519049D01*
X128403544Y-74467889D01*
X128466869Y-74450500D01*
X130533132Y-74450500D01*
X130600171Y-74470185D01*
G37*
%TD.AperFunction*%
%TA.AperFunction,NonConductor*%
G36*
X135075520Y-74470185D02*
G01*
X135096162Y-74486819D01*
X135613181Y-75003837D01*
X135646666Y-75065160D01*
X135649500Y-75091518D01*
X135649500Y-75708480D01*
X135629815Y-75775519D01*
X135613185Y-75796156D01*
X135446160Y-75963182D01*
X135384839Y-75996666D01*
X135358481Y-75999500D01*
X133474500Y-75999500D01*
X133407461Y-75979815D01*
X133361706Y-75927011D01*
X133350500Y-75875500D01*
X133350499Y-74652129D01*
X133350498Y-74652123D01*
X133350216Y-74649501D01*
X133344091Y-74592517D01*
X133343579Y-74587753D01*
X133355986Y-74518994D01*
X133403597Y-74467857D01*
X133466869Y-74450500D01*
X135008481Y-74450500D01*
X135075520Y-74470185D01*
G37*
%TD.AperFunction*%
%TA.AperFunction,NonConductor*%
G36*
X123489989Y-74496494D02*
G01*
X123534337Y-74524995D01*
X124797161Y-75787819D01*
X124830646Y-75849142D01*
X124825662Y-75918834D01*
X124783790Y-75974767D01*
X124718326Y-75999184D01*
X124709480Y-75999500D01*
X124041519Y-75999500D01*
X123974480Y-75979815D01*
X123953838Y-75963181D01*
X123386818Y-75396161D01*
X123353333Y-75334838D01*
X123350499Y-75308480D01*
X123350499Y-74752129D01*
X123350498Y-74752123D01*
X123344091Y-74692517D01*
X123344090Y-74692514D01*
X123330475Y-74656010D01*
X123325490Y-74586319D01*
X123358974Y-74524995D01*
X123420297Y-74491510D01*
X123489989Y-74496494D01*
G37*
%TD.AperFunction*%
%TA.AperFunction,NonConductor*%
G36*
X140600062Y-76120185D02*
G01*
X140645817Y-76172989D01*
X140653266Y-76200134D01*
X140654124Y-76199932D01*
X140655907Y-76207479D01*
X140706202Y-76342328D01*
X140706206Y-76342335D01*
X140792452Y-76457544D01*
X140792455Y-76457547D01*
X140907664Y-76543793D01*
X140907671Y-76543797D01*
X141042517Y-76594091D01*
X141042516Y-76594091D01*
X141049444Y-76594835D01*
X141102127Y-76600500D01*
X142109481Y-76600499D01*
X142176520Y-76620183D01*
X142222275Y-76672987D01*
X142232219Y-76742146D01*
X142203194Y-76805702D01*
X142197162Y-76812180D01*
X141746162Y-77263181D01*
X141684839Y-77296666D01*
X141658481Y-77299500D01*
X136390520Y-77299500D01*
X136323481Y-77279815D01*
X136277726Y-77227011D01*
X136267782Y-77157853D01*
X136296807Y-77094297D01*
X136302839Y-77087819D01*
X136753838Y-76636818D01*
X136815161Y-76603333D01*
X136841519Y-76600499D01*
X137897871Y-76600499D01*
X137897872Y-76600499D01*
X137957483Y-76594091D01*
X138092331Y-76543796D01*
X138207546Y-76457546D01*
X138293796Y-76342331D01*
X138344091Y-76207483D01*
X138344091Y-76207481D01*
X138345874Y-76199938D01*
X138348146Y-76200474D01*
X138370429Y-76146688D01*
X138427823Y-76106843D01*
X138466976Y-76100500D01*
X140533023Y-76100500D01*
X140600062Y-76120185D01*
G37*
%TD.AperFunction*%
%TA.AperFunction,NonConductor*%
G36*
X81225520Y-78220185D02*
G01*
X81246162Y-78236819D01*
X81297162Y-78287819D01*
X81330647Y-78349142D01*
X81325663Y-78418834D01*
X81283791Y-78474767D01*
X81218327Y-78499184D01*
X81209481Y-78499500D01*
X76590518Y-78499500D01*
X76523479Y-78479815D01*
X76477724Y-78427011D01*
X76467780Y-78357853D01*
X76496805Y-78294297D01*
X76502837Y-78287819D01*
X76553837Y-78236819D01*
X76615160Y-78203334D01*
X76641518Y-78200500D01*
X81158481Y-78200500D01*
X81225520Y-78220185D01*
G37*
%TD.AperFunction*%
%TA.AperFunction,NonConductor*%
G36*
X67445519Y-70550184D02*
G01*
X67466161Y-70566818D01*
X68443453Y-71544111D01*
X68443454Y-71544112D01*
X68558192Y-71620777D01*
X68685667Y-71673578D01*
X68685672Y-71673580D01*
X68685676Y-71673580D01*
X68685677Y-71673581D01*
X68821003Y-71700500D01*
X70456896Y-71700500D01*
X70523935Y-71720185D01*
X70569690Y-71772989D01*
X70579634Y-71842147D01*
X70550609Y-71905703D01*
X70525786Y-71927603D01*
X70483454Y-71955887D01*
X68995887Y-73443454D01*
X68919222Y-73558192D01*
X68866421Y-73685667D01*
X68866418Y-73685679D01*
X68839905Y-73818970D01*
X68839900Y-73818998D01*
X68839500Y-73821006D01*
X68839500Y-78899480D01*
X68819815Y-78966519D01*
X68767011Y-79012274D01*
X68697853Y-79022218D01*
X68634297Y-78993193D01*
X68627819Y-78987161D01*
X66336819Y-76696161D01*
X66303334Y-76634838D01*
X66300500Y-76608480D01*
X66300500Y-70654499D01*
X66320185Y-70587460D01*
X66372989Y-70541705D01*
X66424495Y-70530499D01*
X67378480Y-70530499D01*
X67445519Y-70550184D01*
G37*
%TD.AperFunction*%
%TA.AperFunction,NonConductor*%
G36*
X139725520Y-62720185D02*
G01*
X139746162Y-62736819D01*
X140263181Y-63253838D01*
X140296666Y-63315161D01*
X140299500Y-63341519D01*
X140299500Y-65931006D01*
X140299500Y-66068994D01*
X140299500Y-66068996D01*
X140299499Y-66068996D01*
X140326418Y-66204322D01*
X140326421Y-66204332D01*
X140379222Y-66331807D01*
X140455887Y-66446545D01*
X140455888Y-66446546D01*
X144013181Y-70003838D01*
X144046666Y-70065161D01*
X144049500Y-70091519D01*
X144049500Y-72759480D01*
X144029815Y-72826519D01*
X143977011Y-72872274D01*
X143907853Y-72882218D01*
X143844297Y-72853193D01*
X143837819Y-72847161D01*
X143386818Y-72396160D01*
X143353333Y-72334837D01*
X143350499Y-72308479D01*
X143350499Y-71252129D01*
X143350498Y-71252123D01*
X143350497Y-71252116D01*
X143344091Y-71192517D01*
X143339286Y-71179635D01*
X143293797Y-71057671D01*
X143293793Y-71057664D01*
X143207547Y-70942455D01*
X143207544Y-70942452D01*
X143092335Y-70856206D01*
X143092328Y-70856202D01*
X142957482Y-70805908D01*
X142957483Y-70805908D01*
X142897883Y-70799501D01*
X142897881Y-70799500D01*
X142897873Y-70799500D01*
X142897864Y-70799500D01*
X141102129Y-70799500D01*
X141102123Y-70799501D01*
X141042516Y-70805908D01*
X140907671Y-70856202D01*
X140907664Y-70856206D01*
X140792455Y-70942452D01*
X140792452Y-70942455D01*
X140706206Y-71057664D01*
X140706202Y-71057671D01*
X140655908Y-71192517D01*
X140654126Y-71200062D01*
X140651853Y-71199525D01*
X140629571Y-71253312D01*
X140572177Y-71293157D01*
X140533024Y-71299500D01*
X138466977Y-71299500D01*
X138399938Y-71279815D01*
X138354183Y-71227011D01*
X138346733Y-71199865D01*
X138345876Y-71200068D01*
X138344092Y-71192520D01*
X138293797Y-71057671D01*
X138293793Y-71057664D01*
X138207547Y-70942455D01*
X138207544Y-70942452D01*
X138092335Y-70856206D01*
X138092328Y-70856202D01*
X137957482Y-70805908D01*
X137957483Y-70805908D01*
X137897883Y-70799501D01*
X137897881Y-70799500D01*
X137897873Y-70799500D01*
X137897864Y-70799500D01*
X136102129Y-70799500D01*
X136102123Y-70799501D01*
X136042516Y-70805908D01*
X135907671Y-70856202D01*
X135907664Y-70856206D01*
X135792455Y-70942452D01*
X135792452Y-70942455D01*
X135706206Y-71057664D01*
X135706202Y-71057671D01*
X135655908Y-71192517D01*
X135654126Y-71200062D01*
X135651853Y-71199525D01*
X135629571Y-71253312D01*
X135572177Y-71293157D01*
X135533024Y-71299500D01*
X133466977Y-71299500D01*
X133399938Y-71279815D01*
X133354183Y-71227011D01*
X133346733Y-71199865D01*
X133345876Y-71200068D01*
X133344092Y-71192520D01*
X133293797Y-71057671D01*
X133293793Y-71057664D01*
X133207547Y-70942455D01*
X133207544Y-70942452D01*
X133092335Y-70856206D01*
X133092328Y-70856202D01*
X132957482Y-70805908D01*
X132957483Y-70805908D01*
X132897883Y-70799501D01*
X132897881Y-70799500D01*
X132897873Y-70799500D01*
X132897864Y-70799500D01*
X131102129Y-70799500D01*
X131102123Y-70799501D01*
X131042516Y-70805908D01*
X130907671Y-70856202D01*
X130907664Y-70856206D01*
X130792455Y-70942452D01*
X130792452Y-70942455D01*
X130706206Y-71057664D01*
X130706202Y-71057671D01*
X130655908Y-71192517D01*
X130654126Y-71200062D01*
X130651853Y-71199525D01*
X130629571Y-71253312D01*
X130572177Y-71293157D01*
X130533024Y-71299500D01*
X128466977Y-71299500D01*
X128399938Y-71279815D01*
X128354183Y-71227011D01*
X128346733Y-71199865D01*
X128345876Y-71200068D01*
X128344092Y-71192520D01*
X128293797Y-71057671D01*
X128293793Y-71057664D01*
X128207547Y-70942455D01*
X128207544Y-70942452D01*
X128092335Y-70856206D01*
X128092328Y-70856202D01*
X127957482Y-70805908D01*
X127957483Y-70805908D01*
X127897883Y-70799501D01*
X127897881Y-70799500D01*
X127897873Y-70799500D01*
X127897864Y-70799500D01*
X126102129Y-70799500D01*
X126102123Y-70799501D01*
X126042516Y-70805908D01*
X125907671Y-70856202D01*
X125907664Y-70856206D01*
X125792455Y-70942452D01*
X125792452Y-70942455D01*
X125706206Y-71057664D01*
X125706202Y-71057671D01*
X125655908Y-71192517D01*
X125652200Y-71227011D01*
X125649501Y-71252123D01*
X125649500Y-71252135D01*
X125649500Y-72609481D01*
X125629815Y-72676520D01*
X125577011Y-72722275D01*
X125507853Y-72732219D01*
X125444297Y-72703194D01*
X125437819Y-72697162D01*
X125236819Y-72496162D01*
X125203334Y-72434839D01*
X125200500Y-72408481D01*
X125200500Y-70931004D01*
X125173581Y-70795677D01*
X125173580Y-70795676D01*
X125173580Y-70795672D01*
X125173578Y-70795667D01*
X125120776Y-70668191D01*
X125120775Y-70668189D01*
X125072903Y-70596543D01*
X125058508Y-70575000D01*
X125044115Y-70553458D01*
X125044111Y-70553453D01*
X121946545Y-67455887D01*
X121831807Y-67379222D01*
X121704332Y-67326421D01*
X121704322Y-67326418D01*
X121568996Y-67299500D01*
X121568994Y-67299500D01*
X121568993Y-67299500D01*
X113024499Y-67299500D01*
X112957460Y-67279815D01*
X112911705Y-67227011D01*
X112900499Y-67175500D01*
X112900499Y-67102129D01*
X112900498Y-67102123D01*
X112900497Y-67102116D01*
X112894091Y-67042517D01*
X112867913Y-66972331D01*
X112843797Y-66907671D01*
X112843793Y-66907664D01*
X112757547Y-66792455D01*
X112757544Y-66792452D01*
X112642335Y-66706206D01*
X112642328Y-66706202D01*
X112507482Y-66655908D01*
X112507483Y-66655908D01*
X112447883Y-66649501D01*
X112447881Y-66649500D01*
X112447873Y-66649500D01*
X112447864Y-66649500D01*
X110952129Y-66649500D01*
X110952123Y-66649501D01*
X110892516Y-66655908D01*
X110757671Y-66706202D01*
X110757664Y-66706206D01*
X110642455Y-66792452D01*
X110642452Y-66792455D01*
X110556206Y-66907664D01*
X110556202Y-66907671D01*
X110505908Y-67042517D01*
X110499501Y-67102116D01*
X110499501Y-67102123D01*
X110499500Y-67102135D01*
X110499500Y-68897870D01*
X110499501Y-68897876D01*
X110505908Y-68957483D01*
X110556202Y-69092328D01*
X110556206Y-69092335D01*
X110642452Y-69207544D01*
X110642455Y-69207547D01*
X110757664Y-69293793D01*
X110757671Y-69293797D01*
X110892517Y-69344091D01*
X110892516Y-69344091D01*
X110899444Y-69344835D01*
X110952127Y-69350500D01*
X112447872Y-69350499D01*
X112507483Y-69344091D01*
X112642331Y-69293796D01*
X112757546Y-69207546D01*
X112843796Y-69092331D01*
X112894091Y-68957483D01*
X112900500Y-68897873D01*
X112900500Y-68824500D01*
X112920185Y-68757461D01*
X112972989Y-68711706D01*
X113024500Y-68700500D01*
X121158481Y-68700500D01*
X121225520Y-68720185D01*
X121246162Y-68736819D01*
X123350888Y-70841545D01*
X123371113Y-70878584D01*
X123395082Y-70887524D01*
X123408454Y-70899111D01*
X123763181Y-71253838D01*
X123796666Y-71315161D01*
X123799500Y-71341519D01*
X123799500Y-72509481D01*
X123779815Y-72576520D01*
X123727011Y-72622275D01*
X123657853Y-72632219D01*
X123594297Y-72603194D01*
X123587819Y-72597162D01*
X123386818Y-72396161D01*
X123353333Y-72334838D01*
X123350499Y-72308480D01*
X123350499Y-71352129D01*
X123350498Y-71352123D01*
X123349358Y-71341519D01*
X123344091Y-71292517D01*
X123339353Y-71279815D01*
X123293797Y-71157671D01*
X123293793Y-71157664D01*
X123221507Y-71061103D01*
X123213717Y-71040219D01*
X123203780Y-71038058D01*
X123188896Y-71028492D01*
X123092335Y-70956206D01*
X123092328Y-70956202D01*
X122957482Y-70905908D01*
X122957483Y-70905908D01*
X122897883Y-70899501D01*
X122897881Y-70899500D01*
X122897873Y-70899500D01*
X122897864Y-70899500D01*
X121102129Y-70899500D01*
X121102123Y-70899501D01*
X121042516Y-70905908D01*
X120907671Y-70956202D01*
X120907664Y-70956206D01*
X120792455Y-71042452D01*
X120792452Y-71042455D01*
X120706206Y-71157664D01*
X120706202Y-71157671D01*
X120655908Y-71292517D01*
X120654126Y-71300062D01*
X120651853Y-71299525D01*
X120629571Y-71353312D01*
X120572177Y-71393157D01*
X120533024Y-71399500D01*
X118666977Y-71399500D01*
X118599938Y-71379815D01*
X118554183Y-71327011D01*
X118546733Y-71299865D01*
X118545876Y-71300068D01*
X118544092Y-71292520D01*
X118529029Y-71252135D01*
X118506795Y-71192520D01*
X118493797Y-71157671D01*
X118493793Y-71157664D01*
X118407547Y-71042455D01*
X118407544Y-71042452D01*
X118292335Y-70956206D01*
X118292328Y-70956202D01*
X118157482Y-70905908D01*
X118157483Y-70905908D01*
X118097883Y-70899501D01*
X118097881Y-70899500D01*
X118097873Y-70899500D01*
X118097864Y-70899500D01*
X116302129Y-70899500D01*
X116302123Y-70899501D01*
X116242516Y-70905908D01*
X116107671Y-70956202D01*
X116107664Y-70956206D01*
X115992455Y-71042452D01*
X115992452Y-71042455D01*
X115906206Y-71157664D01*
X115906202Y-71157671D01*
X115883391Y-71218833D01*
X115841520Y-71274767D01*
X115776056Y-71299184D01*
X115767209Y-71299500D01*
X113024499Y-71299500D01*
X112957460Y-71279815D01*
X112911705Y-71227011D01*
X112900499Y-71175500D01*
X112900499Y-71102129D01*
X112900498Y-71102123D01*
X112900497Y-71102116D01*
X112894091Y-71042517D01*
X112878623Y-71001046D01*
X112843797Y-70907671D01*
X112843793Y-70907664D01*
X112757547Y-70792455D01*
X112757544Y-70792452D01*
X112642335Y-70706206D01*
X112642328Y-70706202D01*
X112507482Y-70655908D01*
X112507483Y-70655908D01*
X112447883Y-70649501D01*
X112447881Y-70649500D01*
X112447873Y-70649500D01*
X112447864Y-70649500D01*
X110952129Y-70649500D01*
X110952123Y-70649501D01*
X110892516Y-70655908D01*
X110757671Y-70706202D01*
X110757664Y-70706206D01*
X110642455Y-70792452D01*
X110642452Y-70792455D01*
X110556206Y-70907664D01*
X110556202Y-70907671D01*
X110505908Y-71042517D01*
X110499501Y-71102116D01*
X110499501Y-71102123D01*
X110499500Y-71102135D01*
X110499500Y-72897870D01*
X110499501Y-72897876D01*
X110505908Y-72957483D01*
X110556202Y-73092328D01*
X110556206Y-73092335D01*
X110642452Y-73207544D01*
X110642455Y-73207547D01*
X110757664Y-73293793D01*
X110757671Y-73293797D01*
X110892517Y-73344091D01*
X110892516Y-73344091D01*
X110899444Y-73344835D01*
X110952127Y-73350500D01*
X112447872Y-73350499D01*
X112507483Y-73344091D01*
X112642331Y-73293796D01*
X112757546Y-73207546D01*
X112843796Y-73092331D01*
X112894091Y-72957483D01*
X112900500Y-72897873D01*
X112900500Y-72824500D01*
X112920185Y-72757461D01*
X112972989Y-72711706D01*
X113024500Y-72700500D01*
X115725501Y-72700500D01*
X115792540Y-72720185D01*
X115838295Y-72772989D01*
X115849501Y-72824500D01*
X115849501Y-72847876D01*
X115855908Y-72907483D01*
X115906202Y-73042328D01*
X115906206Y-73042335D01*
X115992452Y-73157544D01*
X115992455Y-73157547D01*
X116107664Y-73243793D01*
X116107671Y-73243797D01*
X116242517Y-73294091D01*
X116242516Y-73294091D01*
X116249444Y-73294835D01*
X116302127Y-73300500D01*
X118097872Y-73300499D01*
X118157483Y-73294091D01*
X118292331Y-73243796D01*
X118407546Y-73157546D01*
X118493796Y-73042331D01*
X118544091Y-72907483D01*
X118544091Y-72907481D01*
X118545874Y-72899938D01*
X118548146Y-72900474D01*
X118570429Y-72846688D01*
X118627823Y-72806843D01*
X118666976Y-72800500D01*
X120533023Y-72800500D01*
X120600062Y-72820185D01*
X120645817Y-72872989D01*
X120653266Y-72900134D01*
X120654124Y-72899932D01*
X120655907Y-72907479D01*
X120706202Y-73042328D01*
X120706206Y-73042335D01*
X120792452Y-73157544D01*
X120792455Y-73157547D01*
X120907664Y-73243793D01*
X120907671Y-73243797D01*
X121042517Y-73294091D01*
X121042516Y-73294091D01*
X121049444Y-73294835D01*
X121102127Y-73300500D01*
X122258480Y-73300499D01*
X122325519Y-73320184D01*
X122346161Y-73336818D01*
X123125005Y-74115662D01*
X123158490Y-74176985D01*
X123153506Y-74246677D01*
X123111634Y-74302610D01*
X123046170Y-74327027D01*
X122993992Y-74319525D01*
X122957485Y-74305909D01*
X122957483Y-74305908D01*
X122897883Y-74299501D01*
X122897881Y-74299500D01*
X122897873Y-74299500D01*
X122897864Y-74299500D01*
X121102129Y-74299500D01*
X121102123Y-74299501D01*
X121042516Y-74305908D01*
X120907671Y-74356202D01*
X120907664Y-74356206D01*
X120792455Y-74442452D01*
X120792452Y-74442455D01*
X120706206Y-74557664D01*
X120706202Y-74557671D01*
X120655908Y-74692517D01*
X120654126Y-74700062D01*
X120651853Y-74699525D01*
X120629571Y-74753312D01*
X120572177Y-74793157D01*
X120533024Y-74799500D01*
X118666977Y-74799500D01*
X118599938Y-74779815D01*
X118554183Y-74727011D01*
X118546733Y-74699865D01*
X118545876Y-74700068D01*
X118544092Y-74692520D01*
X118493797Y-74557671D01*
X118493793Y-74557664D01*
X118407547Y-74442455D01*
X118407544Y-74442452D01*
X118292335Y-74356206D01*
X118292328Y-74356202D01*
X118157482Y-74305908D01*
X118157483Y-74305908D01*
X118097883Y-74299501D01*
X118097881Y-74299500D01*
X118097873Y-74299500D01*
X118097864Y-74299500D01*
X116302129Y-74299500D01*
X116302123Y-74299501D01*
X116242516Y-74305908D01*
X116107671Y-74356202D01*
X116107664Y-74356206D01*
X115992455Y-74442452D01*
X115992452Y-74442455D01*
X115906206Y-74557664D01*
X115906202Y-74557671D01*
X115855908Y-74692517D01*
X115849501Y-74752116D01*
X115849501Y-74752123D01*
X115849500Y-74752135D01*
X115849500Y-76247870D01*
X115849501Y-76247876D01*
X115855908Y-76307483D01*
X115906202Y-76442328D01*
X115906206Y-76442335D01*
X115992452Y-76557544D01*
X115992455Y-76557547D01*
X116107664Y-76643793D01*
X116107671Y-76643797D01*
X116242517Y-76694091D01*
X116242516Y-76694091D01*
X116249444Y-76694835D01*
X116302127Y-76700500D01*
X118097872Y-76700499D01*
X118157483Y-76694091D01*
X118292331Y-76643796D01*
X118407546Y-76557546D01*
X118493796Y-76442331D01*
X118544091Y-76307483D01*
X118544091Y-76307481D01*
X118545874Y-76299938D01*
X118548146Y-76300474D01*
X118570429Y-76246688D01*
X118627823Y-76206843D01*
X118666976Y-76200500D01*
X120533023Y-76200500D01*
X120600062Y-76220185D01*
X120645817Y-76272989D01*
X120653266Y-76300134D01*
X120654124Y-76299932D01*
X120655907Y-76307479D01*
X120706202Y-76442328D01*
X120706206Y-76442335D01*
X120792452Y-76557544D01*
X120792455Y-76557547D01*
X120907664Y-76643793D01*
X120907671Y-76643797D01*
X121042517Y-76694091D01*
X121042516Y-76694091D01*
X121049444Y-76694835D01*
X121102127Y-76700500D01*
X122658479Y-76700499D01*
X122725518Y-76720184D01*
X122746160Y-76736818D01*
X123097161Y-77087819D01*
X123130646Y-77149142D01*
X123125662Y-77218834D01*
X123083790Y-77274767D01*
X123018326Y-77299184D01*
X123009480Y-77299500D01*
X114041519Y-77299500D01*
X113974480Y-77279815D01*
X113953838Y-77263181D01*
X112936818Y-76246161D01*
X112903333Y-76184838D01*
X112900499Y-76158480D01*
X112900499Y-75102129D01*
X112900498Y-75102123D01*
X112900497Y-75102116D01*
X112894091Y-75042517D01*
X112893210Y-75040156D01*
X112843797Y-74907671D01*
X112843793Y-74907664D01*
X112757547Y-74792455D01*
X112757544Y-74792452D01*
X112642335Y-74706206D01*
X112642328Y-74706202D01*
X112507482Y-74655908D01*
X112507483Y-74655908D01*
X112447883Y-74649501D01*
X112447881Y-74649500D01*
X112447873Y-74649500D01*
X112447864Y-74649500D01*
X110952129Y-74649500D01*
X110952123Y-74649501D01*
X110892516Y-74655908D01*
X110757671Y-74706202D01*
X110757664Y-74706206D01*
X110642455Y-74792452D01*
X110642452Y-74792455D01*
X110556206Y-74907664D01*
X110556202Y-74907671D01*
X110505908Y-75042517D01*
X110499501Y-75102116D01*
X110499501Y-75102123D01*
X110499500Y-75102135D01*
X110499500Y-76897870D01*
X110499501Y-76897876D01*
X110505908Y-76957483D01*
X110556202Y-77092328D01*
X110556206Y-77092335D01*
X110642452Y-77207544D01*
X110642455Y-77207547D01*
X110757664Y-77293793D01*
X110757671Y-77293797D01*
X110892517Y-77344091D01*
X110892516Y-77344091D01*
X110899444Y-77344835D01*
X110952127Y-77350500D01*
X112008480Y-77350499D01*
X112075519Y-77370183D01*
X112096161Y-77386818D01*
X113253451Y-78544109D01*
X113253454Y-78544112D01*
X113306006Y-78579226D01*
X113368182Y-78620771D01*
X113368195Y-78620778D01*
X113495667Y-78673578D01*
X113495672Y-78673580D01*
X113495676Y-78673580D01*
X113495677Y-78673581D01*
X113631004Y-78700500D01*
X142009481Y-78700500D01*
X142076520Y-78720185D01*
X142122275Y-78772989D01*
X142132219Y-78842147D01*
X142103194Y-78905703D01*
X142097162Y-78912181D01*
X141646162Y-79363181D01*
X141584839Y-79396666D01*
X141558481Y-79399500D01*
X103624500Y-79399500D01*
X103557461Y-79379815D01*
X103511706Y-79327011D01*
X103500500Y-79275500D01*
X103500499Y-78291518D01*
X103520183Y-78224479D01*
X103536813Y-78203842D01*
X104253837Y-77486819D01*
X104315160Y-77453334D01*
X104341518Y-77450500D01*
X107618996Y-77450500D01*
X107710040Y-77432389D01*
X107754328Y-77423580D01*
X107881811Y-77370775D01*
X107881816Y-77370771D01*
X107887184Y-77367903D01*
X107887881Y-77369207D01*
X107947549Y-77350519D01*
X107949771Y-77350499D01*
X109047871Y-77350499D01*
X109047872Y-77350499D01*
X109107483Y-77344091D01*
X109242331Y-77293796D01*
X109357546Y-77207546D01*
X109443796Y-77092331D01*
X109494091Y-76957483D01*
X109500500Y-76897873D01*
X109500499Y-75102128D01*
X109494091Y-75042517D01*
X109493210Y-75040156D01*
X109443797Y-74907671D01*
X109443793Y-74907664D01*
X109357547Y-74792455D01*
X109357544Y-74792452D01*
X109242335Y-74706206D01*
X109242328Y-74706202D01*
X109107482Y-74655908D01*
X109107483Y-74655908D01*
X109047883Y-74649501D01*
X109047881Y-74649500D01*
X109047873Y-74649500D01*
X109047864Y-74649500D01*
X107552129Y-74649500D01*
X107552123Y-74649501D01*
X107492516Y-74655908D01*
X107357671Y-74706202D01*
X107357664Y-74706206D01*
X107242455Y-74792452D01*
X107242452Y-74792455D01*
X107156206Y-74907664D01*
X107156202Y-74907671D01*
X107105908Y-75042517D01*
X107099501Y-75102116D01*
X107099500Y-75102127D01*
X107099500Y-75568993D01*
X107099501Y-75925500D01*
X107079817Y-75992539D01*
X107027013Y-76038294D01*
X106975501Y-76049500D01*
X103931005Y-76049500D01*
X103865672Y-76062496D01*
X103833005Y-76068994D01*
X103795671Y-76076420D01*
X103795669Y-76076420D01*
X103795668Y-76076421D01*
X103795660Y-76076423D01*
X103742865Y-76098292D01*
X103668191Y-76129223D01*
X103555795Y-76204325D01*
X103555786Y-76204331D01*
X103553460Y-76205884D01*
X103270135Y-76489208D01*
X103208812Y-76522692D01*
X103139124Y-76517709D01*
X103107484Y-76505909D01*
X103107483Y-76505908D01*
X103047883Y-76499501D01*
X103047881Y-76499500D01*
X103047873Y-76499500D01*
X103047865Y-76499500D01*
X102224500Y-76499500D01*
X102157461Y-76479815D01*
X102111706Y-76427011D01*
X102100500Y-76375500D01*
X102100500Y-70081010D01*
X102100500Y-70081007D01*
X102099876Y-70077872D01*
X102073580Y-69945672D01*
X102066609Y-69928843D01*
X102020777Y-69818192D01*
X101944112Y-69703454D01*
X101944111Y-69703453D01*
X101152838Y-68912181D01*
X101119353Y-68850858D01*
X101124337Y-68781167D01*
X101166209Y-68725233D01*
X101231673Y-68700816D01*
X101240519Y-68700500D01*
X101658481Y-68700500D01*
X101725520Y-68720185D01*
X101746162Y-68736819D01*
X105553453Y-72544111D01*
X105553454Y-72544112D01*
X105668190Y-72620776D01*
X105766790Y-72661617D01*
X105795671Y-72673580D01*
X105795672Y-72673580D01*
X105795677Y-72673582D01*
X105822545Y-72678925D01*
X105822551Y-72678926D01*
X105822591Y-72678934D01*
X105912937Y-72696905D01*
X105931006Y-72700500D01*
X105931007Y-72700500D01*
X106975501Y-72700500D01*
X107042540Y-72720185D01*
X107088295Y-72772989D01*
X107099501Y-72824500D01*
X107099501Y-72897876D01*
X107105908Y-72957483D01*
X107156202Y-73092328D01*
X107156206Y-73092335D01*
X107242452Y-73207544D01*
X107242455Y-73207547D01*
X107357664Y-73293793D01*
X107357671Y-73293797D01*
X107492517Y-73344091D01*
X107492516Y-73344091D01*
X107499444Y-73344835D01*
X107552127Y-73350500D01*
X109047872Y-73350499D01*
X109107483Y-73344091D01*
X109242331Y-73293796D01*
X109357546Y-73207546D01*
X109443796Y-73092331D01*
X109494091Y-72957483D01*
X109500500Y-72897873D01*
X109500499Y-71102128D01*
X109494091Y-71042517D01*
X109478623Y-71001046D01*
X109443797Y-70907671D01*
X109443793Y-70907664D01*
X109357547Y-70792455D01*
X109357544Y-70792452D01*
X109242335Y-70706206D01*
X109242328Y-70706202D01*
X109107482Y-70655908D01*
X109107483Y-70655908D01*
X109047883Y-70649501D01*
X109047881Y-70649500D01*
X109047873Y-70649500D01*
X109047864Y-70649500D01*
X107552129Y-70649500D01*
X107552123Y-70649501D01*
X107492516Y-70655908D01*
X107357671Y-70706202D01*
X107357664Y-70706206D01*
X107242455Y-70792452D01*
X107242452Y-70792455D01*
X107156206Y-70907664D01*
X107156202Y-70907671D01*
X107105908Y-71042517D01*
X107099501Y-71102116D01*
X107099501Y-71102123D01*
X107099500Y-71102135D01*
X107099500Y-71175500D01*
X107079815Y-71242539D01*
X107027011Y-71288294D01*
X106975500Y-71299500D01*
X106341519Y-71299500D01*
X106274480Y-71279815D01*
X106253838Y-71263181D01*
X102446546Y-67455888D01*
X102446545Y-67455887D01*
X102331807Y-67379222D01*
X102204332Y-67326421D01*
X102204322Y-67326418D01*
X102068996Y-67299500D01*
X102068994Y-67299500D01*
X102068993Y-67299500D01*
X86931007Y-67299500D01*
X86931003Y-67299500D01*
X86822590Y-67321065D01*
X86822589Y-67321065D01*
X86809131Y-67323742D01*
X86795673Y-67326419D01*
X86742866Y-67348291D01*
X86742866Y-67348292D01*
X86695774Y-67367798D01*
X86668186Y-67379226D01*
X86658034Y-67386010D01*
X86657923Y-67386084D01*
X86553457Y-67455886D01*
X86553453Y-67455889D01*
X80746162Y-73263181D01*
X80684839Y-73296666D01*
X80658481Y-73299500D01*
X79973104Y-73299500D01*
X79906065Y-73279815D01*
X79860310Y-73227011D01*
X79850366Y-73157853D01*
X79879391Y-73094297D01*
X79904214Y-73072397D01*
X79946543Y-73044114D01*
X86253838Y-66736819D01*
X86315161Y-66703334D01*
X86341519Y-66700500D01*
X105958481Y-66700500D01*
X106025520Y-66720185D01*
X106046162Y-66736819D01*
X107063181Y-67753838D01*
X107096666Y-67815161D01*
X107099500Y-67841519D01*
X107099500Y-68897870D01*
X107099501Y-68897876D01*
X107105908Y-68957483D01*
X107156202Y-69092328D01*
X107156206Y-69092335D01*
X107242452Y-69207544D01*
X107242455Y-69207547D01*
X107357664Y-69293793D01*
X107357671Y-69293797D01*
X107492517Y-69344091D01*
X107492516Y-69344091D01*
X107499444Y-69344835D01*
X107552127Y-69350500D01*
X109047872Y-69350499D01*
X109107483Y-69344091D01*
X109242331Y-69293796D01*
X109357546Y-69207546D01*
X109443796Y-69092331D01*
X109494091Y-68957483D01*
X109500500Y-68897873D01*
X109500499Y-67102128D01*
X109494091Y-67042517D01*
X109467913Y-66972331D01*
X109443797Y-66907671D01*
X109443793Y-66907664D01*
X109357547Y-66792455D01*
X109357544Y-66792452D01*
X109242335Y-66706206D01*
X109242328Y-66706202D01*
X109107482Y-66655908D01*
X109107483Y-66655908D01*
X109047883Y-66649501D01*
X109047881Y-66649500D01*
X109047873Y-66649500D01*
X109047865Y-66649500D01*
X107991519Y-66649500D01*
X107924480Y-66629815D01*
X107903838Y-66613181D01*
X106746546Y-65455888D01*
X106746545Y-65455887D01*
X106631807Y-65379222D01*
X106504332Y-65326421D01*
X106504322Y-65326418D01*
X106368996Y-65299500D01*
X106368994Y-65299500D01*
X106368993Y-65299500D01*
X85931007Y-65299500D01*
X85931005Y-65299500D01*
X85868370Y-65311959D01*
X85837052Y-65318189D01*
X85795671Y-65326420D01*
X85795670Y-65326420D01*
X85668190Y-65379224D01*
X85553454Y-65455887D01*
X85553453Y-65455888D01*
X79246162Y-71763181D01*
X79184839Y-71796666D01*
X79158481Y-71799500D01*
X78473104Y-71799500D01*
X78406065Y-71779815D01*
X78360310Y-71727011D01*
X78350366Y-71657853D01*
X78379391Y-71594297D01*
X78404214Y-71572397D01*
X78446543Y-71544114D01*
X87253838Y-62736819D01*
X87315161Y-62703334D01*
X87341519Y-62700500D01*
X139658481Y-62700500D01*
X139725520Y-62720185D01*
G37*
%TD.AperFunction*%
%TA.AperFunction,NonConductor*%
G36*
X96076521Y-68720185D02*
G01*
X96122276Y-68772989D01*
X96132220Y-68842147D01*
X96103195Y-68905703D01*
X96097163Y-68912181D01*
X89305559Y-75703782D01*
X89244236Y-75737267D01*
X89174544Y-75732283D01*
X89118611Y-75690411D01*
X89094194Y-75624947D01*
X89094588Y-75602852D01*
X89100500Y-75547873D01*
X89100499Y-73652128D01*
X89094091Y-73592517D01*
X89081287Y-73558189D01*
X89043797Y-73457671D01*
X89043793Y-73457664D01*
X88957547Y-73342455D01*
X88957544Y-73342452D01*
X88842335Y-73256206D01*
X88842328Y-73256202D01*
X88707482Y-73205908D01*
X88707483Y-73205908D01*
X88647883Y-73199501D01*
X88647881Y-73199500D01*
X88647873Y-73199500D01*
X88647864Y-73199500D01*
X85352129Y-73199500D01*
X85352123Y-73199501D01*
X85292516Y-73205908D01*
X85157671Y-73256202D01*
X85157664Y-73256206D01*
X85042455Y-73342452D01*
X85042452Y-73342455D01*
X84956206Y-73457664D01*
X84956202Y-73457671D01*
X84905908Y-73592517D01*
X84899501Y-73652116D01*
X84899501Y-73652123D01*
X84899500Y-73652135D01*
X84899500Y-75547870D01*
X84899501Y-75547876D01*
X84905908Y-75607483D01*
X84956202Y-75742328D01*
X84956206Y-75742335D01*
X85042452Y-75857544D01*
X85042455Y-75857547D01*
X85157664Y-75943793D01*
X85157671Y-75943797D01*
X85190942Y-75956206D01*
X85292517Y-75994091D01*
X85352127Y-76000500D01*
X85586230Y-76000499D01*
X85653269Y-76020183D01*
X85699024Y-76072987D01*
X85708968Y-76142146D01*
X85702412Y-76167831D01*
X85655909Y-76292514D01*
X85655908Y-76292516D01*
X85649501Y-76352116D01*
X85649500Y-76352135D01*
X85649500Y-77647870D01*
X85649501Y-77647876D01*
X85655908Y-77707483D01*
X85706202Y-77842328D01*
X85706203Y-77842330D01*
X85768606Y-77925689D01*
X85793023Y-77991153D01*
X85778172Y-78059426D01*
X85768606Y-78074311D01*
X85706203Y-78157669D01*
X85706202Y-78157671D01*
X85683391Y-78218833D01*
X85641520Y-78274767D01*
X85576056Y-78299184D01*
X85567209Y-78299500D01*
X83341518Y-78299500D01*
X83274479Y-78279815D01*
X83253837Y-78263181D01*
X81946546Y-76955888D01*
X81946545Y-76955887D01*
X81831807Y-76879222D01*
X81704332Y-76826421D01*
X81704322Y-76826418D01*
X81568996Y-76799500D01*
X81568994Y-76799500D01*
X81568993Y-76799500D01*
X76231007Y-76799500D01*
X76231005Y-76799500D01*
X76167261Y-76812180D01*
X76133010Y-76818993D01*
X76095671Y-76826420D01*
X76095669Y-76826420D01*
X76095668Y-76826421D01*
X76095660Y-76826423D01*
X76042865Y-76848292D01*
X75968191Y-76879223D01*
X75855795Y-76954325D01*
X75855786Y-76954331D01*
X75853457Y-76955886D01*
X73104012Y-79705330D01*
X73042689Y-79738815D01*
X72972997Y-79733831D01*
X72917065Y-79691960D01*
X72857548Y-79612457D01*
X72857546Y-79612454D01*
X72857544Y-79612452D01*
X72857542Y-79612450D01*
X72830188Y-79591973D01*
X72788318Y-79536039D01*
X72780500Y-79492707D01*
X72780500Y-76261519D01*
X72800185Y-76194480D01*
X72816819Y-76173838D01*
X74253838Y-74736819D01*
X74315161Y-74703334D01*
X74341519Y-74700500D01*
X81068996Y-74700500D01*
X81172983Y-74679815D01*
X81204328Y-74673580D01*
X81268069Y-74647177D01*
X81331807Y-74620777D01*
X81331808Y-74620776D01*
X81331811Y-74620775D01*
X81446543Y-74544114D01*
X87253837Y-68736818D01*
X87315160Y-68703334D01*
X87341518Y-68700500D01*
X96009482Y-68700500D01*
X96076521Y-68720185D01*
G37*
%TD.AperFunction*%
%TA.AperFunction,NonConductor*%
G36*
X80925520Y-79920185D02*
G01*
X80946162Y-79936819D01*
X81067162Y-80057819D01*
X81100647Y-80119142D01*
X81095663Y-80188834D01*
X81053791Y-80244767D01*
X80988327Y-80269184D01*
X80979481Y-80269500D01*
X78204499Y-80269500D01*
X78137460Y-80249815D01*
X78091705Y-80197011D01*
X78080499Y-80145500D01*
X78080499Y-80024500D01*
X78100184Y-79957461D01*
X78152988Y-79911706D01*
X78204499Y-79900500D01*
X80858481Y-79900500D01*
X80925520Y-79920185D01*
G37*
%TD.AperFunction*%
%TA.AperFunction,NonConductor*%
G36*
X149125520Y-76120185D02*
G01*
X149146162Y-76136819D01*
X149263181Y-76253838D01*
X149296666Y-76315161D01*
X149299500Y-76341519D01*
X149299500Y-77592796D01*
X149279815Y-77659835D01*
X149263181Y-77680477D01*
X146680477Y-80263181D01*
X146619154Y-80296666D01*
X146592796Y-80299500D01*
X142990519Y-80299500D01*
X142923480Y-80279815D01*
X142877725Y-80227011D01*
X142867781Y-80157853D01*
X142896806Y-80094297D01*
X142902838Y-80087819D01*
X145294112Y-77696545D01*
X145294114Y-77696543D01*
X145370775Y-77581811D01*
X145423580Y-77454328D01*
X145444233Y-77350499D01*
X145450500Y-77318996D01*
X145450500Y-76344048D01*
X145470185Y-76277009D01*
X145522989Y-76231254D01*
X145592147Y-76221310D01*
X145655703Y-76250335D01*
X145690682Y-76300715D01*
X145706202Y-76342328D01*
X145706206Y-76342335D01*
X145792452Y-76457544D01*
X145792455Y-76457547D01*
X145907664Y-76543793D01*
X145907671Y-76543797D01*
X146042517Y-76594091D01*
X146042516Y-76594091D01*
X146049444Y-76594835D01*
X146102127Y-76600500D01*
X147897872Y-76600499D01*
X147957483Y-76594091D01*
X148092331Y-76543796D01*
X148207546Y-76457546D01*
X148293796Y-76342331D01*
X148344091Y-76207483D01*
X148344091Y-76207481D01*
X148345874Y-76199938D01*
X148348146Y-76200474D01*
X148370429Y-76146688D01*
X148427823Y-76106843D01*
X148466976Y-76100500D01*
X149058481Y-76100500D01*
X149125520Y-76120185D01*
G37*
%TD.AperFunction*%
%TA.AperFunction,NonConductor*%
G36*
X99975520Y-69720185D02*
G01*
X99996162Y-69736819D01*
X100663181Y-70403838D01*
X100696666Y-70465161D01*
X100699500Y-70491519D01*
X100699500Y-70877756D01*
X100679815Y-70944795D01*
X100627011Y-70990550D01*
X100562247Y-71001045D01*
X100547873Y-70999500D01*
X100547864Y-70999500D01*
X99452129Y-70999500D01*
X99452123Y-70999501D01*
X99392516Y-71005908D01*
X99257671Y-71056202D01*
X99257664Y-71056206D01*
X99142455Y-71142452D01*
X99142452Y-71142455D01*
X99056206Y-71257664D01*
X99056202Y-71257671D01*
X99005908Y-71392517D01*
X98999501Y-71452116D01*
X98999500Y-71452135D01*
X98999500Y-71925500D01*
X98979815Y-71992539D01*
X98927011Y-72038294D01*
X98875500Y-72049500D01*
X97431005Y-72049500D01*
X97365675Y-72062495D01*
X97333010Y-72068993D01*
X97295671Y-72076420D01*
X97295669Y-72076420D01*
X97295668Y-72076421D01*
X97295660Y-72076423D01*
X97242865Y-72098292D01*
X97168191Y-72129223D01*
X97168185Y-72129226D01*
X97108671Y-72168992D01*
X97108672Y-72168993D01*
X97053457Y-72205886D01*
X97053453Y-72205889D01*
X93455888Y-75803453D01*
X93455884Y-75803458D01*
X93426953Y-75846757D01*
X93419745Y-75857546D01*
X93399415Y-75887971D01*
X93379223Y-75918191D01*
X93326421Y-76045667D01*
X93326418Y-76045677D01*
X93299500Y-76181004D01*
X93299500Y-80175500D01*
X93279815Y-80242539D01*
X93227011Y-80288294D01*
X93175500Y-80299500D01*
X92432791Y-80299500D01*
X92365752Y-80279815D01*
X92319997Y-80227011D01*
X92316609Y-80218833D01*
X92293797Y-80157671D01*
X92293796Y-80157669D01*
X92231394Y-80074311D01*
X92206977Y-80008847D01*
X92221828Y-79940574D01*
X92231394Y-79925689D01*
X92234060Y-79922128D01*
X92293796Y-79842331D01*
X92344091Y-79707483D01*
X92350500Y-79647873D01*
X92350499Y-78352128D01*
X92344091Y-78292517D01*
X92343718Y-78291518D01*
X92293797Y-78157671D01*
X92293796Y-78157669D01*
X92231394Y-78074311D01*
X92206977Y-78008847D01*
X92221828Y-77940574D01*
X92231394Y-77925689D01*
X92293796Y-77842331D01*
X92344091Y-77707483D01*
X92348889Y-77662861D01*
X92375627Y-77598310D01*
X92403283Y-77573017D01*
X92446542Y-77544114D01*
X92544114Y-77446542D01*
X92620775Y-77331811D01*
X92673580Y-77204328D01*
X92695858Y-77092331D01*
X92700500Y-77068995D01*
X92700500Y-76931004D01*
X92673581Y-76795677D01*
X92673580Y-76795676D01*
X92673580Y-76795672D01*
X92634159Y-76700500D01*
X92620778Y-76668195D01*
X92620771Y-76668182D01*
X92544114Y-76553458D01*
X92544111Y-76553454D01*
X92446549Y-76455892D01*
X92446543Y-76455887D01*
X92403283Y-76426980D01*
X92358480Y-76373367D01*
X92348887Y-76337133D01*
X92344091Y-76292516D01*
X92293797Y-76157671D01*
X92293793Y-76157664D01*
X92207547Y-76042455D01*
X92207544Y-76042452D01*
X92092335Y-75956206D01*
X92092328Y-75956202D01*
X91957482Y-75905908D01*
X91957483Y-75905908D01*
X91897883Y-75899501D01*
X91897881Y-75899500D01*
X91897873Y-75899500D01*
X91897865Y-75899500D01*
X91390518Y-75899500D01*
X91323479Y-75879815D01*
X91277724Y-75827011D01*
X91267780Y-75757853D01*
X91296805Y-75694297D01*
X91302837Y-75687819D01*
X97253837Y-69736819D01*
X97315160Y-69703334D01*
X97341518Y-69700500D01*
X99908481Y-69700500D01*
X99975520Y-69720185D01*
G37*
%TD.AperFunction*%
%TA.AperFunction,NonConductor*%
G36*
X85634248Y-79720185D02*
G01*
X85680003Y-79772989D01*
X85683391Y-79781167D01*
X85706202Y-79842328D01*
X85706203Y-79842330D01*
X85768606Y-79925689D01*
X85793023Y-79991153D01*
X85778172Y-80059426D01*
X85768606Y-80074311D01*
X85706203Y-80157669D01*
X85706202Y-80157671D01*
X85683391Y-80218833D01*
X85641520Y-80274767D01*
X85576056Y-80299184D01*
X85567209Y-80299500D01*
X83341518Y-80299500D01*
X83274479Y-80279815D01*
X83253837Y-80263181D01*
X82902837Y-79912181D01*
X82869352Y-79850858D01*
X82874336Y-79781166D01*
X82916208Y-79725233D01*
X82981672Y-79700816D01*
X82990518Y-79700500D01*
X85567209Y-79700500D01*
X85634248Y-79720185D01*
G37*
%TD.AperFunction*%
%TA.AperFunction,NonConductor*%
G36*
X98942540Y-73470185D02*
G01*
X98988295Y-73522989D01*
X98999501Y-73574500D01*
X98999501Y-74047876D01*
X99005908Y-74107483D01*
X99056202Y-74242328D01*
X99056206Y-74242335D01*
X99142452Y-74357544D01*
X99142455Y-74357547D01*
X99257664Y-74443793D01*
X99257671Y-74443797D01*
X99392517Y-74494091D01*
X99392516Y-74494091D01*
X99399444Y-74494835D01*
X99452127Y-74500500D01*
X100547872Y-74500499D01*
X100562242Y-74498954D01*
X100631001Y-74511357D01*
X100682140Y-74558966D01*
X100699500Y-74622243D01*
X100699500Y-79877756D01*
X100679815Y-79944795D01*
X100627011Y-79990550D01*
X100562247Y-80001045D01*
X100547873Y-79999500D01*
X100547864Y-79999500D01*
X99452129Y-79999500D01*
X99452123Y-79999501D01*
X99392516Y-80005908D01*
X99257671Y-80056202D01*
X99257664Y-80056206D01*
X99142455Y-80142452D01*
X99142452Y-80142455D01*
X99056206Y-80257664D01*
X99056202Y-80257671D01*
X99005908Y-80392517D01*
X98999501Y-80452116D01*
X98999500Y-80452135D01*
X98999500Y-81708480D01*
X98979815Y-81775519D01*
X98963181Y-81796161D01*
X98496162Y-82263181D01*
X98434839Y-82296666D01*
X98408481Y-82299500D01*
X92432791Y-82299500D01*
X92365752Y-82279815D01*
X92319997Y-82227011D01*
X92316609Y-82218833D01*
X92293797Y-82157671D01*
X92293796Y-82157669D01*
X92231394Y-82074311D01*
X92206977Y-82008847D01*
X92221828Y-81940574D01*
X92231394Y-81925689D01*
X92241506Y-81912181D01*
X92293796Y-81842331D01*
X92316609Y-81781167D01*
X92358480Y-81725233D01*
X92423944Y-81700816D01*
X92432791Y-81700500D01*
X94068995Y-81700500D01*
X94163476Y-81681706D01*
X94204328Y-81673580D01*
X94331811Y-81620775D01*
X94446542Y-81544114D01*
X94544114Y-81446542D01*
X94620775Y-81331811D01*
X94673580Y-81204328D01*
X94688519Y-81129225D01*
X94700500Y-81068995D01*
X94700500Y-79547870D01*
X96499500Y-79547870D01*
X96499501Y-79547876D01*
X96505908Y-79607483D01*
X96556202Y-79742328D01*
X96556206Y-79742335D01*
X96642452Y-79857544D01*
X96642455Y-79857547D01*
X96757664Y-79943793D01*
X96757671Y-79943797D01*
X96892517Y-79994091D01*
X96892516Y-79994091D01*
X96899444Y-79994835D01*
X96952127Y-80000500D01*
X98047872Y-80000499D01*
X98107483Y-79994091D01*
X98242331Y-79943796D01*
X98357546Y-79857546D01*
X98443796Y-79742331D01*
X98494091Y-79607483D01*
X98500500Y-79547873D01*
X98500499Y-76952128D01*
X98494091Y-76892517D01*
X98489133Y-76879225D01*
X98443797Y-76757671D01*
X98443793Y-76757664D01*
X98357547Y-76642455D01*
X98357544Y-76642452D01*
X98242335Y-76556206D01*
X98242328Y-76556202D01*
X98107482Y-76505908D01*
X98107483Y-76505908D01*
X98047883Y-76499501D01*
X98047881Y-76499500D01*
X98047873Y-76499500D01*
X98047864Y-76499500D01*
X96952129Y-76499500D01*
X96952123Y-76499501D01*
X96892516Y-76505908D01*
X96757671Y-76556202D01*
X96757664Y-76556206D01*
X96642455Y-76642452D01*
X96642452Y-76642455D01*
X96556206Y-76757664D01*
X96556202Y-76757671D01*
X96505908Y-76892517D01*
X96499501Y-76952116D01*
X96499501Y-76952123D01*
X96499500Y-76952135D01*
X96499500Y-79547870D01*
X94700500Y-79547870D01*
X94700500Y-76591518D01*
X94720185Y-76524479D01*
X94736819Y-76503837D01*
X97753837Y-73486819D01*
X97815160Y-73453334D01*
X97841518Y-73450500D01*
X98875501Y-73450500D01*
X98942540Y-73470185D01*
G37*
%TD.AperFunction*%
%TA.AperFunction,NonConductor*%
G36*
X85634248Y-81720185D02*
G01*
X85680003Y-81772989D01*
X85683391Y-81781167D01*
X85706202Y-81842328D01*
X85706203Y-81842330D01*
X85768606Y-81925689D01*
X85793023Y-81991153D01*
X85778172Y-82059426D01*
X85768606Y-82074311D01*
X85706203Y-82157669D01*
X85706202Y-82157671D01*
X85683391Y-82218833D01*
X85641520Y-82274767D01*
X85576056Y-82299184D01*
X85567209Y-82299500D01*
X83310269Y-82299500D01*
X83243230Y-82279815D01*
X83222588Y-82263181D01*
X82871588Y-81912181D01*
X82838103Y-81850858D01*
X82843087Y-81781166D01*
X82884959Y-81725233D01*
X82950423Y-81700816D01*
X82959269Y-81700500D01*
X85567209Y-81700500D01*
X85634248Y-81720185D01*
G37*
%TD.AperFunction*%
%TA.AperFunction,NonConductor*%
G36*
X73593935Y-73220185D02*
G01*
X73639690Y-73272989D01*
X73649634Y-73342147D01*
X73620609Y-73405703D01*
X73595786Y-73427603D01*
X73553454Y-73455887D01*
X71535885Y-75473456D01*
X71472051Y-75568991D01*
X71472052Y-75568992D01*
X71459226Y-75588187D01*
X71459223Y-75588192D01*
X71406420Y-75715671D01*
X71406418Y-75715677D01*
X71379500Y-75851004D01*
X71379500Y-79394668D01*
X71359815Y-79461707D01*
X71307011Y-79507462D01*
X71298834Y-79510850D01*
X71257669Y-79526203D01*
X71257664Y-79526206D01*
X71142455Y-79612452D01*
X71142452Y-79612455D01*
X71056206Y-79727664D01*
X71056202Y-79727671D01*
X71005908Y-79862517D01*
X70999501Y-79922116D01*
X70999500Y-79922135D01*
X70999500Y-82017870D01*
X70999501Y-82017876D01*
X71005908Y-82077483D01*
X71056202Y-82212328D01*
X71056206Y-82212335D01*
X71142452Y-82327544D01*
X71142455Y-82327547D01*
X71257664Y-82413793D01*
X71257671Y-82413797D01*
X71392517Y-82464091D01*
X71392516Y-82464091D01*
X71399444Y-82464835D01*
X71452127Y-82470500D01*
X72425500Y-82470499D01*
X72492539Y-82490183D01*
X72538294Y-82542987D01*
X72549500Y-82594499D01*
X72549500Y-84408481D01*
X72529815Y-84475520D01*
X72513181Y-84496162D01*
X70996162Y-86013181D01*
X70934839Y-86046666D01*
X70908481Y-86049500D01*
X69336519Y-86049500D01*
X69269480Y-86029815D01*
X69248838Y-86013181D01*
X69217837Y-85982180D01*
X69184352Y-85920857D01*
X69189336Y-85851165D01*
X69231208Y-85795232D01*
X69296672Y-85770815D01*
X69305518Y-85770499D01*
X70007871Y-85770499D01*
X70007872Y-85770499D01*
X70067483Y-85764091D01*
X70202331Y-85713796D01*
X70317546Y-85627546D01*
X70403796Y-85512331D01*
X70454091Y-85377483D01*
X70460500Y-85317873D01*
X70460499Y-83222128D01*
X70454091Y-83162517D01*
X70433564Y-83107482D01*
X70403797Y-83027671D01*
X70403793Y-83027664D01*
X70317548Y-82912457D01*
X70317546Y-82912454D01*
X70317544Y-82912452D01*
X70317542Y-82912450D01*
X70290188Y-82891973D01*
X70248318Y-82836039D01*
X70240500Y-82792707D01*
X70240500Y-74231519D01*
X70260185Y-74164480D01*
X70276819Y-74143838D01*
X71183838Y-73236819D01*
X71245161Y-73203334D01*
X71271519Y-73200500D01*
X73526896Y-73200500D01*
X73593935Y-73220185D01*
G37*
%TD.AperFunction*%
%TA.AperFunction,NonConductor*%
G36*
X124725520Y-93720185D02*
G01*
X124746162Y-93736819D01*
X125303181Y-94293838D01*
X125336666Y-94355161D01*
X125339500Y-94381519D01*
X125339500Y-97112819D01*
X125319815Y-97179858D01*
X125289812Y-97212085D01*
X125182452Y-97292455D01*
X125096206Y-97407664D01*
X125096202Y-97407671D01*
X125045908Y-97542517D01*
X125039501Y-97602116D01*
X125039501Y-97602123D01*
X125039500Y-97602135D01*
X125039500Y-99697870D01*
X125039501Y-99697876D01*
X125045908Y-99757483D01*
X125096202Y-99892328D01*
X125096206Y-99892335D01*
X125153548Y-99968933D01*
X125182454Y-100007546D01*
X125289811Y-100087914D01*
X125331682Y-100143847D01*
X125339500Y-100187180D01*
X125339500Y-100618481D01*
X125319815Y-100685520D01*
X125303181Y-100706162D01*
X123746162Y-102263181D01*
X123684839Y-102296666D01*
X123658481Y-102299500D01*
X121990519Y-102299500D01*
X121923480Y-102279815D01*
X121877725Y-102227011D01*
X121867781Y-102157853D01*
X121896806Y-102094297D01*
X121902838Y-102087819D01*
X124044112Y-99946545D01*
X124044114Y-99946543D01*
X124120775Y-99831811D01*
X124173580Y-99704328D01*
X124200500Y-99568994D01*
X124200500Y-99431006D01*
X124200500Y-96887180D01*
X124220185Y-96820141D01*
X124250187Y-96787914D01*
X124357546Y-96707546D01*
X124443796Y-96592331D01*
X124494091Y-96457483D01*
X124500500Y-96397873D01*
X124500499Y-94302128D01*
X124494091Y-94242517D01*
X124443796Y-94107669D01*
X124443795Y-94107668D01*
X124443793Y-94107664D01*
X124357547Y-93992455D01*
X124357544Y-93992452D01*
X124265792Y-93923766D01*
X124223921Y-93867832D01*
X124218937Y-93798141D01*
X124252423Y-93736818D01*
X124313746Y-93703334D01*
X124340103Y-93700500D01*
X124658481Y-93700500D01*
X124725520Y-93720185D01*
G37*
%TD.AperFunction*%
%TA.AperFunction,NonConductor*%
G36*
X150725520Y-54720185D02*
G01*
X150746162Y-54736819D01*
X157263181Y-61253838D01*
X157296666Y-61315161D01*
X157299500Y-61341519D01*
X157299500Y-80658481D01*
X157279815Y-80725520D01*
X157263181Y-80746162D01*
X149746162Y-88263181D01*
X149684839Y-88296666D01*
X149658481Y-88299500D01*
X140931005Y-88299500D01*
X140795677Y-88326418D01*
X140795667Y-88326421D01*
X140668192Y-88379222D01*
X140553454Y-88455887D01*
X138455890Y-90553451D01*
X138455884Y-90553458D01*
X138418778Y-90608993D01*
X138418778Y-90608994D01*
X138410905Y-90620777D01*
X138379225Y-90668188D01*
X138379221Y-90668195D01*
X138326421Y-90795667D01*
X138326418Y-90795677D01*
X138299500Y-90931004D01*
X138299500Y-93812819D01*
X138279815Y-93879858D01*
X138249812Y-93912085D01*
X138142452Y-93992455D01*
X138056206Y-94107664D01*
X138056202Y-94107671D01*
X138005908Y-94242517D01*
X138000391Y-94293838D01*
X137999501Y-94302123D01*
X137999500Y-94302135D01*
X137999500Y-96397870D01*
X137999501Y-96397876D01*
X138005908Y-96457483D01*
X138056202Y-96592328D01*
X138056206Y-96592335D01*
X138117027Y-96673580D01*
X138142454Y-96707546D01*
X138249811Y-96787914D01*
X138291682Y-96843847D01*
X138299500Y-96887180D01*
X138299500Y-99931006D01*
X138299500Y-100068994D01*
X138299500Y-100068996D01*
X138299499Y-100068996D01*
X138326418Y-100204322D01*
X138326421Y-100204332D01*
X138379222Y-100331807D01*
X138455887Y-100446545D01*
X138455888Y-100446546D01*
X140097162Y-102087819D01*
X140130647Y-102149142D01*
X140125663Y-102218834D01*
X140083791Y-102274767D01*
X140018327Y-102299184D01*
X140009481Y-102299500D01*
X138761519Y-102299500D01*
X138694480Y-102279815D01*
X138673838Y-102263181D01*
X137196819Y-100786162D01*
X137163334Y-100724839D01*
X137160500Y-100698481D01*
X137160500Y-100187180D01*
X137180185Y-100120141D01*
X137210187Y-100087914D01*
X137317546Y-100007546D01*
X137403796Y-99892331D01*
X137454091Y-99757483D01*
X137460500Y-99697873D01*
X137460499Y-97602128D01*
X137454091Y-97542517D01*
X137403796Y-97407669D01*
X137403795Y-97407668D01*
X137403793Y-97407664D01*
X137317547Y-97292455D01*
X137210188Y-97212085D01*
X137168318Y-97156151D01*
X137160500Y-97112819D01*
X137160500Y-90881519D01*
X137180185Y-90814480D01*
X137196819Y-90793838D01*
X140253838Y-87736819D01*
X140315161Y-87703334D01*
X140341519Y-87700500D01*
X149568996Y-87700500D01*
X149660040Y-87682389D01*
X149704328Y-87673580D01*
X149768069Y-87647177D01*
X149831807Y-87620777D01*
X149831808Y-87620776D01*
X149831811Y-87620775D01*
X149946543Y-87544114D01*
X156544114Y-80946543D01*
X156620775Y-80831811D01*
X156673580Y-80704329D01*
X156678631Y-80678936D01*
X156679696Y-80673582D01*
X156679696Y-80673580D01*
X156700500Y-80568993D01*
X156700500Y-61931007D01*
X156700500Y-61931004D01*
X156673581Y-61795676D01*
X156673578Y-61795667D01*
X156663365Y-61771013D01*
X156663364Y-61771008D01*
X156638844Y-61711811D01*
X156620778Y-61668195D01*
X156620771Y-61668182D01*
X156544115Y-61553459D01*
X156498845Y-61508189D01*
X156446542Y-61455886D01*
X154998199Y-60007543D01*
X150446546Y-55455888D01*
X150446545Y-55455887D01*
X150331807Y-55379222D01*
X150204332Y-55326421D01*
X150204322Y-55326418D01*
X150068996Y-55299500D01*
X150068994Y-55299500D01*
X150068993Y-55299500D01*
X80068994Y-55299500D01*
X79931006Y-55299500D01*
X79931004Y-55299500D01*
X79795677Y-55326418D01*
X79795667Y-55326421D01*
X79668192Y-55379222D01*
X79553454Y-55455887D01*
X74075890Y-60933451D01*
X74075884Y-60933458D01*
X74038778Y-60988993D01*
X74038778Y-60988994D01*
X74019001Y-61018591D01*
X73999225Y-61048188D01*
X73999221Y-61048195D01*
X73946421Y-61175667D01*
X73946418Y-61175677D01*
X73919500Y-61311004D01*
X73919500Y-64154668D01*
X73899815Y-64221707D01*
X73847011Y-64267462D01*
X73838834Y-64270850D01*
X73797669Y-64286203D01*
X73797664Y-64286206D01*
X73682455Y-64372452D01*
X73682452Y-64372455D01*
X73596206Y-64487664D01*
X73596202Y-64487671D01*
X73545908Y-64622517D01*
X73539501Y-64682116D01*
X73539501Y-64682123D01*
X73539500Y-64682135D01*
X73539500Y-66777870D01*
X73539501Y-66777876D01*
X73545908Y-66837483D01*
X73596202Y-66972328D01*
X73596206Y-66972335D01*
X73682452Y-67087544D01*
X73682455Y-67087547D01*
X73797664Y-67173793D01*
X73797671Y-67173797D01*
X73932517Y-67224091D01*
X73932516Y-67224091D01*
X73939444Y-67224835D01*
X73992127Y-67230500D01*
X75087872Y-67230499D01*
X75147483Y-67224091D01*
X75282331Y-67173796D01*
X75397546Y-67087546D01*
X75483796Y-66972331D01*
X75534091Y-66837483D01*
X75540500Y-66777873D01*
X75540499Y-64682128D01*
X75534091Y-64622517D01*
X75483796Y-64487669D01*
X75483795Y-64487668D01*
X75483793Y-64487664D01*
X75397548Y-64372457D01*
X75397546Y-64372454D01*
X75397544Y-64372452D01*
X75397542Y-64372450D01*
X75370188Y-64351973D01*
X75328318Y-64296039D01*
X75320500Y-64252707D01*
X75320500Y-61721519D01*
X75340185Y-61654480D01*
X75356819Y-61633838D01*
X80253838Y-56736819D01*
X80315161Y-56703334D01*
X80341519Y-56700500D01*
X149658481Y-56700500D01*
X149725520Y-56720185D01*
X149746162Y-56736819D01*
X155263181Y-62253837D01*
X155296666Y-62315160D01*
X155299500Y-62341518D01*
X155299500Y-80158481D01*
X155279815Y-80225520D01*
X155263181Y-80246162D01*
X149246162Y-86263181D01*
X149184839Y-86296666D01*
X149158481Y-86299500D01*
X139931004Y-86299500D01*
X139795677Y-86326418D01*
X139795667Y-86326421D01*
X139668192Y-86379222D01*
X139553454Y-86455887D01*
X135915887Y-90093454D01*
X135880415Y-90146543D01*
X135868675Y-90164114D01*
X135853950Y-90186151D01*
X135839225Y-90208188D01*
X135839221Y-90208195D01*
X135786421Y-90335667D01*
X135786418Y-90335677D01*
X135759500Y-90471004D01*
X135759500Y-97112819D01*
X135739815Y-97179858D01*
X135709812Y-97212085D01*
X135602452Y-97292455D01*
X135516206Y-97407664D01*
X135516202Y-97407671D01*
X135465908Y-97542517D01*
X135459501Y-97602116D01*
X135459501Y-97602123D01*
X135459500Y-97602135D01*
X135459500Y-99697870D01*
X135459501Y-99697876D01*
X135465908Y-99757483D01*
X135516202Y-99892328D01*
X135516206Y-99892335D01*
X135573548Y-99968933D01*
X135602454Y-100007546D01*
X135709811Y-100087914D01*
X135751682Y-100143847D01*
X135759500Y-100187180D01*
X135759500Y-100971006D01*
X135759500Y-101108994D01*
X135759500Y-101108996D01*
X135759499Y-101108996D01*
X135786418Y-101244322D01*
X135786421Y-101244332D01*
X135839222Y-101371807D01*
X135915887Y-101486545D01*
X135915888Y-101486546D01*
X137517162Y-103087819D01*
X137550647Y-103149142D01*
X137545663Y-103218834D01*
X137503791Y-103274767D01*
X137438327Y-103299184D01*
X137429481Y-103299500D01*
X136341519Y-103299500D01*
X136274480Y-103279815D01*
X136253838Y-103263181D01*
X134656819Y-101666162D01*
X134623334Y-101604839D01*
X134620500Y-101578481D01*
X134620500Y-96887180D01*
X134640185Y-96820141D01*
X134670187Y-96787914D01*
X134777546Y-96707546D01*
X134863796Y-96592331D01*
X134914091Y-96457483D01*
X134920500Y-96397873D01*
X134920499Y-94302128D01*
X134914091Y-94242517D01*
X134863796Y-94107669D01*
X134863795Y-94107668D01*
X134863793Y-94107664D01*
X134777547Y-93992455D01*
X134670188Y-93912085D01*
X134628318Y-93856151D01*
X134620500Y-93812819D01*
X134620500Y-90421519D01*
X134640185Y-90354480D01*
X134656819Y-90333838D01*
X139253838Y-85736819D01*
X139315161Y-85703334D01*
X139341519Y-85700500D01*
X149068996Y-85700500D01*
X149170786Y-85680252D01*
X149204328Y-85673580D01*
X149283577Y-85640754D01*
X149331807Y-85620777D01*
X149331808Y-85620776D01*
X149331811Y-85620775D01*
X149446543Y-85544114D01*
X154544114Y-80446543D01*
X154620775Y-80331811D01*
X154634290Y-80299184D01*
X154651485Y-80257671D01*
X154673580Y-80204328D01*
X154685282Y-80145500D01*
X154700500Y-80068996D01*
X154700500Y-62931006D01*
X154696643Y-62911619D01*
X154685074Y-62853458D01*
X154673580Y-62795672D01*
X154620775Y-62668189D01*
X154544114Y-62553457D01*
X154544112Y-62553454D01*
X149446545Y-57455887D01*
X149331807Y-57379222D01*
X149204332Y-57326421D01*
X149204322Y-57326418D01*
X149068996Y-57299500D01*
X149068994Y-57299500D01*
X149068993Y-57299500D01*
X81068994Y-57299500D01*
X80931006Y-57299500D01*
X80931004Y-57299500D01*
X80795677Y-57326418D01*
X80795667Y-57326421D01*
X80668192Y-57379222D01*
X80553454Y-57455887D01*
X76615887Y-61393454D01*
X76539222Y-61508192D01*
X76486421Y-61635667D01*
X76486418Y-61635679D01*
X76461844Y-61759221D01*
X76459500Y-61771005D01*
X76459500Y-67454668D01*
X76439815Y-67521707D01*
X76387011Y-67567462D01*
X76378834Y-67570850D01*
X76337669Y-67586203D01*
X76337664Y-67586206D01*
X76222455Y-67672452D01*
X76222452Y-67672455D01*
X76136206Y-67787664D01*
X76136202Y-67787671D01*
X76085908Y-67922517D01*
X76079501Y-67982116D01*
X76079501Y-67982123D01*
X76079500Y-67982135D01*
X76079500Y-70077870D01*
X76079501Y-70077874D01*
X76085909Y-70137487D01*
X76087692Y-70145031D01*
X76084893Y-70145692D01*
X76088910Y-70201861D01*
X76055423Y-70263184D01*
X75994099Y-70296667D01*
X75967744Y-70299500D01*
X73112256Y-70299500D01*
X73045217Y-70279815D01*
X72999462Y-70227011D01*
X72989518Y-70157853D01*
X72992761Y-70145142D01*
X72992307Y-70145035D01*
X72994091Y-70137483D01*
X73000500Y-70077873D01*
X73000499Y-67982128D01*
X72994091Y-67922517D01*
X72943796Y-67787669D01*
X72943795Y-67787668D01*
X72943793Y-67787664D01*
X72857548Y-67672457D01*
X72857546Y-67672454D01*
X72857544Y-67672452D01*
X72857542Y-67672450D01*
X72830188Y-67651973D01*
X72788318Y-67596039D01*
X72780500Y-67552707D01*
X72780500Y-61261519D01*
X72800185Y-61194480D01*
X72816819Y-61173838D01*
X79253838Y-54736819D01*
X79315161Y-54703334D01*
X79341519Y-54700500D01*
X150658481Y-54700500D01*
X150725520Y-54720185D01*
G37*
%TD.AperFunction*%
%TA.AperFunction,NonConductor*%
G36*
X126945703Y-93936806D02*
G01*
X126952181Y-93942838D01*
X127803181Y-94793838D01*
X127836666Y-94855161D01*
X127839500Y-94881519D01*
X127839500Y-96397870D01*
X127839501Y-96397876D01*
X127845908Y-96457483D01*
X127896202Y-96592328D01*
X127896206Y-96592335D01*
X127957027Y-96673580D01*
X127982454Y-96707546D01*
X128089811Y-96787914D01*
X128131682Y-96843847D01*
X128139500Y-96887180D01*
X128139500Y-101818481D01*
X128119815Y-101885520D01*
X128103181Y-101906162D01*
X126746162Y-103263181D01*
X126684839Y-103296666D01*
X126658481Y-103299500D01*
X124990519Y-103299500D01*
X124923480Y-103279815D01*
X124877725Y-103227011D01*
X124867781Y-103157853D01*
X124896806Y-103094297D01*
X124902838Y-103087819D01*
X126584112Y-101406545D01*
X126584114Y-101406543D01*
X126660775Y-101291811D01*
X126713580Y-101164328D01*
X126740500Y-101028994D01*
X126740500Y-100891006D01*
X126740500Y-100187180D01*
X126760185Y-100120141D01*
X126790187Y-100087914D01*
X126897546Y-100007546D01*
X126983796Y-99892331D01*
X127034091Y-99757483D01*
X127040500Y-99697873D01*
X127040499Y-97602128D01*
X127034091Y-97542517D01*
X126983796Y-97407669D01*
X126983795Y-97407668D01*
X126983793Y-97407664D01*
X126897547Y-97292455D01*
X126790188Y-97212085D01*
X126748318Y-97156151D01*
X126740500Y-97112819D01*
X126740500Y-94030519D01*
X126760185Y-93963480D01*
X126812989Y-93917725D01*
X126882147Y-93907781D01*
X126945703Y-93936806D01*
G37*
%TD.AperFunction*%
%TA.AperFunction,NonConductor*%
G36*
X157691474Y-50500501D02*
G01*
X157753887Y-50500500D01*
X157760838Y-50500694D01*
X158030274Y-50515823D01*
X158044073Y-50517377D01*
X158306688Y-50561997D01*
X158320236Y-50565090D01*
X158576200Y-50638834D01*
X158589326Y-50643427D01*
X158835400Y-50745358D01*
X158847930Y-50751391D01*
X159081070Y-50880248D01*
X159092836Y-50887643D01*
X159310069Y-51041788D01*
X159320941Y-51050458D01*
X159403758Y-51124473D01*
X159522544Y-51230633D01*
X159527577Y-51235391D01*
X159571351Y-51279168D01*
X159577186Y-51285003D01*
X159577209Y-51285023D01*
X162264940Y-53972754D01*
X162269719Y-53977809D01*
X162449540Y-54179033D01*
X162458207Y-54189900D01*
X162612353Y-54407152D01*
X162619745Y-54418918D01*
X162748587Y-54652047D01*
X162754621Y-54664576D01*
X162856555Y-54910675D01*
X162861147Y-54923800D01*
X162934883Y-55179755D01*
X162937977Y-55193311D01*
X162982592Y-55455912D01*
X162984149Y-55469731D01*
X162999304Y-55739670D01*
X162999499Y-55746621D01*
X162999499Y-55818513D01*
X162999500Y-55818526D01*
X162999500Y-78330999D01*
X162999526Y-78331417D01*
X162999526Y-78380858D01*
X162999526Y-78429320D01*
X163010831Y-78544114D01*
X163033231Y-78771584D01*
X163033231Y-78771589D01*
X163100329Y-79108933D01*
X163100329Y-79108935D01*
X163170982Y-79341854D01*
X163200163Y-79438056D01*
X163327781Y-79746162D01*
X163331776Y-79755808D01*
X163331777Y-79755812D01*
X163493902Y-80059134D01*
X163493911Y-80059149D01*
X163684972Y-80345099D01*
X163684977Y-80345106D01*
X163684982Y-80345113D01*
X163903170Y-80610982D01*
X163971111Y-80678923D01*
X163971122Y-80678936D01*
X164046517Y-80754331D01*
X164078420Y-80786236D01*
X164078434Y-80786248D01*
X167716483Y-84424297D01*
X167716504Y-84424320D01*
X167731698Y-84439513D01*
X167731747Y-84439603D01*
X167767396Y-84475251D01*
X167888998Y-84596851D01*
X168154868Y-84815040D01*
X168154872Y-84815043D01*
X168440843Y-85006119D01*
X168440845Y-85006120D01*
X168744174Y-85168248D01*
X169061934Y-85299864D01*
X169219805Y-85347751D01*
X169391056Y-85399698D01*
X169391059Y-85399698D01*
X169391064Y-85399700D01*
X169728395Y-85466795D01*
X170070678Y-85500503D01*
X170242648Y-85500500D01*
X194691470Y-85500500D01*
X194691474Y-85500501D01*
X194753887Y-85500500D01*
X194760839Y-85500695D01*
X195030284Y-85515823D01*
X195044078Y-85517377D01*
X195306698Y-85561995D01*
X195320245Y-85565086D01*
X195537049Y-85627544D01*
X195576208Y-85638825D01*
X195589333Y-85643417D01*
X195644248Y-85666162D01*
X195835433Y-85745351D01*
X195847953Y-85751380D01*
X196081108Y-85880236D01*
X196092872Y-85887629D01*
X196310107Y-86041762D01*
X196320979Y-86050431D01*
X196521824Y-86229913D01*
X196526879Y-86234693D01*
X199764924Y-89472738D01*
X199769699Y-89477788D01*
X199944661Y-89673581D01*
X199949530Y-89679029D01*
X199958199Y-89689901D01*
X200112335Y-89907145D01*
X200119732Y-89918918D01*
X200248581Y-90152060D01*
X200254614Y-90164588D01*
X200356545Y-90410677D01*
X200361138Y-90423801D01*
X200434880Y-90679764D01*
X200437974Y-90693320D01*
X200482595Y-90955928D01*
X200484152Y-90969745D01*
X200499305Y-91239483D01*
X200499500Y-91246438D01*
X200499500Y-105375500D01*
X200479815Y-105442539D01*
X200427011Y-105488294D01*
X200375500Y-105499500D01*
X189041519Y-105499500D01*
X188974480Y-105479815D01*
X188953838Y-105463181D01*
X185490658Y-102000000D01*
X194844475Y-102000000D01*
X194864551Y-102293511D01*
X194864552Y-102293513D01*
X194924404Y-102581543D01*
X194924409Y-102581559D01*
X195022927Y-102858762D01*
X195158278Y-103119977D01*
X195158282Y-103119983D01*
X195327932Y-103360323D01*
X195528743Y-103575338D01*
X195656384Y-103679181D01*
X195756951Y-103760999D01*
X195756953Y-103761000D01*
X195756954Y-103761001D01*
X196008319Y-103913860D01*
X196008324Y-103913862D01*
X196278154Y-104031065D01*
X196278159Y-104031067D01*
X196561445Y-104110440D01*
X196817681Y-104145659D01*
X196852901Y-104150500D01*
X196852902Y-104150500D01*
X197147099Y-104150500D01*
X197178520Y-104146180D01*
X197438555Y-104110440D01*
X197721841Y-104031067D01*
X197991682Y-103913859D01*
X198243049Y-103760999D01*
X198471260Y-103575335D01*
X198672065Y-103360326D01*
X198841722Y-103119976D01*
X198977072Y-102858764D01*
X199075592Y-102581554D01*
X199075592Y-102581549D01*
X199075595Y-102581543D01*
X199134792Y-102296666D01*
X199135448Y-102293511D01*
X199155525Y-102000000D01*
X199135448Y-101706489D01*
X199108848Y-101578481D01*
X199075595Y-101418456D01*
X199075590Y-101418440D01*
X199033319Y-101299500D01*
X198977072Y-101141236D01*
X198841722Y-100880024D01*
X198841721Y-100880022D01*
X198841717Y-100880016D01*
X198672067Y-100639676D01*
X198491695Y-100446546D01*
X198471260Y-100424665D01*
X198471258Y-100424664D01*
X198471256Y-100424661D01*
X198243045Y-100238998D01*
X197991680Y-100086139D01*
X197991675Y-100086137D01*
X197721845Y-99968934D01*
X197438560Y-99889561D01*
X197438556Y-99889560D01*
X197438555Y-99889560D01*
X197292826Y-99869530D01*
X197147099Y-99849500D01*
X197147098Y-99849500D01*
X196852902Y-99849500D01*
X196852901Y-99849500D01*
X196561445Y-99889560D01*
X196561439Y-99889561D01*
X196278154Y-99968934D01*
X196008324Y-100086137D01*
X196008319Y-100086139D01*
X195756954Y-100238998D01*
X195528743Y-100424661D01*
X195327932Y-100639676D01*
X195158282Y-100880016D01*
X195158278Y-100880022D01*
X195022927Y-101141237D01*
X194924409Y-101418440D01*
X194924404Y-101418456D01*
X194864552Y-101706486D01*
X194864551Y-101706488D01*
X194844475Y-102000000D01*
X185490658Y-102000000D01*
X184946546Y-101455888D01*
X184946545Y-101455887D01*
X184831807Y-101379222D01*
X184704332Y-101326421D01*
X184704322Y-101326418D01*
X184568996Y-101299500D01*
X184568994Y-101299500D01*
X184568993Y-101299500D01*
X141341519Y-101299500D01*
X141274480Y-101279815D01*
X141253838Y-101263181D01*
X139736819Y-99746162D01*
X139703334Y-99684839D01*
X139700500Y-99658481D01*
X139700500Y-96887180D01*
X139720185Y-96820141D01*
X139750187Y-96787914D01*
X139857546Y-96707546D01*
X139943796Y-96592331D01*
X139994091Y-96457483D01*
X140000500Y-96397873D01*
X140000499Y-94302128D01*
X139994091Y-94242517D01*
X139943796Y-94107669D01*
X139943795Y-94107668D01*
X139943793Y-94107664D01*
X139875540Y-94016491D01*
X154106414Y-94016491D01*
X154106414Y-98608289D01*
X193635326Y-98608289D01*
X193635326Y-94016491D01*
X154106414Y-94016491D01*
X139875540Y-94016491D01*
X139857547Y-93992455D01*
X139750188Y-93912085D01*
X139708318Y-93856151D01*
X139700500Y-93812819D01*
X139700500Y-91341519D01*
X139720185Y-91274480D01*
X139736819Y-91253838D01*
X141253838Y-89736819D01*
X141315161Y-89703334D01*
X141341519Y-89700500D01*
X150068996Y-89700500D01*
X150176934Y-89679029D01*
X150204328Y-89673580D01*
X150268069Y-89647177D01*
X150331807Y-89620777D01*
X150331808Y-89620776D01*
X150331811Y-89620775D01*
X150446543Y-89544114D01*
X152139343Y-87851314D01*
X154196223Y-87851314D01*
X154196223Y-93128038D01*
X193945220Y-93128038D01*
X193945220Y-87851314D01*
X154196223Y-87851314D01*
X152139343Y-87851314D01*
X158544113Y-81446543D01*
X158564159Y-81416543D01*
X158620775Y-81331811D01*
X158665606Y-81223580D01*
X158673580Y-81204329D01*
X158688519Y-81129225D01*
X158700500Y-81068993D01*
X158700500Y-60931007D01*
X158700500Y-60931004D01*
X158673581Y-60795677D01*
X158673580Y-60795676D01*
X158673580Y-60795672D01*
X158649202Y-60736819D01*
X158620776Y-60668191D01*
X158620775Y-60668189D01*
X158567321Y-60588189D01*
X158544114Y-60553457D01*
X158544112Y-60553455D01*
X158544110Y-60553452D01*
X152990658Y-55000000D01*
X155844475Y-55000000D01*
X155864551Y-55293511D01*
X155864552Y-55293513D01*
X155924404Y-55581543D01*
X155924409Y-55581559D01*
X156022927Y-55858762D01*
X156158278Y-56119977D01*
X156158282Y-56119983D01*
X156327932Y-56360323D01*
X156528743Y-56575338D01*
X156625233Y-56653838D01*
X156756951Y-56760999D01*
X156756953Y-56761000D01*
X156756954Y-56761001D01*
X157008319Y-56913860D01*
X157008324Y-56913862D01*
X157270536Y-57027756D01*
X157278159Y-57031067D01*
X157561445Y-57110440D01*
X157817681Y-57145659D01*
X157852901Y-57150500D01*
X157852902Y-57150500D01*
X158147099Y-57150500D01*
X158178520Y-57146180D01*
X158438555Y-57110440D01*
X158721841Y-57031067D01*
X158991682Y-56913859D01*
X159243049Y-56760999D01*
X159471260Y-56575335D01*
X159672065Y-56360326D01*
X159841722Y-56119976D01*
X159977072Y-55858764D01*
X160075592Y-55581554D01*
X160075592Y-55581549D01*
X160075595Y-55581543D01*
X160119419Y-55370647D01*
X160135448Y-55293511D01*
X160155525Y-55000000D01*
X160135448Y-54706489D01*
X160105411Y-54561944D01*
X160075595Y-54418456D01*
X160075590Y-54418440D01*
X160034251Y-54302123D01*
X159977072Y-54141236D01*
X159841722Y-53880024D01*
X159841721Y-53880022D01*
X159841717Y-53880016D01*
X159672067Y-53639676D01*
X159471256Y-53424661D01*
X159243045Y-53238998D01*
X158991680Y-53086139D01*
X158991675Y-53086137D01*
X158721845Y-52968934D01*
X158438560Y-52889561D01*
X158438556Y-52889560D01*
X158438555Y-52889560D01*
X158292826Y-52869530D01*
X158147099Y-52849500D01*
X158147098Y-52849500D01*
X157852902Y-52849500D01*
X157852901Y-52849500D01*
X157561445Y-52889560D01*
X157561439Y-52889561D01*
X157278154Y-52968934D01*
X157008324Y-53086137D01*
X157008319Y-53086139D01*
X156756954Y-53238998D01*
X156528743Y-53424661D01*
X156327932Y-53639676D01*
X156158282Y-53880016D01*
X156158278Y-53880022D01*
X156022927Y-54141237D01*
X155924409Y-54418440D01*
X155924404Y-54418456D01*
X155864552Y-54706486D01*
X155864551Y-54706488D01*
X155844475Y-55000000D01*
X152990658Y-55000000D01*
X151446545Y-53455887D01*
X151331807Y-53379222D01*
X151204332Y-53326421D01*
X151204322Y-53326418D01*
X151068996Y-53299500D01*
X151068994Y-53299500D01*
X151068993Y-53299500D01*
X79068994Y-53299500D01*
X78931006Y-53299500D01*
X78931004Y-53299500D01*
X78795677Y-53326418D01*
X78795667Y-53326421D01*
X78668192Y-53379222D01*
X78553454Y-53455887D01*
X71535887Y-60473454D01*
X71459222Y-60588192D01*
X71406421Y-60715667D01*
X71406418Y-60715677D01*
X71379500Y-60851004D01*
X71379500Y-67454668D01*
X71359815Y-67521707D01*
X71307011Y-67567462D01*
X71298834Y-67570850D01*
X71257669Y-67586203D01*
X71257664Y-67586206D01*
X71142455Y-67672452D01*
X71142452Y-67672455D01*
X71056206Y-67787664D01*
X71056202Y-67787671D01*
X71005908Y-67922517D01*
X70999501Y-67982116D01*
X70999501Y-67982123D01*
X70999500Y-67982135D01*
X70999500Y-70077870D01*
X70999501Y-70077874D01*
X71005909Y-70137487D01*
X71007692Y-70145031D01*
X71004893Y-70145692D01*
X71008910Y-70201861D01*
X70975423Y-70263184D01*
X70914099Y-70296667D01*
X70887744Y-70299500D01*
X69231519Y-70299500D01*
X69164480Y-70279815D01*
X69143838Y-70263181D01*
X67956818Y-69076161D01*
X67923333Y-69014838D01*
X67920499Y-68988480D01*
X67920499Y-67982129D01*
X67920498Y-67982123D01*
X67920497Y-67982116D01*
X67914091Y-67922517D01*
X67863796Y-67787669D01*
X67863795Y-67787668D01*
X67863793Y-67787664D01*
X67777548Y-67672457D01*
X67777546Y-67672454D01*
X67777544Y-67672452D01*
X67777542Y-67672450D01*
X67750188Y-67651973D01*
X67708318Y-67596039D01*
X67700500Y-67552707D01*
X67700500Y-60187180D01*
X67720185Y-60120141D01*
X67750187Y-60087914D01*
X67857546Y-60007546D01*
X67943796Y-59892331D01*
X67994091Y-59757483D01*
X68000500Y-59697873D01*
X68000499Y-57602128D01*
X67994091Y-57542517D01*
X67943796Y-57407669D01*
X67943795Y-57407668D01*
X67943793Y-57407664D01*
X67857547Y-57292455D01*
X67857544Y-57292452D01*
X67742335Y-57206206D01*
X67742328Y-57206202D01*
X67607482Y-57155908D01*
X67607483Y-57155908D01*
X67547883Y-57149501D01*
X67547881Y-57149500D01*
X67547873Y-57149500D01*
X67547864Y-57149500D01*
X66452129Y-57149500D01*
X66452120Y-57149501D01*
X66437752Y-57151046D01*
X66368993Y-57138639D01*
X66317857Y-57091027D01*
X66300500Y-57027756D01*
X66300500Y-56741519D01*
X66320185Y-56674480D01*
X66336819Y-56653838D01*
X66903838Y-56086819D01*
X66965161Y-56053334D01*
X66991519Y-56050500D01*
X68415501Y-56050500D01*
X68482540Y-56070185D01*
X68528295Y-56122989D01*
X68539501Y-56174500D01*
X68539501Y-56397876D01*
X68545908Y-56457483D01*
X68596202Y-56592328D01*
X68596206Y-56592335D01*
X68642248Y-56653838D01*
X68682454Y-56707546D01*
X68789811Y-56787914D01*
X68831682Y-56843847D01*
X68839500Y-56887180D01*
X68839500Y-64154668D01*
X68819815Y-64221707D01*
X68767011Y-64267462D01*
X68758834Y-64270850D01*
X68717669Y-64286203D01*
X68717664Y-64286206D01*
X68602455Y-64372452D01*
X68602452Y-64372455D01*
X68516206Y-64487664D01*
X68516202Y-64487671D01*
X68465908Y-64622517D01*
X68459501Y-64682116D01*
X68459501Y-64682123D01*
X68459500Y-64682135D01*
X68459500Y-66777870D01*
X68459501Y-66777876D01*
X68465908Y-66837483D01*
X68516202Y-66972328D01*
X68516206Y-66972335D01*
X68602452Y-67087544D01*
X68602455Y-67087547D01*
X68717664Y-67173793D01*
X68717671Y-67173797D01*
X68852517Y-67224091D01*
X68852516Y-67224091D01*
X68859444Y-67224835D01*
X68912127Y-67230500D01*
X70007872Y-67230499D01*
X70067483Y-67224091D01*
X70202331Y-67173796D01*
X70317546Y-67087546D01*
X70403796Y-66972331D01*
X70454091Y-66837483D01*
X70460500Y-66777873D01*
X70460499Y-64682128D01*
X70454091Y-64622517D01*
X70403796Y-64487669D01*
X70403795Y-64487668D01*
X70403793Y-64487664D01*
X70317548Y-64372457D01*
X70317546Y-64372454D01*
X70317544Y-64372452D01*
X70317542Y-64372450D01*
X70290188Y-64351973D01*
X70248318Y-64296039D01*
X70240500Y-64252707D01*
X70240500Y-56887180D01*
X70260185Y-56820141D01*
X70290187Y-56787914D01*
X70397546Y-56707546D01*
X70483796Y-56592331D01*
X70534091Y-56457483D01*
X70540500Y-56397873D01*
X70540499Y-54302128D01*
X70534091Y-54242517D01*
X70483796Y-54107669D01*
X70483795Y-54107668D01*
X70483793Y-54107664D01*
X70397547Y-53992455D01*
X70397544Y-53992452D01*
X70282335Y-53906206D01*
X70282328Y-53906202D01*
X70147482Y-53855908D01*
X70147483Y-53855908D01*
X70087883Y-53849501D01*
X70087881Y-53849500D01*
X70087873Y-53849500D01*
X70087864Y-53849500D01*
X68992129Y-53849500D01*
X68992123Y-53849501D01*
X68932516Y-53855908D01*
X68797671Y-53906202D01*
X68797664Y-53906206D01*
X68682455Y-53992452D01*
X68682452Y-53992455D01*
X68596206Y-54107664D01*
X68596202Y-54107671D01*
X68545908Y-54242517D01*
X68539501Y-54302116D01*
X68539501Y-54302123D01*
X68539500Y-54302135D01*
X68539500Y-54525500D01*
X68519815Y-54592539D01*
X68467011Y-54638294D01*
X68415500Y-54649500D01*
X66581003Y-54649500D01*
X66472590Y-54671065D01*
X66472589Y-54671065D01*
X66445671Y-54676420D01*
X66318190Y-54729224D01*
X66203454Y-54805887D01*
X66203453Y-54805888D01*
X65672180Y-55337162D01*
X65610857Y-55370647D01*
X65541165Y-55365663D01*
X65485232Y-55323791D01*
X65460815Y-55258327D01*
X65460499Y-55249481D01*
X65460499Y-54302129D01*
X65460498Y-54302123D01*
X65460497Y-54302116D01*
X65454091Y-54242517D01*
X65403796Y-54107669D01*
X65403795Y-54107668D01*
X65403793Y-54107664D01*
X65317547Y-53992455D01*
X65317544Y-53992452D01*
X65202335Y-53906206D01*
X65202328Y-53906202D01*
X65067482Y-53855908D01*
X65067483Y-53855908D01*
X65007883Y-53849501D01*
X65007881Y-53849500D01*
X65007873Y-53849500D01*
X65007864Y-53849500D01*
X63912129Y-53849500D01*
X63912123Y-53849501D01*
X63852516Y-53855908D01*
X63717671Y-53906202D01*
X63717664Y-53906206D01*
X63602455Y-53992452D01*
X63602452Y-53992455D01*
X63516206Y-54107664D01*
X63516202Y-54107671D01*
X63465908Y-54242517D01*
X63459501Y-54302116D01*
X63459501Y-54302123D01*
X63459500Y-54302135D01*
X63459500Y-56397870D01*
X63459501Y-56397876D01*
X63465908Y-56457483D01*
X63516202Y-56592328D01*
X63516206Y-56592335D01*
X63562248Y-56653838D01*
X63602454Y-56707546D01*
X63709811Y-56787914D01*
X63751682Y-56843847D01*
X63759500Y-56887180D01*
X63759500Y-64154668D01*
X63739815Y-64221707D01*
X63687011Y-64267462D01*
X63678834Y-64270850D01*
X63637669Y-64286203D01*
X63637664Y-64286206D01*
X63522455Y-64372452D01*
X63522452Y-64372455D01*
X63436206Y-64487664D01*
X63436202Y-64487671D01*
X63385908Y-64622517D01*
X63379501Y-64682116D01*
X63379501Y-64682123D01*
X63379500Y-64682135D01*
X63379500Y-66777870D01*
X63379501Y-66777876D01*
X63385908Y-66837483D01*
X63436202Y-66972328D01*
X63436206Y-66972335D01*
X63522452Y-67087544D01*
X63522455Y-67087547D01*
X63637664Y-67173793D01*
X63637671Y-67173797D01*
X63772517Y-67224091D01*
X63772516Y-67224091D01*
X63779444Y-67224835D01*
X63832127Y-67230500D01*
X64775500Y-67230499D01*
X64842539Y-67250183D01*
X64888294Y-67302987D01*
X64899500Y-67354499D01*
X64899500Y-76881006D01*
X64899500Y-77018994D01*
X64899500Y-77018996D01*
X64899499Y-77018996D01*
X64926418Y-77154322D01*
X64926421Y-77154332D01*
X64979222Y-77281807D01*
X65055887Y-77396545D01*
X65055888Y-77396546D01*
X66917162Y-79257819D01*
X66950647Y-79319142D01*
X66945663Y-79388834D01*
X66903791Y-79444767D01*
X66838327Y-79469184D01*
X66829481Y-79469500D01*
X66372129Y-79469500D01*
X66372123Y-79469501D01*
X66312516Y-79475908D01*
X66177671Y-79526202D01*
X66177664Y-79526206D01*
X66062455Y-79612452D01*
X66062452Y-79612455D01*
X65976206Y-79727664D01*
X65976202Y-79727671D01*
X65925908Y-79862517D01*
X65919501Y-79922116D01*
X65919500Y-79922135D01*
X65919500Y-82017870D01*
X65919501Y-82017876D01*
X65925908Y-82077483D01*
X65976202Y-82212328D01*
X65976206Y-82212335D01*
X66062452Y-82327544D01*
X66062455Y-82327547D01*
X66177666Y-82413794D01*
X66177664Y-82413794D01*
X66177668Y-82413795D01*
X66177669Y-82413796D01*
X66218833Y-82429149D01*
X66274765Y-82471017D01*
X66299184Y-82536481D01*
X66299500Y-82545330D01*
X66299500Y-90931006D01*
X66299500Y-91068994D01*
X66299500Y-91068996D01*
X66299499Y-91068996D01*
X66326418Y-91204322D01*
X66326421Y-91204332D01*
X66379222Y-91331807D01*
X66455887Y-91446545D01*
X69553454Y-94544112D01*
X69668192Y-94620777D01*
X69795667Y-94673578D01*
X69795672Y-94673580D01*
X69795676Y-94673580D01*
X69795677Y-94673581D01*
X69931003Y-94700500D01*
X69931006Y-94700500D01*
X121218996Y-94700500D01*
X121310040Y-94682389D01*
X121354328Y-94673580D01*
X121418069Y-94647177D01*
X121481807Y-94620777D01*
X121481808Y-94620776D01*
X121481811Y-94620775D01*
X121596543Y-94544114D01*
X122403838Y-93736819D01*
X122465161Y-93703334D01*
X122491519Y-93700500D01*
X122659897Y-93700500D01*
X122726936Y-93720185D01*
X122772691Y-93772989D01*
X122782635Y-93842147D01*
X122753610Y-93905703D01*
X122734208Y-93923766D01*
X122642455Y-93992452D01*
X122642452Y-93992455D01*
X122556206Y-94107664D01*
X122556202Y-94107671D01*
X122505908Y-94242517D01*
X122500391Y-94293838D01*
X122499501Y-94302123D01*
X122499500Y-94302135D01*
X122499500Y-95175500D01*
X122479815Y-95242539D01*
X122427011Y-95288294D01*
X122375500Y-95299500D01*
X69341519Y-95299500D01*
X69274480Y-95279815D01*
X69253838Y-95263181D01*
X65196819Y-91206162D01*
X65163334Y-91144839D01*
X65160500Y-91118481D01*
X65160500Y-85747291D01*
X65180185Y-85680252D01*
X65210185Y-85648027D01*
X65237546Y-85627546D01*
X65323796Y-85512331D01*
X65374091Y-85377483D01*
X65380500Y-85317873D01*
X65380499Y-83222128D01*
X65374091Y-83162517D01*
X65353564Y-83107482D01*
X65323797Y-83027671D01*
X65323793Y-83027664D01*
X65237547Y-82912455D01*
X65237544Y-82912452D01*
X65122335Y-82826206D01*
X65122328Y-82826202D01*
X64987482Y-82775908D01*
X64987483Y-82775908D01*
X64927883Y-82769501D01*
X64927881Y-82769500D01*
X64927873Y-82769500D01*
X64927864Y-82769500D01*
X63832129Y-82769500D01*
X63832123Y-82769501D01*
X63772516Y-82775908D01*
X63637671Y-82826202D01*
X63637664Y-82826206D01*
X63522455Y-82912452D01*
X63522452Y-82912455D01*
X63436206Y-83027664D01*
X63436202Y-83027671D01*
X63385908Y-83162517D01*
X63379501Y-83222116D01*
X63379501Y-83222123D01*
X63379500Y-83222135D01*
X63379500Y-85317870D01*
X63379501Y-85317876D01*
X63385908Y-85377483D01*
X63436202Y-85512328D01*
X63436206Y-85512335D01*
X63522452Y-85627544D01*
X63522455Y-85627547D01*
X63637666Y-85713794D01*
X63637664Y-85713794D01*
X63637668Y-85713795D01*
X63637669Y-85713796D01*
X63678833Y-85729149D01*
X63734765Y-85771017D01*
X63759184Y-85836481D01*
X63759500Y-85845330D01*
X63759500Y-91391006D01*
X63759500Y-91528994D01*
X63759500Y-91528996D01*
X63759499Y-91528996D01*
X63786418Y-91664322D01*
X63786421Y-91664332D01*
X63839222Y-91791807D01*
X63915887Y-91906545D01*
X68553454Y-96544112D01*
X68668192Y-96620777D01*
X68795667Y-96673578D01*
X68795672Y-96673580D01*
X68795676Y-96673580D01*
X68795677Y-96673581D01*
X68931003Y-96700500D01*
X68931006Y-96700500D01*
X68931007Y-96700500D01*
X122591769Y-96700500D01*
X122658808Y-96720185D01*
X122666079Y-96725233D01*
X122749810Y-96787913D01*
X122791682Y-96843846D01*
X122799500Y-96887180D01*
X122799500Y-99158481D01*
X122779815Y-99225520D01*
X122763181Y-99246162D01*
X120746162Y-101263181D01*
X120684839Y-101296666D01*
X120658481Y-101299500D01*
X78431004Y-101299500D01*
X78295677Y-101326418D01*
X78295667Y-101326421D01*
X78168192Y-101379222D01*
X78053454Y-101455887D01*
X78053453Y-101455888D01*
X74046162Y-105463181D01*
X73984839Y-105496666D01*
X73958481Y-105499500D01*
X62624500Y-105499500D01*
X62557461Y-105479815D01*
X62511706Y-105427011D01*
X62500500Y-105375500D01*
X62500500Y-102000000D01*
X63844475Y-102000000D01*
X63864551Y-102293511D01*
X63864552Y-102293513D01*
X63924404Y-102581543D01*
X63924409Y-102581559D01*
X64022927Y-102858762D01*
X64158278Y-103119977D01*
X64158282Y-103119983D01*
X64327932Y-103360323D01*
X64528743Y-103575338D01*
X64656384Y-103679181D01*
X64756951Y-103760999D01*
X64756953Y-103761000D01*
X64756954Y-103761001D01*
X65008319Y-103913860D01*
X65008324Y-103913862D01*
X65278154Y-104031065D01*
X65278159Y-104031067D01*
X65561445Y-104110440D01*
X65817681Y-104145659D01*
X65852901Y-104150500D01*
X65852902Y-104150500D01*
X66147099Y-104150500D01*
X66178520Y-104146180D01*
X66438555Y-104110440D01*
X66721841Y-104031067D01*
X66991682Y-103913859D01*
X67243049Y-103760999D01*
X67471260Y-103575335D01*
X67672065Y-103360326D01*
X67841722Y-103119976D01*
X67977072Y-102858764D01*
X68075592Y-102581554D01*
X68075592Y-102581549D01*
X68075595Y-102581543D01*
X68134792Y-102296666D01*
X68135448Y-102293511D01*
X68155525Y-102000000D01*
X68135448Y-101706489D01*
X68108848Y-101578481D01*
X68075595Y-101418456D01*
X68075590Y-101418440D01*
X68033319Y-101299500D01*
X67977072Y-101141236D01*
X67841722Y-100880024D01*
X67841721Y-100880022D01*
X67841717Y-100880016D01*
X67672067Y-100639676D01*
X67491695Y-100446546D01*
X67471260Y-100424665D01*
X67471258Y-100424664D01*
X67471256Y-100424661D01*
X67243045Y-100238998D01*
X66991680Y-100086139D01*
X66991675Y-100086137D01*
X66721845Y-99968934D01*
X66438560Y-99889561D01*
X66438556Y-99889560D01*
X66438555Y-99889560D01*
X66292826Y-99869530D01*
X66147099Y-99849500D01*
X66147098Y-99849500D01*
X65852902Y-99849500D01*
X65852901Y-99849500D01*
X65561445Y-99889560D01*
X65561439Y-99889561D01*
X65278154Y-99968934D01*
X65008324Y-100086137D01*
X65008319Y-100086139D01*
X64756954Y-100238998D01*
X64528743Y-100424661D01*
X64327932Y-100639676D01*
X64158282Y-100880016D01*
X64158278Y-100880022D01*
X64022927Y-101141237D01*
X63924409Y-101418440D01*
X63924404Y-101418456D01*
X63864552Y-101706486D01*
X63864551Y-101706488D01*
X63844475Y-102000000D01*
X62500500Y-102000000D01*
X62500500Y-53003750D01*
X62500726Y-52996263D01*
X62507180Y-52889560D01*
X62518271Y-52706201D01*
X62520076Y-52691340D01*
X62571780Y-52409201D01*
X62575364Y-52394663D01*
X62652096Y-52148422D01*
X62660696Y-52120822D01*
X62665998Y-52106841D01*
X62783731Y-51845249D01*
X62790676Y-51832016D01*
X62939080Y-51586526D01*
X62947567Y-51574230D01*
X63124480Y-51348417D01*
X63134395Y-51337226D01*
X63337226Y-51134395D01*
X63348417Y-51124480D01*
X63574230Y-50947567D01*
X63586526Y-50939080D01*
X63832016Y-50790676D01*
X63845249Y-50783731D01*
X64106841Y-50665998D01*
X64120822Y-50660696D01*
X64394668Y-50575362D01*
X64409197Y-50571780D01*
X64691344Y-50520075D01*
X64706201Y-50518271D01*
X64996264Y-50500726D01*
X65003751Y-50500500D01*
X65065892Y-50500500D01*
X157691470Y-50500500D01*
X157691474Y-50500501D01*
G37*
%TD.AperFunction*%
%TA.AperFunction,NonConductor*%
G36*
X184225520Y-102720185D02*
G01*
X184246162Y-102736819D01*
X186797162Y-105287819D01*
X186830647Y-105349142D01*
X186825663Y-105418834D01*
X186783791Y-105474767D01*
X186718327Y-105499184D01*
X186709481Y-105499500D01*
X181934108Y-105499500D01*
X181806812Y-105533608D01*
X181692686Y-105599500D01*
X181692683Y-105599502D01*
X181599498Y-105692687D01*
X181598370Y-105694158D01*
X181597102Y-105695083D01*
X181593753Y-105698433D01*
X181593230Y-105697910D01*
X181541940Y-105735356D01*
X181472193Y-105739506D01*
X181411275Y-105705289D01*
X181401630Y-105694158D01*
X181400501Y-105692687D01*
X181307316Y-105599502D01*
X181307314Y-105599500D01*
X181250250Y-105566554D01*
X181193187Y-105533608D01*
X181129539Y-105516554D01*
X181065892Y-105499500D01*
X181065891Y-105499500D01*
X169041519Y-105499500D01*
X168974480Y-105479815D01*
X168953838Y-105463181D01*
X166402838Y-102912181D01*
X166369353Y-102850858D01*
X166374337Y-102781166D01*
X166416209Y-102725233D01*
X166481673Y-102700816D01*
X166490519Y-102700500D01*
X184158481Y-102700500D01*
X184225520Y-102720185D01*
G37*
%TD.AperFunction*%
%TA.AperFunction,NonConductor*%
G36*
X165225520Y-103720185D02*
G01*
X165246162Y-103736819D01*
X166797162Y-105287819D01*
X166830647Y-105349142D01*
X166825663Y-105418834D01*
X166783791Y-105474767D01*
X166718327Y-105499184D01*
X166709481Y-105499500D01*
X161934108Y-105499500D01*
X161806812Y-105533608D01*
X161692686Y-105599500D01*
X161692683Y-105599502D01*
X161599498Y-105692687D01*
X161598370Y-105694158D01*
X161597102Y-105695083D01*
X161593753Y-105698433D01*
X161593230Y-105697910D01*
X161541940Y-105735356D01*
X161472193Y-105739506D01*
X161411275Y-105705289D01*
X161401630Y-105694158D01*
X161400501Y-105692687D01*
X161307316Y-105599502D01*
X161307314Y-105599500D01*
X161250250Y-105566554D01*
X161193187Y-105533608D01*
X161129539Y-105516554D01*
X161065892Y-105499500D01*
X161065891Y-105499500D01*
X149041519Y-105499500D01*
X148974480Y-105479815D01*
X148953838Y-105463181D01*
X147402838Y-103912181D01*
X147369353Y-103850858D01*
X147374337Y-103781166D01*
X147416209Y-103725233D01*
X147481673Y-103700816D01*
X147490519Y-103700500D01*
X165158481Y-103700500D01*
X165225520Y-103720185D01*
G37*
%TD.AperFunction*%
%TA.AperFunction,NonConductor*%
G36*
X148725520Y-58720185D02*
G01*
X148746162Y-58736819D01*
X153263181Y-63253838D01*
X153296666Y-63315161D01*
X153299500Y-63341519D01*
X153299500Y-79658481D01*
X153279815Y-79725520D01*
X153263181Y-79746162D01*
X148746162Y-84263181D01*
X148684839Y-84296666D01*
X148658481Y-84299500D01*
X138931004Y-84299500D01*
X138795677Y-84326418D01*
X138795667Y-84326421D01*
X138668192Y-84379222D01*
X138553454Y-84455887D01*
X133375890Y-89633451D01*
X133375884Y-89633458D01*
X133338778Y-89688993D01*
X133338778Y-89688994D01*
X133319001Y-89718591D01*
X133299225Y-89748188D01*
X133299221Y-89748195D01*
X133246421Y-89875667D01*
X133246418Y-89875677D01*
X133219500Y-90011004D01*
X133219500Y-93812819D01*
X133199815Y-93879858D01*
X133169812Y-93912085D01*
X133062452Y-93992455D01*
X132976206Y-94107664D01*
X132976202Y-94107671D01*
X132925908Y-94242517D01*
X132920391Y-94293838D01*
X132919501Y-94302123D01*
X132919500Y-94302135D01*
X132919500Y-96397870D01*
X132919501Y-96397876D01*
X132925908Y-96457483D01*
X132976202Y-96592328D01*
X132976206Y-96592335D01*
X133037027Y-96673580D01*
X133062454Y-96707546D01*
X133169811Y-96787914D01*
X133211682Y-96843847D01*
X133219500Y-96887180D01*
X133219500Y-101851006D01*
X133219500Y-101988994D01*
X133219500Y-101988996D01*
X133219499Y-101988996D01*
X133246418Y-102124322D01*
X133246421Y-102124332D01*
X133299222Y-102251807D01*
X133375887Y-102366545D01*
X135553454Y-104544112D01*
X135668190Y-104620776D01*
X135766790Y-104661617D01*
X135795671Y-104673580D01*
X135795672Y-104673580D01*
X135795677Y-104673582D01*
X135822545Y-104678925D01*
X135822551Y-104678926D01*
X135822591Y-104678934D01*
X135912937Y-104696905D01*
X135931006Y-104700500D01*
X135931007Y-104700500D01*
X146158481Y-104700500D01*
X146225520Y-104720185D01*
X146246162Y-104736819D01*
X146797162Y-105287819D01*
X146830647Y-105349142D01*
X146825663Y-105418834D01*
X146783791Y-105474767D01*
X146718327Y-105499184D01*
X146709481Y-105499500D01*
X141934108Y-105499500D01*
X141806812Y-105533608D01*
X141692686Y-105599500D01*
X141692683Y-105599502D01*
X141599498Y-105692687D01*
X141598370Y-105694158D01*
X141597102Y-105695083D01*
X141593753Y-105698433D01*
X141593230Y-105697910D01*
X141541940Y-105735356D01*
X141472193Y-105739506D01*
X141411275Y-105705289D01*
X141401630Y-105694158D01*
X141400501Y-105692687D01*
X141307316Y-105599502D01*
X141307314Y-105599500D01*
X141250250Y-105566554D01*
X141193187Y-105533608D01*
X141129539Y-105516554D01*
X141065892Y-105499500D01*
X141065891Y-105499500D01*
X132204500Y-105499500D01*
X132137461Y-105479815D01*
X132091706Y-105427011D01*
X132080500Y-105375500D01*
X132080500Y-100187180D01*
X132100185Y-100120141D01*
X132130187Y-100087914D01*
X132237546Y-100007546D01*
X132323796Y-99892331D01*
X132374091Y-99757483D01*
X132380500Y-99697873D01*
X132380499Y-97602128D01*
X132374091Y-97542517D01*
X132323796Y-97407669D01*
X132323795Y-97407668D01*
X132323793Y-97407664D01*
X132237547Y-97292455D01*
X132130188Y-97212085D01*
X132088318Y-97156151D01*
X132080500Y-97112819D01*
X132080500Y-89961519D01*
X132100185Y-89894480D01*
X132116819Y-89873838D01*
X138253838Y-83736819D01*
X138315161Y-83703334D01*
X138341519Y-83700500D01*
X148068996Y-83700500D01*
X148160040Y-83682389D01*
X148204328Y-83673580D01*
X148268069Y-83647177D01*
X148331807Y-83620777D01*
X148331808Y-83620776D01*
X148331811Y-83620775D01*
X148446543Y-83544114D01*
X152544114Y-79446543D01*
X152620775Y-79331811D01*
X152673580Y-79204329D01*
X152673580Y-79204325D01*
X152673582Y-79204322D01*
X152678934Y-79177411D01*
X152678934Y-79177409D01*
X152700500Y-79068993D01*
X152700500Y-63931007D01*
X152700500Y-63931004D01*
X152673581Y-63795677D01*
X152673580Y-63795676D01*
X152673580Y-63795672D01*
X152673578Y-63795667D01*
X152620778Y-63668195D01*
X152620774Y-63668188D01*
X152589094Y-63620775D01*
X152544114Y-63553457D01*
X152544112Y-63553454D01*
X148446545Y-59455887D01*
X148331807Y-59379222D01*
X148204332Y-59326421D01*
X148204322Y-59326418D01*
X148068996Y-59299500D01*
X148068994Y-59299500D01*
X148068993Y-59299500D01*
X81931007Y-59299500D01*
X81931003Y-59299500D01*
X81822590Y-59321065D01*
X81822589Y-59321065D01*
X81795681Y-59326418D01*
X81795671Y-59326420D01*
X81668190Y-59379224D01*
X81553454Y-59455887D01*
X79075887Y-61933454D01*
X79030906Y-62000775D01*
X79015065Y-62024482D01*
X78999225Y-62048188D01*
X78999221Y-62048195D01*
X78946421Y-62175667D01*
X78946418Y-62175677D01*
X78919500Y-62311004D01*
X78919500Y-64192819D01*
X78899815Y-64259858D01*
X78869812Y-64292085D01*
X78762452Y-64372455D01*
X78676206Y-64487664D01*
X78676202Y-64487671D01*
X78625908Y-64622517D01*
X78619501Y-64682116D01*
X78619501Y-64682123D01*
X78619500Y-64682135D01*
X78619500Y-66777870D01*
X78619501Y-66777876D01*
X78625908Y-66837483D01*
X78676202Y-66972328D01*
X78676206Y-66972335D01*
X78762452Y-67087544D01*
X78762455Y-67087547D01*
X78877664Y-67173793D01*
X78877671Y-67173797D01*
X79012517Y-67224091D01*
X79012516Y-67224091D01*
X79019444Y-67224835D01*
X79072127Y-67230500D01*
X80167872Y-67230499D01*
X80227483Y-67224091D01*
X80362331Y-67173796D01*
X80477546Y-67087546D01*
X80563796Y-66972331D01*
X80614091Y-66837483D01*
X80620500Y-66777873D01*
X80620499Y-64682128D01*
X80614091Y-64622517D01*
X80563796Y-64487669D01*
X80563795Y-64487668D01*
X80563793Y-64487664D01*
X80477547Y-64372455D01*
X80477540Y-64372450D01*
X80400500Y-64314777D01*
X80370188Y-64292085D01*
X80328318Y-64236151D01*
X80320500Y-64192819D01*
X80320500Y-62721519D01*
X80340185Y-62654480D01*
X80356819Y-62633838D01*
X82253838Y-60736819D01*
X82315161Y-60703334D01*
X82341519Y-60700500D01*
X147658481Y-60700500D01*
X147725520Y-60720185D01*
X147746162Y-60736819D01*
X151263181Y-64253838D01*
X151296666Y-64315161D01*
X151299500Y-64341519D01*
X151299500Y-78658481D01*
X151279815Y-78725520D01*
X151263181Y-78746162D01*
X147746162Y-82263181D01*
X147684839Y-82296666D01*
X147658481Y-82299500D01*
X137931004Y-82299500D01*
X137795677Y-82326418D01*
X137795667Y-82326421D01*
X137668192Y-82379222D01*
X137553454Y-82455887D01*
X130835887Y-89173454D01*
X130759223Y-89288192D01*
X130706421Y-89415668D01*
X130706418Y-89415680D01*
X130700279Y-89446543D01*
X130700279Y-89446544D01*
X130679500Y-89551004D01*
X130679500Y-97112819D01*
X130659815Y-97179858D01*
X130629812Y-97212085D01*
X130522452Y-97292455D01*
X130436206Y-97407664D01*
X130436202Y-97407671D01*
X130385908Y-97542517D01*
X130379501Y-97602116D01*
X130379501Y-97602123D01*
X130379500Y-97602135D01*
X130379500Y-99697870D01*
X130379501Y-99697876D01*
X130385908Y-99757483D01*
X130436202Y-99892328D01*
X130436206Y-99892335D01*
X130493548Y-99968933D01*
X130522454Y-100007546D01*
X130629811Y-100087914D01*
X130671682Y-100143847D01*
X130679500Y-100187180D01*
X130679500Y-105375500D01*
X130659815Y-105442539D01*
X130607011Y-105488294D01*
X130555500Y-105499500D01*
X121934108Y-105499500D01*
X121806812Y-105533608D01*
X121692686Y-105599500D01*
X121692683Y-105599502D01*
X121599498Y-105692687D01*
X121598370Y-105694158D01*
X121597102Y-105695083D01*
X121593753Y-105698433D01*
X121593230Y-105697910D01*
X121541940Y-105735356D01*
X121472193Y-105739506D01*
X121411275Y-105705289D01*
X121401630Y-105694158D01*
X121400501Y-105692687D01*
X121307316Y-105599502D01*
X121307314Y-105599500D01*
X121250250Y-105566554D01*
X121193187Y-105533608D01*
X121129539Y-105516554D01*
X121065892Y-105499500D01*
X121065891Y-105499500D01*
X116290519Y-105499500D01*
X116223480Y-105479815D01*
X116177725Y-105427011D01*
X116167781Y-105357853D01*
X116196806Y-105294297D01*
X116202838Y-105287819D01*
X116753838Y-104736819D01*
X116815161Y-104703334D01*
X116841519Y-104700500D01*
X127068996Y-104700500D01*
X127177457Y-104678925D01*
X127204328Y-104673580D01*
X127268069Y-104647177D01*
X127331807Y-104620777D01*
X127331808Y-104620776D01*
X127331811Y-104620775D01*
X127446543Y-104544114D01*
X129384114Y-102606543D01*
X129460775Y-102491811D01*
X129513580Y-102364328D01*
X129533700Y-102263181D01*
X129540500Y-102228996D01*
X129540500Y-96887180D01*
X129560185Y-96820141D01*
X129590187Y-96787914D01*
X129697546Y-96707546D01*
X129783796Y-96592331D01*
X129834091Y-96457483D01*
X129840500Y-96397873D01*
X129840499Y-94302128D01*
X129834091Y-94242517D01*
X129783796Y-94107669D01*
X129783795Y-94107668D01*
X129783793Y-94107664D01*
X129697547Y-93992455D01*
X129697544Y-93992452D01*
X129582335Y-93906206D01*
X129582328Y-93906202D01*
X129447482Y-93855908D01*
X129447483Y-93855908D01*
X129387883Y-93849501D01*
X129387881Y-93849500D01*
X129387873Y-93849500D01*
X129387865Y-93849500D01*
X128891519Y-93849500D01*
X128824480Y-93829815D01*
X128803838Y-93813181D01*
X126446546Y-91455888D01*
X126446545Y-91455887D01*
X126331807Y-91379222D01*
X126204332Y-91326421D01*
X126204322Y-91326418D01*
X126068996Y-91299500D01*
X126068994Y-91299500D01*
X126068993Y-91299500D01*
X82341519Y-91299500D01*
X82274480Y-91279815D01*
X82253838Y-91263181D01*
X80436819Y-89446162D01*
X80403334Y-89384839D01*
X80400500Y-89358481D01*
X80400500Y-88547870D01*
X96499500Y-88547870D01*
X96499501Y-88547876D01*
X96505908Y-88607483D01*
X96556202Y-88742328D01*
X96556206Y-88742335D01*
X96642452Y-88857544D01*
X96642455Y-88857547D01*
X96757664Y-88943793D01*
X96757671Y-88943797D01*
X96892517Y-88994091D01*
X96892516Y-88994091D01*
X96899444Y-88994835D01*
X96952127Y-89000500D01*
X98047872Y-89000499D01*
X98107483Y-88994091D01*
X98242331Y-88943796D01*
X98357546Y-88857546D01*
X98443796Y-88742331D01*
X98494091Y-88607483D01*
X98500500Y-88547873D01*
X98500499Y-85952128D01*
X98494091Y-85892517D01*
X98490764Y-85883598D01*
X98443797Y-85757671D01*
X98443793Y-85757664D01*
X98357547Y-85642455D01*
X98357544Y-85642452D01*
X98242335Y-85556206D01*
X98242328Y-85556202D01*
X98107482Y-85505908D01*
X98107483Y-85505908D01*
X98047883Y-85499501D01*
X98047881Y-85499500D01*
X98047873Y-85499500D01*
X98047864Y-85499500D01*
X96952129Y-85499500D01*
X96952123Y-85499501D01*
X96892516Y-85505908D01*
X96757671Y-85556202D01*
X96757664Y-85556206D01*
X96642455Y-85642452D01*
X96642452Y-85642455D01*
X96556206Y-85757664D01*
X96556202Y-85757671D01*
X96505908Y-85892517D01*
X96499501Y-85952116D01*
X96499501Y-85952123D01*
X96499500Y-85952135D01*
X96499500Y-88547870D01*
X80400500Y-88547870D01*
X80400500Y-85747291D01*
X80420185Y-85680252D01*
X80450185Y-85648027D01*
X80477546Y-85627546D01*
X80563796Y-85512331D01*
X80614091Y-85377483D01*
X80620500Y-85317873D01*
X80620499Y-83222128D01*
X80614091Y-83162517D01*
X80593564Y-83107482D01*
X80563797Y-83027671D01*
X80563793Y-83027664D01*
X80477547Y-82912455D01*
X80477544Y-82912452D01*
X80362335Y-82826206D01*
X80362328Y-82826202D01*
X80227482Y-82775908D01*
X80227483Y-82775908D01*
X80167883Y-82769501D01*
X80167881Y-82769500D01*
X80167873Y-82769500D01*
X80167864Y-82769500D01*
X79072129Y-82769500D01*
X79072123Y-82769501D01*
X79012516Y-82775908D01*
X78877671Y-82826202D01*
X78877664Y-82826206D01*
X78762455Y-82912452D01*
X78762452Y-82912455D01*
X78676206Y-83027664D01*
X78676202Y-83027671D01*
X78625908Y-83162517D01*
X78619501Y-83222116D01*
X78619501Y-83222123D01*
X78619500Y-83222135D01*
X78619500Y-85317870D01*
X78619501Y-85317876D01*
X78625908Y-85377483D01*
X78676202Y-85512328D01*
X78676206Y-85512335D01*
X78762452Y-85627544D01*
X78762455Y-85627547D01*
X78877666Y-85713794D01*
X78877664Y-85713794D01*
X78877668Y-85713795D01*
X78877669Y-85713796D01*
X78918833Y-85729149D01*
X78974765Y-85771017D01*
X78999184Y-85836481D01*
X78999500Y-85845330D01*
X78999500Y-89631006D01*
X78999500Y-89768994D01*
X78999500Y-89768996D01*
X78999499Y-89768996D01*
X79026418Y-89904322D01*
X79026421Y-89904332D01*
X79079222Y-90031807D01*
X79155887Y-90146545D01*
X81553454Y-92544112D01*
X81668190Y-92620776D01*
X81766790Y-92661617D01*
X81795671Y-92673580D01*
X81795672Y-92673580D01*
X81795677Y-92673582D01*
X81822545Y-92678925D01*
X81822551Y-92678926D01*
X81822591Y-92678934D01*
X81912937Y-92696905D01*
X81931006Y-92700500D01*
X81931007Y-92700500D01*
X121159481Y-92700500D01*
X121226520Y-92720185D01*
X121272275Y-92772989D01*
X121282219Y-92842147D01*
X121253194Y-92905703D01*
X121247162Y-92912181D01*
X120896162Y-93263181D01*
X120834839Y-93296666D01*
X120808481Y-93299500D01*
X70341519Y-93299500D01*
X70274480Y-93279815D01*
X70253838Y-93263181D01*
X67736819Y-90746162D01*
X67703334Y-90684839D01*
X67700500Y-90658481D01*
X67700500Y-86745519D01*
X67720185Y-86678480D01*
X67772989Y-86632725D01*
X67842147Y-86622781D01*
X67905703Y-86651806D01*
X67912181Y-86657838D01*
X68548453Y-87294111D01*
X68548454Y-87294112D01*
X68663192Y-87370777D01*
X68790667Y-87423578D01*
X68790672Y-87423580D01*
X68790676Y-87423580D01*
X68790677Y-87423581D01*
X68926003Y-87450500D01*
X68926006Y-87450500D01*
X71318996Y-87450500D01*
X71410040Y-87432389D01*
X71454328Y-87423580D01*
X71518069Y-87397177D01*
X71581807Y-87370777D01*
X71581808Y-87370776D01*
X71581811Y-87370775D01*
X71696543Y-87294114D01*
X73444551Y-85546104D01*
X73505872Y-85512621D01*
X73575563Y-85517605D01*
X73631496Y-85559476D01*
X73682452Y-85627544D01*
X73682455Y-85627547D01*
X73797664Y-85713793D01*
X73797671Y-85713797D01*
X73932517Y-85764091D01*
X73932516Y-85764091D01*
X73939444Y-85764835D01*
X73992127Y-85770500D01*
X75087872Y-85770499D01*
X75147483Y-85764091D01*
X75282331Y-85713796D01*
X75397546Y-85627546D01*
X75483796Y-85512331D01*
X75534091Y-85377483D01*
X75540500Y-85317873D01*
X75540499Y-83222128D01*
X75534091Y-83162517D01*
X75513564Y-83107482D01*
X75483797Y-83027671D01*
X75483793Y-83027664D01*
X75397547Y-82912455D01*
X75397540Y-82912450D01*
X75320500Y-82854777D01*
X75290188Y-82832085D01*
X75248318Y-82776151D01*
X75240500Y-82732819D01*
X75240500Y-81151518D01*
X75260185Y-81084479D01*
X75276815Y-81063841D01*
X75867819Y-80472836D01*
X75929142Y-80439352D01*
X75998834Y-80444336D01*
X76054767Y-80486208D01*
X76079184Y-80551672D01*
X76079500Y-80560518D01*
X76079500Y-82017870D01*
X76079501Y-82017876D01*
X76085908Y-82077483D01*
X76136202Y-82212328D01*
X76136206Y-82212335D01*
X76222452Y-82327544D01*
X76222455Y-82327547D01*
X76337664Y-82413793D01*
X76337671Y-82413797D01*
X76472517Y-82464091D01*
X76472516Y-82464091D01*
X76479444Y-82464835D01*
X76532127Y-82470500D01*
X77627872Y-82470499D01*
X77687483Y-82464091D01*
X77822331Y-82413796D01*
X77937546Y-82327546D01*
X78023796Y-82212331D01*
X78074091Y-82077483D01*
X78080500Y-82017873D01*
X78080500Y-81794500D01*
X78100185Y-81727461D01*
X78152989Y-81681706D01*
X78204500Y-81670500D01*
X80597231Y-81670500D01*
X80664270Y-81690185D01*
X80684912Y-81706819D01*
X82522203Y-83544111D01*
X82522204Y-83544112D01*
X82636942Y-83620777D01*
X82764417Y-83673578D01*
X82764422Y-83673580D01*
X82764426Y-83673580D01*
X82764427Y-83673581D01*
X82899754Y-83700500D01*
X82899757Y-83700500D01*
X83037744Y-83700500D01*
X85567209Y-83700500D01*
X85634248Y-83720185D01*
X85680003Y-83772989D01*
X85683388Y-83781160D01*
X85683391Y-83781167D01*
X85683392Y-83781168D01*
X85702413Y-83832168D01*
X85707396Y-83901860D01*
X85673910Y-83963183D01*
X85612586Y-83996667D01*
X85586231Y-83999500D01*
X85352130Y-83999500D01*
X85352123Y-83999501D01*
X85292516Y-84005908D01*
X85157671Y-84056202D01*
X85157664Y-84056206D01*
X85042455Y-84142452D01*
X85042452Y-84142455D01*
X84956206Y-84257664D01*
X84956202Y-84257671D01*
X84905908Y-84392517D01*
X84899501Y-84452116D01*
X84899501Y-84452123D01*
X84899500Y-84452135D01*
X84899500Y-86347870D01*
X84899501Y-86347876D01*
X84905908Y-86407483D01*
X84956202Y-86542328D01*
X84956206Y-86542335D01*
X85042452Y-86657544D01*
X85042455Y-86657547D01*
X85157664Y-86743793D01*
X85157671Y-86743797D01*
X85292517Y-86794091D01*
X85292516Y-86794091D01*
X85299444Y-86794835D01*
X85352127Y-86800500D01*
X88647872Y-86800499D01*
X88707483Y-86794091D01*
X88842331Y-86743796D01*
X88957546Y-86657546D01*
X89043796Y-86542331D01*
X89094091Y-86407483D01*
X89100500Y-86347873D01*
X89100499Y-84452128D01*
X89094091Y-84392517D01*
X89094091Y-84392516D01*
X89047587Y-84267832D01*
X89042603Y-84198140D01*
X89076088Y-84136817D01*
X89137412Y-84103333D01*
X89163769Y-84100499D01*
X91897871Y-84100499D01*
X91897872Y-84100499D01*
X91957483Y-84094091D01*
X92092331Y-84043796D01*
X92207546Y-83957546D01*
X92293796Y-83842331D01*
X92299886Y-83826002D01*
X92316609Y-83781167D01*
X92358480Y-83725233D01*
X92423944Y-83700816D01*
X92432791Y-83700500D01*
X98818996Y-83700500D01*
X98910040Y-83682389D01*
X98954328Y-83673580D01*
X99018069Y-83647177D01*
X99081807Y-83620777D01*
X99081808Y-83620776D01*
X99081811Y-83620775D01*
X99196543Y-83544114D01*
X99229865Y-83510791D01*
X99291186Y-83477306D01*
X99360877Y-83482289D01*
X99392517Y-83494091D01*
X99452127Y-83500500D01*
X100547872Y-83500499D01*
X100607483Y-83494091D01*
X100742331Y-83443796D01*
X100857546Y-83357546D01*
X100943796Y-83242331D01*
X100994091Y-83107483D01*
X101000500Y-83047873D01*
X101000499Y-80878314D01*
X101020184Y-80811276D01*
X101072987Y-80765521D01*
X101142146Y-80755577D01*
X101171948Y-80763753D01*
X101195672Y-80773580D01*
X101195676Y-80773580D01*
X101195677Y-80773581D01*
X101331004Y-80800500D01*
X101331007Y-80800500D01*
X135909481Y-80800500D01*
X135976520Y-80820185D01*
X136022275Y-80872989D01*
X136032219Y-80942147D01*
X136003194Y-81005703D01*
X135997162Y-81012181D01*
X127746162Y-89263181D01*
X127684839Y-89296666D01*
X127658481Y-89299500D01*
X105341519Y-89299500D01*
X105274480Y-89279815D01*
X105253838Y-89263181D01*
X103536818Y-87546161D01*
X103503333Y-87484838D01*
X103500499Y-87458480D01*
X103500499Y-85952129D01*
X103500498Y-85952123D01*
X103500497Y-85952116D01*
X103494091Y-85892517D01*
X103490764Y-85883598D01*
X103443797Y-85757671D01*
X103443793Y-85757664D01*
X103357547Y-85642455D01*
X103357544Y-85642452D01*
X103242335Y-85556206D01*
X103242328Y-85556202D01*
X103107482Y-85505908D01*
X103107483Y-85505908D01*
X103047883Y-85499501D01*
X103047881Y-85499500D01*
X103047873Y-85499500D01*
X103047864Y-85499500D01*
X101952129Y-85499500D01*
X101952123Y-85499501D01*
X101892516Y-85505908D01*
X101757671Y-85556202D01*
X101757664Y-85556206D01*
X101642455Y-85642452D01*
X101642452Y-85642455D01*
X101556206Y-85757664D01*
X101556202Y-85757671D01*
X101505908Y-85892517D01*
X101499501Y-85952116D01*
X101499501Y-85952123D01*
X101499500Y-85952135D01*
X101499500Y-88547870D01*
X101499501Y-88547876D01*
X101505908Y-88607483D01*
X101556202Y-88742328D01*
X101556206Y-88742335D01*
X101642452Y-88857544D01*
X101642455Y-88857547D01*
X101757664Y-88943793D01*
X101757671Y-88943797D01*
X101892517Y-88994091D01*
X101892516Y-88994091D01*
X101899444Y-88994835D01*
X101952127Y-89000500D01*
X102958480Y-89000499D01*
X103025519Y-89020183D01*
X103046161Y-89036818D01*
X104553453Y-90544111D01*
X104553454Y-90544112D01*
X104668192Y-90620777D01*
X104782657Y-90668189D01*
X104795672Y-90673580D01*
X104795676Y-90673580D01*
X104795677Y-90673581D01*
X104931003Y-90700500D01*
X104931006Y-90700500D01*
X128068996Y-90700500D01*
X128173239Y-90679764D01*
X128204328Y-90673580D01*
X128268069Y-90647177D01*
X128331807Y-90620777D01*
X128331808Y-90620776D01*
X128331811Y-90620775D01*
X128446543Y-90544114D01*
X137253838Y-81736819D01*
X137315161Y-81703334D01*
X137341519Y-81700500D01*
X147003311Y-81700500D01*
X147111727Y-81678934D01*
X147138643Y-81673580D01*
X147202384Y-81647177D01*
X147266122Y-81620777D01*
X147266123Y-81620776D01*
X147266126Y-81620775D01*
X147380858Y-81544114D01*
X150544114Y-78380858D01*
X150582605Y-78323251D01*
X150620775Y-78266126D01*
X150673580Y-78138643D01*
X150686377Y-78074311D01*
X150700500Y-78003310D01*
X150700500Y-75931004D01*
X150673581Y-75795677D01*
X150673580Y-75795676D01*
X150673580Y-75795672D01*
X150670327Y-75787819D01*
X150620778Y-75668195D01*
X150620770Y-75668180D01*
X150594741Y-75629226D01*
X150594740Y-75629225D01*
X150544112Y-75553454D01*
X149846545Y-74855887D01*
X149731807Y-74779222D01*
X149604332Y-74726421D01*
X149604322Y-74726418D01*
X149468996Y-74699500D01*
X149468994Y-74699500D01*
X149468993Y-74699500D01*
X148466977Y-74699500D01*
X148399938Y-74679815D01*
X148354183Y-74627011D01*
X148346733Y-74599865D01*
X148345876Y-74600068D01*
X148344092Y-74592520D01*
X148293797Y-74457671D01*
X148293793Y-74457664D01*
X148207547Y-74342455D01*
X148207544Y-74342452D01*
X148092335Y-74256206D01*
X148092328Y-74256202D01*
X147957482Y-74205908D01*
X147957483Y-74205908D01*
X147897883Y-74199501D01*
X147897881Y-74199500D01*
X147897873Y-74199500D01*
X147897864Y-74199500D01*
X146102129Y-74199500D01*
X146102123Y-74199501D01*
X146042516Y-74205908D01*
X145907671Y-74256202D01*
X145907664Y-74256206D01*
X145792455Y-74342452D01*
X145792452Y-74342455D01*
X145706206Y-74457664D01*
X145706202Y-74457671D01*
X145690682Y-74499284D01*
X145648811Y-74555218D01*
X145583346Y-74579635D01*
X145515073Y-74564783D01*
X145465668Y-74515378D01*
X145450500Y-74455951D01*
X145450500Y-72944048D01*
X145470185Y-72877009D01*
X145522989Y-72831254D01*
X145592147Y-72821310D01*
X145655703Y-72850335D01*
X145690682Y-72900715D01*
X145706202Y-72942328D01*
X145706206Y-72942335D01*
X145792452Y-73057544D01*
X145792455Y-73057547D01*
X145907664Y-73143793D01*
X145907671Y-73143797D01*
X146042517Y-73194091D01*
X146042516Y-73194091D01*
X146049444Y-73194835D01*
X146102127Y-73200500D01*
X147897872Y-73200499D01*
X147957483Y-73194091D01*
X148092331Y-73143796D01*
X148207546Y-73057546D01*
X148293796Y-72942331D01*
X148344091Y-72807483D01*
X148350500Y-72747873D01*
X148350499Y-71252128D01*
X148344091Y-71192517D01*
X148339286Y-71179635D01*
X148293797Y-71057671D01*
X148293793Y-71057664D01*
X148207547Y-70942455D01*
X148207544Y-70942452D01*
X148092335Y-70856206D01*
X148092328Y-70856202D01*
X147957482Y-70805908D01*
X147957483Y-70805908D01*
X147897883Y-70799501D01*
X147897881Y-70799500D01*
X147897873Y-70799500D01*
X147897865Y-70799500D01*
X147824500Y-70799500D01*
X147757461Y-70779815D01*
X147711706Y-70727011D01*
X147700500Y-70675500D01*
X147700500Y-64312320D01*
X147720185Y-64245281D01*
X147750192Y-64213051D01*
X147757546Y-64207546D01*
X147843796Y-64092331D01*
X147894091Y-63957483D01*
X147900500Y-63897873D01*
X147900499Y-62102128D01*
X147894091Y-62042517D01*
X147878522Y-62000775D01*
X147843797Y-61907671D01*
X147843793Y-61907664D01*
X147757547Y-61792455D01*
X147757544Y-61792452D01*
X147642335Y-61706206D01*
X147642328Y-61706202D01*
X147507482Y-61655908D01*
X147507483Y-61655908D01*
X147447883Y-61649501D01*
X147447881Y-61649500D01*
X147447873Y-61649500D01*
X147447864Y-61649500D01*
X145952129Y-61649500D01*
X145952123Y-61649501D01*
X145892516Y-61655908D01*
X145757671Y-61706202D01*
X145757664Y-61706206D01*
X145642455Y-61792452D01*
X145642452Y-61792455D01*
X145556206Y-61907664D01*
X145556202Y-61907671D01*
X145505908Y-62042517D01*
X145500391Y-62093838D01*
X145499501Y-62102123D01*
X145499500Y-62102135D01*
X145499500Y-63897870D01*
X145499501Y-63897876D01*
X145505908Y-63957483D01*
X145556202Y-64092328D01*
X145556206Y-64092335D01*
X145642452Y-64207544D01*
X145642455Y-64207547D01*
X145757664Y-64293793D01*
X145757671Y-64293797D01*
X145802618Y-64310561D01*
X145892517Y-64344091D01*
X145952127Y-64350500D01*
X146175500Y-64350499D01*
X146242539Y-64370183D01*
X146288294Y-64422987D01*
X146299500Y-64474499D01*
X146299500Y-70675500D01*
X146279815Y-70742539D01*
X146227011Y-70788294D01*
X146175502Y-70799500D01*
X146102130Y-70799500D01*
X146102123Y-70799501D01*
X146042516Y-70805908D01*
X145907671Y-70856202D01*
X145907664Y-70856206D01*
X145792455Y-70942452D01*
X145792452Y-70942455D01*
X145706206Y-71057664D01*
X145706202Y-71057671D01*
X145690682Y-71099284D01*
X145648811Y-71155218D01*
X145583346Y-71179635D01*
X145515073Y-71164783D01*
X145465668Y-71115378D01*
X145450500Y-71055951D01*
X145450500Y-69681006D01*
X145444486Y-69650776D01*
X145444486Y-69650773D01*
X145423581Y-69545679D01*
X145423580Y-69545672D01*
X145423578Y-69545667D01*
X145370777Y-69418192D01*
X145294112Y-69303454D01*
X141736819Y-65746161D01*
X141703334Y-65684838D01*
X141700500Y-65658480D01*
X141700500Y-63824500D01*
X141720185Y-63757461D01*
X141772989Y-63711706D01*
X141824500Y-63700500D01*
X141975501Y-63700500D01*
X142042540Y-63720185D01*
X142088295Y-63772989D01*
X142099501Y-63824500D01*
X142099501Y-63897876D01*
X142105908Y-63957483D01*
X142156202Y-64092328D01*
X142156206Y-64092335D01*
X142242452Y-64207544D01*
X142242455Y-64207547D01*
X142357664Y-64293793D01*
X142357671Y-64293797D01*
X142492517Y-64344091D01*
X142492516Y-64344091D01*
X142499444Y-64344835D01*
X142552127Y-64350500D01*
X144047872Y-64350499D01*
X144107483Y-64344091D01*
X144242331Y-64293796D01*
X144357546Y-64207546D01*
X144443796Y-64092331D01*
X144494091Y-63957483D01*
X144500500Y-63897873D01*
X144500499Y-62102128D01*
X144494091Y-62042517D01*
X144478522Y-62000775D01*
X144443797Y-61907671D01*
X144443793Y-61907664D01*
X144357547Y-61792455D01*
X144357544Y-61792452D01*
X144242335Y-61706206D01*
X144242328Y-61706202D01*
X144107482Y-61655908D01*
X144107483Y-61655908D01*
X144047883Y-61649501D01*
X144047881Y-61649500D01*
X144047873Y-61649500D01*
X144047864Y-61649500D01*
X142552129Y-61649500D01*
X142552123Y-61649501D01*
X142492516Y-61655908D01*
X142357671Y-61706202D01*
X142357664Y-61706206D01*
X142242455Y-61792452D01*
X142242452Y-61792455D01*
X142156206Y-61907664D01*
X142156202Y-61907671D01*
X142105908Y-62042517D01*
X142100391Y-62093838D01*
X142099501Y-62102123D01*
X142099500Y-62102135D01*
X142099500Y-62175500D01*
X142079815Y-62242539D01*
X142027011Y-62288294D01*
X141975500Y-62299500D01*
X141341519Y-62299500D01*
X141274480Y-62279815D01*
X141253838Y-62263181D01*
X140446546Y-61455888D01*
X140331807Y-61379222D01*
X140204332Y-61326421D01*
X140204322Y-61326418D01*
X140068996Y-61299500D01*
X140068994Y-61299500D01*
X140068993Y-61299500D01*
X87068994Y-61299500D01*
X86931006Y-61299500D01*
X86931004Y-61299500D01*
X86795677Y-61326418D01*
X86795667Y-61326421D01*
X86668192Y-61379222D01*
X86553453Y-61455888D01*
X78292180Y-69717162D01*
X78230857Y-69750647D01*
X78161165Y-69745663D01*
X78105232Y-69703791D01*
X78080815Y-69638327D01*
X78080499Y-69629481D01*
X78080499Y-67982129D01*
X78080498Y-67982123D01*
X78080497Y-67982116D01*
X78074091Y-67922517D01*
X78023796Y-67787669D01*
X78023795Y-67787668D01*
X78023793Y-67787664D01*
X77937548Y-67672457D01*
X77937546Y-67672454D01*
X77937544Y-67672452D01*
X77937542Y-67672450D01*
X77910188Y-67651973D01*
X77868318Y-67596039D01*
X77860500Y-67552707D01*
X77860500Y-62181519D01*
X77880185Y-62114480D01*
X77896819Y-62093838D01*
X81253838Y-58736819D01*
X81315161Y-58703334D01*
X81341519Y-58700500D01*
X148658481Y-58700500D01*
X148725520Y-58720185D01*
G37*
%TD.AperFunction*%
%TA.AperFunction,NonConductor*%
G36*
X115576520Y-103720185D02*
G01*
X115622275Y-103772989D01*
X115632219Y-103842147D01*
X115603194Y-103905703D01*
X115597162Y-103912181D01*
X114046162Y-105463181D01*
X113984839Y-105496666D01*
X113958481Y-105499500D01*
X101934108Y-105499500D01*
X101806812Y-105533608D01*
X101692686Y-105599500D01*
X101692683Y-105599502D01*
X101599498Y-105692687D01*
X101598370Y-105694158D01*
X101597102Y-105695083D01*
X101593753Y-105698433D01*
X101593230Y-105697910D01*
X101541940Y-105735356D01*
X101472193Y-105739506D01*
X101411275Y-105705289D01*
X101401630Y-105694158D01*
X101400501Y-105692687D01*
X101307316Y-105599502D01*
X101307314Y-105599500D01*
X101250250Y-105566554D01*
X101193187Y-105533608D01*
X101129539Y-105516554D01*
X101065892Y-105499500D01*
X101065891Y-105499500D01*
X96290518Y-105499500D01*
X96223479Y-105479815D01*
X96177724Y-105427011D01*
X96167780Y-105357853D01*
X96196805Y-105294297D01*
X96202837Y-105287819D01*
X97753837Y-103736819D01*
X97815160Y-103703334D01*
X97841518Y-103700500D01*
X115509481Y-103700500D01*
X115576520Y-103720185D01*
G37*
%TD.AperFunction*%
%TA.AperFunction,NonConductor*%
G36*
X96576521Y-102720185D02*
G01*
X96622276Y-102772989D01*
X96632220Y-102842147D01*
X96603195Y-102905703D01*
X96597163Y-102912181D01*
X94046163Y-105463181D01*
X93984840Y-105496666D01*
X93958482Y-105499500D01*
X81934108Y-105499500D01*
X81806812Y-105533608D01*
X81692686Y-105599500D01*
X81692683Y-105599502D01*
X81599498Y-105692687D01*
X81598370Y-105694158D01*
X81597102Y-105695083D01*
X81593753Y-105698433D01*
X81593230Y-105697910D01*
X81541940Y-105735356D01*
X81472193Y-105739506D01*
X81411275Y-105705289D01*
X81401630Y-105694158D01*
X81400501Y-105692687D01*
X81307316Y-105599502D01*
X81307314Y-105599500D01*
X81250250Y-105566554D01*
X81193187Y-105533608D01*
X81129539Y-105516554D01*
X81065892Y-105499500D01*
X81065891Y-105499500D01*
X76290519Y-105499500D01*
X76223480Y-105479815D01*
X76177725Y-105427011D01*
X76167781Y-105357853D01*
X76196806Y-105294297D01*
X76202838Y-105287819D01*
X78753838Y-102736819D01*
X78815161Y-102703334D01*
X78841519Y-102700500D01*
X96509482Y-102700500D01*
X96576521Y-102720185D01*
G37*
%TD.AperFunction*%
D21*
X157757359Y-50000000D02*
G75*
G02*
X159878700Y-50878660I41J-3000000D01*
G01*
X162621321Y-53621321D02*
G75*
G02*
X163499971Y-55742641I-2121321J-2121279D01*
G01*
X164378679Y-80378679D02*
G75*
G02*
X163500029Y-78257359I2121321J2121279D01*
G01*
X170242641Y-85000000D02*
G75*
G02*
X168121300Y-84121340I-41J3000000D01*
G01*
X194757359Y-85000000D02*
G75*
G02*
X196878699Y-85878659I41J-3000000D01*
G01*
X200121320Y-89121320D02*
G75*
G02*
X200999971Y-91242641I-2121320J-2121280D01*
G01*
X62000000Y-53000000D02*
G75*
G02*
X65000000Y-50000000I3000000J0D01*
G01*
X62000000Y-124000000D02*
X201000000Y-124000000D01*
X62000000Y-53000000D02*
X62000000Y-124000000D01*
X157757359Y-50000000D02*
X65000000Y-50000000D01*
X194757359Y-85000000D02*
X170242641Y-85000000D01*
X168121320Y-84121320D02*
X164378679Y-80378679D01*
X200121320Y-89121320D02*
X196878679Y-85878679D01*
X163500000Y-55742641D02*
X163500000Y-78257359D01*
X159878680Y-50878680D02*
X162621321Y-53621321D01*
X201000000Y-124000000D02*
X201000000Y-91242641D01*
M02*
