0
SECTION
2
HEADER
9
$INSUNITS
70
4
9
$ACADVER
1
AC1014
9
$HANDSEED
5
FFFF
0
ENDSEC
0
SECTION
2
TABLES
0
TABLE
2
VPORT
5
8
100
AcDbSymbolTable
0
ENDTAB
0
TABLE
2
LTYPE
5
5
100
AcDbSymbolTable
0
LTYPE
5
14
100
AcDbSymbolTableRecord
100
AcDbLinetypeTableRecord
2
BYBLOCK
70
0
0
LTYPE
5
15
100
AcDbSymbolTableRecord
100
AcDbLinetypeTableRecord
2
BYLAYER
70
0
0
ENDTAB
0
TABLE
2
LAYER
5
2
100
AcDbSymbolTable
70
2
0
LAYER
5
50
100
AcDbSymbolTableRecord
100
AcDbLayerTableRecord
2
0
70
0
6
CONTINUOUS
0
ENDTAB
0
TABLE
2
STYLE
5
3
100
AcDbSymbolTable
70
1
0
STYLE
5
11
100
AcDbSymbolTableRecord
100
AcDbTextStyleTableRecord
2
STANDARD
70
0
0
ENDTAB
0
TABLE
2
VIEW
5
6
100
AcDbSymbolTable
70
0
0
ENDTAB
0
TABLE
2
UCS
5
7
100
AcDbSymbolTable
70
0
0
ENDTAB
0
TABLE
2
APPID
5
9
100
AcDbSymbolTable
70
2
0
APPID
5
12
100
AcDbSymbolTableRecord
100
AcDbRegAppTableRecord
2
ACAD
70
0
0
ENDTAB
0
TABLE
2
DIMSTYLE
5
A
100
AcDbSymbolTable
70
1
0
ENDTAB
0
TABLE
2
BLOCK_RECORD
5
1
100
AcDbSymbolTable
70
1
0
BLOCK_RECORD
5
1F
100
AcDbSymbolTableRecord
100
AcDbBlockTableRecord
2
*MODEL_SPACE
0
BLOCK_RECORD
5
1B
100
AcDbSymbolTableRecord
100
AcDbBlockTableRecord
2
*PAPER_SPACE
0
ENDTAB
0
ENDSEC
0
SECTION
2
BLOCKS
0
BLOCK
5
20
100
AcDbEntity
100
AcDbBlockBegin
2
*MODEL_SPACE
0
ENDBLK
5
21
100
AcDbEntity
100
AcDbBlockEnd
0
BLOCK
5
1C
100
AcDbEntity
100
AcDbBlockBegin
2
*PAPER_SPACE
0
ENDBLK
5
1D
100
AcDbEntity
100
AcDbBlockEnd
0
ENDSEC
0
SECTION
2
ENTITIES
0
LWPOLYLINE
5
100
100
AcDbEntity
8
0
100
AcDbPolyline
90
12
70
1
43
0.0
10
413.99999999613181
20
-15
10
413.99999999613181
20
2.2204460492503131e-15
10
551.99999999613181
20
2.2204460492503131e-15
10
551.99999999613181
20
-15
10
689.99999999613181
20
-15
10
689.99999999613181
20
145
10
-3.8681946534779854e-09
20
145
10
-3.8682657077515614e-09
20
-15
10
137.99999999613175
20
-15
10
137.99999999613175
20
2.2204460492503131e-15
10
275.99999999613181
20
2.2204460492503131e-15
10
275.99999999613181
20
-15
0
LINE
5
101
100
AcDbEntity
8
0
100
AcDbLine
10
106.00000000000001
20
-15
30
0
11
121.10000000000007
21
-15
31
0
0
LINE
5
102
100
AcDbEntity
8
0
100
AcDbLine
10
121.10000000000007
20
-15
30
0
11
121.10000000000001
21
141.79999999999998
31
0
0
LINE
5
103
100
AcDbEntity
8
0
100
AcDbLine
10
121.10000000000001
20
141.79999999999998
30
0
11
106.00000000000001
21
141.79999999999998
31
0
0
LINE
5
104
100
AcDbEntity
8
0
100
AcDbLine
10
106.00000000000001
20
141.79999999999998
30
0
11
106.00000000000001
21
-15
31
0
0
LINE
5
105
100
AcDbEntity
8
0
100
AcDbLine
10
337.44999999806595
20
-14.999999999999964
30
0
11
352.5499999980658
21
-15
31
0
0
LINE
5
106
100
AcDbEntity
8
0
100
AcDbLine
10
352.5499999980658
20
-15
30
0
11
352.54999999806591
21
141.80000000000001
31
0
0
LINE
5
107
100
AcDbEntity
8
0
100
AcDbLine
10
352.54999999806591
20
141.80000000000001
30
0
11
337.44999999806595
21
141.79999999999993
31
0
0
LINE
5
108
100
AcDbEntity
8
0
100
AcDbLine
10
337.44999999806595
20
141.79999999999993
30
0
11
337.44999999806595
21
-14.999999999999964
31
0
0
LINE
5
109
100
AcDbEntity
8
0
100
AcDbLine
10
568.89999999613178
20
-14.999999999999744
30
0
11
583.99999999613169
21
-15
31
0
0
LINE
5
110
100
AcDbEntity
8
0
100
AcDbLine
10
583.99999999613169
20
-15
30
0
11
583.99999999613169
21
141.80000000000001
31
0
0
LINE
5
111
100
AcDbEntity
8
0
100
AcDbLine
10
583.99999999613169
20
141.80000000000001
30
0
11
568.89999999613178
21
141.80000000000001
31
0
0
LINE
5
112
100
AcDbEntity
8
0
100
AcDbLine
10
568.89999999613178
20
141.80000000000001
30
0
11
568.89999999613178
21
-14.999999999999744
31
0
0
LINE
5
113
100
AcDbEntity
8
0
100
AcDbLine
10
121.10000000000002
20
113.66925517060254
30
0
11
337.44999999806595
21
113.66925517060204
31
0
0
LINE
5
114
100
AcDbEntity
8
0
100
AcDbLine
10
352.54999999806586
20
113.6692551706023
30
0
11
568.89999999613178
21
113.6692551706025
31
0
0
LWPOLYLINE
5
115
100
AcDbEntity
8
0
100
AcDbPolyline
90
4
70
1
43
0.0
10
-3.8682147346641741e-09
20
99.216666666666612
10
689.99999999613181
20
99.216666666666669
10
689.99999999613181
20
45.783333333333331
10
-3.8682315942735036e-09
20
45.783333333333324
0
LINE
5
116
100
AcDbEntity
8
0
100
AcDbLine
10
689.99999999613181
20
72.499999999999986
30
0
11
689.99999999613181
21
65
31
0
0
ENDSEC
0
SECTION
2
OBJECTS
0
DICTIONARY
5
C
100
AcDbDictionary
3
ACAD_GROUP
350
D
3
ACAD_MLINESTYLE
350
17
0
DICTIONARY
5
D
100
AcDbDictionary
0
DICTIONARY
5
1A
330
C
100
AcDbDictionary
0
DICTIONARY
5
17
100
AcDbDictionary
0
ENDSEC
0
EOF
