0
SECTION
2
HEADER
9
$INSUNITS
70
4
9
$ACADVER
1
AC1014
9
$HANDSEED
5
FFFF
0
ENDSEC
0
SECTION
2
TABLES
0
TABLE
2
VPORT
5
8
100
AcDbSymbolTable
0
ENDTAB
0
TABLE
2
LTYPE
5
5
100
AcDbSymbolTable
0
LTYPE
5
14
100
AcDbSymbolTableRecord
100
AcDbLinetypeTableRecord
2
BYBLOCK
70
0
0
LTYPE
5
15
100
AcDbSymbolTableRecord
100
AcDbLinetypeTableRecord
2
BYLAYER
70
0
0
ENDTAB
0
TABLE
2
LAYER
5
2
100
AcDbSymbolTable
70
2
0
LAYER
5
50
100
AcDbSymbolTableRecord
100
AcDbLayerTableRecord
2
0
70
0
6
CONTINUOUS
0
ENDTAB
0
TABLE
2
STYLE
5
3
100
AcDbSymbolTable
70
1
0
STYLE
5
11
100
AcDbSymbolTableRecord
100
AcDbTextStyleTableRecord
2
STANDARD
70
0
0
ENDTAB
0
TABLE
2
VIEW
5
6
100
AcDbSymbolTable
70
0
0
ENDTAB
0
TABLE
2
UCS
5
7
100
AcDbSymbolTable
70
0
0
ENDTAB
0
TABLE
2
APPID
5
9
100
AcDbSymbolTable
70
2
0
APPID
5
12
100
AcDbSymbolTableRecord
100
AcDbRegAppTableRecord
2
ACAD
70
0
0
ENDTAB
0
TABLE
2
DIMSTYLE
5
A
100
AcDbSymbolTable
70
1
0
ENDTAB
0
TABLE
2
BLOCK_RECORD
5
1
100
AcDbSymbolTable
70
1
0
BLOCK_RECORD
5
1F
100
AcDbSymbolTableRecord
100
AcDbBlockTableRecord
2
*MODEL_SPACE
0
BLOCK_RECORD
5
1B
100
AcDbSymbolTableRecord
100
AcDbBlockTableRecord
2
*PAPER_SPACE
0
ENDTAB
0
ENDSEC
0
SECTION
2
BLOCKS
0
BLOCK
5
20
100
AcDbEntity
100
AcDbBlockBegin
2
*MODEL_SPACE
0
ENDBLK
5
21
100
AcDbEntity
100
AcDbBlockEnd
0
BLOCK
5
1C
100
AcDbEntity
100
AcDbBlockBegin
2
*PAPER_SPACE
0
ENDBLK
5
1D
100
AcDbEntity
100
AcDbBlockEnd
0
ENDSEC
0
SECTION
2
ENTITIES
0
LINE
5
100
100
AcDbEntity
8
0
100
AcDbLine
10
628.99999017187508
20
-226.99478288886169
30
0
11
627.99999018750009
21
-204.99478442470456
31
0
0
LINE
5
101
100
AcDbEntity
8
0
100
AcDbLine
10
627.99999018750009
20
-204.99478442470456
30
0
11
626.99999020312509
21
-184.99478282985595
31
0
0
LINE
5
102
100
AcDbEntity
8
0
100
AcDbLine
10
626.99999020312509
20
-184.99478282985595
30
0
11
624.9999902343751
21
-174.99478298610595
31
0
0
LINE
5
103
100
AcDbEntity
8
0
100
AcDbLine
10
624.9999902343751
20
-174.99478298610595
30
0
11
624.9999902343751
21
-169.99478306423097
31
0
0
LINE
5
104
100
AcDbEntity
8
0
100
AcDbLine
10
624.9999902343751
20
-169.99478306423097
30
0
11
622.99999026562512
21
-169.99478306423097
31
0
0
SPLINE
5
105
100
AcDbEntity
8
0
100
AcDbSpline
70
4
71
3
72
8
73
4
74
0
42
0.000000001
43
0.0000000001
44
0.0000000001
40
0
40
0
40
0
40
0
40
1
40
1
40
1
40
1
41
1
41
1
41
1
41
1
10
622.99999026562512
20
-169.99478306423097
30
0
10
622.04259281964698
20
-169.96662296945613
30
0
10
620.99999029687513
20
-168.95219198555077
30
0
10
620.99999029687513
20
-167.99478309548095
30
0
0
SPLINE
5
106
100
AcDbEntity
8
0
100
AcDbSpline
70
4
71
3
72
8
73
4
74
0
42
0.000000001
43
0.0000000001
44
0.0000000001
40
0
40
0
40
0
40
0
40
1
40
1
40
1
40
1
41
1
41
1
41
1
41
1
10
620.99999029687513
20
-167.99478309548095
30
0
10
621.02818853862198
20
-166.95289392108663
30
0
10
622.04259281964698
20
-166.02294322150581
30
0
10
622.99999026562512
20
-165.99478312673097
30
0
0
LINE
5
107
100
AcDbEntity
8
0
100
AcDbLine
10
622.999990265625
20
-165.99478312673097
30
0
11
624.9999902343751
21
-165.99478312673097
31
0
0
LINE
5
108
100
AcDbEntity
8
0
100
AcDbLine
10
624.9999902343751
20
-165.99478312673097
30
0
11
624.9999902343751
21
-159.99478322048097
31
0
0
LINE
5
109
100
AcDbEntity
8
0
100
AcDbLine
10
624.9999902343751
20
-159.99478322048097
30
0
11
618.99999032812514
21
-157.99478325173095
31
0
0
LINE
5
110
100
AcDbEntity
8
0
100
AcDbLine
10
618.99999032812514
20
-157.99478325173095
30
0
11
618.99999032812514
21
-147.99477577858656
31
0
0
LINE
5
111
100
AcDbEntity
8
0
100
AcDbLine
10
618.99999032812514
20
-147.99477577858656
30
0
11
624.9999902343751
21
-145.99477580983654
31
0
0
LINE
5
112
100
AcDbEntity
8
0
100
AcDbLine
10
624.9999902343751
20
-145.99477580983654
30
0
11
624.9999902343751
21
-139.99477590358654
31
0
0
LINE
5
113
100
AcDbEntity
8
0
100
AcDbLine
10
624.9999902343751
20
-139.99477590358654
30
0
11
618.99999032812514
21
-139.99477590358654
31
0
0
LINE
5
114
100
AcDbEntity
8
0
100
AcDbLine
10
618.99999032812514
20
-139.99477590358654
30
0
11
618.99999032812514
21
-137.99477593483655
31
0
0
SPLINE
5
115
100
AcDbEntity
8
0
100
AcDbSpline
70
0
71
2
72
6
73
3
74
0
42
0.000000001
43
0.0000000001
44
0.0000000001
40
0
40
0
40
0
40
1
40
1
40
1
10
618.99999032812514
20
-137.99477593483655
30
0
10
620.99999029687513
20
-137.99477593483655
30
0
10
620.99999029687513
20
-134.99477598171154
30
0
0
SPLINE
5
116
100
AcDbEntity
8
0
100
AcDbSpline
70
0
71
2
72
6
73
3
74
0
42
0.000000001
43
0.0000000001
44
0.0000000001
40
0
40
0
40
0
40
1
40
1
40
1
10
620.99999029687513
20
-134.99477598171154
30
0
10
620.99999029687513
20
-131.99477602858653
30
0
10
618.99999032812514
20
-131.99477602858653
30
0
0
LINE
5
117
100
AcDbEntity
8
0
100
AcDbLine
10
618.99999032812514
20
-131.99477602858653
30
0
11
618.99999032812514
21
-129.99478368923096
31
0
0
SPLINE
5
118
100
AcDbEntity
8
0
100
AcDbSpline
70
0
71
2
72
6
73
3
74
0
42
0.000000001
43
0.0000000001
44
0.0000000001
40
0
40
0
40
0
40
1
40
1
40
1
10
618.99999032812514
20
-129.99478368923096
30
0
10
620.99999029687513
20
-129.99478368923096
30
0
10
620.99999029687513
20
-126.99477610671154
30
0
0
SPLINE
5
119
100
AcDbEntity
8
0
100
AcDbSpline
70
0
71
2
72
6
73
3
74
0
42
0.000000001
43
0.0000000001
44
0.0000000001
40
0
40
0
40
0
40
1
40
1
40
1
10
620.99999029687513
20
-126.99477610671154
30
0
10
620.99999029687513
20
-123.99477615358654
30
0
10
618.99999032812514
20
-123.99477615358654
30
0
0
LINE
5
120
100
AcDbEntity
8
0
100
AcDbLine
10
618.99999032812514
20
-123.99477615358654
30
0
11
618.99999032812514
21
-121.99477618483654
31
0
0
LINE
5
121
100
AcDbEntity
8
0
100
AcDbLine
10
618.99999032812514
20
-121.99477618483654
30
0
11
624.9999902343751
21
-121.99477618483654
31
0
0
LINE
5
122
100
AcDbEntity
8
0
100
AcDbLine
10
624.9999902343751
20
-121.99477618483654
30
0
11
623.99999025000011
21
-89.994784314230941
31
0
0
LINE
5
123
100
AcDbEntity
8
0
100
AcDbLine
10
623.99999025000011
20
-89.994784314230941
30
0
11
616.99999035937503
21
-89.994784314230941
31
0
0
LINE
5
124
100
AcDbEntity
8
0
100
AcDbLine
10
616.99999035937503
20
-89.994784314230941
30
0
11
616.99999035937503
21
-61.99478475173094
31
0
0
SPLINE
5
125
100
AcDbEntity
8
0
100
AcDbSpline
70
4
71
3
72
8
73
4
74
0
42
0.000000001
43
0.0000000001
44
0.0000000001
40
0
40
0
40
0
40
0
40
1
40
1
40
1
40
1
41
1
41
1
41
1
41
1
10
616.99999035937503
20
-61.994784751730947
30
0
10
616.99999035937503
20
-55.994784845480936
30
0
10
622.99999026562512
20
-47.994784970480957
30
0
10
629.99999015625008
20
-47.994784970480957
30
0
0
LINE
5
126
100
AcDbEntity
8
0
100
AcDbLine
10
629.99999015625008
20
-47.994784970480957
30
0
11
607.08666043614585
21
-47.994784970480957
31
0
0
LINE
5
127
100
AcDbEntity
8
0
100
AcDbLine
10
607.08666043614585
20
-47.994784970480957
30
0
11
607.08666043614585
21
-89.994784314230969
31
0
0
LINE
5
128
100
AcDbEntity
8
0
100
AcDbLine
10
607.08666043614585
20
-89.994784314230969
30
0
11
598.99999064062501
21
-93.994784251730948
31
0
0
LINE
5
129
100
AcDbEntity
8
0
100
AcDbLine
10
598.99999064062501
20
-93.994784251730948
30
0
11
607.18126492685519
21
-97.994784189230955
31
0
0
LINE
5
130
100
AcDbEntity
8
0
100
AcDbLine
10
607.18126492685519
20
-97.994784189230955
30
0
11
606.99999051562509
21
-144.99477582546152
31
0
0
LINE
5
131
100
AcDbEntity
8
0
100
AcDbLine
10
606.99999051562509
20
-144.99477582546152
30
0
11
594.99999070312504
21
-144.99477582546155
31
0
0
LINE
5
132
100
AcDbEntity
8
0
100
AcDbLine
10
594.99999070312504
20
-144.99477582546155
30
0
11
594.90410447415456
21
-159.99478322048094
31
0
0
LINE
5
133
100
AcDbEntity
8
0
100
AcDbLine
10
594.90410447415456
20
-159.99478322048094
30
0
11
586.99999082812508
21
-159.99478322048094
31
0
0
SPLINE
5
134
100
AcDbEntity
8
0
100
AcDbSpline
70
0
71
2
72
6
73
3
74
0
42
0.000000001
43
0.0000000001
44
0.0000000001
40
0
40
0
40
0
40
1
40
1
40
1
10
586.99999082812508
20
-159.99478322048094
30
0
10
586.99999082812508
20
-153.06763641709654
30
0
10
579.99999093750012
20
-154.99478329860597
30
0
0
LINE
5
135
100
AcDbEntity
8
0
100
AcDbLine
10
579.99999093750012
20
-154.99478329860597
30
0
11
579.99999093750012
21
-166.99478311110596
31
0
0
LINE
5
136
100
AcDbEntity
8
0
100
AcDbLine
10
579.99999093750012
20
-166.99478311110596
30
0
11
569.99999109375005
21
-166.99478311110596
31
0
0
LINE
5
137
100
AcDbEntity
8
0
100
AcDbLine
10
569.99999109375005
20
-166.99478311110596
30
0
11
569.99999109375017
21
-164.99478314235597
31
0
0
LINE
5
138
100
AcDbEntity
8
0
100
AcDbLine
10
569.99999109375017
20
-164.99478314235597
30
0
11
563.99999118750009
21
-164.99478314235597
31
0
0
LINE
5
139
100
AcDbEntity
8
0
100
AcDbLine
10
563.99999118750009
20
-164.99478314235597
30
0
11
563.99999118750009
21
-166.99478311110596
31
0
0
LINE
5
140
100
AcDbEntity
8
0
100
AcDbLine
10
563.99999118750009
20
-166.99478311110596
30
0
11
552.99999135937514
21
-166.99478311110596
31
0
0
LINE
5
141
100
AcDbEntity
8
0
100
AcDbLine
10
552.99999135937514
20
-166.99478311110596
30
0
11
552.99999135937514
21
-164.99478314235597
31
0
0
LINE
5
142
100
AcDbEntity
8
0
100
AcDbLine
10
552.99999135937514
20
-164.99478314235597
30
0
11
546.99999145312506
21
-164.99478314235597
31
0
0
LINE
5
143
100
AcDbEntity
8
0
100
AcDbLine
10
546.99999145312506
20
-164.99478314235597
30
0
11
546.99999145312506
21
-166.99478311110596
31
0
0
LINE
5
144
100
AcDbEntity
8
0
100
AcDbLine
10
546.99999145312506
20
-166.99478311110596
30
0
11
536.99999160937512
21
-166.99478311110596
31
0
0
LINE
5
145
100
AcDbEntity
8
0
100
AcDbLine
10
536.99999160937512
20
-166.99478311110596
30
0
11
536.99999160937512
21
-154.99478329860597
31
0
0
SPLINE
5
146
100
AcDbEntity
8
0
100
AcDbSpline
70
0
71
2
72
6
73
3
74
0
42
0.000000001
43
0.0000000001
44
0.0000000001
40
0
40
0
40
0
40
1
40
1
40
1
10
536.99999160937512
20
-154.99478329860597
30
0
10
529.92034084108832
20
-153.14522735826699
30
0
10
529.99999171875015
20
-159.99478322048094
30
0
0
LINE
5
147
100
AcDbEntity
8
0
100
AcDbLine
10
529.99999171875015
20
-159.99478322048094
30
0
11
521.99999184375008
21
-159.99478322048094
31
0
0
LINE
5
148
100
AcDbEntity
8
0
100
AcDbLine
10
521.99999184375008
20
-159.99478322048094
30
0
11
521.99101967592151
21
-145.2144260905842
31
0
0
LINE
5
149
100
AcDbEntity
8
0
100
AcDbLine
10
521.99101967592151
20
-145.2144260905842
30
0
11
509.99999203125009
21
-145.2144260905842
31
0
0
LINE
5
150
100
AcDbEntity
8
0
100
AcDbLine
10
509.99999203125009
20
-145.2144260905842
30
0
11
509.99999203125009
21
-97.994784189230941
31
0
0
LINE
5
151
100
AcDbEntity
8
0
100
AcDbLine
10
509.99999203125009
20
-97.994784189230941
30
0
11
517.9999919062501
21
-93.994784251730934
31
0
0
LINE
5
152
100
AcDbEntity
8
0
100
AcDbLine
10
517.9999919062501
20
-93.994784251730934
30
0
11
509.99999203125009
21
-89.994784314230941
31
0
0
LINE
5
153
100
AcDbEntity
8
0
100
AcDbLine
10
509.99999203125009
20
-89.994784314230941
30
0
11
509.99999203125009
21
-82.99478442360595
31
0
0
LINE
5
154
100
AcDbEntity
8
0
100
AcDbLine
10
509.99999203125009
20
-82.99478442360595
30
0
11
468.99999267187513
21
-82.99478442360595
31
0
0
LINE
5
155
100
AcDbEntity
8
0
100
AcDbLine
10
468.99999267187513
20
-82.99478442360595
30
0
11
468.99999267187513
21
-102.99478411110596
31
0
0
LINE
5
156
100
AcDbEntity
8
0
100
AcDbLine
10
468.99999267187513
20
-102.99478411110596
30
0
11
462.99999276562511
21
-102.99478411110596
31
0
0
LINE
5
157
100
AcDbEntity
8
0
100
AcDbLine
10
462.99999276562511
20
-102.99478411110596
30
0
11
462.99999276562511
21
-144.99477582546155
31
0
0
LINE
5
158
100
AcDbEntity
8
0
100
AcDbLine
10
462.99999276562511
20
-144.99477582546155
30
0
11
458.99999282812507
21
-159.99478322048094
31
0
0
LINE
5
159
100
AcDbEntity
8
0
100
AcDbLine
10
458.99999282812507
20
-159.99478322048094
30
0
11
455.99999287500009
21
-159.99478322048094
31
0
0
LINE
5
160
100
AcDbEntity
8
0
100
AcDbLine
10
455.99999287500009
20
-159.99478322048094
30
0
11
455.99999287500003
21
-169.99478306423097
31
0
0
LINE
5
161
100
AcDbEntity
8
0
100
AcDbLine
10
455.99999287500003
20
-169.99478306423097
30
0
11
453.99999290625004
21
-169.99478306423097
31
0
0
LINE
5
162
100
AcDbEntity
8
0
100
AcDbLine
10
453.99999290625004
20
-169.99478306423097
30
0
11
452.9999929218751
21
-187.99478278298096
31
0
0
SPLINE
5
163
100
AcDbEntity
8
0
100
AcDbSpline
70
0
71
2
72
6
73
3
74
0
42
0.000000001
43
0.0000000001
44
0.0000000001
40
0
40
0
40
0
40
1
40
1
40
1
10
452.9999929218751
20
-187.99478278298096
30
0
10
452.11504420523363
20
-192.53460815149933
30
0
10
450.99999295312506
20
-187.99478278298096
30
0
0
LINE
5
164
100
AcDbEntity
8
0
100
AcDbLine
10
450.99999295312506
20
-187.99478278298099
30
0
11
449.99999296875012
21
-169.99478306423097
31
0
0
LINE
5
165
100
AcDbEntity
8
0
100
AcDbLine
10
449.99999296875012
20
-169.99478306423097
30
0
11
447.99999300000002
21
-169.99478306423097
31
0
0
LINE
5
166
100
AcDbEntity
8
0
100
AcDbLine
10
447.99999300000002
20
-169.99478306423097
30
0
11
447.99999300000013
21
-159.99478322048097
31
0
0
LINE
5
167
100
AcDbEntity
8
0
100
AcDbLine
10
447.99999300000013
20
-159.99478322048097
30
0
11
444.99999304687515
21
-159.99478322048094
31
0
0
LINE
5
168
100
AcDbEntity
8
0
100
AcDbLine
10
444.99999304687515
20
-159.99478322048094
30
0
11
440.99999310937505
21
-144.99477582546152
31
0
0
LINE
5
169
100
AcDbEntity
8
0
100
AcDbLine
10
440.99999310937505
20
-144.99477582546152
30
0
11
440.99999310937505
21
-102.99478411110596
31
0
0
LINE
5
170
100
AcDbEntity
8
0
100
AcDbLine
10
440.99999310937505
20
-102.99478411110596
30
0
11
434.99999320312503
21
-102.99478411110596
31
0
0
LINE
5
171
100
AcDbEntity
8
0
100
AcDbLine
10
434.99999320312503
20
-102.99478411110596
30
0
11
434.99999320312503
21
-82.99478442360595
31
0
0
LINE
5
172
100
AcDbEntity
8
0
100
AcDbLine
10
434.99999320312503
20
-82.99478442360595
30
0
11
397.99999378125
21
-82.99478442360595
31
0
0
LINE
5
173
100
AcDbEntity
8
0
100
AcDbLine
10
397.99999378125
20
-82.99478442360595
30
0
11
397.99999378125005
21
-85.994784376730962
31
0
0
SPLINE
5
174
100
AcDbEntity
8
0
100
AcDbSpline
70
0
71
2
72
6
73
3
74
0
42
0.000000001
43
0.0000000001
44
0.0000000001
40
0
40
0
40
0
40
1
40
1
40
1
10
397.99999378125005
20
-85.994784376730962
30
0
10
395.99999381250007
20
-86.193301219332241
30
0
10
395.99999381250007
20
-89.994784314230941
30
0
0
LINE
5
175
100
AcDbEntity
8
0
100
AcDbLine
10
395.99999381250007
20
-89.994784314230941
30
0
11
394.99999382812513
21
-89.994784314230941
31
0
0
LINE
5
176
100
AcDbEntity
8
0
100
AcDbLine
10
394.99999382812513
20
-89.994784314230941
30
0
11
392.99999385937502
21
-109.99478400173095
31
0
0
SPLINE
5
177
100
AcDbEntity
8
0
100
AcDbSpline
70
0
71
2
72
6
73
3
74
0
42
0.000000001
43
0.0000000001
44
0.0000000001
40
0
40
0
40
0
40
1
40
1
40
1
10
392.99999385937502
20
-109.99478400173095
30
0
10
392.53759152285005
20
-112.30451449542656
30
0
10
391.99999387500009
20
-109.99478400173095
30
0
0
LINE
5
178
100
AcDbEntity
8
0
100
AcDbLine
10
391.99999387500009
20
-109.99478400173095
30
0
11
389.9999939062501
21
-89.994784314230941
31
0
0
LINE
5
179
100
AcDbEntity
8
0
100
AcDbLine
10
389.9999939062501
20
-89.994784314230941
30
0
11
388.9999939218751
21
-89.994784314230941
31
0
0
SPLINE
5
180
100
AcDbEntity
8
0
100
AcDbSpline
70
0
71
2
72
6
73
3
74
0
42
0.000000001
43
0.0000000001
44
0.0000000001
40
0
40
0
40
0
40
1
40
1
40
1
10
388.99999392187505
20
-89.994784314230941
30
0
10
388.91549074936728
20
-85.939867995753076
30
0
10
386.999993953125
20
-85.994784376730962
30
0
0
LINE
5
181
100
AcDbEntity
8
0
100
AcDbLine
10
386.99999395312511
20
-85.994784376730962
30
0
11
386.999993953125
21
-77.994784501730962
31
0
0
LINE
5
182
100
AcDbEntity
8
0
100
AcDbLine
10
386.999993953125
20
-77.994784501730962
30
0
11
385.99999396875006
21
-77.994784501730948
31
0
0
SPLINE
5
183
100
AcDbEntity
8
0
100
AcDbSpline
70
0
71
2
72
6
73
3
74
0
42
0.000000001
43
0.0000000001
44
0.0000000001
40
0
40
0
40
0
40
1
40
1
40
1
10
385.99999396875006
20
-77.994784501730948
30
0
10
384.99999398437501
20
-77.980380205081019
30
0
10
384.99999398437501
20
-76.994784517355939
30
0
0
LINE
5
184
100
AcDbEntity
8
0
100
AcDbLine
10
384.99999398437501
20
-76.994784517355939
30
0
11
384.99999398437501
21
-74.994784548605935
31
0
0
SPLINE
5
185
100
AcDbEntity
8
0
100
AcDbSpline
70
0
71
2
72
6
73
3
74
0
42
0.000000001
43
0.0000000001
44
0.0000000001
40
0
40
0
40
0
40
1
40
1
40
1
10
384.99999398437501
20
-74.994784548605949
30
0
10
385.05629891513593
20
-73.95289918890883
30
0
10
385.97710578551391
20
-73.994784564230955
30
0
0
LINE
5
186
100
AcDbEntity
8
0
100
AcDbLine
10
385.97710578551391
20
-73.994784564230955
30
0
11
386.999993953125
21
-73.994784564230955
31
0
0
LINE
5
187
100
AcDbEntity
8
0
100
AcDbLine
10
386.999993953125
20
-73.994784564230955
30
0
11
386.999993953125
21
-66.994784673605949
31
0
0
LINE
5
188
100
AcDbEntity
8
0
100
AcDbLine
10
386.999993953125
20
-66.994784673605949
30
0
11
385.99999396875006
21
-66.994784673605949
31
0
0
SPLINE
5
189
100
AcDbEntity
8
0
100
AcDbSpline
70
0
71
2
72
6
73
3
74
0
42
0.000000001
43
0.0000000001
44
0.0000000001
40
0
40
0
40
0
40
1
40
1
40
1
10
385.99999396875006
20
-66.994784673605949
30
0
10
385.0281617085443
20
-66.980380376955992
30
0
10
384.99999398437501
20
-65.994784689230954
30
0
0
LINE
5
190
100
AcDbEntity
8
0
100
AcDbLine
10
384.99999398437495
20
-65.994784689230954
30
0
11
384.99999398437501
21
-62.994784736105956
31
0
0
SPLINE
5
191
100
AcDbEntity
8
0
100
AcDbSpline
70
0
71
2
72
6
73
3
74
0
42
0.000000001
43
0.0000000001
44
0.0000000001
40
0
40
0
40
0
40
1
40
1
40
1
10
384.99999398437501
20
-62.994784736105949
30
0
10
385.02819222612197
20
-62.009219565958524
30
0
10
385.92080085475311
20
-61.994784751730947
30
0
0
LINE
5
192
100
AcDbEntity
8
0
100
AcDbLine
10
385.92080085475311
20
-61.994784751730954
30
0
11
386.99999395312511
21
-61.994784751730947
31
0
0
LINE
5
193
100
AcDbEntity
8
0
100
AcDbLine
10
386.99999395312511
20
-61.994784751730947
30
0
11
386.999993953125
21
-55.079883126377851
31
0
0
LINE
5
194
100
AcDbEntity
8
0
100
AcDbLine
10
386.999993953125
20
-55.079883126377851
30
0
11
374.99987207031444
21
-54.994784861105956
31
0
0
LINE
5
195
100
AcDbEntity
8
0
100
AcDbLine
10
374.99987207031444
20
-54.994784861105956
30
0
11
374.99999414062506
21
-104.99466200954535
31
0
0
LINE
5
196
100
AcDbEntity
8
0
100
AcDbLine
10
374.99999414062506
20
-104.99466200954535
30
0
11
374.99999414062506
21
-114.99478392360594
31
0
0
LINE
5
197
100
AcDbEntity
8
0
100
AcDbLine
10
374.99999414062506
20
-114.99478392360594
30
0
11
373.99999415625012
21
-154.99478329860597
31
0
0
LINE
5
198
100
AcDbEntity
8
0
100
AcDbLine
10
373.99999415625012
20
-154.99478329860597
30
0
11
374.99993310546978
21
-164.80555127275412
31
0
0
SPLINE
5
199
100
AcDbEntity
8
0
100
AcDbSpline
70
0
71
2
72
6
73
3
74
0
42
0.000000001
43
0.0000000001
44
0.0000000001
40
0
40
0
40
0
40
1
40
1
40
1
10
374.99993310546978
20
-164.80555127275412
30
0
10
375.01253686503844
20
-172.30485306597791
30
0
10
370.00023835937122
20
-172.41748963038006
30
0
0
LINE
5
200
100
AcDbEntity
8
0
100
AcDbLine
10
370.00023835937111
20
-172.41748963038006
30
0
11
365.99996376367238
21
-172.99523315162628
31
0
0
LINE
5
201
100
AcDbEntity
8
0
100
AcDbLine
10
365.99996376367238
20
-172.99523315162628
30
0
11
365.25582315029965
21
-179.9948057961642
31
0
0
SPLINE
5
202
100
AcDbEntity
8
0
100
AcDbSpline
70
0
71
2
72
6
73
3
74
0
42
0.000000001
43
0.0000000001
44
0.0000000001
40
0
40
0
40
0
40
1
40
1
40
1
10
365.25582315029959
20
-179.9948057961642
30
0
10
365.16213418691973
20
-180.20932147884753
30
0
10
365.03154947216325
20
-180.23613498550867
30
0
0
SPLINE
5
203
100
AcDbEntity
8
0
100
AcDbSpline
70
4
71
3
72
8
73
4
74
0
42
0.000000001
43
0.0000000001
44
0.0000000001
40
0
40
0
40
0
40
0
40
1
40
1
40
1
40
1
41
1
41
1
41
1
41
1
10
365.03154947216325
20
-180.23613498550867
30
0
10
364.95324136791805
20
-180.25222537832366
30
0
10
364.86193277559482
20
-180.20071552195077
30
0
10
364.76955606805376
20
-179.9948057961642
30
0
0
LINE
5
204
100
AcDbEntity
8
0
100
AcDbLine
10
364.76955606805376
20
-179.99480579616426
30
0
11
364.00008586523302
21
-172.99523315162628
31
0
0
LINE
5
205
100
AcDbEntity
8
0
100
AcDbLine
10
364.00008586523302
20
-172.99523315162628
30
0
11
360.00033006835417
21
-172.44539795513933
31
0
0
SPLINE
5
206
100
AcDbEntity
8
0
100
AcDbSpline
70
0
71
2
72
6
73
3
74
0
42
0.000000001
43
0.0000000001
44
0.0000000001
40
0
40
0
40
0
40
1
40
1
40
1
10
360.00033006835417
20
-172.4453979551393
30
0
10
354.98800104510934
20
-172.4453979551393
30
0
10
355.00011652343568
20
-164.99521038844304
30
0
0
SPLINE
5
207
100
AcDbEntity
8
0
100
AcDbSpline
70
4
71
3
72
8
73
4
74
0
42
0.000000001
43
0.0000000001
44
0.0000000001
40
0
40
0
40
0
40
0
40
1
40
1
40
1
40
1
41
1
41
1
41
1
41
1
10
355.00011652343568
20
-164.99521038844304
30
0
10
354.9567205280199
20
-160.98392657660764
30
0
10
356.01476494508177
20
-158.95864279477613
30
0
10
356.00005547265533
20
-154.99478329860597
30
0
0
SPLINE
5
208
100
AcDbEntity
8
0
100
AcDbSpline
70
4
71
3
72
8
73
4
74
0
42
0.000000001
43
0.0000000001
44
0.0000000001
40
0
40
0
40
0
40
0
40
1
40
1
40
1
40
1
41
1
41
1
41
1
41
1
10
356.00005547265533
20
-154.99478329860597
30
0
10
355.9537603073631
20
-142.51163682617465
30
0
10
355.09240167824368
20
-127.2660697426093
30
0
10
354.99999445312505
20
-114.99478392360595
30
0
0
SPLINE
5
209
100
AcDbEntity
8
0
100
AcDbSpline
70
4
71
3
72
8
73
4
74
0
42
0.000000001
43
0.0000000001
44
0.0000000001
40
0
40
0
40
0
40
0
40
1
40
1
40
1
40
1
41
1
41
1
41
1
41
1
10
354.99999445312505
20
-114.99478392360595
30
0
10
354.9666082231779
20
-109.6615244244186
30
0
10
355.00002497070273
20
-110.32800543207124
30
0
10
355.00002497070273
20
-104.99466200954535
30
0
0
LINE
5
210
100
AcDbEntity
8
0
100
AcDbLine
10
355.00002497070273
20
-104.99466200954535
30
0
11
335.00020838866863
21
-104.99466200954535
31
0
0
LINE
5
211
100
AcDbEntity
8
0
100
AcDbLine
10
335.00020838866863
20
-104.99466200954535
30
0
11
335.00020838866863
21
-114.99456267116798
31
0
0
LINE
5
212
100
AcDbEntity
8
0
100
AcDbLine
10
335.00020838866863
20
-114.99456267116798
30
0
11
333.99975064062886
21
-154.99470700466185
31
0
0
LINE
5
213
100
AcDbEntity
8
0
100
AcDbLine
10
333.99975064062886
20
-154.99470700466185
30
0
11
335.00020838866863
21
-164.80547497880997
31
0
0
SPLINE
5
214
100
AcDbEntity
8
0
100
AcDbSpline
70
0
71
2
72
6
73
3
74
0
42
0.000000001
43
0.0000000001
44
0.0000000001
40
0
40
0
40
0
40
1
40
1
40
1
10
335.00020838866863
20
-164.80547497880997
30
0
10
335.01229334941729
20
-172.30477677203379
30
0
10
329.99999484375002
20
-172.41741333643597
30
0
0
LINE
5
215
100
AcDbEntity
8
0
100
AcDbLine
10
329.99999484374996
20
-172.41741333643597
30
0
11
326.00023904687123
21
-172.99463805886211
31
0
0
LINE
5
216
100
AcDbEntity
8
0
100
AcDbLine
10
326.00023904687123
20
-172.99463805886211
30
0
11
325.25609843349844
21
-179.99472568752284
31
0
0
SPLINE
5
217
100
AcDbEntity
8
0
100
AcDbSpline
70
0
71
2
72
6
73
3
74
0
42
0.000000001
43
0.0000000001
44
0.0000000001
40
0
40
0
40
0
40
1
40
1
40
1
10
325.25609843349844
20
-179.99472568752287
30
0
10
325.01568095678624
20
-180.54382846214625
30
0
10
324.76931255243255
20
-179.99472568752287
30
0
0
LINE
5
218
100
AcDbEntity
8
0
100
AcDbLine
10
324.76931255243255
20
-179.99472568752287
30
0
11
323.99984234961181
21
-172.99463805886217
31
0
0
LINE
5
219
100
AcDbEntity
8
0
100
AcDbLine
10
323.99984234961181
20
-172.99463805886217
30
0
11
320.00008655273297
21
-172.44531784649797
31
0
0
SPLINE
5
220
100
AcDbEntity
8
0
100
AcDbSpline
70
0
71
2
72
6
73
3
74
0
42
0.000000001
43
0.0000000001
44
0.0000000001
40
0
40
0
40
0
40
1
40
1
40
1
10
320.00008655273297
20
-172.44531784649803
30
0
10
314.98775752948814
20
-172.44531784649803
30
0
10
314.99987300781447
20
-164.99460766628448
30
0
0
SPLINE
5
221
100
AcDbEntity
8
0
100
AcDbSpline
70
4
71
3
72
8
73
4
74
0
42
0.000000001
43
0.0000000001
44
0.0000000001
40
0
40
0
40
0
40
0
40
1
40
1
40
1
40
1
41
1
41
1
41
1
41
1
10
314.99987300781447
20
-164.99460766628448
30
0
10
314.95647701239875
20
-160.98331622505466
30
0
10
316.01452142946061
20
-158.95855887143759
30
0
10
315.99981195703418
20
-154.99469937526743
30
0
0
SPLINE
5
222
100
AcDbEntity
8
0
100
AcDbSpline
70
4
71
3
72
8
73
4
74
0
42
0.000000001
43
0.0000000001
44
0.0000000001
40
0
40
0
40
0
40
0
40
1
40
1
40
1
40
1
41
1
41
1
41
1
41
1
10
315.99981195703418
20
-154.99469937526743
30
0
10
315.94970209453589
20
-141.49438678103402
30
0
10
314.95418819407513
20
-128.27230294221894
30
0
10
314.99987300781447
20
-114.99455504177359
30
0
0
SPLINE
5
223
100
AcDbEntity
8
0
100
AcDbSpline
70
4
71
3
72
8
73
4
74
0
42
0.000000001
43
0.0000000001
44
0.0000000001
40
0
40
0
40
0
40
0
40
1
40
1
40
1
40
1
41
1
41
1
41
1
41
1
10
314.99987300781447
20
-114.99455504177359
30
0
10
315.06798824112514
20
-95.190737602184811
30
0
10
315.07696040895371
20
-75.372180172591939
30
0
10
314.99987300781447
20
-54.994601755640069
30
0
0
LINE
5
224
100
AcDbEntity
8
0
100
AcDbLine
10
314.99987300781441
20
-54.994601755640069
30
0
11
304.99996471679742
21
-54.994601755640069
31
0
0
LINE
5
225
100
AcDbEntity
8
0
100
AcDbLine
10
304.99996471679742
20
-54.994601755640069
30
0
11
304.99996471679742
21
-89.994540173609778
31
0
0
SPLINE
5
226
100
AcDbEntity
8
0
100
AcDbSpline
70
4
71
3
72
8
73
4
74
0
42
0.000000001
43
0.0000000001
44
0.0000000001
40
0
40
0
40
0
40
0
40
1
40
1
40
1
40
1
41
1
41
1
41
1
41
1
10
304.99996471679742
20
-89.994540173609764
30
0
10
303.70589735420469
20
-91.70546238808754
30
0
10
304.99975109375384
20
-92.99501314918831
30
0
10
299.94756611410048
20
-95.003023982070957
30
0
0
LINE
5
227
100
AcDbEntity
8
0
100
AcDbLine
10
299.94756611410054
20
-95.003023982070943
30
0
11
299.99975117187887
21
-94.995028376727134
31
0
0
SPLINE
5
228
100
AcDbEntity
8
0
100
AcDbSpline
70
0
71
2
72
6
73
3
74
0
42
0.000000001
43
0.0000000001
44
0.0000000001
40
0
40
0
40
0
40
1
40
1
40
1
10
299.99975117187887
20
-94.995028376727134
30
0
10
301.27407366173321
20
-97.486391863190192
30
0
10
299.99975117187887
20
-99.995241921645686
30
0
0
SPLINE
5
229
100
AcDbEntity
8
0
100
AcDbSpline
70
0
71
2
72
6
73
3
74
0
42
0.000000001
43
0.0000000001
44
0.0000000001
40
0
40
0
40
0
40
1
40
1
40
1
10
299.99975117187887
20
-99.995241921645686
30
0
10
298.99993429296973
20
-100.99518087086537
30
0
10
296.99993432421979
20
-100.99518087086537
30
0
0
SPLINE
5
230
100
AcDbEntity
8
0
100
AcDbSpline
70
4
71
3
72
8
73
4
74
0
42
0.000000001
43
0.0000000001
44
0.0000000001
40
0
40
0
40
0
40
0
40
1
40
1
40
1
40
1
41
1
41
1
41
1
41
1
10
296.99993432421979
20
-100.99518087086537
30
0
10
296.58520044398119
20
-100.99518087086537
30
0
10
295.94350733877332
20
-108.30200448716499
30
0
10
294.99953762696032
20
-109.99515021266274
30
0
0
SPLINE
5
231
100
AcDbEntity
8
0
100
AcDbSpline
70
4
71
3
72
8
73
4
74
0
42
0.000000001
43
0.0000000001
44
0.0000000001
40
0
40
0
40
0
40
0
40
1
40
1
40
1
40
1
41
1
41
1
41
1
41
1
10
294.99953762696032
20
-109.99515021266274
30
0
10
294.31243436621196
20
-111.22754918022289
30
0
10
293.62133330279164
20
-111.19426976179759
30
0
10
292.9996597285209
20
-109.99515021266274
30
0
0
SPLINE
5
232
100
AcDbEntity
8
0
100
AcDbSpline
70
4
71
3
72
8
73
4
74
0
42
0.000000001
43
0.0000000001
44
0.0000000001
40
0
40
0
40
0
40
0
40
1
40
1
40
1
40
1
41
1
41
1
41
1
41
1
10
292.9996597285209
20
-109.99515021266274
30
0
10
292.71847076807074
20
-109.45277656391076
30
0
10
291.52770540581707
20
-101.01678731584028
30
0
10
290.99978183008153
20
-100.99518087086537
30
0
0
SPLINE
5
233
100
AcDbEntity
8
0
100
AcDbSpline
70
0
71
2
72
6
73
3
74
0
42
0.000000001
43
0.0000000001
44
0.0000000001
40
0
40
0
40
0
40
1
40
1
40
1
10
290.99978183008153
20
-100.99518087086537
30
0
10
288.44799353987509
20
-100.8909633431969
30
0
10
287.9999649824224
20
-99.995241921645686
30
0
0
SPLINE
5
234
100
AcDbEntity
8
0
100
AcDbSpline
70
4
71
3
72
8
73
4
74
0
42
0.000000001
43
0.0000000001
44
0.0000000001
40
0
40
0
40
0
40
0
40
1
40
1
40
1
40
1
41
1
41
1
41
1
41
1
10
287.9999649824224
20
-99.995241921645686
30
0
10
287.10402993782765
20
-98.244097539827621
30
0
10
287.96386268806464
20
-95.268496390032311
30
0
10
287.9999649824224
20
-94.995028376727134
30
0
0
SPLINE
5
235
100
AcDbEntity
8
0
100
AcDbSpline
70
4
71
3
72
8
73
4
74
0
42
0.000000001
43
0.0000000001
44
0.0000000001
40
0
40
0
40
0
40
0
40
1
40
1
40
1
40
1
41
1
41
1
41
1
41
1
10
287.9999649824224
20
-94.995028376727134
30
0
10
286.9999649980474
20
-94.995028376727134
30
0
10
279.99996510742238
20
-94.995074153093597
30
0
10
279.99993458984471
20
-99.995241921645686
30
0
0
LINE
5
236
100
AcDbEntity
8
0
100
AcDbLine
10
279.99993458984471
20
-99.995241921645686
30
0
11
279.99993458984471
21
-129.99468450710361
31
0
0
LINE
5
237
100
AcDbEntity
8
0
100
AcDbLine
10
279.99993458984471
20
-129.99468450710361
30
0
11
274.99972104492622
21
-130.03449468714561
31
0
0
SPLINE
5
238
100
AcDbEntity
8
0
100
AcDbSpline
70
0
71
2
72
6
73
3
74
0
42
0.000000001
43
0.0000000001
44
0.0000000001
40
0
40
0
40
0
40
1
40
1
40
1
10
274.99972104492622
20
-130.03449468714561
30
0
10
273.04839661252504
20
-130.03449468714561
30
0
10
272.9998431464868
20
-134.99491331081094
30
0
0
LINE
5
239
100
AcDbEntity
8
0
100
AcDbLine
10
272.9998431464868
20
-134.99491331081094
30
0
11
272.9998431464868
21
-144.99482160182799
31
0
0
SPLINE
5
240
100
AcDbEntity
8
0
100
AcDbSpline
70
0
71
2
72
6
73
3
74
0
42
0.000000001
43
0.0000000001
44
0.0000000001
40
0
40
0
40
0
40
1
40
1
40
1
10
272.9998431464868
20
-144.99482160182799
30
0
10
270.95687442840818
20
-147.96647072531786
30
0
10
268.0001484003883
20
-147.99463082009271
30
0
0
LINE
5
241
100
AcDbEntity
8
0
100
AcDbLine
10
268.0001484003883
20
-147.99463082009271
30
0
11
268.0001484003883
21
-158.99498160036069
31
0
0
SPLINE
5
242
100
AcDbEntity
8
0
100
AcDbSpline
70
4
71
3
72
8
73
4
74
0
42
0.000000001
43
0.0000000001
44
0.0000000001
40
0
40
0
40
0
40
0
40
1
40
1
40
1
40
1
41
1
41
1
41
1
41
1
10
268.0001484003883
20
-158.99498160036069
30
0
10
264.63680616778424
20
-165.76388713424495
30
0
10
265.30422559094961
20
-165.55875560668841
30
0
10
261.99999590625004
20
-158.99498160036069
30
0
0
LINE
5
243
100
AcDbEntity
8
0
100
AcDbLine
10
261.99999590625009
20
-158.99498160036063
30
0
11
261.99999590625004
21
-147.99461556130387
31
0
0
SPLINE
5
244
100
AcDbEntity
8
0
100
AcDbSpline
70
0
71
2
72
6
73
3
74
0
42
0.000000001
43
0.0000000001
44
0.0000000001
40
0
40
0
40
0
40
1
40
1
40
1
10
261.99999590625004
20
-147.99461556130387
30
0
10
259.01513267163853
20
-147.966417319557
30
0
10
256.99978236133154
20
-144.99480634303919
30
0
0
LINE
5
245
100
AcDbEntity
8
0
100
AcDbLine
10
256.99978236133154
20
-144.99480634303919
30
0
11
256.99978236133154
21
-134.99489805202214
31
0
0
SPLINE
5
246
100
AcDbEntity
8
0
100
AcDbSpline
70
0
71
2
72
6
73
3
74
0
42
0.000000001
43
0.0000000001
44
0.0000000001
40
0
40
0
40
0
40
1
40
1
40
1
10
256.99978236133154
20
-134.99489805202214
30
0
10
257.03087977295502
20
-129.99468450710361
30
0
10
254.99990446289212
20
-129.99468450710361
30
0
0
LINE
5
247
100
AcDbEntity
8
0
100
AcDbLine
10
254.99990446289215
20
-129.99468450710361
30
0
11
250.00020971679359
21
-129.99468450710361
31
0
0
SPLINE
5
248
100
AcDbEntity
8
0
100
AcDbSpline
70
4
71
3
72
8
73
4
74
0
42
0.000000001
43
0.0000000001
44
0.0000000001
40
0
40
0
40
0
40
0
40
1
40
1
40
1
40
1
41
1
41
1
41
1
41
1
10
250.00020971679359
20
-129.99468450710361
30
0
10
249.99421301278571
20
-127.49036630892888
30
0
10
250.00020971679359
20
-111.08701573515312
30
0
10
250.00020971679359
20
-99.994967263446853
30
0
0
SPLINE
5
249
100
AcDbEntity
8
0
100
AcDbSpline
70
4
71
3
72
8
73
4
74
0
42
0.000000001
43
0.0000000001
44
0.0000000001
40
0
40
0
40
0
40
0
40
1
40
1
40
1
40
1
41
1
41
1
41
1
41
1
10
250.00020971679359
20
-99.994967263446853
30
0
10
250.00020971679359
20
-94.994982600360657
30
0
10
243.00016404980209
20
-94.994753718528301
30
0
10
242.00019458300474
20
-94.994753718528301
30
0
0
SPLINE
5
250
100
AcDbEntity
8
0
100
AcDbSpline
70
0
71
2
72
6
73
3
74
0
42
0.000000001
43
0.0000000001
44
0.0000000001
40
0
40
0
40
0
40
1
40
1
40
1
10
242.00019458300474
20
-94.994753718528301
30
0
10
243.27451707285911
20
-97.486132463780194
30
0
10
242.00019458300474
20
-99.994967263446853
30
0
0
SPLINE
5
251
100
AcDbEntity
8
0
100
AcDbSpline
70
0
71
2
72
6
73
3
74
0
42
0.000000001
43
0.0000000001
44
0.0000000001
40
0
40
0
40
0
40
1
40
1
40
1
10
242.00019458300474
20
-99.994967263446853
30
0
10
240.99985890527563
20
-100.99490621266654
30
0
10
238.99985893652564
20
-100.99490621266654
30
0
0
SPLINE
5
252
100
AcDbEntity
8
0
100
AcDbSpline
70
4
71
3
72
8
73
4
74
0
42
0.000000001
43
0.0000000001
44
0.0000000001
40
0
40
0
40
0
40
0
40
1
40
1
40
1
40
1
41
1
41
1
41
1
41
1
10
238.99985893652564
20
-100.99490621266654
30
0
10
238.5851250562871
20
-100.99490621266654
30
0
10
237.94396600868799
20
-108.30171457017734
30
0
10
236.99998103808622
20
-109.9948755544639
30
0
0
SPLINE
5
253
100
AcDbEntity
8
0
100
AcDbSpline
70
4
71
3
72
8
73
4
74
0
42
0.000000001
43
0.0000000001
44
0.0000000001
40
0
40
0
40
0
40
0
40
1
40
1
40
1
40
1
41
1
41
1
41
1
41
1
10
236.99998103808622
20
-109.9948755544639
30
0
10
236.3128777773378
20
-111.22727452202406
30
0
10
235.62179197270635
20
-111.19399510359875
30
0
10
235.00011839843563
20
-109.9948755544639
30
0
0
SPLINE
5
254
100
AcDbEntity
8
0
100
AcDbSpline
70
4
71
3
72
8
73
4
74
0
42
0.000000001
43
0.0000000001
44
0.0000000001
40
0
40
0
40
0
40
0
40
1
40
1
40
1
40
1
41
1
41
1
41
1
41
1
10
235.00011839843563
20
-109.9948755544639
30
0
10
234.71892943798548
20
-109.45250190571193
30
0
10
233.52817933452062
20
-101.01651265764144
30
0
10
233.00024049999621
20
-100.99490621266654
30
0
0
SPLINE
5
255
100
AcDbEntity
8
0
100
AcDbSpline
70
0
71
2
72
6
73
3
74
0
42
0.000000001
43
0.0000000001
44
0.0000000001
40
0
40
0
40
0
40
1
40
1
40
1
10
233.00024049999621
20
-100.99490621266654
30
0
10
230.44843695100096
20
-100.89068868499807
30
0
10
229.99990485351708
20
-99.994967263446853
30
0
0
SPLINE
5
256
100
AcDbEntity
8
0
100
AcDbSpline
70
0
71
2
72
6
73
3
74
0
42
0.000000001
43
0.0000000001
44
0.0000000001
40
0
40
0
40
0
40
1
40
1
40
1
10
229.99990485351708
20
-99.994967263446853
30
0
10
228.76092171857934
20
-97.573305924332175
30
0
10
229.99990485351708
20
-94.994753718528301
30
0
0
SPLINE
5
257
100
AcDbEntity
8
0
100
AcDbSpline
70
0
71
2
72
6
73
3
74
0
42
0.000000001
43
0.0000000001
44
0.0000000001
40
0
40
0
40
0
40
1
40
1
40
1
10
229.99990485351708
20
-94.994753718528301
30
0
10
225.04392653739956
20
-92.939135464514521
30
0
10
225.00021010741858
20
-89.994540173609764
30
0
0
SPLINE
5
258
100
AcDbEntity
8
0
100
AcDbSpline
70
4
71
3
72
8
73
4
74
0
42
0.000000001
43
0.0000000001
44
0.0000000001
40
0
40
0
40
0
40
0
40
1
40
1
40
1
40
1
41
1
41
1
41
1
41
1
10
225.00021010741858
20
-89.994540173609764
30
0
10
225.04771071702794
20
-78.853884830104377
30
0
10
225.22533827772907
20
-67.711947748337764
30
0
10
225.00021010741858
20
-56.572299484894764
30
0
0
LINE
5
259
100
AcDbEntity
8
0
100
AcDbLine
10
225.00021010741858
20
-56.572299484894764
30
0
11
217.90400355325772
21
-56.572299484894764
31
0
0
LINE
5
260
100
AcDbEntity
8
0
100
AcDbLine
10
217.90400355325772
20
-56.572299484894764
30
0
11
217.0001797148409
21
-207.99457456948323
31
0
0
SPLINE
5
261
100
AcDbEntity
8
0
100
AcDbSpline
70
0
71
2
72
6
73
3
74
0
42
0.000000001
43
0.0000000001
44
0.0000000001
40
0
40
0
40
0
40
1
40
1
40
1
10
217.0001797148409
20
-207.99457456948323
30
0
10
217.03997463609412
20
-209.94590281658162
30
0
10
214.99978301758148
20
-209.99445246792263
30
0
0
LINE
5
262
100
AcDbEntity
8
0
100
AcDbLine
10
214.99978301758148
20
-209.99445246792263
30
0
11
171.99981420703412
21
-209.99185275177672
31
0
0
SPLINE
5
263
100
AcDbEntity
8
0
100
AcDbSpline
70
0
71
2
72
6
73
3
74
0
42
0.000000001
43
0.0000000001
44
0.0000000001
40
0
40
0
40
0
40
1
40
1
40
1
10
171.99981420703412
20
-209.99185275177672
30
0
10
169.96011086976387
20
-210.02553271340869
30
0
10
169.99993630859473
20
-207.99455740334579
30
0
0
LINE
5
264
100
AcDbEntity
8
0
100
AcDbLine
10
169.99993630859473
20
-207.99455740334582
30
0
11
169.94563027916982
21
-61.994677940209151
31
0
0
LINE
5
265
100
AcDbEntity
8
0
100
AcDbLine
10
169.94563027916982
20
-61.994677940209151
30
0
11
162.94553883581187
21
-61.994677940209186
31
0
0
LINE
5
266
100
AcDbEntity
8
0
100
AcDbLine
10
162.94553883581187
20
-61.994677940209186
30
0
11
162.99984486523675
21
-105.99457807058184
31
0
0
LINE
5
267
100
AcDbEntity
8
0
100
AcDbLine
10
162.99984486523675
20
-105.99457807058184
30
0
11
158.00015011913825
21
-105.99457807058184
31
0
0
LINE
5
268
100
AcDbEntity
8
0
100
AcDbLine
10
158.00015011913825
20
-105.99457807058184
30
0
11
158.00015011913825
21
-109.99484503688626
31
0
0
LINE
5
269
100
AcDbEntity
8
0
100
AcDbLine
10
158.00015011913825
20
-109.99484503688626
30
0
11
152.99993657421973
21
-109.99484503688623
31
0
0
LINE
5
270
100
AcDbEntity
8
0
100
AcDbLine
10
152.99993657421973
20
-109.99484503688623
30
0
11
152.99993657421973
21
-106.21161145342114
31
0
0
LINE
5
271
100
AcDbEntity
8
0
100
AcDbLine
10
152.99993657421973
20
-106.21161145342114
30
0
11
147.07833632494786
21
-106.21161145342114
31
0
0
LINE
5
272
100
AcDbEntity
8
0
100
AcDbLine
10
147.07833632494786
20
-106.21161145342114
30
0
11
146.99973830371502
21
-152.99479858864478
31
0
0
LINE
5
273
100
AcDbEntity
8
0
100
AcDbLine
10
146.99973830371502
20
-152.99479858864478
30
0
11
137.99978422070649
21
-152.99479858864478
31
0
0
LINE
5
274
100
AcDbEntity
8
0
100
AcDbLine
10
137.99978422070649
20
-152.99479858864478
30
0
11
137.99978422070649
21
-147.99459267312065
31
0
0
LINE
5
275
100
AcDbEntity
8
0
100
AcDbLine
10
137.99978422070649
20
-147.99459267312065
30
0
11
125.0001201171856
21
-147.99459267312065
31
0
0
LINE
5
276
100
AcDbEntity
8
0
100
AcDbLine
10
125.0001201171856
20
-147.99459267312065
30
0
11
125.00012011718562
21
-159.99492054958037
31
0
0
LINE
5
277
100
AcDbEntity
8
0
100
AcDbLine
10
125.00012011718562
20
-159.99492054958037
30
0
11
112.99982275830357
21
-159.99492054958037
31
0
0
LINE
5
278
100
AcDbEntity
8
0
100
AcDbLine
10
112.99982275830357
20
-159.99492054958037
30
0
11
112.91351904871453
21
-43.994754515403272
31
0
0
LINE
5
279
100
AcDbEntity
8
0
100
AcDbLine
10
112.91351904871453
20
-43.994754515403272
30
0
11
106.0002501137656
21
-43.994754515403294
31
0
0
LINE
5
280
100
AcDbEntity
8
0
100
AcDbLine
10
106.0002501137656
20
-43.994754515403294
30
0
11
106.0002501137656
21
-54.994601755640048
31
0
0
LINE
5
281
100
AcDbEntity
8
0
100
AcDbLine
10
106.0002501137656
20
-54.994601755640048
30
0
11
101.99998314746118
21
-54.994601755640069
31
0
0
LINE
5
282
100
AcDbEntity
8
0
100
AcDbLine
10
101.99998314746118
20
-54.994601755640069
30
0
11
101.99998314746119
21
-75.994876085713912
31
0
0
LINE
5
283
100
AcDbEntity
8
0
100
AcDbLine
10
101.99998314746119
20
-75.994876085713912
30
0
11
101.99998314746119
21
-81.995028579852118
31
0
0
LINE
5
284
100
AcDbEntity
8
0
100
AcDbLine
10
101.99998314746119
20
-81.995028579852118
30
0
11
99.000166299802089
21
-99.994952004658003
31
0
0
LINE
5
285
100
AcDbEntity
8
0
100
AcDbLine
10
99.000166299802089
20
-99.994952004658003
30
0
11
95.999830653322945
21
-81.995028579852146
31
0
0
LINE
5
286
100
AcDbEntity
8
0
100
AcDbLine
10
95.999830653322945
20
-81.995028579852146
30
0
11
95.999830653322945
21
-76.07393187061146
31
0
0
LINE
5
287
100
AcDbEntity
8
0
100
AcDbLine
10
95.999830653322945
20
-76.07393187061146
30
0
11
89.96660473440852
21
-76.07393187061146
31
0
0
LINE
5
288
100
AcDbEntity
8
0
100
AcDbLine
10
89.96660473440852
20
-76.07393187061146
30
0
11
90.000196958004736
21
-81.995028579852118
31
0
0
LINE
5
289
100
AcDbEntity
8
0
100
AcDbLine
10
90.000196958004736
20
-81.995028579852118
30
0
11
87.999800260745303
21
-81.995028579852118
31
0
0
LINE
5
290
100
AcDbEntity
8
0
100
AcDbLine
10
87.999800260745303
20
-81.995028579852118
30
0
11
87.999800260745303
21
-84.994845427511223
31
0
0
LINE
5
291
100
AcDbEntity
8
0
100
AcDbLine
10
87.999800260745303
20
-84.994845427511223
30
0
11
85.999922362305895
21
-84.994845427511251
31
0
0
LINE
5
292
100
AcDbEntity
8
0
100
AcDbLine
10
85.999922362305895
20
-84.994845427511251
30
0
11
85.999922362305895
21
-87.994662275170356
31
0
0
LINE
5
293
100
AcDbEntity
8
0
100
AcDbLine
10
85.999922362305895
20
-87.994662275170356
30
0
11
84.000044463866473
21
-87.994662275170356
31
0
0
LINE
5
294
100
AcDbEntity
8
0
100
AcDbLine
10
84.000044463866473
20
-87.994662275170356
30
0
11
84.000044463866473
21
-90.994997921649485
31
0
0
LINE
5
295
100
AcDbEntity
8
0
100
AcDbLine
10
84.000044463866473
20
-90.994997921649485
30
0
11
82.000166565427065
21
-90.994997921649485
31
0
0
LINE
5
296
100
AcDbEntity
8
0
100
AcDbLine
10
82.000166565427065
20
-90.994997921649485
30
0
11
82.000166565427079
21
-93.99481476930859
31
0
0
LINE
5
297
100
AcDbEntity
8
0
100
AcDbLine
10
82.000166565427079
20
-93.99481476930859
30
0
11
79.999769868167647
21
-93.99481476930859
31
0
0
LINE
5
298
100
AcDbEntity
8
0
100
AcDbLine
10
79.999769868167647
20
-93.99481476930859
30
0
11
79.999769868167647
21
-96.994631616967695
31
0
0
LINE
5
299
100
AcDbEntity
8
0
100
AcDbLine
10
79.999769868167647
20
-96.994631616967695
30
0
11
77.999891969728253
21
-96.994631616967709
31
0
0
LINE
5
300
100
AcDbEntity
8
0
100
AcDbLine
10
77.999891969728253
20
-96.994631616967709
30
0
11
77.999891969728239
21
-99.994967263446853
31
0
0
LINE
5
301
100
AcDbEntity
8
0
100
AcDbLine
10
77.999891969728239
20
-99.994967263446853
30
0
11
76.000014071288831
21
-99.994967263446853
31
0
0
LINE
5
302
100
AcDbEntity
8
0
100
AcDbLine
10
76.000014071288831
20
-99.994967263446853
30
0
11
76.000014071288831
21
-102.99478411110596
31
0
0
LINE
5
303
100
AcDbEntity
8
0
100
AcDbLine
10
76.000014071288831
20
-102.99478411110596
30
0
11
74.000136172849423
21
-102.99478411110596
31
0
0
LINE
5
304
100
AcDbEntity
8
0
100
AcDbLine
10
74.000136172849423
20
-102.99478411110596
30
0
11
70.999800526370294
21
-135.99483700124185
31
0
0
LINE
5
305
100
AcDbEntity
8
0
100
AcDbLine
10
70.999800526370294
20
-135.99483700124185
30
0
11
69.999861577150583
21
-135.99483700124185
31
0
0
LINE
5
306
100
AcDbEntity
8
0
100
AcDbLine
10
69.999861577150583
20
-135.99483700124185
30
0
11
67.000044729491478
21
-102.99478411110596
31
0
0
LINE
5
307
100
AcDbEntity
8
0
100
AcDbLine
10
67.000044729491478
20
-102.99478411110596
30
0
11
65.00016683105207
21
-102.99478411110596
31
0
0
LINE
5
308
100
AcDbEntity
8
0
100
AcDbLine
10
65.00016683105207
20
-102.99478411110596
30
0
11
65.050299581733597
21
-99.994967263446853
31
0
0
LINE
5
309
100
AcDbEntity
8
0
100
AcDbLine
10
65.050299581733597
20
-99.994967263446853
30
0
11
62.999777763187062
21
-99.994967263446853
31
0
0
LINE
5
310
100
AcDbEntity
8
0
100
AcDbLine
10
62.999777763187062
20
-99.994967263446853
30
0
11
62.999777763187062
21
-96.994631616967709
31
0
0
LINE
5
311
100
AcDbEntity
8
0
100
AcDbLine
10
62.999777763187062
20
-96.994631616967709
30
0
11
60.999899864747661
21
-96.994631616967709
31
0
0
LINE
5
312
100
AcDbEntity
8
0
100
AcDbLine
10
60.999899864747661
20
-96.994631616967709
30
0
11
60.999899864747647
21
-93.994814769308604
31
0
0
LINE
5
313
100
AcDbEntity
8
0
100
AcDbLine
10
60.999899864747647
20
-93.994814769308604
30
0
11
59.000021966308239
21
-93.99481476930859
31
0
0
LINE
5
314
100
AcDbEntity
8
0
100
AcDbLine
10
59.000021966308239
20
-93.99481476930859
30
0
11
59.000021966308239
21
-90.994997921649485
31
0
0
LINE
5
315
100
AcDbEntity
8
0
100
AcDbLine
10
59.000021966308239
20
-90.994997921649485
30
0
11
57.000144067868838
21
-90.994997921649485
31
0
0
LINE
5
316
100
AcDbEntity
8
0
100
AcDbLine
10
57.000144067868838
20
-90.994997921649485
30
0
11
57.000144067868838
21
-87.994662275170356
31
0
0
LINE
5
317
100
AcDbEntity
8
0
100
AcDbLine
10
57.000144067868838
20
-87.994662275170356
30
0
11
54.999747370609413
21
-87.994662275170356
31
0
0
LINE
5
318
100
AcDbEntity
8
0
100
AcDbLine
10
54.999747370609413
20
-87.994662275170356
30
0
11
54.999747370609413
21
-84.994845427511251
31
0
0
LINE
5
319
100
AcDbEntity
8
0
100
AcDbLine
10
54.999747370609413
20
-84.994845427511251
30
0
11
52.999869472170005
21
-84.994845427511251
31
0
0
LINE
5
320
100
AcDbEntity
8
0
100
AcDbLine
10
52.999869472170005
20
-84.994845427511251
30
0
11
52.999869472170005
21
-81.995028579852146
31
0
0
LINE
5
321
100
AcDbEntity
8
0
100
AcDbLine
10
52.999869472170005
20
-81.995028579852146
30
0
11
50.999991573730597
21
-81.995028579852118
31
0
0
LINE
5
322
100
AcDbEntity
8
0
100
AcDbLine
10
50.999991573730597
20
-81.995028579852118
30
0
11
50.999991573730597
21
-75.994876085713884
31
0
0
LINE
5
323
100
AcDbEntity
8
0
100
AcDbLine
10
50.999991573730597
20
-75.994876085713884
30
0
11
44.999839079592348
21
-75.994876085713884
31
0
0
LINE
5
324
100
AcDbEntity
8
0
100
AcDbLine
10
44.999839079592348
20
-75.994876085713884
30
0
11
44.999839079592348
21
-81.995028579852118
31
0
0
LINE
5
325
100
AcDbEntity
8
0
100
AcDbLine
10
44.999839079592348
20
-81.995028579852118
30
0
11
42.000022231933237
21
-99.994952004658003
31
0
0
LINE
5
326
100
AcDbEntity
8
0
100
AcDbLine
10
42.000022231933237
20
-99.994952004658003
30
0
11
39.000205384274125
21
-81.995028579852146
31
0
0
LINE
5
327
100
AcDbEntity
8
0
100
AcDbLine
10
39.000205384274125
20
-81.995028579852146
30
0
11
39.000205384274132
21
-75.994876085713884
31
0
0
LINE
5
328
100
AcDbEntity
8
0
100
AcDbLine
10
39.000205384274132
20
-75.994876085713884
30
0
11
39.000205384274132
21
-54.994601755640048
31
0
0
LINE
5
329
100
AcDbEntity
8
0
100
AcDbLine
10
39.000205384274132
20
-54.994601755640048
30
0
11
32.000117755613388
21
-54.994601755640069
31
0
0
LINE
5
330
100
AcDbEntity
8
0
100
AcDbLine
10
32.000117755613388
20
-54.994601755640069
30
0
11
32.002219653773906
21
-97.99457056618742
31
0
0
LINE
5
331
100
AcDbEntity
8
0
100
AcDbLine
10
32.002219653773906
20
-97.99457056618742
30
0
11
29.504697338671718
21
-106.99453990798476
31
0
0
LINE
5
332
100
AcDbEntity
8
0
100
AcDbLine
10
29.504697338671718
20
-106.99453990798476
30
0
11
26.999940450318309
21
-97.994570566187406
31
0
0
LINE
5
333
100
AcDbEntity
8
0
100
AcDbLine
10
26.999940450318309
20
-97.994570566187406
30
0
11
22.000247611568394
21
-97.994570566187406
31
0
0
LINE
5
334
100
AcDbEntity
8
0
100
AcDbLine
10
22.000247611568394
20
-97.994570566187406
30
0
11
22.000247611568394
21
-116.99495936842743
31
0
0
LINE
5
335
100
AcDbEntity
8
0
100
AcDbLine
10
22.000247611568394
20
-116.99495936842743
30
0
11
23.000186560788094
21
-120.99470753591183
31
0
0
LINE
5
336
100
AcDbEntity
8
0
100
AcDbLine
10
23.000186560788094
20
-120.99470753591183
30
0
11
16.000097024778761
21
-142.99492081520538
31
0
0
LINE
5
337
100
AcDbEntity
8
0
100
AcDbLine
10
16.000097024778761
20
-142.99492081520538
30
0
11
9.0000074887694144
21
-120.99470753591183
31
0
0
LINE
5
338
100
AcDbEntity
8
0
100
AcDbLine
10
9.0000074887694144
20
-120.99470753591183
30
0
11
9.9999464379891183
21
-116.99495936842743
31
0
0
LINE
5
339
100
AcDbEntity
8
0
100
AcDbLine
10
9.9999464379891183
20
-116.99495936842743
30
0
11
9.9999464379891165
21
-97.994570566187406
31
0
0
LINE
5
340
100
AcDbEntity
8
0
100
AcDbLine
10
9.9999464379891165
20
-97.994570566187406
30
0
11
5.0002135449185374
21
-97.994570566187406
31
0
0
LINE
5
341
100
AcDbEntity
8
0
100
AcDbLine
10
5.0002135449185374
20
-97.994570566187406
30
0
11
2.506825646331948
21
-106.99454753737918
31
0
0
LINE
5
342
100
AcDbEntity
8
0
100
AcDbLine
10
2.506825646331948
20
-106.99454753737918
30
0
11
2.0345050555370392e-06
21
-97.99457056618742
31
0
0
LINE
5
343
100
AcDbEntity
8
0
100
AcDbLine
10
2.0345050555370392e-06
20
-97.99457056618742
30
0
11
2.0345050552782317e-06
21
0.0052142795190768254
31
0
0
LINE
5
344
100
AcDbEntity
8
0
100
AcDbLine
10
2.0345050552782317e-06
20
0.0052142795190768254
30
0
11
689.99998921875022
21
0.0052142795190590618
31
0
0
LINE
5
345
100
AcDbEntity
8
0
100
AcDbLine
10
689.99998921875022
20
0.0052142795190590618
30
0
11
689.99998921874999
21
-39.99478509548095
31
0
0
LINE
5
346
100
AcDbEntity
8
0
100
AcDbLine
10
689.99998921874999
20
-39.99478509548095
30
0
11
670.36369802166075
21
-39.995013977313306
31
0
0
LINE
5
347
100
AcDbEntity
8
0
100
AcDbLine
10
670.36369802166075
20
-39.995013977313306
30
0
11
670.36369802166087
21
-47.278278023668541
31
0
0
SPLINE
5
348
100
AcDbEntity
8
0
100
AcDbSpline
70
4
71
3
72
8
73
4
74
0
42
0.000000001
43
0.0000000001
44
0.0000000001
40
0
40
0
40
0
40
0
40
1
40
1
40
1
40
1
41
1
41
1
41
1
41
1
10
670.36369802166087
20
-47.278278023668534
30
0
10
679.99998937500004
20
-47.994784970480957
30
0
10
686.99998926562512
20
-54.994784861105934
30
0
10
689.99998921874999
20
-61.994784751730947
30
0
0
LINE
5
349
100
AcDbEntity
8
0
100
AcDbLine
10
689.99998921874999
20
-61.994784751730954
30
0
11
689.99998921874999
21
-84.994784392355953
31
0
0
LINE
5
350
100
AcDbEntity
8
0
100
AcDbLine
10
689.99998921874999
20
-84.994784392355953
30
0
11
654.99998976562506
21
-84.994784392355953
31
0
0
LINE
5
351
100
AcDbEntity
8
0
100
AcDbLine
10
654.99998976562506
20
-84.994784392355953
30
0
11
654.99998976562506
21
-89.994784314230969
31
0
0
LINE
5
352
100
AcDbEntity
8
0
100
AcDbLine
10
654.99998976562506
20
-89.994784314230969
30
0
11
635.99999006250005
21
-89.994784314230941
31
0
0
LINE
5
353
100
AcDbEntity
8
0
100
AcDbLine
10
635.99999006250005
20
-89.994784314230941
30
0
11
634.99999007812517
21
-121.99478381423094
31
0
0
LINE
5
354
100
AcDbEntity
8
0
100
AcDbLine
10
634.99999007812517
20
-121.99478381423094
30
0
11
640.99998998437513
21
-121.99478381423094
31
0
0
LINE
5
355
100
AcDbEntity
8
0
100
AcDbLine
10
640.99998998437513
20
-121.99478381423094
30
0
11
640.99998998437513
21
-123.99478378298096
31
0
0
SPLINE
5
356
100
AcDbEntity
8
0
100
AcDbSpline
70
0
71
2
72
6
73
3
74
0
42
0.000000001
43
0.0000000001
44
0.0000000001
40
0
40
0
40
0
40
1
40
1
40
1
10
640.99998998437513
20
-123.99478378298096
30
0
10
638.99999001562514
20
-124.00478591905514
30
0
10
638.99999001562514
20
-126.99478373610596
30
0
0
SPLINE
5
357
100
AcDbEntity
8
0
100
AcDbSpline
70
0
71
2
72
6
73
3
74
0
42
0.000000001
43
0.0000000001
44
0.0000000001
40
0
40
0
40
0
40
1
40
1
40
1
10
638.99999001562514
20
-126.99478373610596
30
0
10
638.99999001562514
20
-130.02988653292076
30
0
10
640.99998998437513
20
-130.02988653292076
30
0
0
LINE
5
358
100
AcDbEntity
8
0
100
AcDbLine
10
640.99998998437513
20
-130.02988653292076
30
0
11
640.99998998437513
21
-131.99477602858653
31
0
0
SPLINE
5
359
100
AcDbEntity
8
0
100
AcDbSpline
70
0
71
2
72
6
73
3
74
0
42
0.000000001
43
0.0000000001
44
0.0000000001
40
0
40
0
40
0
40
1
40
1
40
1
10
640.99998998437513
20
-131.99477602858653
30
0
10
638.99999001562514
20
-132.01367403854516
30
0
10
638.99999001562514
20
-134.99477598171154
30
0
0
SPLINE
5
360
100
AcDbEntity
8
0
100
AcDbSpline
70
0
71
2
72
6
73
3
74
0
42
0.000000001
43
0.0000000001
44
0.0000000001
40
0
40
0
40
0
40
1
40
1
40
1
10
638.99999001562514
20
-134.99477598171154
30
0
10
638.99999001562514
20
-137.99477593483655
30
0
10
640.99998998437513
20
-137.99477593483655
30
0
0
LINE
5
361
100
AcDbEntity
8
0
100
AcDbLine
10
640.99998998437513
20
-137.99477593483655
30
0
11
640.99998998437513
21
-139.99477590358654
31
0
0
LINE
5
362
100
AcDbEntity
8
0
100
AcDbLine
10
640.99998998437513
20
-139.99477590358654
30
0
11
634.99999007812517
21
-139.99477590358654
31
0
0
LINE
5
363
100
AcDbEntity
8
0
100
AcDbLine
10
634.99999007812517
20
-139.99477590358654
30
0
11
634.99999007812517
21
-145.99477580983654
31
0
0
LINE
5
364
100
AcDbEntity
8
0
100
AcDbLine
10
634.99999007812517
20
-145.99477580983654
30
0
11
640.99998998437513
21
-147.99477577858656
31
0
0
LINE
5
365
100
AcDbEntity
8
0
100
AcDbLine
10
640.99998998437513
20
-147.99477577858656
30
0
11
640.99998998437513
21
-157.99478325173095
31
0
0
LINE
5
366
100
AcDbEntity
8
0
100
AcDbLine
10
640.99998998437513
20
-157.99478325173095
30
0
11
634.99999007812517
21
-159.99478322048097
31
0
0
LINE
5
367
100
AcDbEntity
8
0
100
AcDbLine
10
634.99999007812517
20
-159.99478322048097
30
0
11
634.99999007812517
21
-165.99478312673097
31
0
0
LINE
5
368
100
AcDbEntity
8
0
100
AcDbLine
10
634.99999007812517
20
-165.99478312673097
30
0
11
636.99999004687515
21
-165.99478312673097
31
0
0
SPLINE
5
369
100
AcDbEntity
8
0
100
AcDbSpline
70
4
71
3
72
8
73
4
74
0
42
0.000000001
43
0.0000000001
44
0.0000000001
40
0
40
0
40
0
40
0
40
1
40
1
40
1
40
1
41
1
41
1
41
1
41
1
10
636.99999004687515
20
-165.99478312673097
30
0
10
637.97502665273396
20
-165.99478312673097
30
0
10
639.09319069776257
20
-167.01972741613613
30
0
10
639.09319069776257
20
-167.99478309548095
30
0
0
SPLINE
5
370
100
AcDbEntity
8
0
100
AcDbSpline
70
4
71
3
72
8
73
4
74
0
42
0.000000001
43
0.0000000001
44
0.0000000001
40
0
40
0
40
0
40
0
40
1
40
1
40
1
40
1
41
1
41
1
41
1
41
1
10
639.09319069776257
20
-167.99478309548095
30
0
10
639.09319069776257
20
-169.03667226987525
30
0
10
638.09319071338757
20
-169.99478306423097
30
0
10
637.09319072901258
20
-169.99478306423097
30
0
0
LINE
5
371
100
AcDbEntity
8
0
100
AcDbLine
10
637.09319072901258
20
-169.99478306423094
30
0
11
634.99999007812517
21
-169.99478306423097
31
0
0
LINE
5
372
100
AcDbEntity
8
0
100
AcDbLine
10
634.99999007812517
20
-169.99478306423097
30
0
11
634.99999007812517
21
-174.99478298610597
31
0
0
LINE
5
373
100
AcDbEntity
8
0
100
AcDbLine
10
634.99999007812517
20
-174.99478298610597
30
0
11
632.99999010937518
21
-184.99478282985598
31
0
0
LINE
5
374
100
AcDbEntity
8
0
100
AcDbLine
10
632.99999010937518
20
-184.99478282985598
30
0
11
631.99999012500018
21
-204.99478442470456
31
0
0
LINE
5
375
100
AcDbEntity
8
0
100
AcDbLine
10
631.99999012500018
20
-204.99478442470456
30
0
11
630.99999014062507
21
-226.99478288886169
31
0
0
SPLINE
5
376
100
AcDbEntity
8
0
100
AcDbSpline
70
0
71
2
72
6
73
3
74
0
42
0.000000001
43
0.0000000001
44
0.0000000001
40
0
40
0
40
0
40
1
40
1
40
1
10
630.99999014062507
20
-226.99478288886169
30
0
10
629.99999015625008
20
-233.73777995299702
30
0
10
628.99999017187508
20
-226.99478288886169
30
0
0
LINE
5
377
100
AcDbEntity
8
0
100
AcDbLine
10
2.0345050555370392e-06
20
0.0052142795190768254
30
0
11
138.00000203450506
21
0.0052142795190768254
31
0
0
LINE
5
378
100
AcDbEntity
8
0
100
AcDbLine
10
138.00000203450506
20
0.0052142795190768254
30
0
11
138.00000203450506
21
15.005214279519077
31
0
0
LINE
5
379
100
AcDbEntity
8
0
100
AcDbLine
10
551.9999892187501
20
0.0052142795190628713
30
0
11
689.99998921875022
21
0.0052142795190650189
31
0
0
LINE
5
380
100
AcDbEntity
8
0
100
AcDbLine
10
551.9999892187501
20
15.005214279519063
30
0
11
551.9999892187501
21
0.0052142795190628713
31
0
0
LWPOLYLINE
5
381
100
AcDbEntity
8
0
100
AcDbPolyline
90
8
70
1
43
0.0
10
276.00000203450509
20
0.0052142795190698223
10
414.00000203450503
20
0.0052142795190679436
10
414.00000203450503
20
15.005214279519068
10
352.50000203450503
20
15.005214279519006
10
352.50000203450503
20
43.130214279519009
10
337.50000203450503
20
43.130214279519009
10
337.50000203450503
20
15.005214279519068
10
276.00000203450509
20
15.005214279519068
0
LINE
5
382
100
AcDbEntity
8
0
100
AcDbLine
10
689.99998921875022
20
15.005214279519061
30
0
11
689.99998921875022
21
70.005214279519066
31
0
0
LINE
5
383
100
AcDbEntity
8
0
100
AcDbLine
10
689.99998921875022
20
70.005214279519066
30
0
11
2.0345050552782308e-06
21
70.005214279519777
31
0
0
LINE
5
384
100
AcDbEntity
8
0
100
AcDbLine
10
2.0345050552782308e-06
20
70.005214279519777
30
0
11
2.0345050552782317e-06
21
15.005214279519057
31
0
0
LINE
5
385
100
AcDbEntity
8
0
100
AcDbLine
10
583.99998921875022
20
15.005214279519061
30
0
11
583.99998921875022
21
43.130214279519052
31
0
0
LINE
5
386
100
AcDbEntity
8
0
100
AcDbLine
10
583.99998921875022
20
43.130214279519052
30
0
11
568.99998921875022
21
43.130214279519052
31
0
0
LINE
5
387
100
AcDbEntity
8
0
100
AcDbLine
10
568.99998921875022
20
43.130214279519052
30
0
11
568.99998921875022
21
15.00521427951905
31
0
0
LINE
5
388
100
AcDbEntity
8
0
100
AcDbLine
10
551.9999892187501
20
15.005214279519063
30
0
11
568.99998921875022
21
15.00521427951905
31
0
0
LINE
5
389
100
AcDbEntity
8
0
100
AcDbLine
10
583.99998921875022
20
15.005214279519061
30
0
11
689.99998921875022
21
15.005214279519061
31
0
0
LINE
5
390
100
AcDbEntity
8
0
100
AcDbLine
10
106.00000203450507
20
15.005214279519075
30
0
11
106.00000203450507
21
43.13021427951908
31
0
0
LINE
5
391
100
AcDbEntity
8
0
100
AcDbLine
10
106.00000203450507
20
43.13021427951908
30
0
11
121.00000203450507
21
43.13021427951908
31
0
0
LINE
5
392
100
AcDbEntity
8
0
100
AcDbLine
10
121.00000203450507
20
43.13021427951908
30
0
11
121.00000203450507
21
15.005214279519061
31
0
0
LINE
5
393
100
AcDbEntity
8
0
100
AcDbLine
10
121.00000203450507
20
15.005214279519061
30
0
11
138.00000203450506
21
15.005214279519077
31
0
0
LINE
5
394
100
AcDbEntity
8
0
100
AcDbLine
10
106.00000203450507
20
15.005214279519075
30
0
11
2.0345050552782317e-06
21
15.005214279519057
31
0
0
ENDSEC
0
SECTION
2
OBJECTS
0
DICTIONARY
5
C
100
AcDbDictionary
3
ACAD_GROUP
350
D
3
ACAD_MLINESTYLE
350
17
0
DICTIONARY
5
D
100
AcDbDictionary
0
DICTIONARY
5
1A
330
C
100
AcDbDictionary
0
DICTIONARY
5
17
100
AcDbDictionary
0
ENDSEC
0
EOF
