<svg width="690mm" height="944.883" viewBox="0 0 690 250" xml:space="preserve" xmlns="http://www.w3.org/2000/svg"><g style="display:inline"><path style="fill:#000" d="M148 0v20l-11 1-2 6.73L125 29v6l5 10 11 2v6l-6 1v6h6l-2 127c-2.212.18-4.425 0-6.643 0L130 180h-20v-75h2V95h3l-10-10H95L85 95h3v10h2v71h-8v-6h2l-8.864-7h-8L58 170h2c.062 4.354.104 8.648 0 13H50l-5 17H25v-70h-7v-4.239H7V130H-.237v120H690v-60h-6v-10l-1.163-15-1.837-3-3-11c-.973-6.29-2-14.288-2-17.32v-5.941l-4-6-4.153 6-.01 6c0 6-.837 13.261-1.837 17.261-.457 1.827-2 7.61-3 11l-2 3-1.006 15-.157 10H648l5.99-29.527s8.734-20.28 1.01-20.473h-10l-37 2.502v-66l-35 30v38l-5.874.498V55.099l-2.258-1.874-2.258-1.874-10.354-.95-10.354-.948-1.01-1.62-1.01-1.62-8.101-.5-8.1-.5-1.84 1.168L520 47.55V205h-13v-20l-7-5.092V140c-1.026-5.21-2.93-10.081-4.855-15L490 77h-3c-1.48 13.259-4.601 34.631-5 48-2.101 4.863-3.537 9.915-4.96 15v39.43L453 150l-20.806 28.989-.916-28.989-7.254-29.084L417.032 150c-.383 7.702-1.048 47.357-2.032 55h-14l-5-145h-10l-5 120h-6v-50h-8.041L364 120h-63l-3 10h-8v20h-15v-45l-10-30-30 10 .242 60-.242 35h-25v-10.057L198 170v3h-6v-3l-12-.057V162h-18.702L159 60h6v-6l-6-1v-6l11-2 5-10v-6l-10-1.492L163 21l-11-1V0Zm-48 112.957c1.97 0 3.94.095 4.346.282a2.94 2.94 0 0 1 1.463 1.514c.336.805.299 7.849-.046 8.593-.673 1.454-2.592 2.117-4.091 1.414-.736-.344-7.202-6.85-7.482-7.526-.622-1.505.051-3.34 1.466-3.995.405-.188 2.375-.282 4.345-.282m-2.849 16.003c.401.013.802.104 1.177.28.736.344 7.202 6.85 7.482 7.526.622 1.505-.052 3.34-1.466 3.995-.81.375-7.879.375-8.69 0a2.94 2.94 0 0 1-1.463-1.514c-.336-.805-.298-7.849.046-8.593.505-1.09 1.71-1.736 2.914-1.694m2.85 17.997c1.97 0 3.94.095 4.345.282a2.94 2.94 0 0 1 1.463 1.514c.336.805.299 7.849-.046 8.593-.673 1.454-2.592 2.117-4.091 1.414-.736-.344-7.202-6.85-7.482-7.526-.622-1.505.051-3.34 1.466-3.995.405-.188 2.375-.282 4.345-.282m-2.85 16.003c.401.013.802.104 1.177.28.736.344 7.202 6.85 7.482 7.526.622 1.505-.052 3.34-1.466 3.995-.81.375-7.879.375-8.69 0a2.94 2.94 0 0 1-1.463-1.514c-.336-.805-.298-7.849.046-8.593.505-1.09 1.71-1.736 2.914-1.694" transform="translate(.237)"/></g></svg>