0
SECTION
2
HEADER
9
$INSUNITS
70
4
9
$ACADVER
1
AC1014
9
$HANDSEED
5
FFFF
0
ENDSEC
0
SECTION
2
TABLES
0
TABLE
2
VPORT
5
8
100
AcDbSymbolTable
0
ENDTAB
0
TABLE
2
LTYPE
5
5
100
AcDbSymbolTable
0
LTYPE
5
14
100
AcDbSymbolTableRecord
100
AcDbLinetypeTableRecord
2
BYBLOCK
70
0
0
LTYPE
5
15
100
AcDbSymbolTableRecord
100
AcDbLinetypeTableRecord
2
BYLAYER
70
0
0
ENDTAB
0
TABLE
2
LAYER
5
2
100
AcDbSymbolTable
70
2
0
LAYER
5
50
100
AcDbSymbolTableRecord
100
AcDbLayerTableRecord
2
0
70
0
6
CONTINUOUS
0
ENDTAB
0
TABLE
2
STYLE
5
3
100
AcDbSymbolTable
70
1
0
STYLE
5
11
100
AcDbSymbolTableRecord
100
AcDbTextStyleTableRecord
2
STANDARD
70
0
0
ENDTAB
0
TABLE
2
VIEW
5
6
100
AcDbSymbolTable
70
0
0
ENDTAB
0
TABLE
2
UCS
5
7
100
AcDbSymbolTable
70
0
0
ENDTAB
0
TABLE
2
APPID
5
9
100
AcDbSymbolTable
70
2
0
APPID
5
12
100
AcDbSymbolTableRecord
100
AcDbRegAppTableRecord
2
ACAD
70
0
0
ENDTAB
0
TABLE
2
DIMSTYLE
5
A
100
AcDbSymbolTable
70
1
0
ENDTAB
0
TABLE
2
BLOCK_RECORD
5
1
100
AcDbSymbolTable
70
1
0
BLOCK_RECORD
5
1F
100
AcDbSymbolTableRecord
100
AcDbBlockTableRecord
2
*MODEL_SPACE
0
BLOCK_RECORD
5
1B
100
AcDbSymbolTableRecord
100
AcDbBlockTableRecord
2
*PAPER_SPACE
0
ENDTAB
0
ENDSEC
0
SECTION
2
BLOCKS
0
BLOCK
5
20
100
AcDbEntity
100
AcDbBlockBegin
2
*MODEL_SPACE
0
ENDBLK
5
21
100
AcDbEntity
100
AcDbBlockEnd
0
BLOCK
5
1C
100
AcDbEntity
100
AcDbBlockBegin
2
*PAPER_SPACE
0
ENDBLK
5
1D
100
AcDbEntity
100
AcDbBlockEnd
0
ENDSEC
0
SECTION
2
ENTITIES
0
LINE
5
100
100
AcDbEntity
8
0
100
AcDbLine
10
148.18566016132451
20
-249.91461436950232
30
0
11
148.18566016132451
21
-229.92165160064468
31
0
0
LINE
5
101
100
AcDbEntity
8
0
100
AcDbLine
10
148.18566016132451
20
-229.92165160064468
30
0
11
137.18958040320092
21
-228.92205513364524
31
0
0
LINE
5
102
100
AcDbEntity
8
0
100
AcDbLine
10
137.18958040320092
20
-228.92205513364524
30
0
11
135.19038746920205
21
-222.19453806510532
31
0
0
LINE
5
103
100
AcDbEntity
8
0
100
AcDbLine
10
135.19038746920205
20
-222.19453806510532
30
0
11
125.19390417807787
21
-220.92476668321527
31
0
0
LINE
5
104
100
AcDbEntity
8
0
100
AcDbLine
10
125.19390417807787
20
-220.92476668321527
30
0
11
125.1939041780779
21
-214.92667116678419
31
0
0
LINE
5
105
100
AcDbEntity
8
0
100
AcDbLine
10
125.1939041780779
20
-214.92667116678419
30
0
11
130.19240513420488
21
-204.93019168905067
31
0
0
LINE
5
106
100
AcDbEntity
8
0
100
AcDbLine
10
130.19240513420488
20
-204.93019168905067
30
0
11
141.18848489232846
21
-202.93099875505186
31
0
0
LINE
5
107
100
AcDbEntity
8
0
100
AcDbLine
10
141.18848489232846
20
-202.93099875505186
30
0
11
141.18848489232846
21
-196.93290133192545
31
0
0
LINE
5
108
100
AcDbEntity
8
0
100
AcDbLine
10
141.18848489232846
20
-196.93290133192545
30
0
11
135.19038746920205
21
-195.93330486492596
31
0
0
LINE
5
109
100
AcDbEntity
8
0
100
AcDbLine
10
135.19038746920205
20
-195.93330486492596
30
0
11
135.19038746920205
21
-189.93521125519021
31
0
0
LINE
5
110
100
AcDbEntity
8
0
100
AcDbLine
10
135.19038746920205
20
-189.93521125519021
30
0
11
141.18848489232846
21
-189.93521125519024
31
0
0
LINE
5
111
100
AcDbEntity
8
0
100
AcDbLine
10
141.18848489232846
20
-189.93521125519024
30
0
11
139.18929195832959
21
-62.978711136440211
31
0
0
SPLINE
5
112
100
AcDbEntity
8
0
100
AcDbSpline
70
4
71
3
72
8
73
4
74
0
42
0.000000001
43
0.0000000001
44
0.0000000001
40
0
40
0
40
0
40
0
40
1
40
1
40
1
40
1
41
1
41
1
41
1
41
1
10
139.18929195832959
20
-62.978711136440211
30
0
10
136.97734233261204
20
-62.79943601471885
30
0
10
134.76522491770544
20
-62.978711136440211
30
0
10
132.54856194113179
20
-62.978711136440211
30
0
0
LINE
5
113
100
AcDbEntity
8
0
100
AcDbLine
10
132.54856194113179
20
-62.978711136440211
30
0
11
130.19188651307508
21
-69.976405026566056
31
0
0
LINE
5
114
100
AcDbEntity
8
0
100
AcDbLine
10
130.19188651307508
20
-69.976405026566056
30
0
11
110.19891993082678
21
-69.976405026566056
31
0
0
LINE
5
115
100
AcDbEntity
8
0
100
AcDbLine
10
110.19891993082678
20
-69.976405026566056
30
0
11
110.19891993082675
21
-144.95079238812929
31
0
0
LINE
5
116
100
AcDbEntity
8
0
100
AcDbLine
10
110.19891993082675
20
-144.95079238812929
30
0
11
112.19811286482562
21
-144.95079238812929
31
0
0
LINE
5
117
100
AcDbEntity
8
0
100
AcDbLine
10
112.19811286482562
20
-144.95079238812929
30
0
11
112.19811286482562
21
-154.94726805247211
31
0
0
LINE
5
118
100
AcDbEntity
8
0
100
AcDbLine
10
112.19811286482562
20
-154.94726805247211
30
0
11
115.19742851373505
21
-154.94726805247211
31
0
0
LINE
5
119
100
AcDbEntity
8
0
100
AcDbLine
10
115.19742851373505
20
-154.94726805247211
30
0
11
105.20041897469979
21
-164.94375134359626
31
0
0
LINE
5
120
100
AcDbEntity
8
0
100
AcDbLine
10
105.20041897469979
20
-164.94375134359626
30
0
11
95.203943310356948
21
-164.94375134359629
31
0
0
LINE
5
121
100
AcDbEntity
8
0
100
AcDbLine
10
95.203943310356948
20
-164.94375134359629
30
0
11
85.207460019232784
21
-154.94726805247214
31
0
0
LINE
5
122
100
AcDbEntity
8
0
100
AcDbLine
10
85.207460019232784
20
-154.94726805247214
30
0
11
88.206249420231089
21
-154.94726805247211
31
0
0
LINE
5
123
100
AcDbEntity
8
0
100
AcDbLine
10
88.206249420231089
20
-154.94726805247211
30
0
11
88.206249420231103
21
-144.95079238812929
31
0
0
LINE
5
124
100
AcDbEntity
8
0
100
AcDbLine
10
88.206249420231103
20
-144.95079238812929
30
0
11
90.205960975359773
21
-144.95079238812929
31
0
0
LINE
5
125
100
AcDbEntity
8
0
100
AcDbLine
10
90.205960975359773
20
-144.95079238812929
30
0
11
90.205960975359773
21
-73.974790894563796
31
0
0
LINE
5
126
100
AcDbEntity
8
0
100
AcDbLine
10
90.205960975359773
20
-73.974790894563796
30
0
11
82.208670618234478
21
-73.974790894563796
31
0
0
LINE
5
127
100
AcDbEntity
8
0
100
AcDbLine
10
82.208670618234478
20
-73.974790894563796
30
0
11
82.208670618234478
21
-79.972888317690206
31
0
0
LINE
5
128
100
AcDbEntity
8
0
100
AcDbLine
10
82.208670618234478
20
-79.972888317690206
30
0
11
84.207863552233349
21
-79.972888317690234
31
0
0
LINE
5
129
100
AcDbEntity
8
0
100
AcDbLine
10
84.207863552233349
20
-79.972888317690234
30
0
11
75.347358831683096
21
-86.970582207816079
31
0
0
LINE
5
130
100
AcDbEntity
8
0
100
AcDbLine
10
75.347358831683096
20
-86.970582207816079
30
0
11
67.350068474557816
21
-86.970582207816065
31
0
0
LINE
5
131
100
AcDbEntity
8
0
100
AcDbLine
10
67.350068474557816
20
-86.970582207816065
30
0
11
58.216803360249294
21
-79.97288831769022
31
0
0
LINE
5
132
100
AcDbEntity
8
0
100
AcDbLine
10
58.216803360249294
20
-79.97288831769022
30
0
11
60.215996294248164
21
-79.972888317690234
31
0
0
SPLINE
5
133
100
AcDbEntity
8
0
100
AcDbSpline
70
4
71
3
72
8
73
4
74
0
42
0.000000001
43
0.0000000001
44
0.0000000001
40
0
40
0
40
0
40
0
40
1
40
1
40
1
40
1
41
1
41
1
41
1
41
1
10
60.215996294248164
20
-79.972888317690234
30
0
10
60.278005839775076
20
-75.620238457351903
30
0
10
60.31976628089587
20
-71.327885930134045
30
0
10
60.215996294248164
20
-66.977097004437951
30
0
0
LINE
5
134
100
AcDbEntity
8
0
100
AcDbLine
10
60.215996294248157
20
-66.977097004437951
30
0
11
50.21951681651467
21
-66.977097004437951
31
0
0
LINE
5
135
100
AcDbEntity
8
0
100
AcDbLine
10
50.21951681651467
20
-66.977097004437951
30
0
11
45.221015860387695
21
-49.982919823187956
31
0
0
LINE
5
136
100
AcDbEntity
8
0
100
AcDbLine
10
45.221015860387695
20
-49.982919823187956
30
0
11
25.22805881161603
21
-49.982919823187935
31
0
0
LINE
5
137
100
AcDbEntity
8
0
100
AcDbLine
10
25.22805881161603
20
-49.982919823187935
30
0
11
25.22805881161603
21
-119.95932484975398
31
0
0
LINE
5
138
100
AcDbEntity
8
0
100
AcDbLine
10
25.22805881161603
20
-119.95932484975398
30
0
11
18.230366828185513
21
-119.95932484975398
31
0
0
LINE
5
139
100
AcDbEntity
8
0
100
AcDbLine
10
18.230366828185513
20
-119.95932484975398
30
0
11
18.230366828185513
21
-124.19637558561638
31
0
0
LINE
5
140
100
AcDbEntity
8
0
100
AcDbLine
10
18.230366828185513
20
-124.19637558561638
30
0
11
7.2342889767572522
21
-124.19637558561639
31
0
0
LINE
5
141
100
AcDbEntity
8
0
100
AcDbLine
10
7.2342889767572522
20
-124.19637558561639
30
0
11
7.2342889767572549
21
-119.959324849754
31
0
0
LINE
5
142
100
AcDbEntity
8
0
100
AcDbLine
10
7.2342889767572549
20
-119.959324849754
30
0
11
-3.8681502445570004e-09
21
-119.95932484975398
31
0
0
LINE
5
143
100
AcDbEntity
8
0
100
AcDbLine
10
-3.8681502445570004e-09
20
-119.95932484975398
30
0
11
-3.8681509544999854e-09
21
-1.7763568394002505e-14
31
0
0
LINE
5
144
100
AcDbEntity
8
0
100
AcDbLine
10
-3.8681509544999854e-09
20
-1.7763568394002505e-14
30
0
11
345.11855005307791
21
0
31
0
0
LINE
5
145
100
AcDbEntity
8
0
100
AcDbLine
10
345.11855005307791
20
0
30
0
11
690.00001499882455
21
0
31
0
0
LINE
5
146
100
AcDbEntity
8
0
100
AcDbLine
10
690.00001499882455
20
0
30
0
11
690.00001499882455
21
-59.979921735441891
31
0
0
LINE
5
147
100
AcDbEntity
8
0
100
AcDbLine
10
690.00001499882455
20
-59.979921735441891
30
0
11
684.00243619682794
21
-59.979921735441906
31
0
0
LINE
5
148
100
AcDbEntity
8
0
100
AcDbLine
10
684.00243619682794
20
-59.979921735441906
30
0
11
684.00243619682794
21
-69.976389773003419
31
0
0
LINE
5
149
100
AcDbEntity
8
0
100
AcDbLine
10
684.00243619682794
20
-69.976389773003419
30
0
11
682.83956559531771
21
-84.97137402025453
31
0
0
LINE
5
150
100
AcDbEntity
8
0
100
AcDbLine
10
682.83956559531771
20
-84.97137402025453
30
0
11
681.00309766757459
21
-87.970163421252863
31
0
0
LINE
5
151
100
AcDbEntity
8
0
100
AcDbLine
10
681.00309766757459
20
-87.970163421252863
30
0
11
678.00430826657634
21
-98.966243179376448
31
0
0
SPLINE
5
152
100
AcDbEntity
8
0
100
AcDbSpline
70
4
71
3
72
8
73
4
74
0
42
0.000000001
43
0.0000000001
44
0.0000000001
40
0
40
0
40
0
40
0
40
1
40
1
40
1
40
1
41
1
41
1
41
1
41
1
10
678.00430826657634
20
-98.966243179376448
30
0
10
677.03168009832643
20
-105.25464640668912
30
0
10
676.00511533257747
20
-113.24922162966428
30
0
10
676.00511533257747
20
-116.27967742670558
30
0
0
LINE
5
153
100
AcDbEntity
8
0
100
AcDbLine
10
676.00511533257759
20
-116.2796774267056
30
0
11
676.00511533257747
21
-122.21939946560433
31
0
0
LINE
5
154
100
AcDbEntity
8
0
100
AcDbLine
10
676.00511533257747
20
-122.21939946560433
30
0
11
672.00624135057524
21
-128.21749688873075
31
0
0
LINE
5
155
100
AcDbEntity
8
0
100
AcDbLine
10
672.00624135057524
20
-128.21749688873075
30
0
11
667.85495377066263
21
-122.21939946560433
31
0
0
LINE
5
156
100
AcDbEntity
8
0
100
AcDbLine
10
667.85495377066263
20
-122.21939946560433
30
0
11
667.84464236231724
21
-116.22182066360773
31
0
0
SPLINE
5
157
100
AcDbEntity
8
0
100
AcDbSpline
70
4
71
3
72
8
73
4
74
0
42
0.000000001
43
0.0000000001
44
0.0000000001
40
0
40
0
40
0
40
0
40
1
40
1
40
1
40
1
41
1
41
1
41
1
41
1
10
667.84464236231724
20
-116.22182066360773
30
0
10
667.84464236231724
20
-110.22392153679564
30
0
10
667.00832002982861
20
-102.96488835793909
30
0
10
666.00866254857863
20
-98.966258432939071
30
0
0
SPLINE
5
158
100
AcDbEntity
8
0
100
AcDbSpline
70
4
71
3
72
8
73
4
74
0
42
0.000000001
43
0.0000000001
44
0.0000000001
40
0
40
0
40
0
40
0
40
1
40
1
40
1
40
1
41
1
41
1
41
1
41
1
10
666.00866254857863
20
-98.966258432939071
30
0
10
665.55209291160384
20
-97.139888363664383
30
0
10
664.00904251482575
20
-91.359627068616135
30
0
10
663.00938503357565
20
-87.970193928378137
30
0
0
LINE
5
159
100
AcDbEntity
8
0
100
AcDbLine
10
663.00938503357565
20
-87.970193928378137
30
0
11
661.0101920995769
21
-84.971404527379832
31
0
0
LINE
5
160
100
AcDbEntity
8
0
100
AcDbLine
10
661.0101920995769
20
-84.971404527379832
30
0
11
660.00437217901981
21
-69.976420280128707
31
0
0
LINE
5
161
100
AcDbEntity
8
0
100
AcDbLine
10
660.00437217901981
20
-69.976420280128707
30
0
11
659.84732149806678
21
-59.97995224256718
31
0
0
LINE
5
162
100
AcDbEntity
8
0
100
AcDbLine
10
659.84732149806678
20
-59.97995224256718
30
0
11
648.0148889003292
21
-59.979952242567194
31
0
0
LINE
5
163
100
AcDbEntity
8
0
100
AcDbLine
10
648.0148889003292
20
-59.979952242567194
30
0
11
654.00215629398031
21
-89.496724716815891
31
0
0
SPLINE
5
164
100
AcDbEntity
8
0
100
AcDbSpline
70
0
71
2
72
6
73
3
74
0
42
0.000000001
43
0.0000000001
44
0.0000000001
40
0
40
0
40
0
40
1
40
1
40
1
10
654.00215629398031
20
-89.496724716815876
30
0
10
662.73378366377551
20
-109.76931960940163
30
0
10
655.01206416932519
20
-109.96236869818796
30
0
0
LINE
5
165
100
AcDbEntity
8
0
100
AcDbLine
10
655.01206416932519
20
-109.96236869818796
30
0
11
645.01561138532634
21
-109.96236869818796
31
0
0
LINE
5
166
100
AcDbEntity
8
0
100
AcDbLine
10
645.01561138532634
20
-109.96236869818796
30
0
11
608.02846762182799
21
-107.46151659604715
31
0
0
LINE
5
167
100
AcDbEntity
8
0
100
AcDbLine
10
608.02846762182799
20
-107.46151659604715
30
0
11
608.02846762182799
21
-173.43902476026699
31
0
0
LINE
5
168
100
AcDbEntity
8
0
100
AcDbLine
10
608.02846762182799
20
-173.43902476026699
30
0
11
573.04051679232862
21
-143.44906389254604
31
0
0
LINE
5
169
100
AcDbEntity
8
0
100
AcDbLine
10
573.04051679232862
20
-143.44906389254604
30
0
11
573.04051679232862
21
-105.4623389156109
31
0
0
LINE
5
170
100
AcDbEntity
8
0
100
AcDbLine
10
573.04051679232862
20
-105.4623389156109
30
0
11
567.16844430374329
21
-104.9643558560655
31
0
0
LINE
5
171
100
AcDbEntity
8
0
100
AcDbLine
10
567.16844430374329
20
-104.9643558560655
30
0
11
567.16844430374329
21
-194.83452592024318
31
0
0
LINE
5
172
100
AcDbEntity
8
0
100
AcDbLine
10
567.16844430374329
20
-194.83452592024318
30
0
11
564.91097804710455
21
-196.70818966048674
31
0
0
LINE
5
173
100
AcDbEntity
8
0
100
AcDbLine
10
564.91097804710455
20
-196.70818966048674
30
0
11
562.65351179046581
21
-198.58133477960052
31
0
0
LINE
5
174
100
AcDbEntity
8
0
100
AcDbLine
10
562.65351179046581
20
-198.58133477960052
30
0
11
552.30317635319238
21
-199.53030467219401
31
0
0
LINE
5
175
100
AcDbEntity
8
0
100
AcDbLine
10
552.30317635319238
20
-199.53030467219401
30
0
11
541.95284091591907
21
-200.47875975704835
31
0
0
LINE
5
176
100
AcDbEntity
8
0
100
AcDbLine
10
541.95284091591907
20
-200.47875975704835
30
0
11
540.94293304057419
21
-202.09774238865407
31
0
0
LINE
5
177
100
AcDbEntity
8
0
100
AcDbLine
10
540.94293304057419
20
-202.09774238865407
30
0
11
539.93302516522931
21
-203.71672502025979
31
0
0
LINE
5
178
100
AcDbEntity
8
0
100
AcDbLine
10
539.93302516522931
20
-203.71672502025979
30
0
11
531.83551890155172
21
-204.21678256432443
31
0
0
LINE
5
179
100
AcDbEntity
8
0
100
AcDbLine
10
531.83551890155172
20
-204.21678256432443
30
0
11
523.73850075187863
21
-204.71684010838902
31
0
0
LINE
5
180
100
AcDbEntity
8
0
100
AcDbLine
10
523.73850075187863
20
-204.71684010838902
30
0
11
521.89843298335222
21
-203.54935149078921
31
0
0
LINE
5
181
100
AcDbEntity
8
0
100
AcDbLine
10
521.89843298335222
20
-203.54935149078921
30
0
11
520.0583652148257
21
-202.38238149431913
31
0
0
LINE
5
182
100
AcDbEntity
8
0
100
AcDbLine
10
520.0583652148257
20
-202.38238149431913
30
0
11
520.0583652148257
21
-110.25625908959489
31
0
0
LINE
5
183
100
AcDbEntity
8
0
100
AcDbLine
10
520.0583652148257
20
-110.25625908959489
30
0
11
520.0583652148257
21
-44.984922234628122
31
0
0
LINE
5
184
100
AcDbEntity
8
0
100
AcDbLine
10
520.0583652148257
20
-44.984922234628122
30
0
11
507.06309252270319
21
-44.984922234628115
31
0
0
LINE
5
185
100
AcDbEntity
8
0
100
AcDbLine
10
507.06309252270319
20
-44.984922234628115
30
0
11
507.06309252270324
21
-64.97788881687643
31
0
0
LINE
5
186
100
AcDbEntity
8
0
100
AcDbLine
10
507.06309252270324
20
-64.97788881687643
30
0
11
500.06539863257734
21
-70.067819627474421
31
0
0
LINE
5
187
100
AcDbEntity
8
0
100
AcDbLine
10
500.06539863257734
20
-70.067819627474421
30
0
11
500.06539863257734
21
-109.96230768393738
31
0
0
SPLINE
5
188
100
AcDbEntity
8
0
100
AcDbSpline
70
4
71
3
72
8
73
4
74
0
42
0.000000001
43
0.0000000001
44
0.0000000001
40
0
40
0
40
0
40
0
40
1
40
1
40
1
40
1
41
1
41
1
41
1
41
1
10
500.06539863257734
20
-109.96230768393738
30
0
10
499.03974908058683
20
-115.1716586364529
30
0
10
497.13607395584683
20
-120.04024499956526
30
0
10
495.21205057854354
20
-124.95729193118854
30
0
0
LINE
5
189
100
AcDbEntity
8
0
100
AcDbLine
10
495.21205057854354
20
-124.95729193118854
30
0
11
490.06891534145325
21
-172.94101882037756
31
0
0
LINE
5
190
100
AcDbEntity
8
0
100
AcDbLine
10
490.06891534145325
20
-172.94101882037756
30
0
11
487.07012594045489
21
-172.94101882037756
31
0
0
SPLINE
5
191
100
AcDbEntity
8
0
100
AcDbSpline
70
4
71
3
72
8
73
4
74
0
42
0.000000001
43
0.0000000001
44
0.0000000001
40
0
40
0
40
0
40
0
40
1
40
1
40
1
40
1
41
1
41
1
41
1
41
1
10
487.07012594045489
20
-172.94101882037756
30
0
10
485.58985920750774
20
-159.68687791667227
30
0
10
482.47013956189045
20
-138.32144152866175
30
0
10
482.07162498432797
20
-124.95729193118854
30
0
0
SPLINE
5
192
100
AcDbEntity
8
0
100
AcDbSpline
70
4
71
3
72
8
73
4
74
0
42
0.000000001
43
0.0000000001
44
0.0000000001
40
0
40
0
40
0
40
0
40
1
40
1
40
1
40
1
41
1
41
1
41
1
41
1
10
482.07162498432797
20
-124.95729193118854
30
0
10
479.97087383026434
20
-120.09627133514618
30
0
10
478.5361542353636
20
-115.04540489847216
30
0
10
477.1123866984392
20
-109.96230768393738
30
0
0
LINE
5
193
100
AcDbEntity
8
0
100
AcDbLine
10
477.1123866984392
20
-109.96230768393738
30
0
11
477.1123866984392
21
-70.545667984333534
31
0
0
LINE
5
194
100
AcDbEntity
8
0
100
AcDbLine
10
477.1123866984392
20
-70.545667984333534
30
0
11
453.08177157795484
21
-99.965824392813232
31
0
0
LINE
5
195
100
AcDbEntity
8
0
100
AcDbLine
10
453.08177157795484
20
-99.965824392813232
30
0
11
432.28292877424968
21
-70.987334890607869
31
0
0
LINE
5
196
100
AcDbEntity
8
0
100
AcDbLine
10
432.28292877424968
20
-70.987334890607869
30
0
11
431.36701335189957
21
-99.965809139250609
31
0
0
LINE
5
197
100
AcDbEntity
8
0
100
AcDbLine
10
431.36701335189957
20
-99.965809139250609
30
0
11
424.11568322217676
21
-129.03986983818407
31
0
0
LINE
5
198
100
AcDbEntity
8
0
100
AcDbLine
10
424.11568322217676
20
-129.03986983818407
30
0
11
417.1262567630024
21
-99.965809139250595
31
0
0
SPLINE
5
199
100
AcDbEntity
8
0
100
AcDbSpline
70
4
71
3
72
8
73
4
74
0
42
0.000000001
43
0.0000000001
44
0.0000000001
40
0
40
0
40
0
40
0
40
1
40
1
40
1
40
1
41
1
41
1
41
1
41
1
10
417.1262567630024
20
-99.965809139250595
30
0
10
416.74296524095575
20
-92.26637509981893
30
0
10
416.07769635992491
20
-52.624821619071405
30
0
10
415.09451272632737
20
-44.984906981065471
30
0
0
LINE
5
200
100
AcDbEntity
8
0
100
AcDbLine
10
415.09451272632737
20
-44.984906981065464
30
0
11
401.09906393182513
21
-44.984906981065471
31
0
0
LINE
5
201
100
AcDbEntity
8
0
100
AcDbLine
10
401.09906393182513
20
-44.984906981065471
30
0
11
396.1010815968279
21
-189.93521125519024
31
0
0
LINE
5
202
100
AcDbEntity
8
0
100
AcDbLine
10
396.1010815968279
20
-189.93521125519024
30
0
11
386.10459830570369
21
-189.93521125519024
31
0
0
LINE
5
203
100
AcDbEntity
8
0
100
AcDbLine
10
386.10459830570369
20
-189.93521125519024
30
0
11
381.10609734957677
21
-69.97640502656607
31
0
0
LINE
5
204
100
AcDbEntity
8
0
100
AcDbLine
10
381.10609734957677
20
-69.97640502656607
30
0
11
375.10799992645036
21
-69.976405026566056
31
0
0
LINE
5
205
100
AcDbEntity
8
0
100
AcDbLine
10
375.10799992645036
20
-69.976405026566056
30
0
11
375.10799992645036
21
-119.95932484975398
31
0
0
LINE
5
206
100
AcDbEntity
8
0
100
AcDbLine
10
375.10799992645036
20
-119.95932484975398
30
0
11
367.06992154282261
21
-119.95932484975398
31
0
0
LINE
5
207
100
AcDbEntity
8
0
100
AcDbLine
10
367.06992154282261
20
-119.95932484975398
30
0
11
364.11192016832678
21
-129.95580814087813
31
0
0
LINE
5
208
100
AcDbEntity
8
0
100
AcDbLine
10
364.11192016832678
20
-129.95580814087813
30
0
11
301.13374290657902
21
-129.95580814087813
31
0
0
LINE
5
209
100
AcDbEntity
8
0
100
AcDbLine
10
301.13374290657902
20
-129.95580814087813
30
0
11
298.13443488445091
21
-119.95932484975398
31
0
0
LINE
5
210
100
AcDbEntity
8
0
100
AcDbLine
10
298.13443488445091
20
-119.95932484975398
30
0
11
290.13714452732563
21
-119.95932484975398
31
0
0
LINE
5
211
100
AcDbEntity
8
0
100
AcDbLine
10
290.13714452732563
20
-119.95932484975398
30
0
11
290.13714452732563
21
-99.965839646375869
31
0
0
LINE
5
212
100
AcDbEntity
8
0
100
AcDbLine
10
290.13714452732563
20
-99.965839646375869
30
0
11
275.14216028007451
21
-99.965839646375883
31
0
0
LINE
5
213
100
AcDbEntity
8
0
100
AcDbLine
10
275.14216028007451
20
-99.965839646375883
30
0
11
275.14216028007451
21
-144.95078476134796
31
0
0
LINE
5
214
100
AcDbEntity
8
0
100
AcDbLine
10
275.14216028007451
20
-144.95078476134796
30
0
11
265.14567698895036
21
-174.94022700793909
31
0
0
LINE
5
215
100
AcDbEntity
8
0
100
AcDbLine
10
265.14567698895036
20
-174.94022700793909
30
0
11
235.15622711557793
21
-164.94374371681494
31
0
0
LINE
5
216
100
AcDbEntity
8
0
100
AcDbLine
10
235.15622711557793
20
-164.94374371681494
30
0
11
235.39798082987738
21
-104.96434060250287
31
0
0
LINE
5
217
100
AcDbEntity
8
0
100
AcDbLine
10
235.39798082987738
20
-104.96434060250287
30
0
11
235.15622711557793
21
-69.976389773003419
31
0
0
LINE
5
218
100
AcDbEntity
8
0
100
AcDbLine
10
235.15622711557793
20
-69.976389773003419
30
0
11
210.16477483076525
21
-69.976389773003405
31
0
0
LINE
5
219
100
AcDbEntity
8
0
100
AcDbLine
10
210.16477483076525
20
-69.976389773003405
30
0
11
210.16477483076525
21
-80.029692584965829
31
0
0
LINE
5
220
100
AcDbEntity
8
0
100
AcDbLine
10
210.16477483076525
20
-80.029692584965829
30
0
11
198.16857998451241
21
-79.972918824815508
31
0
0
LINE
5
221
100
AcDbEntity
8
0
100
AcDbLine
10
198.16857998451241
20
-79.972918824815508
30
0
11
198.16857998451243
21
-76.974129423817175
31
0
0
LINE
5
222
100
AcDbEntity
8
0
100
AcDbLine
10
198.16857998451243
20
-76.974129423817175
30
0
11
192.17100118251582
21
-76.974129423817175
31
0
0
LINE
5
223
100
AcDbEntity
8
0
100
AcDbLine
10
192.17100118251582
20
-76.974129423817175
30
0
11
192.17100118251582
21
-79.97291882481548
31
0
0
LINE
5
224
100
AcDbEntity
8
0
100
AcDbLine
10
192.17100118251582
20
-79.97291882481548
30
0
11
180.17480633626298
21
-80.029692584965829
31
0
0
LINE
5
225
100
AcDbEntity
8
0
100
AcDbLine
10
180.17480633626298
20
-80.029692584965829
30
0
11
180.17480633626298
21
-87.970163421252877
31
0
0
LINE
5
226
100
AcDbEntity
8
0
100
AcDbLine
10
180.17480633626298
20
-87.970163421252877
30
0
11
161.47900272101754
21
-87.970163421252863
31
0
0
LINE
5
227
100
AcDbEntity
8
0
100
AcDbLine
10
161.47900272101754
20
-87.970163421252863
30
0
11
159.18224328701524
21
-189.93521125519024
31
0
0
LINE
5
228
100
AcDbEntity
8
0
100
AcDbLine
10
159.18224328701524
20
-189.93521125519024
30
0
11
165.17982208901188
21
-189.93521125519024
31
0
0
LINE
5
229
100
AcDbEntity
8
0
100
AcDbLine
10
165.17982208901188
20
-189.93521125519024
30
0
11
165.17982208901188
21
-195.93330486492601
31
0
0
LINE
5
230
100
AcDbEntity
8
0
100
AcDbLine
10
165.17982208901188
20
-195.93330486492601
30
0
11
159.18224328701527
21
-196.93290133192539
31
0
0
LINE
5
231
100
AcDbEntity
8
0
100
AcDbLine
10
159.18224328701527
20
-196.93290133192539
30
0
11
159.18224328701524
21
-202.9309987550518
31
0
0
LINE
5
232
100
AcDbEntity
8
0
100
AcDbLine
10
159.18224328701524
20
-202.9309987550518
30
0
11
170.17832304513885
21
-204.93019168905073
31
0
0
LINE
5
233
100
AcDbEntity
8
0
100
AcDbLine
10
170.17832304513885
20
-204.93019168905073
30
0
11
175.1768240012658
21
-214.92667116678422
31
0
0
LINE
5
234
100
AcDbEntity
8
0
100
AcDbLine
10
175.1768240012658
20
-214.92667116678422
30
0
11
175.1768240012658
21
-220.92476668321527
31
0
0
LINE
5
235
100
AcDbEntity
8
0
100
AcDbLine
10
175.1768240012658
20
-220.92476668321527
30
0
11
165.1798373425745
21
-222.41615326332783
31
0
0
LINE
5
236
100
AcDbEntity
8
0
100
AcDbLine
10
165.1798373425745
20
-222.41615326332783
30
0
11
163.18064440857566
21
-228.92205513364524
31
0
0
LINE
5
237
100
AcDbEntity
8
0
100
AcDbLine
10
163.18064440857566
20
-228.92205513364524
30
0
11
152.18456465045205
21
-229.92165160064468
31
0
0
LINE
5
238
100
AcDbEntity
8
0
100
AcDbLine
10
152.18456465045205
20
-229.92165160064468
30
0
11
152.18456465045205
21
-249.91461436950232
31
0
0
LINE
5
239
100
AcDbEntity
8
0
100
AcDbLine
10
152.18456465045205
20
-249.91461436950232
30
0
11
148.18566016132451
21
-249.91461436950232
31
0
0
SPLINE
5
240
100
AcDbEntity
8
0
100
AcDbSpline
70
4
71
3
72
8
73
4
74
0
42
0.000000001
43
0.0000000001
44
0.0000000001
40
0
40
0
40
0
40
0
40
1
40
1
40
1
40
1
41
1
41
1
41
1
41
1
10
100.2029552608324
20
-136.99585354767714
30
0
10
102.17206816930293
20
-136.99585354767714
30
0
10
104.14139462765044
20
-136.9017848268692
30
0
10
104.54643010324206
20
-136.71431854200955
30
0
0
SPLINE
5
241
100
AcDbEntity
8
0
100
AcDbSpline
70
4
71
3
72
8
73
4
74
0
42
0.000000001
43
0.0000000001
44
0.0000000001
40
0
40
0
40
0
40
0
40
1
40
1
40
1
40
1
41
1
41
1
41
1
41
1
10
104.54643010324206
20
-136.71431854200955
30
0
10
105.20146384374071
20
-136.41105483635963
30
0
10
105.73418689220132
20
-135.86008090019888
30
0
10
106.00940692293548
20
-135.20122614225863
30
0
0
SPLINE
5
242
100
AcDbEntity
8
0
100
AcDbSpline
70
4
71
3
72
8
73
4
74
0
42
0.000000001
43
0.0000000001
44
0.0000000001
40
0
40
0
40
0
40
0
40
1
40
1
40
1
40
1
41
1
41
1
41
1
41
1
10
106.00940692293548
20
-135.20122614225863
30
0
10
106.3455954435463
20
-134.39642529696792
30
0
10
106.30784287600946
20
-127.35487741424879
30
0
10
105.96342505835375
20
-126.61090014998963
30
0
0
SPLINE
5
243
100
AcDbEntity
8
0
100
AcDbSpline
70
4
71
3
72
8
73
4
74
0
42
0.000000001
43
0.0000000001
44
0.0000000001
40
0
40
0
40
0
40
0
40
1
40
1
40
1
40
1
41
1
41
1
41
1
41
1
10
105.96342505835375
20
-126.61090014998963
30
0
10
105.29041499428253
20
-125.15728139097655
30
0
10
103.3727218454753
20
-124.49438443893641
30
0
10
101.87360933588499
20
-125.19700166809409
30
0
0
SPLINE
5
244
100
AcDbEntity
8
0
100
AcDbSpline
70
4
71
3
72
8
73
4
74
0
42
0.000000001
43
0.0000000001
44
0.0000000001
40
0
40
0
40
0
40
0
40
1
40
1
40
1
40
1
41
1
41
1
41
1
41
1
10
101.87360933588499
20
-125.19700166809409
30
0
10
101.13849439152035
20
-125.54154151425094
30
0
10
94.673805740763996
20
-132.04457762148712
30
0
10
94.3944596213354
20
-132.72057738383603
30
0
0
SPLINE
5
245
100
AcDbEntity
8
0
100
AcDbSpline
70
4
71
3
72
8
73
4
74
0
42
0.000000001
43
0.0000000001
44
0.0000000001
40
0
40
0
40
0
40
0
40
1
40
1
40
1
40
1
41
1
41
1
41
1
41
1
10
94.3944596213354
20
-132.72057738383603
30
0
10
93.772655767050495
20
-134.22534133838485
30
0
10
94.445513295495317
20
-136.05967376735825
30
0
10
95.859503298766697
20
-136.71431854200955
30
0
0
SPLINE
5
246
100
AcDbEntity
8
0
100
AcDbSpline
70
4
71
3
72
8
73
4
74
0
42
0.000000001
43
0.0000000001
44
0.0000000001
40
0
40
0
40
0
40
0
40
1
40
1
40
1
40
1
41
1
41
1
41
1
41
1
10
95.859503298766697
20
-136.71431854200955
30
0
10
96.264531147577003
20
-136.90183058755713
30
0
10
98.233857605924513
20
-136.99585354767714
30
0
10
100.2029552608324
20
-136.99585354767714
30
0
0
SPLINE
5
247
100
AcDbEntity
8
0
100
AcDbSpline
70
4
71
3
72
8
73
4
74
0
42
0.000000001
43
0.0000000001
44
0.0000000001
40
0
40
0
40
0
40
0
40
1
40
1
40
1
40
1
41
1
41
1
41
1
41
1
10
97.354497346443893
20
-120.99922122925133
30
0
10
97.755612656436725
20
-120.98532523368524
30
0
10
98.156506789771271
20
-120.8948868607859
30
0
10
98.531286823864178
20
-120.71922683341049
30
0
0
SPLINE
5
248
100
AcDbEntity
8
0
100
AcDbSpline
70
4
71
3
72
8
73
4
74
0
42
0.000000001
43
0.0000000001
44
0.0000000001
40
0
40
0
40
0
40
0
40
1
40
1
40
1
40
1
41
1
41
1
41
1
41
1
10
98.531286823864178
20
-120.71922683341049
30
0
10
99.266401768228803
20
-120.37467936047234
30
0
10
105.73057179785538
20
-113.87165850679878
30
0
10
106.00991791728397
20
-113.19565111766856
30
0
0
SPLINE
5
249
100
AcDbEntity
8
0
100
AcDbSpline
70
4
71
3
72
8
73
4
74
0
42
0.000000001
43
0.0000000001
44
0.0000000001
40
0
40
0
40
0
40
0
40
1
40
1
40
1
40
1
41
1
41
1
41
1
41
1
10
106.00991791728397
20
-113.19565111766856
30
0
10
106.63172177156888
20
-111.69088716311974
30
0
10
105.95883373599877
20
-109.85655473414636
30
0
10
104.54488186663399
20
-109.20190233271373
30
0
0
SPLINE
5
250
100
AcDbEntity
8
0
100
AcDbSpline
70
4
71
3
72
8
73
4
74
0
42
0.000000001
43
0.0000000001
44
0.0000000001
40
0
40
0
40
0
40
0
40
1
40
1
40
1
40
1
41
1
41
1
41
1
41
1
10
104.54488186663399
20
-109.20190233271373
30
0
10
103.7348261690134
20
-108.82686298805594
30
0
10
96.66851412734637
20
-108.82686298805594
30
0
10
95.858466056507098
20
-109.20190233271373
30
0
0
SPLINE
5
251
100
AcDbEntity
8
0
100
AcDbSpline
70
4
71
3
72
8
73
4
74
0
42
0.000000001
43
0.0000000001
44
0.0000000001
40
0
40
0
40
0
40
0
40
1
40
1
40
1
40
1
41
1
41
1
41
1
41
1
10
95.858466056507098
20
-109.20190233271373
30
0
10
95.203432316008474
20
-109.50517366514495
30
0
10
94.670716894329161
20
-110.05613234774307
30
0
10
94.395489236813688
20
-110.71499473246463
30
0
0
SPLINE
5
252
100
AcDbEntity
8
0
100
AcDbSpline
70
4
71
3
72
8
73
4
74
0
42
0.000000001
43
0.0000000001
44
0.0000000001
40
0
40
0
40
0
40
0
40
1
40
1
40
1
40
1
41
1
41
1
41
1
41
1
10
94.395489236813688
20
-110.71499473246463
30
0
10
94.059300716202884
20
-111.51978795097403
30
0
10
94.097045656958386
20
-118.5613510872558
30
0
10
94.441463474614096
20
-119.30532835151494
30
0
0
SPLINE
5
253
100
AcDbEntity
8
0
100
AcDbSpline
70
4
71
3
72
8
73
4
74
0
42
0.000000001
43
0.0000000001
44
0.0000000001
40
0
40
0
40
0
40
0
40
1
40
1
40
1
40
1
41
1
41
1
41
1
41
1
10
94.441463474614096
20
-119.30532835151494
30
0
10
94.946219115972184
20
-120.39554623416542
30
0
10
96.151143789684056
20
-121.04101599088806
30
0
10
97.354497346443893
20
-120.99922122925133
30
0
0
SPLINE
5
254
100
AcDbEntity
8
0
100
AcDbSpline
70
4
71
3
72
8
73
4
74
0
42
0.000000001
43
0.0000000001
44
0.0000000001
40
0
40
0
40
0
40
0
40
1
40
1
40
1
40
1
41
1
41
1
41
1
41
1
10
100.2029552608324
20
-103.00752206552107
30
0
10
102.17206816930293
20
-103.00752206552107
30
0
10
104.14139462765044
20
-102.91345334471315
30
0
10
104.54643010324206
20
-102.72598705985348
30
0
0
SPLINE
5
255
100
AcDbEntity
8
0
100
AcDbSpline
70
4
71
3
72
8
73
4
74
0
42
0.000000001
43
0.0000000001
44
0.0000000001
40
0
40
0
40
0
40
0
40
1
40
1
40
1
40
1
41
1
41
1
41
1
41
1
10
104.54643010324206
20
-102.72598705985348
30
0
10
105.20146384374071
20
-102.42271572742227
30
0
10
105.73418689220132
20
-101.87175704482415
30
0
10
106.00940692293548
20
-101.21289466010259
30
0
0
SPLINE
5
256
100
AcDbEntity
8
0
100
AcDbSpline
70
4
71
3
72
8
73
4
74
0
42
0.000000001
43
0.0000000001
44
0.0000000001
40
0
40
0
40
0
40
0
40
1
40
1
40
1
40
1
41
1
41
1
41
1
41
1
10
106.00940692293548
20
-101.21289466010259
30
0
10
106.3455954435463
20
-100.40808618803057
30
0
10
106.30784287600946
20
-93.366538305311423
30
0
10
105.96342505835375
20
-92.622561041052279
30
0
0
SPLINE
5
257
100
AcDbEntity
8
0
100
AcDbSpline
70
4
71
3
72
8
73
4
74
0
42
0.000000001
43
0.0000000001
44
0.0000000001
40
0
40
0
40
0
40
0
40
1
40
1
40
1
40
1
41
1
41
1
41
1
41
1
10
105.96342505835375
20
-92.622561041052279
30
0
10
105.29041499428253
20
-91.168942282039197
30
0
10
103.3727218454753
20
-90.506068210343003
30
0
10
101.87360933588499
20
-91.208662559156735
30
0
0
SPLINE
5
258
100
AcDbEntity
8
0
100
AcDbSpline
70
4
71
3
72
8
73
4
74
0
42
0.000000001
43
0.0000000001
44
0.0000000001
40
0
40
0
40
0
40
0
40
1
40
1
40
1
40
1
41
1
41
1
41
1
41
1
10
101.87360933588499
20
-91.208662559156735
30
0
10
101.13849439152035
20
-91.553210032094881
30
0
10
94.673805740763996
20
-98.05624613933108
30
0
10
94.3944596213354
20
-98.732238274898663
30
0
0
SPLINE
5
259
100
AcDbEntity
8
0
100
AcDbSpline
70
4
71
3
72
8
73
4
74
0
42
0.000000001
43
0.0000000001
44
0.0000000001
40
0
40
0
40
0
40
0
40
1
40
1
40
1
40
1
41
1
41
1
41
1
41
1
10
94.3944596213354
20
-98.732238274898663
30
0
10
93.772655767050495
20
-100.23700222944748
30
0
10
94.445520922276643
20
-102.07133465842088
30
0
10
95.859503298766697
20
-102.72598705985348
30
0
0
SPLINE
5
260
100
AcDbEntity
8
0
100
AcDbSpline
70
4
71
3
72
8
73
4
74
0
42
0.000000001
43
0.0000000001
44
0.0000000001
40
0
40
0
40
0
40
0
40
1
40
1
40
1
40
1
41
1
41
1
41
1
41
1
10
95.859503298766697
20
-102.72598705985348
30
0
10
96.264531147577003
20
-102.91349910540107
30
0
10
98.23387285948715
20
-103.00752206552107
30
0
10
100.2029552608324
20
-103.00752206552107
30
0
0
SPLINE
5
261
100
AcDbEntity
8
0
100
AcDbSpline
70
4
71
3
72
8
73
4
74
0
42
0.000000001
43
0.0000000001
44
0.0000000001
40
0
40
0
40
0
40
0
40
1
40
1
40
1
40
1
41
1
41
1
41
1
41
1
10
97.354497346443893
20
-87.010882120313966
30
0
10
97.755612656436725
20
-86.996986124747878
30
0
10
98.156506789771271
20
-86.906547751848535
30
0
10
98.531286823864178
20
-86.730887724473121
30
0
0
SPLINE
5
262
100
AcDbEntity
8
0
100
AcDbSpline
70
4
71
3
72
8
73
4
74
0
42
0.000000001
43
0.0000000001
44
0.0000000001
40
0
40
0
40
0
40
0
40
1
40
1
40
1
40
1
41
1
41
1
41
1
41
1
10
98.531286823864178
20
-86.730887724473121
30
0
10
99.266401768228803
20
-86.386340251534961
30
0
10
105.73057179785538
20
-79.883319397861428
30
0
10
106.00991791728397
20
-79.207312008731208
30
0
0
SPLINE
5
263
100
AcDbEntity
8
0
100
AcDbSpline
70
4
71
3
72
8
73
4
74
0
42
0.000000001
43
0.0000000001
44
0.0000000001
40
0
40
0
40
0
40
0
40
1
40
1
40
1
40
1
41
1
41
1
41
1
41
1
10
106.00991791728397
20
-79.207312008731208
30
0
10
106.63172177156888
20
-77.702548054182358
30
0
10
105.95883373599877
20
-75.868215625208961
30
0
10
104.54488186663399
20
-75.21356322377639
30
0
0
SPLINE
5
264
100
AcDbEntity
8
0
100
AcDbSpline
70
4
71
3
72
8
73
4
74
0
42
0.000000001
43
0.0000000001
44
0.0000000001
40
0
40
0
40
0
40
0
40
1
40
1
40
1
40
1
41
1
41
1
41
1
41
1
10
104.54488186663399
20
-75.21356322377639
30
0
10
103.7348261690134
20
-74.838523879118554
30
0
10
96.66851412734637
20
-74.838523879118554
30
0
10
95.858466056507098
20
-75.21356322377639
30
0
0
SPLINE
5
265
100
AcDbEntity
8
0
100
AcDbSpline
70
4
71
3
72
8
73
4
74
0
42
0.000000001
43
0.0000000001
44
0.0000000001
40
0
40
0
40
0
40
0
40
1
40
1
40
1
40
1
41
1
41
1
41
1
41
1
10
95.858466056507098
20
-75.21356322377639
30
0
10
95.203432316008474
20
-75.516834556207584
30
0
10
94.670716894329161
20
-76.067793238805706
30
0
10
94.395489236813688
20
-76.726640369964628
30
0
0
SPLINE
5
266
100
AcDbEntity
8
0
100
AcDbSpline
70
4
71
3
72
8
73
4
74
0
42
0.000000001
43
0.0000000001
44
0.0000000001
40
0
40
0
40
0
40
0
40
1
40
1
40
1
40
1
41
1
41
1
41
1
41
1
10
94.395489236813688
20
-76.726640369964628
30
0
10
94.059300716202884
20
-77.531448842036667
30
0
10
94.097045656958386
20
-84.572996724755782
30
0
10
94.441463474614096
20
-85.316973989014926
30
0
0
SPLINE
5
267
100
AcDbEntity
8
0
100
AcDbSpline
70
4
71
3
72
8
73
4
74
0
42
0.000000001
43
0.0000000001
44
0.0000000001
40
0
40
0
40
0
40
0
40
1
40
1
40
1
40
1
41
1
41
1
41
1
41
1
10
94.441463474614096
20
-85.316973989014926
30
0
10
94.946219115972184
20
-86.407191871665418
30
0
10
96.151143789684056
20
-87.052646374825429
30
0
10
97.354497346443893
20
-87.010882120313966
30
0
0
LINE
5
268
100
AcDbEntity
8
0
100
AcDbLine
10
137.99999999613189
20
-1.0660581788478522e-14
30
0
11
275.99999999613181
21
-5.5059082469749589e-15
31
0
0
LINE
5
269
100
AcDbEntity
8
0
100
AcDbLine
10
413.99999999613181
20
0
30
0
11
551.99999999613181
21
0
31
0
0
LINE
5
270
100
AcDbEntity
8
0
100
AcDbLine
10
0
20
0
30
0
11
690.00001500269275
21
1.0021084311384446e-45
31
0
0
LINE
5
271
100
AcDbEntity
8
0
100
AcDbLine
10
690.00001499882455
20
70
30
0
11
-3.8681521793582538e-09
21
69.999999999999986
31
0
0
LINE
5
272
100
AcDbEntity
8
0
100
AcDbLine
10
137.99999999613186
20
15.099999999999989
30
0
11
137.99999999613189
21
-1.0660581788478522e-14
31
0
0
LINE
5
273
100
AcDbEntity
8
0
100
AcDbLine
10
-3.8681509862069168e-09
20
15.099999999999996
30
0
11
-3.8681521793582538e-09
21
69.999999999999986
31
0
0
LWPOLYLINE
5
274
100
AcDbEntity
8
0
100
AcDbPolyline
90
8
70
1
43
0.0
10
275.99999999613198
20
4.0084336373420978e-46
10
413.99999999613186
20
-2.2205879921004779e-15
10
413.99999999613186
20
15.099999999999998
10
352.54999999613182
20
15.099999999999749
10
352.54999999613182
20
44.603571428571421
10
337.44999999613185
20
44.603571428571421
10
337.44999999613185
20
15.099999999999994
10
275.99999999613186
20
15.099999999999998
0
LINE
5
275
100
AcDbEntity
8
0
100
AcDbLine
10
552.00001499882455
20
6.6613381477509392e-15
30
0
11
552.00001499882455
21
15.1
31
0
0
LINE
5
276
100
AcDbEntity
8
0
100
AcDbLine
10
690.00001499882455
20
15.100000000000007
30
0
11
690.00001499882455
21
70
31
0
0
LINE
5
277
100
AcDbEntity
8
0
100
AcDbLine
10
105.99999999613186
20
15.099999999999978
30
0
11
105.99999999613186
21
44.603571428571421
31
0
0
LINE
5
278
100
AcDbEntity
8
0
100
AcDbLine
10
105.99999999613186
20
44.603571428571421
30
0
11
121.09999999613186
21
44.603571428571421
31
0
0
LINE
5
279
100
AcDbEntity
8
0
100
AcDbLine
10
121.09999999613186
20
44.603571428571421
30
0
11
121.09999999613186
21
15.099999999999989
31
0
0
LINE
5
280
100
AcDbEntity
8
0
100
AcDbLine
10
584.00001499882455
20
15.099999999999998
30
0
11
584.00001499882455
21
44.603571428571385
31
0
0
LINE
5
281
100
AcDbEntity
8
0
100
AcDbLine
10
584.00001499882455
20
44.603571428571385
30
0
11
568.90001499882464
21
44.603571428571385
31
0
0
LINE
5
282
100
AcDbEntity
8
0
100
AcDbLine
10
568.90001499882464
20
44.603571428571385
30
0
11
568.90001499882464
21
15.099999999999955
31
0
0
LINE
5
283
100
AcDbEntity
8
0
100
AcDbLine
10
121.09999999613186
20
15.099999999999989
30
0
11
137.99999999613186
21
15.099999999999989
31
0
0
LINE
5
284
100
AcDbEntity
8
0
100
AcDbLine
10
105.99999999613186
20
15.099999999999978
30
0
11
-3.8681509862069168e-09
21
15.099999999999996
31
0
0
LINE
5
285
100
AcDbEntity
8
0
100
AcDbLine
10
552.00001499882455
20
15.1
30
0
11
568.90001499882464
21
15.099999999999955
31
0
0
LINE
5
286
100
AcDbEntity
8
0
100
AcDbLine
10
584.00001499882455
20
15.099999999999998
30
0
11
690.00001499882455
21
15.100000000000007
31
0
0
ENDSEC
0
SECTION
2
OBJECTS
0
DICTIONARY
5
C
100
AcDbDictionary
3
ACAD_GROUP
350
D
3
ACAD_MLINESTYLE
350
17
0
DICTIONARY
5
D
100
AcDbDictionary
0
DICTIONARY
5
1A
330
C
100
AcDbDictionary
0
DICTIONARY
5
17
100
AcDbDictionary
0
ENDSEC
0
EOF
