%TF.GenerationSoftware,KiCad,Pcbnew,8.0.0*%
%TF.CreationDate,2024-03-28T17:58:10+02:00*%
%TF.ProjectId,xiao_esp32c3,7869616f-5f65-4737-9033-3263332e6b69,rev?*%
%TF.SameCoordinates,Original*%
%TF.FileFunction,Copper,L1,Top*%
%TF.FilePolarity,Positive*%
%FSLAX46Y46*%
G04 Gerber Fmt 4.6, Leading zero omitted, Abs format (unit mm)*
G04 Created by KiCad (PCBNEW 8.0.0) date 2024-03-28 17:58:10*
%MOMM*%
%LPD*%
G01*
G04 APERTURE LIST*
%TA.AperFunction,ComponentPad*%
%ADD10C,3.300000*%
%TD*%
%TA.AperFunction,ComponentPad*%
%ADD11C,2.300000*%
%TD*%
%TA.AperFunction,SMDPad,CuDef*%
%ADD12R,1.700000X1.400000*%
%TD*%
%TA.AperFunction,SMDPad,CuDef*%
%ADD13R,2.800000X2.200000*%
%TD*%
%TA.AperFunction,SMDPad,CuDef*%
%ADD14R,2.800000X2.800000*%
%TD*%
%TA.AperFunction,ComponentPad*%
%ADD15C,1.800000*%
%TD*%
%TA.AperFunction,SMDPad,CuDef*%
%ADD16R,1.400000X1.700000*%
%TD*%
%TA.AperFunction,SMDPad,CuDef*%
%ADD17R,2.000000X1.000000*%
%TD*%
%TA.AperFunction,SMDPad,CuDef*%
%ADD18R,1.000000X0.700000*%
%TD*%
%TA.AperFunction,SMDPad,CuDef*%
%ADD19R,2.500000X1.700000*%
%TD*%
%TA.AperFunction,SMDPad,CuDef*%
%ADD20R,1.000000X2.000000*%
%TD*%
%TA.AperFunction,SMDPad,CuDef*%
%ADD21R,3.200000X1.800000*%
%TD*%
%TA.AperFunction,SMDPad,CuDef*%
%ADD22R,5.700000X1.200000*%
%TD*%
%TA.AperFunction,Conductor*%
%ADD23C,0.400000*%
%TD*%
%TA.AperFunction,Conductor*%
%ADD24C,0.600000*%
%TD*%
%TA.AperFunction,Conductor*%
%ADD25C,2.000000*%
%TD*%
%TA.AperFunction,Conductor*%
%ADD26C,3.000000*%
%TD*%
%TA.AperFunction,Conductor*%
%ADD27C,2.500000*%
%TD*%
%TA.AperFunction,Profile*%
%ADD28C,0.050000*%
%TD*%
G04 APERTURE END LIST*
D10*
X76000000Y-78000000D03*
D11*
X108400000Y-40500000D03*
D12*
X64000000Y-54800000D03*
X64000000Y-58200000D03*
D13*
X59600000Y-87850000D03*
D14*
X67000000Y-80450000D03*
D15*
X63300000Y-81750000D03*
X63300000Y-88750000D03*
D13*
X67000000Y-89850000D03*
D16*
X63300000Y-47500000D03*
X66700000Y-47500000D03*
X105200000Y-87500000D03*
X101800000Y-87500000D03*
D17*
X49350000Y-87480000D03*
X46050000Y-90020000D03*
D18*
X93300000Y-67050000D03*
X93300000Y-68950000D03*
X95700000Y-68000000D03*
D19*
X101700000Y-61950000D03*
X101700000Y-64490000D03*
X101700000Y-67030000D03*
D17*
X53760000Y-42460000D03*
X57060000Y-45000000D03*
X53760000Y-47540000D03*
X57060000Y-50080000D03*
X53760000Y-52620000D03*
X57060000Y-55160000D03*
X53760000Y-57700000D03*
X72300000Y-57700000D03*
X69000000Y-55160000D03*
X72300000Y-52620000D03*
X69000000Y-50080000D03*
X72300000Y-47540000D03*
X69000000Y-45000000D03*
X72300000Y-42460000D03*
D12*
X95000000Y-58300000D03*
X95000000Y-61700000D03*
D20*
X71000000Y-67000000D03*
X68460000Y-70300000D03*
X65920000Y-67000000D03*
X63380000Y-70300000D03*
X60840000Y-67000000D03*
D18*
X85800000Y-53050000D03*
X85800000Y-54950000D03*
X88200000Y-54000000D03*
D16*
X80200000Y-46000000D03*
X76800000Y-46000000D03*
X86800000Y-78000000D03*
X90200000Y-78000000D03*
D12*
X87000000Y-44800000D03*
X87000000Y-48200000D03*
D21*
X44500000Y-42600000D03*
X44500000Y-53400000D03*
D22*
X46500000Y-45000000D03*
X46500000Y-47000000D03*
X46500000Y-49000000D03*
X46500000Y-51000000D03*
D17*
X80150000Y-50230000D03*
X76850000Y-52770000D03*
D16*
X90200000Y-87500000D03*
X86800000Y-87500000D03*
X83700000Y-67000000D03*
X80300000Y-67000000D03*
D18*
X93300000Y-53050000D03*
X93300000Y-54950000D03*
X95700000Y-54000000D03*
D12*
X94800000Y-44800000D03*
X94800000Y-48200000D03*
D19*
X48300000Y-63050000D03*
X48300000Y-60510000D03*
X48300000Y-57970000D03*
X101700000Y-48000000D03*
X101700000Y-50540000D03*
X101700000Y-53080000D03*
X101700000Y-75500000D03*
X101700000Y-78040000D03*
X101700000Y-80580000D03*
D20*
X55500000Y-67000000D03*
X58040000Y-70300000D03*
D23*
X76700000Y-52620000D02*
X76850000Y-52770000D01*
X72300000Y-52620000D02*
X76700000Y-52620000D01*
X80000000Y-50080000D02*
X80150000Y-50230000D01*
X69000000Y-50080000D02*
X80000000Y-50080000D01*
D24*
X70880000Y-48880000D02*
X72260000Y-47500000D01*
X68080000Y-48880000D02*
X70880000Y-48880000D01*
X66700000Y-47500000D02*
X68080000Y-48880000D01*
X43030000Y-57970000D02*
X48300000Y-57970000D01*
X43000000Y-58000000D02*
X43030000Y-57970000D01*
X42200000Y-48050000D02*
X42200000Y-57200000D01*
X43250000Y-47000000D02*
X42200000Y-48050000D01*
X46500000Y-47000000D02*
X43250000Y-47000000D01*
X42200000Y-57200000D02*
X43000000Y-58000000D01*
D23*
X53760000Y-41740000D02*
X53760000Y-42460000D01*
X70200000Y-43329848D02*
X70200000Y-42200000D01*
X70200000Y-42200000D02*
X69500000Y-41500000D01*
X54000000Y-41500000D02*
X53760000Y-41740000D01*
X71430152Y-44560000D02*
X70200000Y-43329848D01*
X69500000Y-41500000D02*
X54000000Y-41500000D01*
X75360000Y-44560000D02*
X71430152Y-44560000D01*
X76800000Y-46000000D02*
X75360000Y-44560000D01*
D25*
X95000000Y-58300000D02*
X95800000Y-57500000D01*
X95800000Y-57500000D02*
X106120000Y-57500000D01*
X106120000Y-57500000D02*
X106920000Y-58300000D01*
D23*
X65920000Y-60120000D02*
X65920000Y-67000000D01*
X64000000Y-58200000D02*
X65920000Y-60120000D01*
X61780000Y-54800000D02*
X57060000Y-50080000D01*
X64000000Y-54800000D02*
X61780000Y-54800000D01*
X64820000Y-68600000D02*
X64820000Y-65820000D01*
X66520000Y-70300000D02*
X64820000Y-68600000D01*
X56700000Y-57700000D02*
X53760000Y-57700000D01*
X68460000Y-70300000D02*
X66520000Y-70300000D01*
X64820000Y-65820000D02*
X56700000Y-57700000D01*
X72300000Y-64700000D02*
X72300000Y-57700000D01*
X71000000Y-66000000D02*
X72300000Y-64700000D01*
X71000000Y-67000000D02*
X71000000Y-66000000D01*
D26*
X106000000Y-93000000D02*
X43000000Y-93000000D01*
X43000000Y-79500000D02*
X55500000Y-67000000D01*
X43000000Y-93000000D02*
X43000000Y-79500000D01*
X107000000Y-85700000D02*
X107000000Y-92000000D01*
X107000000Y-92000000D02*
X106000000Y-93000000D01*
D23*
X56830000Y-80000000D02*
X66550000Y-80000000D01*
X49350000Y-87480000D02*
X56830000Y-80000000D01*
X54050000Y-87850000D02*
X59600000Y-87850000D01*
X51880000Y-90020000D02*
X54050000Y-87850000D01*
X46050000Y-90020000D02*
X51880000Y-90020000D01*
X65850000Y-80450000D02*
X64550000Y-81750000D01*
X66550000Y-80000000D02*
X67000000Y-80450000D01*
X67000000Y-80450000D02*
X65850000Y-80450000D01*
X64550000Y-81750000D02*
X63300000Y-81750000D01*
X63300000Y-81750000D02*
X63300000Y-88750000D01*
D26*
X107000000Y-85700000D02*
X105200000Y-87500000D01*
D27*
X101700000Y-53080000D02*
X107000000Y-58380000D01*
D26*
X72300000Y-42460000D02*
X85000000Y-42460000D01*
X107000000Y-45500000D02*
X107000000Y-85700000D01*
X103960000Y-42460000D02*
X107000000Y-45500000D01*
X85000000Y-42460000D02*
X92500000Y-42460000D01*
X92500000Y-42460000D02*
X103960000Y-42460000D01*
D23*
X85000000Y-42800000D02*
X85000000Y-42460000D01*
D25*
X87000000Y-44800000D02*
X85000000Y-42800000D01*
D27*
X101700000Y-67030000D02*
X107000000Y-72330000D01*
D23*
X94800000Y-44800000D02*
X94800000Y-44760000D01*
D25*
X94800000Y-44760000D02*
X92500000Y-42460000D01*
D23*
X106920000Y-58300000D02*
X107000000Y-58380000D01*
X94840000Y-50540000D02*
X95700000Y-51400000D01*
X101700000Y-50540000D02*
X94840000Y-50540000D01*
X94800000Y-50500000D02*
X94840000Y-50540000D01*
X94800000Y-48200000D02*
X94800000Y-50500000D01*
X95700000Y-51400000D02*
X95700000Y-54000000D01*
X101700000Y-64490000D02*
X95010000Y-64490000D01*
X95010000Y-64490000D02*
X95700000Y-65180000D01*
X95700000Y-65180000D02*
X95700000Y-68000000D01*
X95010000Y-64490000D02*
X95000000Y-64500000D01*
X95000000Y-64500000D02*
X95000000Y-61700000D01*
X46500000Y-49000000D02*
X50140000Y-49000000D01*
X50140000Y-49000000D02*
X53760000Y-52620000D01*
X50660000Y-55160000D02*
X57060000Y-55160000D01*
X46500000Y-51000000D02*
X50660000Y-55160000D01*
X72260000Y-47500000D02*
X72300000Y-47540000D01*
D24*
X62240000Y-46300000D02*
X47060000Y-46300000D01*
X63300000Y-47360000D02*
X62240000Y-46300000D01*
X47060000Y-46300000D02*
X46500000Y-46860000D01*
D27*
X95000000Y-87500000D02*
X101800000Y-87500000D01*
D23*
X101700000Y-80580000D02*
X101700000Y-80800000D01*
D27*
X101700000Y-80800000D02*
X95000000Y-87500000D01*
X95000000Y-87500000D02*
X90200000Y-87500000D01*
D23*
X90200000Y-78000000D02*
X101660000Y-78000000D01*
X101660000Y-78000000D02*
X101700000Y-78040000D01*
X49950000Y-60510000D02*
X48300000Y-60510000D01*
X67560000Y-56600000D02*
X52160000Y-56600000D01*
X50500000Y-59960000D02*
X49950000Y-60510000D01*
X50500000Y-58260000D02*
X50500000Y-59960000D01*
X69000000Y-55160000D02*
X67560000Y-56600000D01*
X52160000Y-56600000D02*
X50500000Y-58260000D01*
X53760000Y-47540000D02*
X58040000Y-47540000D01*
X61000000Y-50500000D02*
X63000000Y-50500000D01*
X86800000Y-77800000D02*
X86800000Y-78000000D01*
X76500000Y-56500000D02*
X76500000Y-67500000D01*
X74000000Y-54000000D02*
X76500000Y-56500000D01*
X66500000Y-54000000D02*
X74000000Y-54000000D01*
X63000000Y-50500000D02*
X66500000Y-54000000D01*
X76500000Y-67500000D02*
X86800000Y-77800000D01*
X58040000Y-47540000D02*
X61000000Y-50500000D01*
X64500000Y-45000000D02*
X65000000Y-45500000D01*
X80300000Y-53300000D02*
X80300000Y-67000000D01*
X65000000Y-45500000D02*
X65000000Y-49000000D01*
X78500000Y-51500000D02*
X80300000Y-53300000D01*
X67500000Y-51500000D02*
X78500000Y-51500000D01*
X57060000Y-45000000D02*
X64500000Y-45000000D01*
X65000000Y-49000000D02*
X67500000Y-51500000D01*
X81500000Y-46000000D02*
X85800000Y-50300000D01*
X80200000Y-46000000D02*
X81500000Y-46000000D01*
X85800000Y-50300000D02*
X85800000Y-53050000D01*
X90550000Y-53050000D02*
X93300000Y-53050000D01*
X87000000Y-50500000D02*
X87000000Y-51000000D01*
X88000000Y-50500000D02*
X90550000Y-53050000D01*
X88000000Y-50500000D02*
X87000000Y-50500000D01*
X87000000Y-51000000D02*
X87000000Y-52800000D01*
X87000000Y-52800000D02*
X88200000Y-54000000D01*
X87000000Y-48200000D02*
X87000000Y-50500000D01*
X93250000Y-67000000D02*
X93300000Y-67050000D01*
X83700000Y-67000000D02*
X93250000Y-67000000D01*
%TA.AperFunction,Conductor*%
G36*
X110492539Y-38220185D02*
G01*
X110538294Y-38272989D01*
X110549500Y-38324500D01*
X110549500Y-96875500D01*
X110529815Y-96942539D01*
X110477011Y-96988294D01*
X110425500Y-96999500D01*
X39624500Y-96999500D01*
X39557461Y-96979815D01*
X39511706Y-96927011D01*
X39500500Y-96875500D01*
X39500500Y-93131127D01*
X40999500Y-93131127D01*
X41024611Y-93321851D01*
X41033730Y-93391116D01*
X41101602Y-93644418D01*
X41101605Y-93644428D01*
X41201953Y-93886690D01*
X41201958Y-93886700D01*
X41333075Y-94113803D01*
X41492718Y-94321851D01*
X41492726Y-94321860D01*
X41678140Y-94507274D01*
X41678147Y-94507280D01*
X41678149Y-94507282D01*
X41726554Y-94544424D01*
X41886196Y-94666924D01*
X42113299Y-94798041D01*
X42113309Y-94798046D01*
X42355571Y-94898394D01*
X42355581Y-94898398D01*
X42608884Y-94966270D01*
X42868880Y-95000500D01*
X42868887Y-95000500D01*
X106131113Y-95000500D01*
X106131120Y-95000500D01*
X106261118Y-94983385D01*
X106391116Y-94966271D01*
X106644419Y-94898398D01*
X106886697Y-94798043D01*
X107113803Y-94666924D01*
X107204131Y-94597611D01*
X107321851Y-94507283D01*
X108507283Y-93321851D01*
X108597611Y-93204131D01*
X108666924Y-93113803D01*
X108798043Y-92886697D01*
X108898398Y-92644419D01*
X108907920Y-92608884D01*
X108966271Y-92391115D01*
X108981131Y-92278232D01*
X109000500Y-92131120D01*
X109000500Y-85568880D01*
X109000500Y-45368880D01*
X108974078Y-45168189D01*
X108966271Y-45108884D01*
X108898398Y-44855581D01*
X108798043Y-44613303D01*
X108792612Y-44603897D01*
X108764770Y-44555672D01*
X108666927Y-44386201D01*
X108564970Y-44253329D01*
X108564970Y-44253328D01*
X108564968Y-44253327D01*
X108562270Y-44249811D01*
X108507283Y-44178149D01*
X108507282Y-44178148D01*
X108507278Y-44178143D01*
X105281856Y-40952721D01*
X105281849Y-40952715D01*
X105117257Y-40826420D01*
X105117255Y-40826418D01*
X105073810Y-40793080D01*
X104846700Y-40661958D01*
X104846690Y-40661954D01*
X104604419Y-40561602D01*
X104374519Y-40500000D01*
X106744396Y-40500000D01*
X106764778Y-40758990D01*
X106825427Y-41011610D01*
X106924843Y-41251623D01*
X106924845Y-41251627D01*
X106924846Y-41251628D01*
X107060588Y-41473140D01*
X107229311Y-41670689D01*
X107426860Y-41839412D01*
X107648372Y-41975154D01*
X107648374Y-41975154D01*
X107648376Y-41975156D01*
X107709693Y-42000554D01*
X107888390Y-42074573D01*
X108141006Y-42135221D01*
X108400000Y-42155604D01*
X108658994Y-42135221D01*
X108911610Y-42074573D01*
X109151628Y-41975154D01*
X109373140Y-41839412D01*
X109570689Y-41670689D01*
X109739412Y-41473140D01*
X109875154Y-41251628D01*
X109974573Y-41011610D01*
X110035221Y-40758994D01*
X110055604Y-40500000D01*
X110035221Y-40241006D01*
X109974573Y-39988390D01*
X109875154Y-39748372D01*
X109739412Y-39526860D01*
X109570689Y-39329311D01*
X109373140Y-39160588D01*
X109151628Y-39024846D01*
X109151627Y-39024845D01*
X109151623Y-39024843D01*
X108985627Y-38956086D01*
X108911610Y-38925427D01*
X108911611Y-38925427D01*
X108773921Y-38892370D01*
X108658994Y-38864779D01*
X108658992Y-38864778D01*
X108658991Y-38864778D01*
X108400000Y-38844396D01*
X108141009Y-38864778D01*
X107888389Y-38925427D01*
X107648376Y-39024843D01*
X107426859Y-39160588D01*
X107229311Y-39329311D01*
X107060588Y-39526859D01*
X106924843Y-39748376D01*
X106825427Y-39988389D01*
X106764778Y-40241009D01*
X106744396Y-40500000D01*
X104374519Y-40500000D01*
X104351116Y-40493729D01*
X104351115Y-40493728D01*
X104351112Y-40493728D01*
X104221118Y-40476615D01*
X104091127Y-40459500D01*
X104091120Y-40459500D01*
X92631120Y-40459500D01*
X85131120Y-40459500D01*
X72168880Y-40459500D01*
X72168872Y-40459500D01*
X71937772Y-40489926D01*
X71908884Y-40493730D01*
X71655581Y-40561602D01*
X71655571Y-40561605D01*
X71413309Y-40661953D01*
X71413299Y-40661958D01*
X71186196Y-40793075D01*
X70978148Y-40952718D01*
X70792718Y-41138148D01*
X70633083Y-41346186D01*
X70633078Y-41346193D01*
X70633076Y-41346197D01*
X70633075Y-41346199D01*
X70605449Y-41394047D01*
X70554882Y-41442261D01*
X70486274Y-41455483D01*
X70421410Y-41429514D01*
X70410382Y-41419726D01*
X69946546Y-40955888D01*
X69946545Y-40955887D01*
X69831807Y-40879222D01*
X69704332Y-40826421D01*
X69704322Y-40826418D01*
X69568996Y-40799500D01*
X69568994Y-40799500D01*
X69568993Y-40799500D01*
X53931007Y-40799500D01*
X53931003Y-40799500D01*
X53822590Y-40821065D01*
X53822589Y-40821065D01*
X53795681Y-40826418D01*
X53795671Y-40826420D01*
X53668190Y-40879224D01*
X53553454Y-40955887D01*
X53215887Y-41293454D01*
X53183149Y-41342452D01*
X53180646Y-41346198D01*
X53148674Y-41394047D01*
X53141762Y-41404392D01*
X53088149Y-41449196D01*
X53038660Y-41459500D01*
X52712130Y-41459500D01*
X52712123Y-41459501D01*
X52652516Y-41465908D01*
X52517671Y-41516202D01*
X52517664Y-41516206D01*
X52402455Y-41602452D01*
X52402452Y-41602455D01*
X52316206Y-41717664D01*
X52316202Y-41717671D01*
X52265908Y-41852517D01*
X52259501Y-41912116D01*
X52259500Y-41912135D01*
X52259500Y-43007870D01*
X52259501Y-43007876D01*
X52265908Y-43067483D01*
X52316202Y-43202328D01*
X52316206Y-43202335D01*
X52402452Y-43317544D01*
X52402455Y-43317547D01*
X52517664Y-43403793D01*
X52517671Y-43403797D01*
X52652517Y-43454091D01*
X52652516Y-43454091D01*
X52659444Y-43454835D01*
X52712127Y-43460500D01*
X54807872Y-43460499D01*
X54867483Y-43454091D01*
X55002331Y-43403796D01*
X55117546Y-43317546D01*
X55203796Y-43202331D01*
X55254091Y-43067483D01*
X55260500Y-43007873D01*
X55260499Y-42324499D01*
X55280183Y-42257461D01*
X55332987Y-42211706D01*
X55384499Y-42200500D01*
X69158481Y-42200500D01*
X69225520Y-42220185D01*
X69246162Y-42236819D01*
X69463181Y-42453837D01*
X69496666Y-42515160D01*
X69499500Y-42541518D01*
X69499500Y-43260854D01*
X69499500Y-43398842D01*
X69499500Y-43398844D01*
X69499499Y-43398844D01*
X69526418Y-43534170D01*
X69526421Y-43534180D01*
X69579222Y-43661655D01*
X69655887Y-43776393D01*
X70983606Y-45104112D01*
X71098344Y-45180777D01*
X71209965Y-45227011D01*
X71225824Y-45233580D01*
X71225828Y-45233580D01*
X71225829Y-45233581D01*
X71361155Y-45260500D01*
X71361158Y-45260500D01*
X71361159Y-45260500D01*
X75018481Y-45260500D01*
X75085520Y-45280185D01*
X75106162Y-45296819D01*
X75563181Y-45753838D01*
X75596666Y-45815161D01*
X75599500Y-45841519D01*
X75599500Y-46897870D01*
X75599501Y-46897876D01*
X75605908Y-46957483D01*
X75656202Y-47092328D01*
X75656206Y-47092335D01*
X75742452Y-47207544D01*
X75742455Y-47207547D01*
X75857664Y-47293793D01*
X75857671Y-47293797D01*
X75992517Y-47344091D01*
X75992516Y-47344091D01*
X75999444Y-47344835D01*
X76052127Y-47350500D01*
X77547872Y-47350499D01*
X77607483Y-47344091D01*
X77742331Y-47293796D01*
X77857546Y-47207546D01*
X77943796Y-47092331D01*
X77994091Y-46957483D01*
X78000500Y-46897873D01*
X78000499Y-45102128D01*
X77994091Y-45042517D01*
X77947685Y-44918097D01*
X77943797Y-44907671D01*
X77943793Y-44907664D01*
X77857547Y-44792455D01*
X77857544Y-44792452D01*
X77742335Y-44706206D01*
X77742328Y-44706202D01*
X77727527Y-44700682D01*
X77671593Y-44658811D01*
X77647176Y-44593346D01*
X77662028Y-44525073D01*
X77711433Y-44475668D01*
X77770860Y-44460500D01*
X79229140Y-44460500D01*
X79296179Y-44480185D01*
X79341934Y-44532989D01*
X79351878Y-44602147D01*
X79322853Y-44665703D01*
X79272473Y-44700682D01*
X79257671Y-44706202D01*
X79257664Y-44706206D01*
X79142455Y-44792452D01*
X79142452Y-44792455D01*
X79056206Y-44907664D01*
X79056202Y-44907671D01*
X79005908Y-45042517D01*
X78999501Y-45102116D01*
X78999501Y-45102123D01*
X78999500Y-45102135D01*
X78999500Y-46897870D01*
X78999501Y-46897876D01*
X79005908Y-46957483D01*
X79056202Y-47092328D01*
X79056206Y-47092335D01*
X79142452Y-47207544D01*
X79142455Y-47207547D01*
X79257664Y-47293793D01*
X79257671Y-47293797D01*
X79392517Y-47344091D01*
X79392516Y-47344091D01*
X79399444Y-47344835D01*
X79452127Y-47350500D01*
X80947872Y-47350499D01*
X81007483Y-47344091D01*
X81142331Y-47293796D01*
X81257546Y-47207546D01*
X81343796Y-47092331D01*
X81343797Y-47092328D01*
X81343798Y-47092327D01*
X81346421Y-47085294D01*
X81388290Y-47029359D01*
X81453754Y-47004939D01*
X81522027Y-47019789D01*
X81550285Y-47040942D01*
X85063181Y-50553837D01*
X85096666Y-50615160D01*
X85099500Y-50641518D01*
X85099500Y-52162819D01*
X85079815Y-52229858D01*
X85049812Y-52262085D01*
X84942452Y-52342455D01*
X84856206Y-52457664D01*
X84856202Y-52457671D01*
X84805908Y-52592517D01*
X84800748Y-52640517D01*
X84799501Y-52652123D01*
X84799500Y-52652135D01*
X84799500Y-53447870D01*
X84799501Y-53447876D01*
X84805908Y-53507483D01*
X84856202Y-53642328D01*
X84856206Y-53642335D01*
X84942452Y-53757544D01*
X84942455Y-53757547D01*
X85057664Y-53843793D01*
X85057671Y-53843797D01*
X85192517Y-53894091D01*
X85192516Y-53894091D01*
X85199444Y-53894835D01*
X85252127Y-53900500D01*
X86347872Y-53900499D01*
X86407483Y-53894091D01*
X86542331Y-53843796D01*
X86657546Y-53757546D01*
X86704224Y-53695192D01*
X86760153Y-53653324D01*
X86829844Y-53648340D01*
X86891165Y-53681822D01*
X86891168Y-53681825D01*
X87163181Y-53953838D01*
X87196666Y-54015161D01*
X87199500Y-54041519D01*
X87199500Y-54397869D01*
X87199501Y-54397876D01*
X87205908Y-54457483D01*
X87256202Y-54592328D01*
X87256206Y-54592335D01*
X87342452Y-54707544D01*
X87342455Y-54707547D01*
X87457664Y-54793793D01*
X87457671Y-54793797D01*
X87592517Y-54844091D01*
X87592516Y-54844091D01*
X87599444Y-54844835D01*
X87652127Y-54850500D01*
X88747872Y-54850499D01*
X88807483Y-54844091D01*
X88942331Y-54793796D01*
X89057546Y-54707546D01*
X89143796Y-54592331D01*
X89194091Y-54457483D01*
X89200500Y-54397873D01*
X89200499Y-53602128D01*
X89194091Y-53542517D01*
X89182832Y-53512331D01*
X89143797Y-53407671D01*
X89143793Y-53407664D01*
X89057547Y-53292455D01*
X89057544Y-53292452D01*
X88942335Y-53206206D01*
X88942328Y-53206202D01*
X88807482Y-53155908D01*
X88807483Y-53155908D01*
X88747883Y-53149501D01*
X88747881Y-53149500D01*
X88747873Y-53149500D01*
X88747865Y-53149500D01*
X88391519Y-53149500D01*
X88324480Y-53129815D01*
X88303838Y-53113181D01*
X87736819Y-52546162D01*
X87703334Y-52484839D01*
X87700500Y-52458481D01*
X87700500Y-51490519D01*
X87720185Y-51423480D01*
X87772989Y-51377725D01*
X87842147Y-51367781D01*
X87905703Y-51396806D01*
X87912181Y-51402838D01*
X90103453Y-53594111D01*
X90103454Y-53594112D01*
X90218192Y-53670777D01*
X90345667Y-53723578D01*
X90345672Y-53723580D01*
X90345676Y-53723580D01*
X90345677Y-53723581D01*
X90481003Y-53750500D01*
X90481006Y-53750500D01*
X90481007Y-53750500D01*
X92391769Y-53750500D01*
X92458808Y-53770185D01*
X92466080Y-53775233D01*
X92557668Y-53843795D01*
X92557671Y-53843797D01*
X92692517Y-53894091D01*
X92692516Y-53894091D01*
X92699444Y-53894835D01*
X92752127Y-53900500D01*
X93847872Y-53900499D01*
X93907483Y-53894091D01*
X94042331Y-53843796D01*
X94157546Y-53757546D01*
X94243796Y-53642331D01*
X94294091Y-53507483D01*
X94300500Y-53447873D01*
X94300499Y-52652128D01*
X94294091Y-52592517D01*
X94277041Y-52546804D01*
X94243797Y-52457671D01*
X94243793Y-52457664D01*
X94157547Y-52342455D01*
X94157544Y-52342452D01*
X94042335Y-52256206D01*
X94042328Y-52256202D01*
X93907482Y-52205908D01*
X93907483Y-52205908D01*
X93847883Y-52199501D01*
X93847881Y-52199500D01*
X93847873Y-52199500D01*
X93847864Y-52199500D01*
X92752129Y-52199500D01*
X92752123Y-52199501D01*
X92692516Y-52205908D01*
X92557671Y-52256202D01*
X92557668Y-52256204D01*
X92466080Y-52324767D01*
X92400615Y-52349184D01*
X92391769Y-52349500D01*
X90891519Y-52349500D01*
X90824480Y-52329815D01*
X90803838Y-52313181D01*
X88446546Y-49955888D01*
X88446545Y-49955887D01*
X88331807Y-49879222D01*
X88204332Y-49826421D01*
X88204322Y-49826418D01*
X88068996Y-49799500D01*
X88068994Y-49799500D01*
X88068993Y-49799500D01*
X87824500Y-49799500D01*
X87757461Y-49779815D01*
X87711706Y-49727011D01*
X87700500Y-49675500D01*
X87700500Y-49524499D01*
X87720185Y-49457460D01*
X87772989Y-49411705D01*
X87824500Y-49400499D01*
X87897871Y-49400499D01*
X87897872Y-49400499D01*
X87957483Y-49394091D01*
X88092331Y-49343796D01*
X88207546Y-49257546D01*
X88293796Y-49142331D01*
X88344091Y-49007483D01*
X88350500Y-48947873D01*
X88350499Y-47452128D01*
X88344091Y-47392517D01*
X88328419Y-47350499D01*
X88293797Y-47257671D01*
X88293793Y-47257664D01*
X88207547Y-47142455D01*
X88207544Y-47142452D01*
X88092335Y-47056206D01*
X88092328Y-47056202D01*
X87957482Y-47005908D01*
X87957483Y-47005908D01*
X87897883Y-46999501D01*
X87897881Y-46999500D01*
X87897873Y-46999500D01*
X87897864Y-46999500D01*
X86102129Y-46999500D01*
X86102123Y-46999501D01*
X86042516Y-47005908D01*
X85907671Y-47056202D01*
X85907664Y-47056206D01*
X85792455Y-47142452D01*
X85792452Y-47142455D01*
X85706206Y-47257664D01*
X85706202Y-47257671D01*
X85655908Y-47392517D01*
X85652071Y-47428211D01*
X85649501Y-47452123D01*
X85649500Y-47452135D01*
X85649500Y-48859482D01*
X85629815Y-48926521D01*
X85577011Y-48972276D01*
X85507853Y-48982220D01*
X85444297Y-48953195D01*
X85437819Y-48947163D01*
X81946546Y-45455888D01*
X81946545Y-45455887D01*
X81831807Y-45379222D01*
X81704332Y-45326421D01*
X81704322Y-45326418D01*
X81568996Y-45299500D01*
X81568994Y-45299500D01*
X81568993Y-45299500D01*
X81524499Y-45299500D01*
X81457460Y-45279815D01*
X81411705Y-45227011D01*
X81400499Y-45175500D01*
X81400499Y-45102129D01*
X81400498Y-45102123D01*
X81400497Y-45102116D01*
X81394091Y-45042517D01*
X81347685Y-44918097D01*
X81343797Y-44907671D01*
X81343793Y-44907664D01*
X81257547Y-44792455D01*
X81257544Y-44792452D01*
X81142335Y-44706206D01*
X81142328Y-44706202D01*
X81127527Y-44700682D01*
X81071593Y-44658811D01*
X81047176Y-44593346D01*
X81062028Y-44525073D01*
X81111433Y-44475668D01*
X81170860Y-44460500D01*
X84487111Y-44460500D01*
X84554150Y-44480185D01*
X84574792Y-44496819D01*
X85621868Y-45543895D01*
X85654864Y-45603060D01*
X85655909Y-45607485D01*
X85706202Y-45742328D01*
X85706206Y-45742335D01*
X85792452Y-45857544D01*
X85792455Y-45857547D01*
X85907664Y-45943793D01*
X85907671Y-45943797D01*
X86042516Y-45994091D01*
X86050773Y-45994978D01*
X86066212Y-45996638D01*
X86125845Y-46019609D01*
X86213566Y-46083343D01*
X86424008Y-46190568D01*
X86648631Y-46263553D01*
X86736109Y-46277408D01*
X86881903Y-46300500D01*
X86881908Y-46300500D01*
X87118097Y-46300500D01*
X87351368Y-46263553D01*
X87396157Y-46249000D01*
X87575992Y-46190568D01*
X87786433Y-46083343D01*
X87874152Y-46019610D01*
X87933786Y-45996638D01*
X87934400Y-45996571D01*
X87957483Y-45994091D01*
X88092331Y-45943796D01*
X88207546Y-45857546D01*
X88293796Y-45742331D01*
X88344091Y-45607483D01*
X88345906Y-45590604D01*
X88350499Y-45547886D01*
X88350499Y-45547882D01*
X88350500Y-45547873D01*
X88350499Y-45484399D01*
X88364014Y-45428105D01*
X88390568Y-45375992D01*
X88463553Y-45151368D01*
X88471354Y-45102116D01*
X88500500Y-44918097D01*
X88500500Y-44681902D01*
X88488145Y-44603898D01*
X88497099Y-44534605D01*
X88542095Y-44481153D01*
X88608847Y-44460513D01*
X88610618Y-44460500D01*
X92327111Y-44460500D01*
X92394150Y-44480185D01*
X92414792Y-44496819D01*
X93416599Y-45498626D01*
X93450084Y-45559949D01*
X93452208Y-45573054D01*
X93455908Y-45607483D01*
X93506202Y-45742328D01*
X93506206Y-45742335D01*
X93592452Y-45857544D01*
X93592455Y-45857547D01*
X93707664Y-45943793D01*
X93707671Y-45943797D01*
X93842516Y-45994091D01*
X93888329Y-45999016D01*
X93902108Y-46000498D01*
X93902118Y-46000499D01*
X93902127Y-46000500D01*
X93914301Y-46000499D01*
X93981340Y-46020179D01*
X93987192Y-46024180D01*
X94013566Y-46043343D01*
X94224008Y-46150568D01*
X94448631Y-46223553D01*
X94536109Y-46237408D01*
X94681903Y-46260500D01*
X94681908Y-46260500D01*
X94918097Y-46260500D01*
X95151368Y-46223553D01*
X95204756Y-46206206D01*
X95375992Y-46150568D01*
X95586433Y-46043343D01*
X95612807Y-46024181D01*
X95678613Y-46000701D01*
X95685692Y-46000499D01*
X95697871Y-46000499D01*
X95697872Y-46000499D01*
X95757483Y-45994091D01*
X95892331Y-45943796D01*
X96007546Y-45857546D01*
X96093796Y-45742331D01*
X96144091Y-45607483D01*
X96145906Y-45590604D01*
X96150499Y-45547886D01*
X96150499Y-45547882D01*
X96150500Y-45547873D01*
X96150499Y-45444399D01*
X96164014Y-45388105D01*
X96190568Y-45335992D01*
X96263553Y-45111368D01*
X96274458Y-45042516D01*
X96300500Y-44878097D01*
X96300500Y-44641907D01*
X96294480Y-44603897D01*
X96303436Y-44534604D01*
X96348433Y-44481152D01*
X96415184Y-44460513D01*
X96416954Y-44460500D01*
X103080004Y-44460500D01*
X103147043Y-44480185D01*
X103167685Y-44496819D01*
X104963181Y-46292315D01*
X104996666Y-46353638D01*
X104999500Y-46379996D01*
X104999500Y-53604557D01*
X104979815Y-53671596D01*
X104927011Y-53717351D01*
X104857853Y-53727295D01*
X104794297Y-53698270D01*
X104787819Y-53692238D01*
X103486818Y-52391237D01*
X103453333Y-52329914D01*
X103450499Y-52303556D01*
X103450499Y-52182129D01*
X103450498Y-52182123D01*
X103450497Y-52182116D01*
X103444091Y-52122517D01*
X103443441Y-52120775D01*
X103393797Y-51987671D01*
X103393795Y-51987668D01*
X103316421Y-51884309D01*
X103292004Y-51818848D01*
X103306855Y-51750575D01*
X103316416Y-51735696D01*
X103393796Y-51632331D01*
X103444091Y-51497483D01*
X103450500Y-51437873D01*
X103450499Y-49642128D01*
X103444091Y-49582517D01*
X103425295Y-49532123D01*
X103393797Y-49447671D01*
X103393793Y-49447664D01*
X103307547Y-49332455D01*
X103307544Y-49332452D01*
X103192335Y-49246206D01*
X103192328Y-49246202D01*
X103057482Y-49195908D01*
X103057483Y-49195908D01*
X102997883Y-49189501D01*
X102997881Y-49189500D01*
X102997873Y-49189500D01*
X102997864Y-49189500D01*
X100402129Y-49189500D01*
X100402123Y-49189501D01*
X100342516Y-49195908D01*
X100207671Y-49246202D01*
X100207664Y-49246206D01*
X100092455Y-49332452D01*
X100092452Y-49332455D01*
X100006206Y-49447664D01*
X100006202Y-49447671D01*
X99955908Y-49582517D01*
X99951608Y-49622516D01*
X99949501Y-49642123D01*
X99949500Y-49642135D01*
X99949500Y-49715500D01*
X99929815Y-49782539D01*
X99877011Y-49828294D01*
X99825500Y-49839500D01*
X95624500Y-49839500D01*
X95557461Y-49819815D01*
X95511706Y-49767011D01*
X95500500Y-49715500D01*
X95500500Y-49524499D01*
X95520185Y-49457460D01*
X95572989Y-49411705D01*
X95624500Y-49400499D01*
X95697871Y-49400499D01*
X95697872Y-49400499D01*
X95757483Y-49394091D01*
X95892331Y-49343796D01*
X96007546Y-49257546D01*
X96093796Y-49142331D01*
X96144091Y-49007483D01*
X96150500Y-48947873D01*
X96150499Y-47452128D01*
X96144091Y-47392517D01*
X96128419Y-47350499D01*
X96093797Y-47257671D01*
X96093793Y-47257664D01*
X96007547Y-47142455D01*
X96007544Y-47142452D01*
X95892335Y-47056206D01*
X95892328Y-47056202D01*
X95757482Y-47005908D01*
X95757483Y-47005908D01*
X95697883Y-46999501D01*
X95697881Y-46999500D01*
X95697873Y-46999500D01*
X95697864Y-46999500D01*
X93902129Y-46999500D01*
X93902123Y-46999501D01*
X93842516Y-47005908D01*
X93707671Y-47056202D01*
X93707664Y-47056206D01*
X93592455Y-47142452D01*
X93592452Y-47142455D01*
X93506206Y-47257664D01*
X93506202Y-47257671D01*
X93455908Y-47392517D01*
X93452071Y-47428211D01*
X93449501Y-47452123D01*
X93449500Y-47452135D01*
X93449500Y-48947870D01*
X93449501Y-48947876D01*
X93455908Y-49007483D01*
X93506202Y-49142328D01*
X93506206Y-49142335D01*
X93592452Y-49257544D01*
X93592455Y-49257547D01*
X93707664Y-49343793D01*
X93707671Y-49343797D01*
X93737084Y-49354767D01*
X93842517Y-49394091D01*
X93902127Y-49400500D01*
X93975500Y-49400499D01*
X94042538Y-49420183D01*
X94088294Y-49472986D01*
X94099500Y-49524499D01*
X94099500Y-50431006D01*
X94099500Y-50568994D01*
X94099500Y-50568996D01*
X94099499Y-50568996D01*
X94126418Y-50704322D01*
X94126421Y-50704332D01*
X94179222Y-50831807D01*
X94255887Y-50946545D01*
X94255888Y-50946546D01*
X94295884Y-50986541D01*
X94963181Y-51653838D01*
X94996666Y-51715161D01*
X94999500Y-51741519D01*
X94999500Y-53112819D01*
X94979815Y-53179858D01*
X94949812Y-53212085D01*
X94842452Y-53292455D01*
X94756206Y-53407664D01*
X94756202Y-53407671D01*
X94705908Y-53542517D01*
X94699816Y-53599184D01*
X94699501Y-53602123D01*
X94699500Y-53602135D01*
X94699500Y-54397870D01*
X94699501Y-54397876D01*
X94705908Y-54457483D01*
X94756202Y-54592328D01*
X94756206Y-54592335D01*
X94842452Y-54707544D01*
X94842455Y-54707547D01*
X94957664Y-54793793D01*
X94957671Y-54793797D01*
X95092517Y-54844091D01*
X95092516Y-54844091D01*
X95099444Y-54844835D01*
X95152127Y-54850500D01*
X96247872Y-54850499D01*
X96307483Y-54844091D01*
X96442331Y-54793796D01*
X96557546Y-54707546D01*
X96643796Y-54592331D01*
X96694091Y-54457483D01*
X96700500Y-54397873D01*
X96700499Y-53602128D01*
X96694091Y-53542517D01*
X96682832Y-53512331D01*
X96643797Y-53407671D01*
X96643793Y-53407664D01*
X96557547Y-53292455D01*
X96450188Y-53212085D01*
X96408318Y-53156151D01*
X96400500Y-53112819D01*
X96400500Y-51364500D01*
X96420185Y-51297461D01*
X96472989Y-51251706D01*
X96524500Y-51240500D01*
X99825501Y-51240500D01*
X99892540Y-51260185D01*
X99938295Y-51312989D01*
X99949501Y-51364500D01*
X99949501Y-51437876D01*
X99955908Y-51497483D01*
X100006202Y-51632328D01*
X100006203Y-51632330D01*
X100083578Y-51735689D01*
X100107995Y-51801153D01*
X100093144Y-51869426D01*
X100083578Y-51884311D01*
X100006203Y-51987669D01*
X100006202Y-51987671D01*
X99955908Y-52122517D01*
X99950419Y-52173578D01*
X99949501Y-52182123D01*
X99949500Y-52182135D01*
X99949500Y-53977870D01*
X99949501Y-53977876D01*
X99955908Y-54037483D01*
X100006202Y-54172328D01*
X100006206Y-54172335D01*
X100092452Y-54287544D01*
X100092455Y-54287547D01*
X100207664Y-54373793D01*
X100207671Y-54373797D01*
X100252618Y-54390561D01*
X100342517Y-54424091D01*
X100402127Y-54430500D01*
X100523556Y-54430499D01*
X100590595Y-54450183D01*
X100611237Y-54466818D01*
X101932238Y-55787819D01*
X101965723Y-55849142D01*
X101960739Y-55918834D01*
X101918867Y-55974767D01*
X101853403Y-55999184D01*
X101844557Y-55999500D01*
X95681903Y-55999500D01*
X95448631Y-56036446D01*
X95224003Y-56109433D01*
X95013566Y-56216657D01*
X94904819Y-56295667D01*
X94822490Y-56355483D01*
X94822488Y-56355485D01*
X94822487Y-56355485D01*
X94106103Y-57071869D01*
X94046933Y-57104866D01*
X94042513Y-57105910D01*
X93907671Y-57156202D01*
X93907664Y-57156206D01*
X93792455Y-57242452D01*
X93792452Y-57242455D01*
X93706206Y-57357664D01*
X93706202Y-57357671D01*
X93655908Y-57492517D01*
X93649501Y-57552116D01*
X93649500Y-57552135D01*
X93649500Y-57615599D01*
X93635985Y-57671893D01*
X93609430Y-57724009D01*
X93609430Y-57724011D01*
X93536447Y-57948627D01*
X93536447Y-57948630D01*
X93499500Y-58181902D01*
X93499500Y-58418097D01*
X93536447Y-58651369D01*
X93536447Y-58651372D01*
X93609431Y-58875990D01*
X93609431Y-58875991D01*
X93635985Y-58928107D01*
X93649500Y-58984399D01*
X93649500Y-59047869D01*
X93649501Y-59047876D01*
X93655908Y-59107483D01*
X93706202Y-59242328D01*
X93706206Y-59242335D01*
X93792452Y-59357544D01*
X93792455Y-59357547D01*
X93907664Y-59443793D01*
X93907671Y-59443797D01*
X94042516Y-59494091D01*
X94050773Y-59494978D01*
X94066212Y-59496638D01*
X94125845Y-59519609D01*
X94213566Y-59583343D01*
X94270074Y-59612135D01*
X94424003Y-59690566D01*
X94424005Y-59690566D01*
X94424008Y-59690568D01*
X94544412Y-59729689D01*
X94648631Y-59763553D01*
X94881903Y-59800500D01*
X94881908Y-59800500D01*
X95118097Y-59800500D01*
X95351368Y-59763553D01*
X95575992Y-59690568D01*
X95786434Y-59583343D01*
X95874154Y-59519609D01*
X95933786Y-59496638D01*
X95957483Y-59494091D01*
X96092331Y-59443796D01*
X96207546Y-59357546D01*
X96293796Y-59242331D01*
X96344091Y-59107483D01*
X96344091Y-59107474D01*
X96345133Y-59103070D01*
X96378141Y-59043885D01*
X96385221Y-59036806D01*
X96446549Y-59003330D01*
X96472890Y-59000500D01*
X104875500Y-59000500D01*
X104942539Y-59020185D01*
X104988294Y-59072989D01*
X104999500Y-59124500D01*
X104999500Y-67554557D01*
X104979815Y-67621596D01*
X104927011Y-67667351D01*
X104857853Y-67677295D01*
X104794297Y-67648270D01*
X104787819Y-67642238D01*
X103486818Y-66341237D01*
X103453333Y-66279914D01*
X103450499Y-66253556D01*
X103450499Y-66132129D01*
X103450498Y-66132123D01*
X103450497Y-66132116D01*
X103444091Y-66072517D01*
X103432901Y-66042516D01*
X103393797Y-65937671D01*
X103393795Y-65937668D01*
X103359994Y-65892516D01*
X103316421Y-65834309D01*
X103292004Y-65768848D01*
X103306855Y-65700575D01*
X103316416Y-65685696D01*
X103393796Y-65582331D01*
X103444091Y-65447483D01*
X103450500Y-65387873D01*
X103450499Y-63592128D01*
X103444091Y-63532517D01*
X103393796Y-63397669D01*
X103393795Y-63397668D01*
X103393793Y-63397664D01*
X103307547Y-63282455D01*
X103307544Y-63282452D01*
X103192335Y-63196206D01*
X103192328Y-63196202D01*
X103057482Y-63145908D01*
X103057483Y-63145908D01*
X102997883Y-63139501D01*
X102997881Y-63139500D01*
X102997873Y-63139500D01*
X102997864Y-63139500D01*
X100402129Y-63139500D01*
X100402123Y-63139501D01*
X100342516Y-63145908D01*
X100207671Y-63196202D01*
X100207664Y-63196206D01*
X100092455Y-63282452D01*
X100092452Y-63282455D01*
X100006206Y-63397664D01*
X100006202Y-63397671D01*
X99955908Y-63532517D01*
X99949501Y-63592116D01*
X99949501Y-63592123D01*
X99949500Y-63592135D01*
X99949500Y-63665500D01*
X99929815Y-63732539D01*
X99877011Y-63778294D01*
X99825500Y-63789500D01*
X95824500Y-63789500D01*
X95757461Y-63769815D01*
X95711706Y-63717011D01*
X95700500Y-63665500D01*
X95700500Y-63024499D01*
X95720185Y-62957460D01*
X95772989Y-62911705D01*
X95824500Y-62900499D01*
X95897871Y-62900499D01*
X95897872Y-62900499D01*
X95957483Y-62894091D01*
X96092331Y-62843796D01*
X96207546Y-62757546D01*
X96293796Y-62642331D01*
X96344091Y-62507483D01*
X96350500Y-62447873D01*
X96350499Y-60952128D01*
X96344091Y-60892517D01*
X96293796Y-60757669D01*
X96293795Y-60757668D01*
X96293793Y-60757664D01*
X96207547Y-60642455D01*
X96207544Y-60642452D01*
X96092335Y-60556206D01*
X96092328Y-60556202D01*
X95957482Y-60505908D01*
X95957483Y-60505908D01*
X95897883Y-60499501D01*
X95897881Y-60499500D01*
X95897873Y-60499500D01*
X95897864Y-60499500D01*
X94102129Y-60499500D01*
X94102123Y-60499501D01*
X94042516Y-60505908D01*
X93907671Y-60556202D01*
X93907664Y-60556206D01*
X93792455Y-60642452D01*
X93792452Y-60642455D01*
X93706206Y-60757664D01*
X93706202Y-60757671D01*
X93655908Y-60892517D01*
X93649501Y-60952116D01*
X93649501Y-60952123D01*
X93649500Y-60952135D01*
X93649500Y-62447870D01*
X93649501Y-62447876D01*
X93655908Y-62507483D01*
X93706202Y-62642328D01*
X93706206Y-62642335D01*
X93792452Y-62757544D01*
X93792455Y-62757547D01*
X93907664Y-62843793D01*
X93907671Y-62843797D01*
X93952618Y-62860561D01*
X94042517Y-62894091D01*
X94102127Y-62900500D01*
X94175500Y-62900499D01*
X94242538Y-62920183D01*
X94288294Y-62972986D01*
X94299500Y-63024499D01*
X94299500Y-64431006D01*
X94299500Y-64568994D01*
X94299500Y-64568996D01*
X94299499Y-64568996D01*
X94326418Y-64704322D01*
X94326421Y-64704332D01*
X94379222Y-64831807D01*
X94455887Y-64946545D01*
X94553454Y-65044112D01*
X94553457Y-65044114D01*
X94603578Y-65077603D01*
X94622367Y-65093024D01*
X94963181Y-65433837D01*
X94996666Y-65495160D01*
X94999500Y-65521518D01*
X94999500Y-67112819D01*
X94979815Y-67179858D01*
X94949812Y-67212085D01*
X94842452Y-67292455D01*
X94756206Y-67407664D01*
X94756202Y-67407671D01*
X94705908Y-67542517D01*
X94699501Y-67602116D01*
X94699501Y-67602123D01*
X94699500Y-67602135D01*
X94699500Y-68397870D01*
X94699501Y-68397876D01*
X94705908Y-68457483D01*
X94756202Y-68592328D01*
X94756206Y-68592335D01*
X94842452Y-68707544D01*
X94842455Y-68707547D01*
X94957664Y-68793793D01*
X94957671Y-68793797D01*
X95092517Y-68844091D01*
X95092516Y-68844091D01*
X95099444Y-68844835D01*
X95152127Y-68850500D01*
X96247872Y-68850499D01*
X96307483Y-68844091D01*
X96442331Y-68793796D01*
X96557546Y-68707546D01*
X96643796Y-68592331D01*
X96694091Y-68457483D01*
X96700500Y-68397873D01*
X96700499Y-67602128D01*
X96694091Y-67542517D01*
X96681024Y-67507483D01*
X96643797Y-67407671D01*
X96643793Y-67407664D01*
X96557547Y-67292455D01*
X96450188Y-67212085D01*
X96408318Y-67156151D01*
X96400500Y-67112819D01*
X96400500Y-65314500D01*
X96420185Y-65247461D01*
X96472989Y-65201706D01*
X96524500Y-65190500D01*
X99825501Y-65190500D01*
X99892540Y-65210185D01*
X99938295Y-65262989D01*
X99949501Y-65314500D01*
X99949501Y-65387876D01*
X99955908Y-65447483D01*
X100006202Y-65582328D01*
X100006203Y-65582330D01*
X100006204Y-65582331D01*
X100077933Y-65678149D01*
X100083578Y-65685689D01*
X100107995Y-65751153D01*
X100093144Y-65819426D01*
X100083578Y-65834311D01*
X100006203Y-65937669D01*
X100006202Y-65937671D01*
X99955908Y-66072517D01*
X99951523Y-66113309D01*
X99949501Y-66132123D01*
X99949500Y-66132135D01*
X99949500Y-67927870D01*
X99949501Y-67927876D01*
X99955908Y-67987483D01*
X100006202Y-68122328D01*
X100006206Y-68122335D01*
X100092452Y-68237544D01*
X100092455Y-68237547D01*
X100207664Y-68323793D01*
X100207671Y-68323797D01*
X100252618Y-68340561D01*
X100342517Y-68374091D01*
X100402127Y-68380500D01*
X100523556Y-68380499D01*
X100590595Y-68400183D01*
X100611237Y-68416818D01*
X104963181Y-72768762D01*
X104996666Y-72830085D01*
X104999500Y-72856443D01*
X104999500Y-84820003D01*
X104979815Y-84887042D01*
X104963181Y-84907684D01*
X103692721Y-86178143D01*
X103692715Y-86178150D01*
X103533075Y-86386198D01*
X103462163Y-86509021D01*
X103411596Y-86557237D01*
X103342989Y-86570459D01*
X103278124Y-86544491D01*
X103256404Y-86522512D01*
X103118919Y-86343339D01*
X103118913Y-86343333D01*
X103118910Y-86343329D01*
X102956670Y-86181089D01*
X102956661Y-86181081D01*
X102774617Y-86041392D01*
X102575890Y-85926657D01*
X102575876Y-85926650D01*
X102363887Y-85838842D01*
X102142238Y-85779452D01*
X102104215Y-85774446D01*
X101914741Y-85749500D01*
X101914734Y-85749500D01*
X99525443Y-85749500D01*
X99458404Y-85729815D01*
X99412649Y-85677011D01*
X99402705Y-85607853D01*
X99431730Y-85544297D01*
X99437762Y-85537819D01*
X103018917Y-81956664D01*
X103021598Y-81953608D01*
X103023028Y-81954862D01*
X103071836Y-81918737D01*
X103192331Y-81873796D01*
X103307546Y-81787546D01*
X103393796Y-81672331D01*
X103444091Y-81537483D01*
X103450500Y-81477873D01*
X103450499Y-79682128D01*
X103444091Y-79622517D01*
X103426494Y-79575338D01*
X103393797Y-79487671D01*
X103393795Y-79487668D01*
X103370003Y-79455886D01*
X103316421Y-79384309D01*
X103292004Y-79318848D01*
X103306855Y-79250575D01*
X103316416Y-79235696D01*
X103393796Y-79132331D01*
X103444091Y-78997483D01*
X103450500Y-78937873D01*
X103450499Y-77142128D01*
X103444091Y-77082517D01*
X103393796Y-76947669D01*
X103393795Y-76947668D01*
X103393793Y-76947664D01*
X103307547Y-76832455D01*
X103307544Y-76832452D01*
X103192335Y-76746206D01*
X103192328Y-76746202D01*
X103057482Y-76695908D01*
X103057483Y-76695908D01*
X102997883Y-76689501D01*
X102997881Y-76689500D01*
X102997873Y-76689500D01*
X102997864Y-76689500D01*
X100402129Y-76689500D01*
X100402123Y-76689501D01*
X100342516Y-76695908D01*
X100207671Y-76746202D01*
X100207664Y-76746206D01*
X100092455Y-76832452D01*
X100092452Y-76832455D01*
X100006206Y-76947664D01*
X100006202Y-76947671D01*
X99955908Y-77082517D01*
X99949501Y-77142116D01*
X99949501Y-77142123D01*
X99949500Y-77142135D01*
X99949500Y-77175500D01*
X99929815Y-77242539D01*
X99877011Y-77288294D01*
X99825500Y-77299500D01*
X91524499Y-77299500D01*
X91457460Y-77279815D01*
X91411705Y-77227011D01*
X91400499Y-77175500D01*
X91400499Y-77102129D01*
X91400498Y-77102123D01*
X91400497Y-77102116D01*
X91394091Y-77042517D01*
X91343796Y-76907669D01*
X91343795Y-76907668D01*
X91343793Y-76907664D01*
X91257547Y-76792455D01*
X91257544Y-76792452D01*
X91142335Y-76706206D01*
X91142328Y-76706202D01*
X91007482Y-76655908D01*
X91007483Y-76655908D01*
X90947883Y-76649501D01*
X90947881Y-76649500D01*
X90947873Y-76649500D01*
X90947864Y-76649500D01*
X89452129Y-76649500D01*
X89452123Y-76649501D01*
X89392516Y-76655908D01*
X89257671Y-76706202D01*
X89257664Y-76706206D01*
X89142455Y-76792452D01*
X89142452Y-76792455D01*
X89056206Y-76907664D01*
X89056202Y-76907671D01*
X89005908Y-77042517D01*
X89001608Y-77082516D01*
X88999501Y-77102123D01*
X88999500Y-77102135D01*
X88999500Y-78897870D01*
X88999501Y-78897876D01*
X89005908Y-78957483D01*
X89056202Y-79092328D01*
X89056206Y-79092335D01*
X89142452Y-79207544D01*
X89142455Y-79207547D01*
X89257664Y-79293793D01*
X89257671Y-79293797D01*
X89392517Y-79344091D01*
X89392516Y-79344091D01*
X89399444Y-79344835D01*
X89452127Y-79350500D01*
X90947872Y-79350499D01*
X91007483Y-79344091D01*
X91142331Y-79293796D01*
X91257546Y-79207546D01*
X91343796Y-79092331D01*
X91394091Y-78957483D01*
X91400500Y-78897873D01*
X91400500Y-78824500D01*
X91420185Y-78757461D01*
X91472989Y-78711706D01*
X91524500Y-78700500D01*
X99825501Y-78700500D01*
X99892540Y-78720185D01*
X99938295Y-78772989D01*
X99949501Y-78824500D01*
X99949501Y-78937876D01*
X99955908Y-78997483D01*
X100006202Y-79132328D01*
X100006203Y-79132330D01*
X100006204Y-79132331D01*
X100062508Y-79207544D01*
X100083578Y-79235689D01*
X100107995Y-79301153D01*
X100093144Y-79369426D01*
X100083578Y-79384311D01*
X100006203Y-79487669D01*
X100006202Y-79487671D01*
X99955908Y-79622517D01*
X99949501Y-79682116D01*
X99949501Y-79682123D01*
X99949500Y-79682135D01*
X99949500Y-80023556D01*
X99929815Y-80090595D01*
X99913181Y-80111237D01*
X94311238Y-85713181D01*
X94249915Y-85746666D01*
X94223557Y-85749500D01*
X90085258Y-85749500D01*
X89868715Y-85778009D01*
X89857762Y-85779452D01*
X89764076Y-85804554D01*
X89636112Y-85838842D01*
X89424123Y-85926650D01*
X89424109Y-85926657D01*
X89225382Y-86041392D01*
X89043338Y-86181081D01*
X88881081Y-86343338D01*
X88741392Y-86525382D01*
X88626657Y-86724109D01*
X88626650Y-86724123D01*
X88538842Y-86936112D01*
X88538842Y-86936113D01*
X88484669Y-87138294D01*
X88479453Y-87157759D01*
X88479451Y-87157770D01*
X88449500Y-87385258D01*
X88449500Y-87614741D01*
X88474446Y-87804215D01*
X88479452Y-87842238D01*
X88529190Y-88027864D01*
X88538842Y-88063887D01*
X88626650Y-88275876D01*
X88626656Y-88275888D01*
X88712050Y-88423796D01*
X88741392Y-88474617D01*
X88881081Y-88656661D01*
X88881089Y-88656670D01*
X89043330Y-88818911D01*
X89043338Y-88818918D01*
X89043339Y-88818919D01*
X89047160Y-88821851D01*
X89225382Y-88958607D01*
X89225385Y-88958608D01*
X89225388Y-88958611D01*
X89424112Y-89073344D01*
X89424117Y-89073346D01*
X89424123Y-89073349D01*
X89515480Y-89111190D01*
X89636113Y-89161158D01*
X89857762Y-89220548D01*
X90085266Y-89250500D01*
X90085273Y-89250500D01*
X101914727Y-89250500D01*
X101914734Y-89250500D01*
X102142238Y-89220548D01*
X102363887Y-89161158D01*
X102575888Y-89073344D01*
X102774612Y-88958611D01*
X102956661Y-88818919D01*
X102956665Y-88818914D01*
X102956670Y-88818911D01*
X103118911Y-88656670D01*
X103118913Y-88656666D01*
X103118919Y-88656661D01*
X103256402Y-88477490D01*
X103312828Y-88436289D01*
X103382574Y-88432134D01*
X103443494Y-88466346D01*
X103462163Y-88490978D01*
X103533075Y-88613801D01*
X103692715Y-88821849D01*
X103692721Y-88821856D01*
X103878143Y-89007278D01*
X103878150Y-89007284D01*
X104086198Y-89166924D01*
X104313299Y-89298041D01*
X104313300Y-89298041D01*
X104313303Y-89298043D01*
X104555581Y-89398398D01*
X104808884Y-89466271D01*
X104891685Y-89477171D01*
X104955581Y-89505437D01*
X104994053Y-89563761D01*
X104999500Y-89600110D01*
X104999500Y-90875500D01*
X104979815Y-90942539D01*
X104927011Y-90988294D01*
X104875500Y-90999500D01*
X47563974Y-90999500D01*
X47496935Y-90979815D01*
X47451180Y-90927011D01*
X47441236Y-90857853D01*
X47464706Y-90801190D01*
X47487913Y-90770188D01*
X47543846Y-90728319D01*
X47587180Y-90720500D01*
X51948996Y-90720500D01*
X52040040Y-90702389D01*
X52084328Y-90693580D01*
X52148069Y-90667177D01*
X52211807Y-90640777D01*
X52211808Y-90640776D01*
X52211811Y-90640775D01*
X52326543Y-90564114D01*
X54303837Y-88586818D01*
X54365160Y-88553334D01*
X54391518Y-88550500D01*
X57575501Y-88550500D01*
X57642540Y-88570185D01*
X57688295Y-88622989D01*
X57699501Y-88674500D01*
X57699501Y-88997876D01*
X57705908Y-89057483D01*
X57756202Y-89192328D01*
X57756206Y-89192335D01*
X57842452Y-89307544D01*
X57842455Y-89307547D01*
X57957664Y-89393793D01*
X57957671Y-89393797D01*
X58092517Y-89444091D01*
X58092516Y-89444091D01*
X58099444Y-89444835D01*
X58152127Y-89450500D01*
X61047872Y-89450499D01*
X61107483Y-89444091D01*
X61242331Y-89393796D01*
X61357546Y-89307546D01*
X61443796Y-89192331D01*
X61494091Y-89057483D01*
X61500500Y-88997873D01*
X61500499Y-86702128D01*
X61494091Y-86642517D01*
X61486608Y-86622455D01*
X61443797Y-86507671D01*
X61443793Y-86507664D01*
X61357547Y-86392455D01*
X61357544Y-86392452D01*
X61242335Y-86306206D01*
X61242328Y-86306202D01*
X61107482Y-86255908D01*
X61107483Y-86255908D01*
X61047883Y-86249501D01*
X61047881Y-86249500D01*
X61047873Y-86249500D01*
X61047864Y-86249500D01*
X58152129Y-86249500D01*
X58152123Y-86249501D01*
X58092516Y-86255908D01*
X57957671Y-86306202D01*
X57957664Y-86306206D01*
X57842455Y-86392452D01*
X57842452Y-86392455D01*
X57756206Y-86507664D01*
X57756202Y-86507671D01*
X57705908Y-86642517D01*
X57699501Y-86702116D01*
X57699501Y-86702123D01*
X57699500Y-86702135D01*
X57699500Y-87025500D01*
X57679815Y-87092539D01*
X57627011Y-87138294D01*
X57575500Y-87149500D01*
X53981003Y-87149500D01*
X53872590Y-87171065D01*
X53872589Y-87171065D01*
X53859131Y-87173742D01*
X53845673Y-87176419D01*
X53845671Y-87176420D01*
X53792866Y-87198292D01*
X53792864Y-87198293D01*
X53792863Y-87198292D01*
X53718191Y-87229223D01*
X53648677Y-87275672D01*
X53648676Y-87275673D01*
X53603454Y-87305888D01*
X53603453Y-87305889D01*
X51626162Y-89283181D01*
X51564839Y-89316666D01*
X51538481Y-89319500D01*
X47587180Y-89319500D01*
X47520141Y-89299815D01*
X47487913Y-89269811D01*
X47473457Y-89250500D01*
X47407546Y-89162454D01*
X47384709Y-89145358D01*
X47292335Y-89076206D01*
X47292328Y-89076202D01*
X47157482Y-89025908D01*
X47157483Y-89025908D01*
X47097883Y-89019501D01*
X47097881Y-89019500D01*
X47097873Y-89019500D01*
X47097865Y-89019500D01*
X45124500Y-89019500D01*
X45057461Y-88999815D01*
X45011706Y-88947011D01*
X45000500Y-88895500D01*
X45000500Y-88027870D01*
X47849500Y-88027870D01*
X47849501Y-88027876D01*
X47855908Y-88087483D01*
X47906202Y-88222328D01*
X47906206Y-88222335D01*
X47992452Y-88337544D01*
X47992455Y-88337547D01*
X48107664Y-88423793D01*
X48107671Y-88423797D01*
X48242517Y-88474091D01*
X48242516Y-88474091D01*
X48247363Y-88474612D01*
X48302127Y-88480500D01*
X50397872Y-88480499D01*
X50457483Y-88474091D01*
X50592331Y-88423796D01*
X50707546Y-88337546D01*
X50793796Y-88222331D01*
X50844091Y-88087483D01*
X50850500Y-88027873D01*
X50850499Y-87021517D01*
X50870183Y-86954479D01*
X50886813Y-86933842D01*
X57083837Y-80736819D01*
X57145160Y-80703334D01*
X57171518Y-80700500D01*
X62083635Y-80700500D01*
X62150674Y-80720185D01*
X62196429Y-80772989D01*
X62206373Y-80842147D01*
X62187444Y-80892321D01*
X62064075Y-81081151D01*
X61970842Y-81293699D01*
X61913866Y-81518691D01*
X61913864Y-81518702D01*
X61894700Y-81749993D01*
X61894700Y-81750006D01*
X61913864Y-81981297D01*
X61913866Y-81981308D01*
X61970842Y-82206300D01*
X62064075Y-82418848D01*
X62191016Y-82613147D01*
X62191019Y-82613151D01*
X62191021Y-82613153D01*
X62348216Y-82783913D01*
X62348219Y-82783915D01*
X62348222Y-82783918D01*
X62531364Y-82926463D01*
X62531367Y-82926465D01*
X62531374Y-82926470D01*
X62534512Y-82928168D01*
X62535549Y-82929197D01*
X62535662Y-82929271D01*
X62535646Y-82929294D01*
X62584104Y-82977383D01*
X62599500Y-83037225D01*
X62599500Y-87462773D01*
X62579815Y-87529812D01*
X62534527Y-87571823D01*
X62531377Y-87573527D01*
X62531365Y-87573535D01*
X62348222Y-87716081D01*
X62348219Y-87716084D01*
X62191016Y-87886852D01*
X62064075Y-88081151D01*
X61970842Y-88293699D01*
X61913866Y-88518691D01*
X61913864Y-88518702D01*
X61894700Y-88749993D01*
X61894700Y-88750006D01*
X61913864Y-88981297D01*
X61913866Y-88981308D01*
X61970842Y-89206300D01*
X62064075Y-89418848D01*
X62191016Y-89613147D01*
X62191019Y-89613151D01*
X62191021Y-89613153D01*
X62348216Y-89783913D01*
X62348219Y-89783915D01*
X62348222Y-89783918D01*
X62531365Y-89926464D01*
X62531371Y-89926468D01*
X62531374Y-89926470D01*
X62735497Y-90036936D01*
X62849487Y-90076068D01*
X62955015Y-90112297D01*
X62955017Y-90112297D01*
X62955019Y-90112298D01*
X63183951Y-90150500D01*
X63183952Y-90150500D01*
X63416048Y-90150500D01*
X63416049Y-90150500D01*
X63644981Y-90112298D01*
X63864503Y-90036936D01*
X64068626Y-89926470D01*
X64251784Y-89783913D01*
X64408979Y-89613153D01*
X64535924Y-89418849D01*
X64629157Y-89206300D01*
X64686134Y-88981305D01*
X64686135Y-88981297D01*
X64705300Y-88750006D01*
X64705300Y-88749993D01*
X64686135Y-88518702D01*
X64686133Y-88518691D01*
X64629157Y-88293699D01*
X64535924Y-88081151D01*
X64408983Y-87886852D01*
X64408980Y-87886849D01*
X64408979Y-87886847D01*
X64251784Y-87716087D01*
X64251779Y-87716083D01*
X64251777Y-87716081D01*
X64068634Y-87573535D01*
X64068622Y-87573527D01*
X64065473Y-87571823D01*
X64064433Y-87570790D01*
X64064334Y-87570726D01*
X64064347Y-87570705D01*
X64015887Y-87522599D01*
X64000500Y-87462773D01*
X64000500Y-83037225D01*
X64020185Y-82970186D01*
X64065487Y-82928168D01*
X64068626Y-82926470D01*
X64251784Y-82783913D01*
X64408979Y-82613153D01*
X64478542Y-82506679D01*
X64531688Y-82461322D01*
X64582351Y-82450500D01*
X64618996Y-82450500D01*
X64710040Y-82432389D01*
X64754328Y-82423580D01*
X64818069Y-82397177D01*
X64881807Y-82370777D01*
X64881808Y-82370776D01*
X64881811Y-82370775D01*
X64996543Y-82294114D01*
X65075351Y-82215305D01*
X65136673Y-82181821D01*
X65206365Y-82186805D01*
X65237343Y-82203720D01*
X65242454Y-82207546D01*
X65357669Y-82293796D01*
X65357670Y-82293796D01*
X65357671Y-82293797D01*
X65492517Y-82344091D01*
X65492516Y-82344091D01*
X65499444Y-82344835D01*
X65552127Y-82350500D01*
X68447872Y-82350499D01*
X68507483Y-82344091D01*
X68642331Y-82293796D01*
X68757546Y-82207546D01*
X68843796Y-82092331D01*
X68894091Y-81957483D01*
X68900500Y-81897873D01*
X68900499Y-79002128D01*
X68894091Y-78942517D01*
X68862852Y-78858762D01*
X68843797Y-78807671D01*
X68843793Y-78807664D01*
X68757547Y-78692455D01*
X68757544Y-78692452D01*
X68642335Y-78606206D01*
X68642328Y-78606202D01*
X68507482Y-78555908D01*
X68507483Y-78555908D01*
X68447883Y-78549501D01*
X68447881Y-78549500D01*
X68447873Y-78549500D01*
X68447864Y-78549500D01*
X65552129Y-78549500D01*
X65552123Y-78549501D01*
X65492516Y-78555908D01*
X65357671Y-78606202D01*
X65357664Y-78606206D01*
X65242455Y-78692452D01*
X65242452Y-78692455D01*
X65156206Y-78807664D01*
X65156202Y-78807671D01*
X65105908Y-78942517D01*
X65099999Y-78997482D01*
X65099501Y-79002123D01*
X65099500Y-79002135D01*
X65099500Y-79175500D01*
X65079815Y-79242539D01*
X65027011Y-79288294D01*
X64975500Y-79299500D01*
X56761003Y-79299500D01*
X56652590Y-79321065D01*
X56652589Y-79321065D01*
X56636379Y-79324289D01*
X56625669Y-79326420D01*
X56589530Y-79341390D01*
X56498190Y-79379224D01*
X56498184Y-79379227D01*
X56481316Y-79390499D01*
X56481315Y-79390500D01*
X56383457Y-79455886D01*
X56383453Y-79455889D01*
X49396160Y-86443181D01*
X49334837Y-86476666D01*
X49308479Y-86479500D01*
X48302129Y-86479500D01*
X48302123Y-86479501D01*
X48242516Y-86485908D01*
X48107671Y-86536202D01*
X48107664Y-86536206D01*
X47992455Y-86622452D01*
X47992452Y-86622455D01*
X47906206Y-86737664D01*
X47906202Y-86737671D01*
X47855908Y-86872517D01*
X47849501Y-86932116D01*
X47849500Y-86932135D01*
X47849500Y-88027870D01*
X45000500Y-88027870D01*
X45000500Y-80379996D01*
X45020185Y-80312957D01*
X45036819Y-80292315D01*
X47329134Y-78000000D01*
X73844475Y-78000000D01*
X73864551Y-78293511D01*
X73864552Y-78293513D01*
X73924404Y-78581543D01*
X73924409Y-78581559D01*
X74022927Y-78858762D01*
X74158278Y-79119977D01*
X74158282Y-79119983D01*
X74327932Y-79360323D01*
X74417182Y-79455886D01*
X74446864Y-79487668D01*
X74528743Y-79575338D01*
X74586733Y-79622516D01*
X74756951Y-79760999D01*
X74756953Y-79761000D01*
X74756954Y-79761001D01*
X75008319Y-79913860D01*
X75008324Y-79913862D01*
X75278154Y-80031065D01*
X75278159Y-80031067D01*
X75561445Y-80110440D01*
X75817681Y-80145659D01*
X75852901Y-80150500D01*
X75852902Y-80150500D01*
X76147099Y-80150500D01*
X76178520Y-80146180D01*
X76438555Y-80110440D01*
X76721841Y-80031067D01*
X76991682Y-79913859D01*
X77243049Y-79760999D01*
X77471260Y-79575335D01*
X77672065Y-79360326D01*
X77841722Y-79119976D01*
X77977072Y-78858764D01*
X78075592Y-78581554D01*
X78075592Y-78581549D01*
X78075595Y-78581543D01*
X78108511Y-78423135D01*
X78135448Y-78293511D01*
X78155525Y-78000000D01*
X78135448Y-77706489D01*
X78103727Y-77553838D01*
X78075595Y-77418456D01*
X78075590Y-77418440D01*
X77989249Y-77175500D01*
X77977072Y-77141236D01*
X77841722Y-76880024D01*
X77841721Y-76880022D01*
X77841717Y-76880016D01*
X77672067Y-76639676D01*
X77471256Y-76424661D01*
X77243045Y-76238998D01*
X76991680Y-76086139D01*
X76991675Y-76086137D01*
X76721845Y-75968934D01*
X76438560Y-75889561D01*
X76438556Y-75889560D01*
X76438555Y-75889560D01*
X76292826Y-75869530D01*
X76147099Y-75849500D01*
X76147098Y-75849500D01*
X75852902Y-75849500D01*
X75852901Y-75849500D01*
X75561445Y-75889560D01*
X75561439Y-75889561D01*
X75278154Y-75968934D01*
X75008324Y-76086137D01*
X75008319Y-76086139D01*
X74756954Y-76238998D01*
X74528743Y-76424661D01*
X74327932Y-76639676D01*
X74158282Y-76880016D01*
X74158278Y-76880022D01*
X74022927Y-77141237D01*
X73924409Y-77418440D01*
X73924404Y-77418456D01*
X73864552Y-77706486D01*
X73864551Y-77706488D01*
X73844475Y-78000000D01*
X47329134Y-78000000D01*
X57007278Y-68321856D01*
X57007283Y-68321851D01*
X57166924Y-68113802D01*
X57204990Y-68047870D01*
X59839500Y-68047870D01*
X59839501Y-68047876D01*
X59845908Y-68107483D01*
X59896202Y-68242328D01*
X59896206Y-68242335D01*
X59982452Y-68357544D01*
X59982455Y-68357547D01*
X60097664Y-68443793D01*
X60097671Y-68443797D01*
X60232517Y-68494091D01*
X60232516Y-68494091D01*
X60239444Y-68494835D01*
X60292127Y-68500500D01*
X61387872Y-68500499D01*
X61447483Y-68494091D01*
X61582331Y-68443796D01*
X61697546Y-68357546D01*
X61783796Y-68242331D01*
X61834091Y-68107483D01*
X61840500Y-68047873D01*
X61840499Y-65952128D01*
X61834091Y-65892517D01*
X61831734Y-65886198D01*
X61783797Y-65757671D01*
X61783793Y-65757664D01*
X61697547Y-65642455D01*
X61697544Y-65642452D01*
X61582335Y-65556206D01*
X61582328Y-65556202D01*
X61447482Y-65505908D01*
X61447483Y-65505908D01*
X61387883Y-65499501D01*
X61387881Y-65499500D01*
X61387873Y-65499500D01*
X61387864Y-65499500D01*
X60292129Y-65499500D01*
X60292123Y-65499501D01*
X60232516Y-65505908D01*
X60097671Y-65556202D01*
X60097664Y-65556206D01*
X59982455Y-65642452D01*
X59982452Y-65642455D01*
X59896206Y-65757664D01*
X59896202Y-65757671D01*
X59845908Y-65892517D01*
X59841054Y-65937669D01*
X59839501Y-65952123D01*
X59839500Y-65952135D01*
X59839500Y-68047870D01*
X57204990Y-68047870D01*
X57298043Y-67886697D01*
X57398398Y-67644419D01*
X57466271Y-67391115D01*
X57500499Y-67131119D01*
X57500499Y-66868880D01*
X57466271Y-66608884D01*
X57398398Y-66355581D01*
X57298043Y-66113303D01*
X57291588Y-66102123D01*
X57166924Y-65886198D01*
X57007284Y-65678149D01*
X57007278Y-65678142D01*
X56821857Y-65492721D01*
X56821850Y-65492715D01*
X56613801Y-65333075D01*
X56386700Y-65201958D01*
X56386690Y-65201954D01*
X56144419Y-65101602D01*
X55929873Y-65044114D01*
X55891116Y-65033729D01*
X55891115Y-65033728D01*
X55891112Y-65033728D01*
X55631121Y-64999501D01*
X55631120Y-64999501D01*
X55368881Y-64999501D01*
X55368880Y-64999501D01*
X55108888Y-65033728D01*
X54855580Y-65101602D01*
X54613314Y-65201951D01*
X54613299Y-65201958D01*
X54386198Y-65333075D01*
X54178150Y-65492715D01*
X54178143Y-65492721D01*
X41492721Y-78178143D01*
X41492715Y-78178150D01*
X41440237Y-78246542D01*
X41333075Y-78386197D01*
X41238793Y-78549501D01*
X41201958Y-78613299D01*
X41201954Y-78613309D01*
X41101602Y-78855580D01*
X41033729Y-79108884D01*
X41033728Y-79108889D01*
X41018225Y-79226654D01*
X41018225Y-79226655D01*
X40999500Y-79368872D01*
X40999500Y-93131127D01*
X39500500Y-93131127D01*
X39500500Y-57278846D01*
X41399500Y-57278846D01*
X41430261Y-57433489D01*
X41430264Y-57433501D01*
X41490602Y-57579172D01*
X41490609Y-57579185D01*
X41578210Y-57710288D01*
X41578213Y-57710292D01*
X42489707Y-58621786D01*
X42489711Y-58621789D01*
X42620814Y-58709390D01*
X42620827Y-58709397D01*
X42736863Y-58757460D01*
X42766503Y-58769737D01*
X42921153Y-58800499D01*
X42921156Y-58800500D01*
X42921158Y-58800500D01*
X43078845Y-58800500D01*
X43217681Y-58772883D01*
X43241873Y-58770500D01*
X46427649Y-58770500D01*
X46494688Y-58790185D01*
X46540443Y-58842989D01*
X46550939Y-58881248D01*
X46555908Y-58927483D01*
X46606202Y-59062328D01*
X46606203Y-59062330D01*
X46683578Y-59165689D01*
X46707995Y-59231153D01*
X46693144Y-59299426D01*
X46683578Y-59314311D01*
X46606203Y-59417669D01*
X46606202Y-59417671D01*
X46555908Y-59552517D01*
X46549501Y-59612116D01*
X46549500Y-59612135D01*
X46549500Y-61407870D01*
X46549501Y-61407876D01*
X46555908Y-61467483D01*
X46606202Y-61602328D01*
X46606206Y-61602335D01*
X46692452Y-61717544D01*
X46692455Y-61717547D01*
X46807664Y-61803793D01*
X46807671Y-61803797D01*
X46942517Y-61854091D01*
X46942516Y-61854091D01*
X46949444Y-61854835D01*
X47002127Y-61860500D01*
X49597872Y-61860499D01*
X49657483Y-61854091D01*
X49792331Y-61803796D01*
X49907546Y-61717546D01*
X49993796Y-61602331D01*
X50044091Y-61467483D01*
X50050500Y-61407873D01*
X50050499Y-61305995D01*
X50070183Y-61238958D01*
X50122986Y-61193202D01*
X50150307Y-61184379D01*
X50154328Y-61183580D01*
X50281811Y-61130775D01*
X50396543Y-61054114D01*
X51044113Y-60406543D01*
X51099048Y-60324328D01*
X51120775Y-60291811D01*
X51173580Y-60164328D01*
X51200500Y-60028993D01*
X51200500Y-58601518D01*
X51220185Y-58534479D01*
X51236814Y-58513841D01*
X52047821Y-57702834D01*
X52109142Y-57669351D01*
X52178833Y-57674335D01*
X52234767Y-57716207D01*
X52259184Y-57781671D01*
X52259500Y-57790517D01*
X52259500Y-58247870D01*
X52259501Y-58247876D01*
X52265908Y-58307483D01*
X52316202Y-58442328D01*
X52316206Y-58442335D01*
X52402452Y-58557544D01*
X52402455Y-58557547D01*
X52517664Y-58643793D01*
X52517671Y-58643797D01*
X52652517Y-58694091D01*
X52652516Y-58694091D01*
X52659444Y-58694835D01*
X52712127Y-58700500D01*
X54807872Y-58700499D01*
X54867483Y-58694091D01*
X55002331Y-58643796D01*
X55117546Y-58557546D01*
X55197914Y-58450188D01*
X55253847Y-58408318D01*
X55297180Y-58400500D01*
X56358481Y-58400500D01*
X56425520Y-58420185D01*
X56446162Y-58436819D01*
X64083181Y-66073838D01*
X64116666Y-66135161D01*
X64119500Y-66161519D01*
X64119500Y-68669005D01*
X64119597Y-68669992D01*
X64119500Y-68670503D01*
X64119500Y-68675086D01*
X64118630Y-68675086D01*
X64106570Y-68738636D01*
X64058499Y-68789341D01*
X63990646Y-68806007D01*
X63982958Y-68805422D01*
X63927873Y-68799500D01*
X63927864Y-68799500D01*
X62832129Y-68799500D01*
X62832123Y-68799501D01*
X62772516Y-68805908D01*
X62637671Y-68856202D01*
X62637664Y-68856206D01*
X62522455Y-68942452D01*
X62522452Y-68942455D01*
X62436206Y-69057664D01*
X62436202Y-69057671D01*
X62385908Y-69192517D01*
X62379501Y-69252116D01*
X62379501Y-69252123D01*
X62379500Y-69252135D01*
X62379500Y-71347870D01*
X62379501Y-71347876D01*
X62385908Y-71407483D01*
X62436202Y-71542328D01*
X62436206Y-71542335D01*
X62522452Y-71657544D01*
X62522455Y-71657547D01*
X62637664Y-71743793D01*
X62637671Y-71743797D01*
X62772517Y-71794091D01*
X62772516Y-71794091D01*
X62779444Y-71794835D01*
X62832127Y-71800500D01*
X63927872Y-71800499D01*
X63987483Y-71794091D01*
X64122331Y-71743796D01*
X64237546Y-71657546D01*
X64323796Y-71542331D01*
X64374091Y-71407483D01*
X64380500Y-71347873D01*
X64380499Y-69450517D01*
X64400184Y-69383479D01*
X64452987Y-69337724D01*
X64522146Y-69327780D01*
X64585702Y-69356805D01*
X64592180Y-69362837D01*
X66073453Y-70844111D01*
X66073454Y-70844112D01*
X66188192Y-70920777D01*
X66315667Y-70973578D01*
X66315672Y-70973580D01*
X66315676Y-70973580D01*
X66315677Y-70973581D01*
X66451003Y-71000500D01*
X66451006Y-71000500D01*
X66451007Y-71000500D01*
X67335501Y-71000500D01*
X67402540Y-71020185D01*
X67448295Y-71072989D01*
X67459501Y-71124500D01*
X67459501Y-71347876D01*
X67465908Y-71407483D01*
X67516202Y-71542328D01*
X67516206Y-71542335D01*
X67602452Y-71657544D01*
X67602455Y-71657547D01*
X67717664Y-71743793D01*
X67717671Y-71743797D01*
X67852517Y-71794091D01*
X67852516Y-71794091D01*
X67859444Y-71794835D01*
X67912127Y-71800500D01*
X69007872Y-71800499D01*
X69067483Y-71794091D01*
X69202331Y-71743796D01*
X69317546Y-71657546D01*
X69403796Y-71542331D01*
X69454091Y-71407483D01*
X69460500Y-71347873D01*
X69460499Y-69252128D01*
X69454091Y-69192517D01*
X69425676Y-69116333D01*
X69403797Y-69057671D01*
X69403793Y-69057664D01*
X69317547Y-68942455D01*
X69317544Y-68942452D01*
X69202335Y-68856206D01*
X69202328Y-68856202D01*
X69067482Y-68805908D01*
X69067483Y-68805908D01*
X69007883Y-68799501D01*
X69007881Y-68799500D01*
X69007873Y-68799500D01*
X69007864Y-68799500D01*
X67912129Y-68799500D01*
X67912123Y-68799501D01*
X67852516Y-68805908D01*
X67717671Y-68856202D01*
X67717664Y-68856206D01*
X67602455Y-68942452D01*
X67602452Y-68942455D01*
X67516206Y-69057664D01*
X67516202Y-69057671D01*
X67465908Y-69192517D01*
X67459501Y-69252116D01*
X67459501Y-69252123D01*
X67459500Y-69252135D01*
X67459500Y-69475500D01*
X67439815Y-69542539D01*
X67387011Y-69588294D01*
X67335500Y-69599500D01*
X66861519Y-69599500D01*
X66794480Y-69579815D01*
X66773838Y-69563181D01*
X65922837Y-68712180D01*
X65889352Y-68650857D01*
X65894336Y-68581165D01*
X65936208Y-68525232D01*
X66001672Y-68500815D01*
X66010518Y-68500499D01*
X66467871Y-68500499D01*
X66467872Y-68500499D01*
X66527483Y-68494091D01*
X66662331Y-68443796D01*
X66777546Y-68357546D01*
X66863796Y-68242331D01*
X66914091Y-68107483D01*
X66920500Y-68047873D01*
X66920500Y-68047870D01*
X69999500Y-68047870D01*
X69999501Y-68047876D01*
X70005908Y-68107483D01*
X70056202Y-68242328D01*
X70056206Y-68242335D01*
X70142452Y-68357544D01*
X70142455Y-68357547D01*
X70257664Y-68443793D01*
X70257671Y-68443797D01*
X70392517Y-68494091D01*
X70392516Y-68494091D01*
X70399444Y-68494835D01*
X70452127Y-68500500D01*
X71547872Y-68500499D01*
X71607483Y-68494091D01*
X71742331Y-68443796D01*
X71857546Y-68357546D01*
X71943796Y-68242331D01*
X71994091Y-68107483D01*
X72000500Y-68047873D01*
X72000499Y-66041518D01*
X72020184Y-65974480D01*
X72036818Y-65953838D01*
X72428572Y-65562085D01*
X72844114Y-65146543D01*
X72920775Y-65031811D01*
X72924345Y-65023194D01*
X72973578Y-64904332D01*
X72973580Y-64904328D01*
X73000500Y-64768994D01*
X73000500Y-64631006D01*
X73000500Y-58824499D01*
X73020185Y-58757460D01*
X73072989Y-58711705D01*
X73124500Y-58700499D01*
X73347871Y-58700499D01*
X73347872Y-58700499D01*
X73407483Y-58694091D01*
X73542331Y-58643796D01*
X73657546Y-58557546D01*
X73743796Y-58442331D01*
X73794091Y-58307483D01*
X73800500Y-58247873D01*
X73800499Y-57152128D01*
X73794091Y-57092517D01*
X73786486Y-57072128D01*
X73743797Y-56957671D01*
X73743793Y-56957664D01*
X73657547Y-56842455D01*
X73657544Y-56842452D01*
X73542335Y-56756206D01*
X73542328Y-56756202D01*
X73407482Y-56705908D01*
X73407483Y-56705908D01*
X73347883Y-56699501D01*
X73347881Y-56699500D01*
X73347873Y-56699500D01*
X73347864Y-56699500D01*
X71252129Y-56699500D01*
X71252123Y-56699501D01*
X71192516Y-56705908D01*
X71057671Y-56756202D01*
X71057664Y-56756206D01*
X70942455Y-56842452D01*
X70942452Y-56842455D01*
X70856206Y-56957664D01*
X70856202Y-56957671D01*
X70805908Y-57092517D01*
X70799501Y-57152116D01*
X70799501Y-57152123D01*
X70799500Y-57152135D01*
X70799500Y-58247870D01*
X70799501Y-58247876D01*
X70805908Y-58307483D01*
X70856202Y-58442328D01*
X70856206Y-58442335D01*
X70942452Y-58557544D01*
X70942455Y-58557547D01*
X71057664Y-58643793D01*
X71057671Y-58643797D01*
X71077973Y-58651369D01*
X71192517Y-58694091D01*
X71252127Y-58700500D01*
X71475500Y-58700499D01*
X71542539Y-58720183D01*
X71588294Y-58772987D01*
X71599500Y-58824499D01*
X71599500Y-64358480D01*
X71579815Y-64425519D01*
X71563181Y-64446161D01*
X70546160Y-65463181D01*
X70484837Y-65496666D01*
X70458492Y-65499500D01*
X70452136Y-65499500D01*
X70452122Y-65499501D01*
X70392516Y-65505908D01*
X70257671Y-65556202D01*
X70257664Y-65556206D01*
X70142455Y-65642452D01*
X70142452Y-65642455D01*
X70056206Y-65757664D01*
X70056202Y-65757671D01*
X70005908Y-65892517D01*
X70001054Y-65937669D01*
X69999501Y-65952123D01*
X69999500Y-65952135D01*
X69999500Y-68047870D01*
X66920500Y-68047870D01*
X66920499Y-65952128D01*
X66914091Y-65892517D01*
X66911734Y-65886198D01*
X66863797Y-65757671D01*
X66863793Y-65757664D01*
X66777547Y-65642455D01*
X66760336Y-65629571D01*
X66720918Y-65600062D01*
X66670188Y-65562085D01*
X66628318Y-65506151D01*
X66620500Y-65462819D01*
X66620500Y-60051005D01*
X66612729Y-60011941D01*
X66601073Y-59953344D01*
X66593580Y-59915672D01*
X66540775Y-59788189D01*
X66464114Y-59673457D01*
X66464112Y-59673454D01*
X65386818Y-58596160D01*
X65353333Y-58534837D01*
X65350499Y-58508479D01*
X65350499Y-57452129D01*
X65350498Y-57452121D01*
X65348954Y-57437752D01*
X65361361Y-57368993D01*
X65408973Y-57317857D01*
X65472244Y-57300500D01*
X67628996Y-57300500D01*
X67737854Y-57278846D01*
X67764328Y-57273580D01*
X67839478Y-57242452D01*
X67891807Y-57220777D01*
X67891808Y-57220776D01*
X67891811Y-57220775D01*
X68006543Y-57144114D01*
X68953838Y-56196817D01*
X69015161Y-56163333D01*
X69041519Y-56160499D01*
X70047871Y-56160499D01*
X70047872Y-56160499D01*
X70107483Y-56154091D01*
X70242331Y-56103796D01*
X70357546Y-56017546D01*
X70443796Y-55902331D01*
X70494091Y-55767483D01*
X70500500Y-55707873D01*
X70500499Y-54824499D01*
X70520183Y-54757461D01*
X70572987Y-54711706D01*
X70624499Y-54700500D01*
X73658481Y-54700500D01*
X73725520Y-54720185D01*
X73746162Y-54736819D01*
X75763181Y-56753838D01*
X75796666Y-56815161D01*
X75799500Y-56841519D01*
X75799500Y-67431006D01*
X75799500Y-67568994D01*
X75799500Y-67568996D01*
X75799499Y-67568996D01*
X75826418Y-67704322D01*
X75826421Y-67704332D01*
X75879222Y-67831807D01*
X75955887Y-67946545D01*
X75955888Y-67946546D01*
X85563181Y-77553838D01*
X85596666Y-77615161D01*
X85599500Y-77641519D01*
X85599500Y-78897870D01*
X85599501Y-78897876D01*
X85605908Y-78957483D01*
X85656202Y-79092328D01*
X85656206Y-79092335D01*
X85742452Y-79207544D01*
X85742455Y-79207547D01*
X85857664Y-79293793D01*
X85857671Y-79293797D01*
X85992517Y-79344091D01*
X85992516Y-79344091D01*
X85999444Y-79344835D01*
X86052127Y-79350500D01*
X87547872Y-79350499D01*
X87607483Y-79344091D01*
X87742331Y-79293796D01*
X87857546Y-79207546D01*
X87943796Y-79092331D01*
X87994091Y-78957483D01*
X88000500Y-78897873D01*
X88000499Y-77102128D01*
X87994091Y-77042517D01*
X87943796Y-76907669D01*
X87943795Y-76907668D01*
X87943793Y-76907664D01*
X87857547Y-76792455D01*
X87857544Y-76792452D01*
X87742335Y-76706206D01*
X87742328Y-76706202D01*
X87607482Y-76655908D01*
X87607483Y-76655908D01*
X87547883Y-76649501D01*
X87547881Y-76649500D01*
X87547873Y-76649500D01*
X87547865Y-76649500D01*
X86691519Y-76649500D01*
X86624480Y-76629815D01*
X86603838Y-76613181D01*
X77236819Y-67246162D01*
X77203334Y-67184839D01*
X77200500Y-67158481D01*
X77200500Y-56431006D01*
X77193471Y-56395673D01*
X77193471Y-56395670D01*
X77173581Y-56295679D01*
X77173580Y-56295672D01*
X77173578Y-56295667D01*
X77120777Y-56168192D01*
X77044112Y-56053454D01*
X74446546Y-53455888D01*
X74446541Y-53455884D01*
X74434147Y-53447603D01*
X74389341Y-53393992D01*
X74380632Y-53324667D01*
X74410786Y-53261639D01*
X74470228Y-53224919D01*
X74503036Y-53220500D01*
X75227649Y-53220500D01*
X75294688Y-53240185D01*
X75340443Y-53292989D01*
X75350939Y-53331248D01*
X75355908Y-53377483D01*
X75406202Y-53512328D01*
X75406206Y-53512335D01*
X75492452Y-53627544D01*
X75492455Y-53627547D01*
X75607664Y-53713793D01*
X75607671Y-53713797D01*
X75742517Y-53764091D01*
X75742516Y-53764091D01*
X75749444Y-53764835D01*
X75802127Y-53770500D01*
X77897872Y-53770499D01*
X77957483Y-53764091D01*
X78092331Y-53713796D01*
X78207546Y-53627546D01*
X78293796Y-53512331D01*
X78344091Y-53377483D01*
X78350500Y-53317873D01*
X78350499Y-52640515D01*
X78370183Y-52573478D01*
X78422987Y-52527723D01*
X78492146Y-52517779D01*
X78555702Y-52546804D01*
X78562180Y-52552836D01*
X79563181Y-53553837D01*
X79596666Y-53615160D01*
X79599500Y-53641518D01*
X79599500Y-65533023D01*
X79579815Y-65600062D01*
X79527011Y-65645817D01*
X79499865Y-65653266D01*
X79500068Y-65654124D01*
X79492520Y-65655907D01*
X79357671Y-65706202D01*
X79357664Y-65706206D01*
X79242455Y-65792452D01*
X79242452Y-65792455D01*
X79156206Y-65907664D01*
X79156202Y-65907671D01*
X79105908Y-66042517D01*
X79099501Y-66102116D01*
X79099501Y-66102123D01*
X79099500Y-66102135D01*
X79099500Y-67897870D01*
X79099501Y-67897876D01*
X79105908Y-67957483D01*
X79156202Y-68092328D01*
X79156206Y-68092335D01*
X79242452Y-68207544D01*
X79242455Y-68207547D01*
X79357664Y-68293793D01*
X79357671Y-68293797D01*
X79492517Y-68344091D01*
X79492516Y-68344091D01*
X79499444Y-68344835D01*
X79552127Y-68350500D01*
X81047872Y-68350499D01*
X81107483Y-68344091D01*
X81242331Y-68293796D01*
X81357546Y-68207546D01*
X81443796Y-68092331D01*
X81494091Y-67957483D01*
X81500500Y-67897873D01*
X81500500Y-67897870D01*
X82499500Y-67897870D01*
X82499501Y-67897876D01*
X82505908Y-67957483D01*
X82556202Y-68092328D01*
X82556206Y-68092335D01*
X82642452Y-68207544D01*
X82642455Y-68207547D01*
X82757664Y-68293793D01*
X82757671Y-68293797D01*
X82892517Y-68344091D01*
X82892516Y-68344091D01*
X82899444Y-68344835D01*
X82952127Y-68350500D01*
X84447872Y-68350499D01*
X84507483Y-68344091D01*
X84642331Y-68293796D01*
X84757546Y-68207546D01*
X84843796Y-68092331D01*
X84894091Y-67957483D01*
X84900500Y-67897873D01*
X84900500Y-67824500D01*
X84920185Y-67757461D01*
X84972989Y-67711706D01*
X85024500Y-67700500D01*
X92337680Y-67700500D01*
X92404719Y-67720185D01*
X92436948Y-67750191D01*
X92442454Y-67757546D01*
X92442457Y-67757548D01*
X92557664Y-67843793D01*
X92557671Y-67843797D01*
X92692517Y-67894091D01*
X92692516Y-67894091D01*
X92699444Y-67894835D01*
X92752127Y-67900500D01*
X93847872Y-67900499D01*
X93907483Y-67894091D01*
X94042331Y-67843796D01*
X94157546Y-67757546D01*
X94243796Y-67642331D01*
X94294091Y-67507483D01*
X94300500Y-67447873D01*
X94300499Y-66652128D01*
X94294091Y-66592517D01*
X94243796Y-66457669D01*
X94243795Y-66457668D01*
X94243793Y-66457664D01*
X94157547Y-66342455D01*
X94157544Y-66342452D01*
X94042335Y-66256206D01*
X94042328Y-66256202D01*
X93907482Y-66205908D01*
X93907483Y-66205908D01*
X93847883Y-66199501D01*
X93847881Y-66199500D01*
X93847873Y-66199500D01*
X93847864Y-66199500D01*
X92752129Y-66199500D01*
X92752123Y-66199501D01*
X92692516Y-66205908D01*
X92557671Y-66256202D01*
X92557668Y-66256204D01*
X92532872Y-66274767D01*
X92467408Y-66299184D01*
X92458561Y-66299500D01*
X85024499Y-66299500D01*
X84957460Y-66279815D01*
X84911705Y-66227011D01*
X84900499Y-66175500D01*
X84900499Y-66102129D01*
X84900498Y-66102123D01*
X84900497Y-66102116D01*
X84894091Y-66042517D01*
X84860378Y-65952129D01*
X84843797Y-65907671D01*
X84843793Y-65907664D01*
X84757547Y-65792455D01*
X84757544Y-65792452D01*
X84642335Y-65706206D01*
X84642328Y-65706202D01*
X84507482Y-65655908D01*
X84507483Y-65655908D01*
X84447883Y-65649501D01*
X84447881Y-65649500D01*
X84447873Y-65649500D01*
X84447864Y-65649500D01*
X82952129Y-65649500D01*
X82952123Y-65649501D01*
X82892516Y-65655908D01*
X82757671Y-65706202D01*
X82757664Y-65706206D01*
X82642455Y-65792452D01*
X82642452Y-65792455D01*
X82556206Y-65907664D01*
X82556202Y-65907671D01*
X82505908Y-66042517D01*
X82499501Y-66102116D01*
X82499501Y-66102123D01*
X82499500Y-66102135D01*
X82499500Y-67897870D01*
X81500500Y-67897870D01*
X81500499Y-66102128D01*
X81494091Y-66042517D01*
X81460378Y-65952129D01*
X81443797Y-65907671D01*
X81443793Y-65907664D01*
X81357547Y-65792455D01*
X81357544Y-65792452D01*
X81242335Y-65706206D01*
X81242328Y-65706202D01*
X81107482Y-65655908D01*
X81099938Y-65654126D01*
X81100474Y-65651853D01*
X81046688Y-65629571D01*
X81006843Y-65572177D01*
X81000500Y-65533024D01*
X81000500Y-53231004D01*
X80973581Y-53095676D01*
X80973580Y-53095674D01*
X80973580Y-53095672D01*
X80961514Y-53066543D01*
X80934691Y-53001785D01*
X80920775Y-52968189D01*
X80920771Y-52968182D01*
X80844115Y-52853459D01*
X80844114Y-52853458D01*
X80746542Y-52755886D01*
X80091154Y-52100498D01*
X79432837Y-51442180D01*
X79399352Y-51380857D01*
X79404336Y-51311165D01*
X79446208Y-51255232D01*
X79511672Y-51230815D01*
X79520518Y-51230499D01*
X81197871Y-51230499D01*
X81197872Y-51230499D01*
X81257483Y-51224091D01*
X81392331Y-51173796D01*
X81507546Y-51087546D01*
X81593796Y-50972331D01*
X81644091Y-50837483D01*
X81650500Y-50777873D01*
X81650499Y-49682128D01*
X81644091Y-49622517D01*
X81610378Y-49532129D01*
X81593797Y-49487671D01*
X81593793Y-49487664D01*
X81507547Y-49372455D01*
X81507544Y-49372452D01*
X81392335Y-49286206D01*
X81392328Y-49286202D01*
X81257482Y-49235908D01*
X81257483Y-49235908D01*
X81197883Y-49229501D01*
X81197881Y-49229500D01*
X81197873Y-49229500D01*
X81197864Y-49229500D01*
X79102129Y-49229500D01*
X79102123Y-49229501D01*
X79042516Y-49235908D01*
X78907671Y-49286202D01*
X78907668Y-49286204D01*
X78816080Y-49354767D01*
X78750615Y-49379184D01*
X78741769Y-49379500D01*
X71811940Y-49379500D01*
X71744901Y-49359815D01*
X71699146Y-49307011D01*
X71689202Y-49237853D01*
X71718227Y-49174297D01*
X71724259Y-49167819D01*
X72315259Y-48576818D01*
X72376582Y-48543333D01*
X72402940Y-48540499D01*
X73347871Y-48540499D01*
X73347872Y-48540499D01*
X73407483Y-48534091D01*
X73542331Y-48483796D01*
X73657546Y-48397546D01*
X73743796Y-48282331D01*
X73794091Y-48147483D01*
X73800500Y-48087873D01*
X73800499Y-46992128D01*
X73794091Y-46932517D01*
X73781173Y-46897883D01*
X73743797Y-46797671D01*
X73743793Y-46797664D01*
X73657547Y-46682455D01*
X73657544Y-46682452D01*
X73542335Y-46596206D01*
X73542328Y-46596202D01*
X73407482Y-46545908D01*
X73407483Y-46545908D01*
X73347883Y-46539501D01*
X73347881Y-46539500D01*
X73347873Y-46539500D01*
X73347864Y-46539500D01*
X71252129Y-46539500D01*
X71252123Y-46539501D01*
X71192516Y-46545908D01*
X71057671Y-46596202D01*
X71057664Y-46596206D01*
X70942455Y-46682452D01*
X70942452Y-46682455D01*
X70856206Y-46797664D01*
X70856202Y-46797671D01*
X70805908Y-46932517D01*
X70799501Y-46992116D01*
X70799501Y-46992123D01*
X70799500Y-46992135D01*
X70799500Y-47777059D01*
X70779815Y-47844098D01*
X70763181Y-47864740D01*
X70584741Y-48043181D01*
X70523418Y-48076666D01*
X70497060Y-48079500D01*
X68462940Y-48079500D01*
X68395901Y-48059815D01*
X68375259Y-48043181D01*
X67936818Y-47604740D01*
X67903333Y-47543417D01*
X67900499Y-47517059D01*
X67900499Y-46602129D01*
X67900498Y-46602123D01*
X67894091Y-46542516D01*
X67843797Y-46407671D01*
X67843793Y-46407664D01*
X67757547Y-46292455D01*
X67757544Y-46292452D01*
X67642335Y-46206206D01*
X67642328Y-46206202D01*
X67507482Y-46155908D01*
X67507483Y-46155908D01*
X67447883Y-46149501D01*
X67447881Y-46149500D01*
X67447873Y-46149500D01*
X67447864Y-46149500D01*
X65952129Y-46149500D01*
X65952123Y-46149501D01*
X65892514Y-46155909D01*
X65867832Y-46165115D01*
X65798140Y-46170099D01*
X65736818Y-46136613D01*
X65703333Y-46075289D01*
X65700500Y-46048933D01*
X65700500Y-45431004D01*
X65673581Y-45295677D01*
X65673580Y-45295676D01*
X65673580Y-45295672D01*
X65667012Y-45279815D01*
X65620778Y-45168195D01*
X65620770Y-45168180D01*
X65596469Y-45131812D01*
X65596468Y-45131811D01*
X65544112Y-45053454D01*
X64946545Y-44455887D01*
X64831807Y-44379222D01*
X64704332Y-44326421D01*
X64704322Y-44326418D01*
X64568996Y-44299500D01*
X64568994Y-44299500D01*
X64568993Y-44299500D01*
X58597180Y-44299500D01*
X58530141Y-44279815D01*
X58497913Y-44249811D01*
X58417546Y-44142454D01*
X58394709Y-44125358D01*
X58302335Y-44056206D01*
X58302328Y-44056202D01*
X58167482Y-44005908D01*
X58167483Y-44005908D01*
X58107883Y-43999501D01*
X58107881Y-43999500D01*
X58107873Y-43999500D01*
X58107864Y-43999500D01*
X56012129Y-43999500D01*
X56012123Y-43999501D01*
X55952516Y-44005908D01*
X55817671Y-44056202D01*
X55817664Y-44056206D01*
X55702455Y-44142452D01*
X55702452Y-44142455D01*
X55616206Y-44257664D01*
X55616202Y-44257671D01*
X55565908Y-44392517D01*
X55559501Y-44452116D01*
X55559500Y-44452127D01*
X55559500Y-44918097D01*
X55559501Y-45375500D01*
X55539817Y-45442539D01*
X55487013Y-45488294D01*
X55435501Y-45499500D01*
X46981153Y-45499500D01*
X46826510Y-45530260D01*
X46826502Y-45530262D01*
X46680824Y-45590604D01*
X46680814Y-45590609D01*
X46549711Y-45678210D01*
X46549707Y-45678213D01*
X46364739Y-45863181D01*
X46303416Y-45896666D01*
X46277058Y-45899500D01*
X43602129Y-45899500D01*
X43602123Y-45899501D01*
X43542516Y-45905908D01*
X43407671Y-45956202D01*
X43407664Y-45956206D01*
X43292455Y-46042452D01*
X43204015Y-46160591D01*
X43148081Y-46202461D01*
X43128943Y-46207896D01*
X43072677Y-46219089D01*
X43050236Y-46223553D01*
X43050235Y-46223553D01*
X43016509Y-46230261D01*
X43016498Y-46230264D01*
X42870827Y-46290602D01*
X42870815Y-46290609D01*
X42813908Y-46328634D01*
X42778747Y-46352128D01*
X42769052Y-46358605D01*
X42739708Y-46378212D01*
X42739707Y-46378213D01*
X41944933Y-47172989D01*
X41689711Y-47428211D01*
X41633960Y-47483962D01*
X41578209Y-47539712D01*
X41490609Y-47670814D01*
X41490602Y-47670827D01*
X41430264Y-47816498D01*
X41430261Y-47816510D01*
X41399500Y-47971153D01*
X41399500Y-57278846D01*
X39500500Y-57278846D01*
X39500500Y-43547870D01*
X42399500Y-43547870D01*
X42399501Y-43547876D01*
X42405908Y-43607483D01*
X42456202Y-43742328D01*
X42456206Y-43742335D01*
X42542452Y-43857544D01*
X42542455Y-43857547D01*
X42657664Y-43943793D01*
X42657671Y-43943797D01*
X42792517Y-43994091D01*
X42792516Y-43994091D01*
X42799444Y-43994835D01*
X42852127Y-44000500D01*
X46147872Y-44000499D01*
X46207483Y-43994091D01*
X46342331Y-43943796D01*
X46457546Y-43857546D01*
X46543796Y-43742331D01*
X46594091Y-43607483D01*
X46600500Y-43547873D01*
X46600499Y-41652128D01*
X46594091Y-41592517D01*
X46565627Y-41516202D01*
X46543797Y-41457671D01*
X46543793Y-41457664D01*
X46457547Y-41342455D01*
X46457544Y-41342452D01*
X46342335Y-41256206D01*
X46342328Y-41256202D01*
X46207482Y-41205908D01*
X46207483Y-41205908D01*
X46147883Y-41199501D01*
X46147881Y-41199500D01*
X46147873Y-41199500D01*
X46147864Y-41199500D01*
X42852129Y-41199500D01*
X42852123Y-41199501D01*
X42792516Y-41205908D01*
X42657671Y-41256202D01*
X42657664Y-41256206D01*
X42542455Y-41342452D01*
X42542452Y-41342455D01*
X42456206Y-41457664D01*
X42456202Y-41457671D01*
X42405908Y-41592517D01*
X42399501Y-41652116D01*
X42399501Y-41652123D01*
X42399500Y-41652135D01*
X42399500Y-43547870D01*
X39500500Y-43547870D01*
X39500500Y-38324500D01*
X39520185Y-38257461D01*
X39572989Y-38211706D01*
X39624500Y-38200500D01*
X110425500Y-38200500D01*
X110492539Y-38220185D01*
G37*
%TD.AperFunction*%
D28*
X39000000Y-37700000D02*
X111050000Y-37700000D01*
X111050000Y-97500000D01*
X39000000Y-97500000D01*
X39000000Y-37700000D01*
M02*
