# Blender 4.0.2
# www.blender.org
mtllib cable-holder.mtl
o Cube
v 2.000000 2.000000 -8.000000
v 2.000000 -2.000000 -8.000000
v 1.500000 -1.500000 -8.000000
v 2.000000 2.000000 8.000000
v 2.000000 -2.000000 8.000000
v 1.500000 -1.500000 8.000000
v -2.000000 -2.000000 -8.000000
v -2.000000 -2.000000 8.000000
v 1.500000 2.000000 -8.000000
v 1.500000 2.000000 8.000000
v -2.000000 -1.500000 8.000000
v -2.000000 -1.500000 -8.000000
vn -0.0000 1.0000 -0.0000
vn -0.0000 -0.0000 1.0000
vn -1.0000 -0.0000 -0.0000
vn -0.0000 -1.0000 -0.0000
vn 1.0000 -0.0000 -0.0000
vn -0.0000 -0.0000 -1.0000
vt 0.656250 0.750000
vt 0.625000 0.750000
vt 0.625000 0.500000
vt 0.656250 0.500000
vt 0.406250 1.000000
vt 0.375000 1.000000
vt 0.375000 0.750000
vt 0.625000 0.781250
vt 0.406250 0.781250
vt 0.375000 0.250000
vt 0.375000 0.000000
vt 0.406250 0.000000
vt 0.406250 0.250000
vt 0.125000 0.500000
vt 0.375000 0.500000
vt 0.125000 0.750000
vt 0.406250 0.468750
vt 0.625000 0.468750
vt 0.156250 0.500000
vt 0.156250 0.750000
vt 0.593750 0.750000
vt 0.593750 0.500000
s 0
usemtl Material
f 10/1/1 4/2/1 1/3/1 9/4/1
f 11/5/2 8/6/2 5/7/2 4/2/2 10/8/2 6/9/2
f 7/10/3 8/11/3 11/12/3 12/13/3
f 7/14/4 2/15/4 5/7/4 8/16/4
f 2/15/5 1/3/5 4/2/5 5/7/5
f 1/3/6 2/15/6 7/10/6 12/13/6 3/17/6 9/18/6
f 12/19/1 11/20/1 6/7/1 3/15/1
f 3/15/3 6/7/3 10/21/3 9/22/3
o Cube.002
v 2.000000 -0.500000 7.200000
v 2.000000 0.500000 7.200000
v 4.000000 -0.500000 7.200000
v 4.000000 0.500000 7.200000
v 4.000000 -0.500000 5.200000
v 4.000000 0.500000 5.200000
v 3.000000 0.500000 5.200000
v 3.000000 -0.500000 5.200000
v 3.000000 -0.500000 6.200000
v 2.000000 -0.500000 6.200000
v 2.000000 0.500000 6.200000
v 3.000000 0.500000 6.200000
v 3.672154 -0.472154 4.696979
v 3.672154 0.472154 4.696979
v 2.927846 0.472154 4.696979
v 2.927846 -0.472154 4.696979
vn -1.0000 -0.0000 -0.0000
vn -0.0000 0.9985 -0.0553
vn 1.0000 -0.0000 -0.0000
vn -0.0000 -0.0000 1.0000
vn -0.0000 -1.0000 -0.0000
vn -0.0000 1.0000 -0.0000
vn -0.0000 -0.0000 -1.0000
vn -0.0000 -0.9985 -0.0553
vn 0.8378 -0.0000 -0.5460
vn -0.9899 -0.0000 0.1420
vt 0.375000 0.125000
vt 0.375000 0.000000
vt 0.625000 0.000000
vt 0.625000 0.125000
vt 0.750000 0.500000
vt 0.625000 0.500000
vt 0.375000 0.500000
vt 0.625000 0.750000
vt 0.375000 0.750000
vt 0.625000 1.000000
vt 0.375000 1.000000
vt 0.125000 0.750000
vt 0.125000 0.625000
vt 0.250000 0.625000
vt 0.250000 0.500000
vt 0.875000 0.625000
vt 0.875000 0.750000
vt 0.750000 0.625000
vt 0.562500 0.625000
vt 0.437500 0.625000
vt 0.437500 0.750000
vt 0.562500 0.750000
vt 0.562500 1.000000
vt 0.437500 1.000000
vt 0.625000 0.375000
vt 0.375000 0.375000
s 0
f 22/23/7 13/24/7 14/25/7 23/26/7
f 19/27/8 18/28/8 26/28/8 27/27/8
f 17/29/9 18/28/9 16/30/9 15/31/9
f 15/31/10 16/30/10 14/32/10 13/33/10
f 17/29/11 15/31/11 13/34/11 22/35/11 21/36/11 20/37/11
f 23/38/12 14/39/12 16/30/12 18/28/12 19/27/12 24/40/12
f 19/41/7 20/42/7 21/43/7 24/44/7
f 23/45/13 24/44/13 21/43/13 22/46/13
f 27/47/13 26/28/13 25/29/13 28/48/13
f 17/29/14 20/37/14 28/37/14 25/29/14
f 18/28/15 17/29/15 25/29/15 26/28/15
f 20/42/16 19/41/16 27/41/16 28/42/16
o Cube.004
v 2.000000 -0.500000 3.200000
v 2.000000 0.500000 3.200000
v 4.000000 -0.500000 3.200000
v 4.000000 0.500000 3.200000
v 4.000000 -0.500000 1.200000
v 4.000000 0.500000 1.200000
v 3.000000 0.500000 1.200000
v 3.000000 -0.500000 1.200000
v 3.000000 -0.500000 2.200000
v 2.000000 -0.500000 2.200000
v 2.000000 0.500000 2.200000
v 3.000000 0.500000 2.200000
v 3.672154 -0.472154 0.696978
v 3.672154 0.472154 0.696978
v 2.927846 0.472154 0.696978
v 2.927846 -0.472154 0.696978
vn -1.0000 -0.0000 -0.0000
vn -0.0000 0.9985 -0.0553
vn 1.0000 -0.0000 -0.0000
vn -0.0000 -0.0000 1.0000
vn -0.0000 -1.0000 -0.0000
vn -0.0000 1.0000 -0.0000
vn -0.0000 -0.0000 -1.0000
vn -0.0000 -0.9985 -0.0553
vn 0.8378 -0.0000 -0.5460
vn -0.9899 -0.0000 0.1420
vt 0.375000 0.125000
vt 0.375000 0.000000
vt 0.625000 0.000000
vt 0.625000 0.125000
vt 0.750000 0.500000
vt 0.625000 0.500000
vt 0.375000 0.500000
vt 0.625000 0.750000
vt 0.375000 0.750000
vt 0.625000 1.000000
vt 0.375000 1.000000
vt 0.125000 0.750000
vt 0.125000 0.625000
vt 0.250000 0.625000
vt 0.250000 0.500000
vt 0.875000 0.625000
vt 0.875000 0.750000
vt 0.750000 0.625000
vt 0.562500 0.625000
vt 0.437500 0.625000
vt 0.437500 0.750000
vt 0.562500 0.750000
vt 0.562500 1.000000
vt 0.437500 1.000000
vt 0.625000 0.375000
vt 0.375000 0.375000
s 0
f 38/49/17 29/50/17 30/51/17 39/52/17
f 35/53/18 34/54/18 42/54/18 43/53/18
f 33/55/19 34/54/19 32/56/19 31/57/19
f 31/57/20 32/56/20 30/58/20 29/59/20
f 33/55/21 31/57/21 29/60/21 38/61/21 37/62/21 36/63/21
f 39/64/22 30/65/22 32/56/22 34/54/22 35/53/22 40/66/22
f 35/67/17 36/68/17 37/69/17 40/70/17
f 39/71/23 40/70/23 37/69/23 38/72/23
f 43/73/23 42/54/23 41/55/23 44/74/23
f 33/55/24 36/63/24 44/63/24 41/55/24
f 34/54/25 33/55/25 41/55/25 42/54/25
f 36/68/26 35/67/26 43/67/26 44/68/26
o Cube.005
v 2.000000 -0.500000 -0.800000
v 2.000000 0.500000 -0.800000
v 4.000000 -0.500000 -0.800000
v 4.000000 0.500000 -0.800000
v 4.000000 -0.500000 -2.800000
v 4.000000 0.500000 -2.800000
v 3.000000 0.500000 -2.800000
v 3.000000 -0.500000 -2.800000
v 3.000000 -0.500000 -1.800000
v 2.000000 -0.500000 -1.800000
v 2.000000 0.500000 -1.800000
v 3.000000 0.500000 -1.800000
v 3.672154 -0.472154 -3.303022
v 3.672154 0.472154 -3.303022
v 2.927846 0.472154 -3.303022
v 2.927846 -0.472154 -3.303022
vn -1.0000 -0.0000 -0.0000
vn -0.0000 0.9985 -0.0553
vn 1.0000 -0.0000 -0.0000
vn -0.0000 -0.0000 1.0000
vn -0.0000 -1.0000 -0.0000
vn -0.0000 1.0000 -0.0000
vn -0.0000 -0.0000 -1.0000
vn -0.0000 -0.9985 -0.0553
vn 0.8378 -0.0000 -0.5460
vn -0.9899 -0.0000 0.1420
vt 0.375000 0.125000
vt 0.375000 0.000000
vt 0.625000 0.000000
vt 0.625000 0.125000
vt 0.750000 0.500000
vt 0.625000 0.500000
vt 0.375000 0.500000
vt 0.625000 0.750000
vt 0.375000 0.750000
vt 0.625000 1.000000
vt 0.375000 1.000000
vt 0.125000 0.750000
vt 0.125000 0.625000
vt 0.250000 0.625000
vt 0.250000 0.500000
vt 0.875000 0.625000
vt 0.875000 0.750000
vt 0.750000 0.625000
vt 0.562500 0.625000
vt 0.437500 0.625000
vt 0.437500 0.750000
vt 0.562500 0.750000
vt 0.562500 1.000000
vt 0.437500 1.000000
vt 0.625000 0.375000
vt 0.375000 0.375000
s 0
f 54/75/27 45/76/27 46/77/27 55/78/27
f 51/79/28 50/80/28 58/80/28 59/79/28
f 49/81/29 50/80/29 48/82/29 47/83/29
f 47/83/30 48/82/30 46/84/30 45/85/30
f 49/81/31 47/83/31 45/86/31 54/87/31 53/88/31 52/89/31
f 55/90/32 46/91/32 48/82/32 50/80/32 51/79/32 56/92/32
f 51/93/27 52/94/27 53/95/27 56/96/27
f 55/97/33 56/96/33 53/95/33 54/98/33
f 59/99/33 58/80/33 57/81/33 60/100/33
f 49/81/34 52/89/34 60/89/34 57/81/34
f 50/80/35 49/81/35 57/81/35 58/80/35
f 52/94/36 51/93/36 59/93/36 60/94/36
o Cube.006
v 2.000000 -0.500000 -4.800000
v 2.000000 0.500000 -4.800000
v 4.000000 -0.500000 -4.800000
v 4.000000 0.500000 -4.800000
v 4.000000 -0.500000 -6.800000
v 4.000000 0.500000 -6.800000
v 3.000000 0.500000 -6.800000
v 3.000000 -0.500000 -6.800000
v 3.000000 -0.500000 -5.800000
v 2.000000 -0.500000 -5.800000
v 2.000000 0.500000 -5.800000
v 3.000000 0.500000 -5.800000
v 3.672154 -0.472154 -7.303021
v 3.672154 0.472154 -7.303021
v 2.927846 0.472154 -7.303021
v 2.927846 -0.472154 -7.303021
vn -1.0000 -0.0000 -0.0000
vn -0.0000 0.9985 -0.0553
vn 1.0000 -0.0000 -0.0000
vn -0.0000 -0.0000 1.0000
vn -0.0000 -1.0000 -0.0000
vn -0.0000 1.0000 -0.0000
vn -0.0000 -0.0000 -1.0000
vn -0.0000 -0.9985 -0.0553
vn 0.8378 -0.0000 -0.5460
vn -0.9899 -0.0000 0.1420
vt 0.375000 0.125000
vt 0.375000 0.000000
vt 0.625000 0.000000
vt 0.625000 0.125000
vt 0.750000 0.500000
vt 0.625000 0.500000
vt 0.375000 0.500000
vt 0.625000 0.750000
vt 0.375000 0.750000
vt 0.625000 1.000000
vt 0.375000 1.000000
vt 0.125000 0.750000
vt 0.125000 0.625000
vt 0.250000 0.625000
vt 0.250000 0.500000
vt 0.875000 0.625000
vt 0.875000 0.750000
vt 0.750000 0.625000
vt 0.562500 0.625000
vt 0.437500 0.625000
vt 0.437500 0.750000
vt 0.562500 0.750000
vt 0.562500 1.000000
vt 0.437500 1.000000
vt 0.625000 0.375000
vt 0.375000 0.375000
s 0
f 70/101/37 61/102/37 62/103/37 71/104/37
f 67/105/38 66/106/38 74/106/38 75/105/38
f 65/107/39 66/106/39 64/108/39 63/109/39
f 63/109/40 64/108/40 62/110/40 61/111/40
f 65/107/41 63/109/41 61/112/41 70/113/41 69/114/41 68/115/41
f 71/116/42 62/117/42 64/108/42 66/106/42 67/105/42 72/118/42
f 67/119/37 68/120/37 69/121/37 72/122/37
f 71/123/43 72/122/43 69/121/43 70/124/43
f 75/125/43 74/106/43 73/107/43 76/126/43
f 65/107/44 68/115/44 76/115/44 73/107/44
f 66/106/45 65/107/45 73/107/45 74/106/45
f 68/120/46 67/119/46 75/119/46 76/120/46
